<?xml version="1.0" encoding="UTF-8"?>
<svg id="b" data-name="Livello 2" xmlns="http://www.w3.org/2000/svg" width="41.256mm" height="43.947mm" viewBox="0 0 116.945 124.575">
  <g id="c" data-name="Livello 1">
    <g id="d" data-name="h4cz19">
      <g>
        <path d="M38.66,5.566c1.636,1.899,1.737,3.431,2.441,5.682.321,1.027,1.079,2.581,1.226,3.533.076.494-.093,1.715.199,1.934,5.46,1.157,11.806,3.417,15.337,7.966.332.428,3.021,5.126,3.702,4.419-.325-1.917-.351-3.94-1.032-5.776l-1.263-2.264c2.238,1.531,3.357,4.301,4.625,6.615,2.09,3.816,4.307,7.366,2.557,11.974-.422,1.11-2.537,3.484-2.587,3.983-.126,1.261,2.235,3.746,2.041,5.842-.055.597-.806,1.98-.71,2.322.134.474,2.016.972,2.553,1.236,1.775.871,3.85,1.985,4.626,3.907.496,1.228.207,2.546.022,3.834.348,0,.7.026,1.049-.017,3.893-.471,11.208-6.113,14.133-8.837,4.656-4.335,7.441-9.472,13.829-11.611,11.113-3.722,16.193,1.848,15.468,12.842-.124,1.887-.479,3.988-1.078,5.815-.358,1.091-1.033,2.287-1.382,3.378-1.277,3.999-.876,4.881-3.864,8.279-3.045,3.463-11.095,7.401-15.514,8.938-5.066,1.762-7.726,1.864-13.041,2.057-.679.025-2.219.391-2.769.335-.121-.012-.115-.278-.216-.337-.654-.379-4.805-.263-5.875-.33-.531-.033-1.173-.336-1.654-.334-.668.003-.655.68-.989,1.143-.417.578-1.721,1.731-1.557,2.382,2.57.921,3.377,3.618,3.765,6.106.198,1.269.406,3.144-.266,4.287-.267.453-.721.249-.528,1.099,2.286,3.437,4.44,6.527,4.59,10.84.131,3.776-2.11,3.459-4.419,5.096-.679.481-1.184,1.383-1.758,1.852-.557.455-3.335,1.679-3.46,1.873-.122.189-.24,1.091-.409,1.479-1.316,3.037-7.181,6.154-10.377,6.361-1.226.08-2.994-.149-4.2-.408-.752-.162-2.06-.799-2.699-.761-.531.032-1.203.787-1.742,1.062-4.5,2.303-12.618,1.063-16.864-1.48-.843-.505-1.2-1.342-2.526-1.739-.529-.159-.957-.078-1.442-.199-1.474-.366-2.789-1.739-4.105-2.458-2.529-1.382-5.28-2.803-7.592-4.552-.621-.469-1.185-.834-1.59-1.528-2.092-3.585-3.606-5.837-4.646-10.123-.167-.689-.125-1.662-.346-2.28-.313-.875-1.993-3.07-2.579-4.149-2.682-4.939-4.058-9.925-4.868-15.481-2.578-17.693.266-41.823,12.193-55.861.181-.213.529-.266.636-.521.645-1.54-.374-5.197.471-7.394,1.757-4.566,4.307-7.985,7.754-11.446.854-.857,2.198-1.015,1.492-2.464-.303-.622-1.608-1.301-.301-1.596,2.535-.57,7.009,1.695,9.479,2.593,2.489.905,4.233.76,6.061,2.883ZM12.499,88.671c.137-.228.495-.796.824-.58.359.47.664.984,1.008,1.463.517.72,1.077,1.766,1.776,2.319.154.122.209.322.471.216.025-.01.353-.384.355-.411.017-.201-.156-.435-.137-.627.154-1.509.477-1.939.867-3.205.411-1.331.769-2.682,1.216-4.003.343-.214.923-.189,1.142.176.2.332.454,1.832.68,2.438.229.611,1.73,3.581,2.253,3.687.669.136,1.048-.327,1.166-.942.058-.303-.089-.634-.052-.776.108-.408.501-.957.563-1.324.507-3.01.015-2.788,1.788-5.425.193-.287.691-1.321.95-1.361l.729.422c-.285,1.772-.885,3.646.409,5.134,1.299,1.493,4.008,3.509,5.943,3.903,2.623.535,6.245-.624,8.577-1.835.659-.342,3.127-1.717,3.068-2.471-.889-.9-2.786-.21-3.971-.241-1.673-.044-4.866-1.114-6.198-2.145-.98-.759-1.746-2.374-2.08-3.539-.288-1.005.093-4.307.422-5.326.399-1.237.723-2.283,2.107-1.138,1.437,1.189-.929,5.042.503,6.39.369.348,1.76.694,2.322.787,2.912.48,9.686-.502,11.172-3.351.513-.984.458-2.227,1.26-2.966.624-.088,1.012,2.294,1.119,2.786.037.171.235.332.273.55.156.888-.577,1.703.906,1.881,2.863.343,7.07-.372,10.015-.658,6.487-.63,12.922-1.494,19.311-2.843,7.575-1.599,15.589-3.979,21.944-8.579,3.473-2.514,5.245-6.711,6.496-10.735,1.008-3.243,1.398-7.226.333-10.506-.389-1.197-2.344-1.927-3.47-2.109-2.048-.331-5.048-.9-7.039-1.002-2.234-.114-2.402,1.159-3.451,2.619-.168.234-.482.285-.541.369-.123.172.163,1.777.078,2.151-.313,1.381-3.155,3.014-4.132,4.206-3.581,4.37-7.008,7.121-12.079,9.747-6.004,3.109-15.126,6.564-21.327,2.669-.709-.446-1.402-.346-1.622-1.577,3.696-.234,8.018.753,11.296-1.258.088-.826.061-1.591-.192-2.381-.473-1.477-3.332-3.878-4.65-4.704-.292-.183-.639-.331-.959-.461-.489.002-1.966,2.368-2.563,2.95-.433.422-3.657,2.527-1.631,2.828.357.053,2.357.107,2.723.081,1.255-.087,2.28-.716,3.522-.665-.543,1.545-2.736,2.246-4.23,2.415-3.288.372-7.717-.899-10.172-2.791-.999-.77-2.479-2.719-2.653-3.984-.123-.888.488-2.179-.097-2.857-.379-.44-1.406-.448-1.929-.697-1.662-.79-3.939-4.337-4.531-6.005-.292-.824-.803-2.811-.896-3.672-.049-.455.112-.982.484-1.272.42.387,1.432.213,1.674.351.077.044.122.355.268.462,1.67,1.209,2.016,2.292,3.115,3.871.138.198,1.017,1.073,1.242.885.261-1.84.75-3.649.902-5.502.225-2.735.222-6.526-.162-9.196-.101-.702-1.005-3.289-.573-3.681,1.032.314,1.661,1.015,2.363,1.746.07.073.302.032.372.103.141.141.245.725.399.969,1.587,2.519,2.163,4.936,2.266,7.943-.607.185-.035,1.349.004,1.815.044.523-.172,1.14.012,1.7.235.03.428.011.648-.088.761-.343,4.954-3.795,5.511-4.499.265-.335,1.208-2.054,1.226-2.402.027-.504-.949-1.906-1.471-2.124-.711-.296-1.29.05-1.665-.153-.099-.054-.692-1.799-.855-2.093-.437-.787-2.275-3.292-2.983-3.74-.509-.322-2.591-.999-3.259-1.171-2.532-.652-4.955-1.128-7.413-.144-.64.256-1.356,1.244-1.843.204-.185-.395.037-1.929.162-2.376.155-.555,1.35-2.531,1.254-2.831-.589-.361-1.043-.734-1.709-.245-.776,2.053-1.874,4.131-2.969,6.051-.341.597-.963,1.214-1.279,1.839-.153.304-.072.704-.274,1.038-.69,1.138-3.526.882-4.667.912-4.61.125-9.088.07-13.457-1.463-.408-.143-1.122-.316-1.552-.172-.017-.58-1.331-1.207-1.802-.574l.627.436-.14.3c.253.171,1.25.144,1.314.166.687.239,2.074,1.079,2.75,1.47.733.424,1.889.729,1.775,1.814-.208.349-2.015.596-2.508.785-1.58.605-3.366,2.574-4.728,3.641-2.372,1.858-5.126,3.572-6.961,6.042-.397.534-.802,1.033-.825,1.746.66,1.246.936,3.162,1.566,4.347.457.858,1.372,1.722,2.146,2.205.339.212.528.865,1.356.583.356-.791-.176-1.528-.302-2.205-.273-1.471-.723-3.113-.924-4.592-.094-.693.204-2.999,1.328-2.489.097.044.378,1.051.397,1.186.082.579-.048,1.448.013,1.943.016.125.272.098.285.178.389,2.335.63,3.614,2.391,5.362.1.099.072.35.22.478.368.319,1.727.65,2.221.824.125.044.122.261.255.3,1.577.466,3.751.217,5.325-.197.345-.091,2.655-.834,2.739-.952.46-.653-1.117-1.166-1.16-1.766l-.294.136c-1.159-1.866-2.73-3.071-3.601-5.175-.371-.896-1.285-3.583-1.333-4.427-.021-.38.247-2.129.737-2.173.671-.061.524.926.653,1.284,1.493,4.161,8.033,7.947,12.317,8.194,2.641.152,2.4-.428,2.201-2.692-.069-.787-.756-1.699.896-1.225,2.873.824,4.113,4.591,3.632,7.284-.291,1.631-.745,1.565-1.144,2.551-.136.337-.058.685-.161.988-.277.812-.765,1.303-1.548,1.652l-.029.215c.48,1.007,1.404,1.642,2.012,2.598,1.137,1.786,1.564,2.957,1.19,5.134-.786,4.577-6.418,7.444-9.599,10.327-2.225,2.017-3.856,4.567-6.155,6.482-.289.039-.248.008-.249-.247-.003-1.06,2.019-3.851,2.725-4.827.743-1.03,2.083-2.083,2.204-3.292-.478-.469-4.909,2.503-5.799,2.819-.191.068-.446.114-.433-.112.01-.18,2.288-2.181,2.636-2.448,1.423-1.091,3.317-2.212,4.859-3.182.386-.243,1.979-1.003,2.139-1.213.023-.03-.036-.484.044-.622-3.044.659-5.862,2.187-8.989,2.58-1.12.141-2.113.203-3.245.215-2.853.029-4.427-.977-7.022,1.168-1.958,1.618-1.366,2.857-1.993,4.899-.143.465-.637,1.697-.868,2.086-.659,1.112-1.876,1.157-2.66.127-.895-1.177-.832-2.25-.338-3.618.838-2.321,3.796-4.933,5.97-6.01,1.106-.548,4.3-1.223.995-2.086-2.024-.528-3.443-.518-4.822,1.212-.72.903-1.11,2.667-2.39,2.866-1.965.305-2.29-2.3-1.328-3.548.161-.209,1.783-1.433,2.087-1.605.739-.419,2.713-1.077,3.518-1.077h2.38c.207-.461-.01-.714-.41-.986-.653-.443-1.696-.831-2.388-1.221-1.041-.586-1.09-1.388-.05-2.036,1.682-1.048,2.162-.062,3.588.629,1.091-2.478-.004-1.934-1.486-2.614-1.092-.501-3.455-1.953-4.178-2.88-.492-.631-1.384-2.909-1.8-3.786-.132-.277-.439-.422-.458-.479-.31-.929-.271-2.678-.732-3.575-.087-.17-.182-.336-.37-.411l-.386.161c-.415,1.833-.48,3.725-.727,5.588-.477,3.6-.465,4.919-.346,8.549.099,3.01-.096,6.091.062,9.05.052.965.156,2.051.016,2.968l.309.071c.077.279-.324.074-.335.253-.022.351.279,1.791.337,2.371-.332.98-.238,2.29.121,3.246.121.322-.107.515.371.2.268,1.772.488,2.976.899,4.511.884,3.299,2.3,6.66,3.039,9.766-.081.704-.129,2.057.003,2.675.011.049.61.54.653.771.807,2.54,2.727,2.383,3.65,3.982,1.067,1.849,1.733,4.395,2.867,6.313,1.508,2.549,7.215,5.78,9.923,7.28,4.844,2.684,13.367,7.034,19.137,5.448.848-.233,1.767-.937,2.573-1.037,1.793-.223,4.062.431,5.891.311,3.217-.211,8.065-3.895,8.852-7.067.11-.445.024-2.425-.062-2.83-.09-.425-.488-.812-.6-1.204-.232-.813-.32-1.793-.635-2.679-.186-.524-1.332-1.9-.46-2.267.307-.072.837.532,1.04.772,1.405,1.666,3.948,4.98,4.72,6.895.399.989.386,3.182,1.91,2.467,3.121-1.463,4.45-6.596,4.129-9.735-.354-3.472-2.388-6.89-3.36-10.196-.565-1.923-.385-3.929-.707-5.842-.66-3.91-1.88-1.702-3.677-.487-1.93,1.304-3.649,2.132-5.955,2.578-3.196.619-4.769,1.033-7.39-1.15-1.435-1.195-2.878-3.227-2.295-5.17.411-.123.387.382.527.457.179.096.494-.03.6.06.29.248.015.392,1.005.906.1.052.104.311.29.379,2.874,1.043,6.662-1.373,8.738-3.195.375-.33,1.915-1.663,1.947-1.997.065-.173-.104-.315-.251-.36-.743-.226-3.742-.034-4.74-.018-.809.013-1.207.144-1.8.169-.43.018-.82-.235-1.296-.175-.135.017-1.617.408-1.701.446-.509.234-.796,1.187-1.112,1.519-.101.106-2.083,1.65-2.206,1.72-.301.169-.597.028-.868.094-.051.012-.407.502-.699.474-.418.583.646,1.039.581,1.547-1.153,2.533-1.694,5.386-4.117,7.066-1.226.85-3.007,1.224-4.42,1.98-1.437.768-2.724,1.843-4.231,2.497-3.25,1.411-9.483,3.393-12.919,3.34-4.595-.07-9.212-3.05-10.087-7.722-.003-1.483-.056-2.964.164-4.431ZM62.215,46.01c-.319-.063-.552.091-.804.249-.919.576-4.256,3.252-4.56,4.137-.158.462-.804,2.869.241,2.376,1.108-.523.546-2.619,2.318-2.147.047.554.505.89.693,1.369.414,1.054.129,2.305.316,3.363.638.474,2.615-3.12,2.797-3.684.733-2.278-.426-3.54-1.001-5.664ZM53.689,51.748c-.763-.256-2.03.246-1.939,1.189.488.815.249,2.177.715,2.906.438.686,2.565,1.441,2.293.666-.128-.365-.805-.945-1.026-1.44-.516-1.153-.441-2.161-.043-3.321ZM32.399,59.342c.293-.325,1.537-.546,1.936-.137.824.844.858,2.824.153,3.783-1.86,2.531-6.365,2.997-7.271-.603-.39-1.551.504-2.237.477-3.171-.032-1.117-2.338-.217-3.135-.234-2.041-.045-2.372-.495-4.704-.122-.881.141-1.53-.336-1.948.841-.762,2.145-.621,7.13,1.978,8.048,1.481.523,2.344-.114,3.739-.36,2.458-.434,4.999-.684,7.424-1.274,1.949-.474,5.702-1.6,5.653-4.111-.016-.831-1.116-4.962-1.984-5.132-1.097.231-2.219.55-3.088,1.29-.211.831-1.77,1.875-1.036,2.735.852.999,1.537-1.254,1.807-1.552Z" fill="#000100"/>
        <path d="M66.161,89.985l-.653,6.119c-.065.282-2.41,1.417-2.828,1.477-1.318.19-3.106-.363-4.465-.377-.887-.009-2.268.043-3.13.165-2.593.367-5.41,2.279-7.841,2.226-.46-.01-1.088-.276-1.479-.224s-.914.538-1.285.687c-2.25.903-4.748,2.135-6.623,3.716-1.279,1.078-1.626,2.15-3.639,2.283-1.242.082-2.588-.407-3.734-.828l-2.65-2.757.368-.64c3.926-.54,7.605-2.07,11.365-3.239,6.679-2.078,13.266-4.331,20.15-5.779.891-.187,2.047-.129,3.002-.444.679-.223,2.167-1.777,2.859-2.229.201-.132.327-.202.582-.155Z" fill="#000100"/>
        <path d="M18.464,78.288c.402.352.363-.282.502.959.212,1.901-.482,3.133-1.891,4.393-1.456,1.302-4.61,2.634-6.496,1.947-1.251-.456-3.399-1.955-2.503-3.477.163-.118,1.983.704,2.795-.411.171-.235.14-1.497.225-1.813.378-1.419,1.08-2.209,2.139-3.198,1.412-1.319,5.185-4.472,6.86-5.119.608-.235,1.297-.222,1.757.282,0,.3-2.279,1.907-2.63,2.29-.888.967-2.033,3.029-.756,4.148Z" fill="#000100"/>
        <path d="M22.883,106.527c.129.051.259.108.334.236,1.457,2.478,2.993,1.889,5.401,2.304.974.168,1.981.649,2.853.756.986.121,2.096-.049,3.099.017l.079.409c-1.346,1.33-2.566,3.124-4.674,3.168-1.422.029-4.31-.878-5.486-1.699-.285-.199-2.418-2.462-2.637-2.778-.82-1.181-1.272-3.493-.637-4.822,1.832-.325,1.516,1.134,1.668,2.409Z" fill="#000100"/>
        <path d="M59.399,101.343c.081.047.291.602.514.703-2.859,3.753-6.775,7.086-11.714,7.309-1.39.063-4.073-.08-5.127-1.04-.221-.201-.942-1.409-.96-1.68-.018-.266.297-1.237.658-1.23.33.006,2.035,1.192,2.427,1.477.187.136.225.424.457.57.652.412,4.569.466,5.409.171.744-.261,3.995-2.669,4.579-3.298.78-.841,1.19-2.269,2.224-2.863.303-.174,1.266-.275,1.534-.119Z" fill="#000100"/>
        <path d="M41.805,33.299c-.288.398-.522.58-.784,1.104-.442.882-1.667,5.319-2.204,5.508-1.165.41-2.643-.534-3.675-.878-1.359-.453-3.7-1.059-4.815-1.913-.478-.366-.709-.986.147-.884.467.056,1.555.346,2.048.494,1.257.378,2.47,1.084,3.576,1.545.759.316,1.534.733,2.386.683.201-.05.868-2.202,1.049-2.592.272-.584.654-1.343,1-1.959.211-.375,1.459-2.333,1.751-2.348.611-.033-.409,1.143-.479,1.241Z" fill="#000100"/>
        <path d="M35.407,33.272c.417.232.349.23.927.436.169.06.052.323.326.295.162-.016.803-.195.875-.298.242-.342-.226-1.121.4-.994-.109.931-.144,2.375-1.368,2.419l-4.861-2.183-.334-.892c1.649-.223,2.702.473,4.036,1.215Z" fill="#000100"/>
        <path d="M43.258,51.843c.26.381.586,1.289.636,1.346.321.374,1.411.693,1.426,1.51-1.324.551-2.515-2.456-2.956-.327-.042.043-.218-.093-.249-.163-.054-.123-.098-1.952-.084-2.224.022-.416.18-.805.172-1.224.69.18.748.631,1.054,1.08Z" fill="#000100"/>
        <path d="M44.273,56.41c.047.02.079.199.192.247.871.371,1.933.552,2.658,1.245-.242.307-.542.367-.906.414-.969.126-1.141-.721-2.287-.494-.668.132-.588,1.117-1.398.982-.052-.375.33-.454.45-.779.115-.314.246-1.75.377-1.842.334-.031.619.102.915.228Z" fill="#000100"/>
      </g>
    </g>
  </g>
</svg>