<?xml version="1.0" encoding="UTF-8"?>
<svg id="b" data-name="Livello 2" xmlns="http://www.w3.org/2000/svg" width="45.457mm" height="15.062mm" xmlns:xlink="http://www.w3.org/1999/xlink" viewBox="0 0 128.854 42.696">
  <defs>
    <clipPath id="d">
      <rect width="128.854" height="42.696" fill="none"/>
    </clipPath>
  </defs>
  <g id="c" data-name="Livello 1">
    <g clip-path="url(#d)">
      <path d="M104.878,6.496h17.185V1.831h-17.185v4.665ZM119.907,34.458c-1.634,1.87-3.789,2.805-6.467,2.805s-4.823-.935-6.437-2.805c-1.614-1.87-2.421-4.282-2.421-7.234s.807-5.364,2.421-7.234c1.614-1.87,3.759-2.805,6.437-2.805s4.833.935,6.467,2.805c1.634,1.87,2.451,4.281,2.451,7.234s-.817,5.364-2.451,7.234M105.38,40.777c2.342,1.28,5.029,1.919,8.061,1.919s5.718-.639,8.061-1.919c2.343-1.279,4.153-3.09,5.433-5.433,1.28-2.343,1.92-5.049,1.92-8.12,0-3.032-.64-5.718-1.92-8.061-1.279-2.343-3.09-4.163-5.433-5.463s-5.03-1.949-8.061-1.949-5.718.649-8.061,1.949c-2.343,1.299-4.153,3.12-5.433,5.463-1.28,2.343-1.919,5.029-1.919,8.061,0,3.071.639,5.777,1.919,8.12,1.28,2.343,3.091,4.153,5.433,5.433M73.52,12.106v5.61h16.181l-16.89,20.078v4.547h26.22v-5.61h-17.657l16.89-20.078v-4.547h-24.744ZM64.958,42.342h6.378V12.106h-6.378v30.236ZM70.923,1.092C70.175.364,69.25,0,68.147,0s-2.027.365-2.775,1.093c-.748.728-1.122,1.644-1.122,2.746s.374,2.018,1.122,2.746c.748.728,1.673,1.093,2.775,1.093s2.028-.365,2.775-1.093c.748-.728,1.122-1.644,1.122-2.746s-.374-2.018-1.122-2.746M56.278,23.917h-16.24c.236-2.126,1.112-3.829,2.628-5.108,1.516-1.279,3.317-1.919,5.404-1.919,2.244,0,4.104.62,5.58,1.86,1.476,1.24,2.352,2.962,2.628,5.167M34.989,19.104c-1.24,2.343-1.86,5.069-1.86,8.179,0,3.071.64,5.767,1.92,8.09,1.279,2.323,3.09,4.124,5.433,5.403,2.343,1.28,5.089,1.919,8.238,1.919,3.622,0,6.644-.984,9.065-2.953,2.421-1.968,3.907-4.488,4.459-7.559h-6.378c-.433,1.693-1.319,3.002-2.657,3.927-1.339.925-2.992,1.388-4.96,1.388-2.48,0-4.469-.768-5.964-2.303-1.496-1.536-2.323-3.622-2.48-6.26v-.354h22.795c.118-.827.177-1.634.177-2.421-.039-2.913-.699-5.453-1.978-7.618-1.28-2.165-3.032-3.839-5.256-5.02-2.224-1.181-4.793-1.772-7.706-1.772-2.874,0-5.423.639-7.648,1.919-2.224,1.279-3.956,3.091-5.197,5.433M6.673,28.877L0,28.759c.039,2.717.758,5.128,2.156,7.234,1.397,2.106,3.337,3.75,5.817,4.931,2.48,1.181,5.354,1.772,8.622,1.772,2.953,0,5.59-.541,7.913-1.624,2.323-1.083,4.134-2.588,5.433-4.518s1.949-4.114,1.949-6.555c0-2.52-.61-4.547-1.83-6.083-1.221-1.536-2.795-2.697-4.724-3.484-1.929-.787-4.232-1.417-6.909-1.89-2.638-.473-4.665-.906-6.083-1.299-1.417-.394-2.549-.984-3.395-1.772-.846-.787-1.27-1.85-1.27-3.189,0-1.89.719-3.356,2.156-4.399,1.437-1.043,3.356-1.565,5.758-1.565,2.48,0,4.527.65,6.141,1.949,1.614,1.299,2.54,3.011,2.775,5.137h6.673c-.118-2.48-.846-4.685-2.185-6.614-1.339-1.929-3.169-3.445-5.492-4.547-2.323-1.102-4.96-1.653-7.913-1.653-2.874,0-5.423.512-7.648,1.535-2.224,1.024-3.957,2.461-5.197,4.311-1.24,1.85-1.86,3.956-1.86,6.319,0,2.559.6,4.626,1.801,6.2,1.201,1.575,2.756,2.746,4.666,3.514,1.909.768,4.202,1.388,6.88,1.86,2.638.472,4.685.925,6.142,1.358,1.456.433,2.608,1.053,3.455,1.86.846.807,1.269,1.9,1.269,3.277,0,1.929-.778,3.435-2.333,4.518-1.555,1.082-3.592,1.624-6.112,1.624-2.874,0-5.207-.738-6.998-2.214-1.791-1.477-2.785-3.435-2.982-5.876"/>
    </g>
  </g>
</svg>