<?xml version="1.0" encoding="UTF-8"?>
<svg id="b" data-name="Livello 2" xmlns="http://www.w3.org/2000/svg" width="45.457mm" height="22.025mm" viewBox="0 0 128.854 62.434">
  <g id="c" data-name="Livello 1">
    <path d="M72.198,62.301h7.572V11.092l-.199-.133-7.373,7.373v43.97ZM74.058,9.664c-1.373,3.166-2.889,6.122-4.55,8.867-1.661,2.746-3.377,5.159-5.148,7.24.399.709.864,1.617,1.395,2.724.532,1.107,1.018,2.214,1.462,3.321.442,1.107.752,1.971.93,2.59,2.258-2.657,4.427-5.745,6.509-9.265,2.081-3.521,3.995-7.25,5.745-11.192,1.749-3.94,3.243-7.837,4.483-11.69L77.512.066c-.93,3.233-2.082,6.432-3.454,9.598M108.596,5.313c-.487,1.24-1.262,2.69-2.325,4.351-1.062,1.66-2.104,3.045-3.121,4.151.62.576,1.372,1.329,2.258,2.259.885.93,1.594,1.772,2.125,2.524,1.505-1.505,3.056-3.321,4.65-5.447,1.594-2.125,2.989-4.184,4.185-6.177l-4.65-3.387-1.395.398h-1.727v1.328ZM106.869,26.767c.885,4.827,2.048,9.355,3.487,13.582,1.438,4.229,3.255,7.982,5.446,11.258,2.192,3.278,4.837,5.978,7.937,8.103.354-.665.83-1.384,1.428-2.159.598-.775,1.217-1.528,1.86-2.259.641-.73,1.25-1.317,1.826-1.76-2.834-1.682-5.28-3.941-7.339-6.775-2.059-2.833-3.764-6.055-5.115-9.664-1.351-3.608-2.402-7.406-3.155-11.391l-6.377,1.063ZM119.788,33.309c-1.129,1.041-2.259,2.026-3.388,2.956-1.129.93-2.181,1.727-3.155,2.391l4.45,4.317c1.549-.929,3.255-2.092,5.114-3.487,1.86-1.395,3.587-2.823,5.181-4.284l-5.38-4.716c-.753.842-1.694,1.783-2.823,2.823M100.127,45.065c-1.793,1.307-3.753,2.557-5.878,3.753-2.125,1.195-4.274,2.269-6.443,3.221-2.17.952-4.273,1.738-6.31,2.358.752.709,1.505,1.605,2.259,2.69.752,1.084,1.372,2.069,1.859,2.956,2.745-1.152,5.613-2.557,8.601-4.218,2.989-1.661,5.845-3.454,8.568-5.38,2.723-1.926,4.992-3.841,6.808-5.745l-4.982-3.453c-1.196,1.24-2.69,2.514-4.483,3.819M96.142,38.158c-2.149,1.262-4.417,2.403-6.808,3.421-2.391,1.019-4.65,1.859-6.775,2.524.664.62,1.328,1.417,1.993,2.391.664.975,1.195,1.838,1.594,2.59,2.169-.885,4.483-1.97,6.941-3.254,2.458-1.284,4.793-2.667,7.007-4.151,2.214-1.483,4.095-2.911,5.646-4.284l-4.317-2.922c-1.373,1.195-3.133,2.424-5.28,3.686M100.626,39.32c1.417,2.17,2.368,4.295,2.856,6.377.487,2.082.598,3.908.332,5.479-.266,1.572-.731,2.69-1.395,3.354-.443.531-.941.886-1.494,1.063-.554.177-1.162.265-1.826.265s-1.428-.022-2.291-.066c-.864-.044-1.783-.133-2.756-.266.62.974,1.073,2.103,1.362,3.388.287,1.284.454,2.391.498,3.321.797.043,1.604.088,2.424.133.819.043,1.582.066,2.291.066,1.461-.089,2.733-.322,3.819-.697,1.084-.377,2.159-1.052,3.221-2.026,1.107-.93,1.948-2.259,2.524-3.985.575-1.727.852-3.686.83-5.878-.023-2.192-.421-4.461-1.195-6.808-.775-2.346-1.982-4.638-3.62-6.874-1.639-2.236-3.764-4.261-6.376-6.077l-5.314,3.254c2.657,1.816,4.693,3.809,6.111,5.978M97.039,28.494c-2.258,1.284-4.672,2.457-7.24,3.52-2.569,1.063-5.115,1.949-7.638,2.657.442.398.93.93,1.462,1.594.531.664,1.062,1.318,1.594,1.959.531.642.952,1.207,1.262,1.694,2.568-.973,5.214-2.136,7.937-3.487,2.723-1.35,5.313-2.856,7.771-4.516,2.458-1.661,4.593-3.376,6.409-5.147l-5.911-2.391c-1.506,1.462-3.388,2.834-5.646,4.118M101.489,26.302h7.107v-10.561h-7.107v10.561ZM85.615,29.158h40.051v-15.808h-40.051v15.808ZM118.027,23.778h-25.239v-5.048h25.239v5.048ZM91.592,9.764h19.394V3.985h-14.745l-4.65,5.779ZM90.962,5.147c-1.262,1.793-2.746,3.553-4.45,5.28-1.705,1.727-3.598,3.344-5.679,4.849.93.443,1.948,1.107,3.055,1.992,1.107.887,1.993,1.705,2.657,2.458,3.365-2.701,6.265-5.612,8.701-8.734,2.434-3.122,4.56-6.32,6.376-9.597l-7.506-1.395c-.842,1.639-1.893,3.354-3.155,5.147M26.169,59.047h8.103v-20.59h-8.103v20.59ZM.133,61.438h60.508v-6.509H.133v6.509ZM8.17,51.541h44.501v-6.177H8.17v6.177ZM5.38,42.11h50.479v-6.31H5.38v6.31ZM33.874,31.084h24.974V4.782h-24.974v26.302ZM51.077,24.376h-9.897v-12.885h9.897v12.885ZM.664,33.077c3.232-.221,6.874-.465,10.926-.731,4.052-.266,8.136-.553,12.254-.863l.067-5.779c-4.428.222-8.757.443-12.985.664-4.229.222-7.871.399-10.926.531l.664,6.177ZM4.65,29.556l7.107-.863V5.313h-7.107v24.243ZM21.453,34.538h7.107V5.38h-7.107v29.158ZM8.768,23.446h15.609v-5.048h-15.609v5.048ZM8.768,15.609h15.609v-4.915h-15.609v4.915ZM.863,8.17h31.284V2.258H.863v5.912Z"/>
  </g>
</svg>