<?xml version="1.0" encoding="UTF-8"?>
<svg id="b" data-name="Livello 2" xmlns="http://www.w3.org/2000/svg" width="863.248mm" height="863.248mm" viewBox="0 0 2447.001 2447.002">
  <g id="c" data-name="Livello 1">
    <g>
      <g id="d" data-name="Mat 02">
        <g>
          <circle cx="1223.501" cy="1223.501" r="1222.427" fill="#e52421"/>
          <path d="M1223.5,2447.002c-165.171,0-325.402-32.35-476.242-96.149-72.497-30.664-142.422-68.617-207.829-112.807-64.786-43.769-125.709-94.033-181.074-149.399-55.366-55.365-105.631-116.288-149.4-181.074-44.188-65.407-82.142-135.332-112.806-207.829C32.349,1548.903,0,1388.672,0,1223.501s32.349-325.402,96.149-476.242c30.664-72.497,68.617-142.422,112.806-207.829,43.769-64.786,94.034-125.709,149.4-181.074,55.365-55.366,116.288-105.631,181.074-149.399,65.407-44.189,135.332-82.143,207.829-112.807C898.098,32.35,1058.33,0,1223.5,0s325.402,32.35,476.242,96.149c72.497,30.664,142.422,68.617,207.829,112.807,64.786,43.769,125.709,94.033,181.074,149.399,55.366,55.365,105.631,116.288,149.399,181.074,44.189,65.407,82.143,135.332,112.807,207.829,63.8,150.84,96.149,311.071,96.149,476.242s-32.35,325.402-96.149,476.242c-30.664,72.497-68.617,142.422-112.807,207.829-43.769,64.786-94.033,125.709-149.399,181.074-55.365,55.366-116.288,105.631-181.074,149.399-65.407,44.189-135.332,82.143-207.829,112.807-150.84,63.8-311.071,96.149-476.242,96.149ZM1223.5,2.147c-164.882,0-324.832,32.293-475.405,95.98-72.37,30.609-142.171,68.496-207.464,112.607-64.674,43.692-125.489,93.87-180.758,149.139-55.269,55.269-105.446,116.084-149.139,180.758-44.111,65.293-81.998,135.094-112.607,207.464C34.439,898.669,2.147,1058.619,2.147,1223.501s32.292,324.832,95.979,475.405c30.61,72.37,68.497,142.171,112.607,207.464,43.693,64.674,93.87,125.489,149.139,180.758,55.269,55.269,116.084,105.446,180.758,149.139,65.293,44.111,135.094,81.998,207.464,112.607,150.573,63.688,310.523,95.98,475.405,95.98s324.832-32.293,475.405-95.98c72.37-30.609,142.171-68.496,207.464-112.607,64.674-43.692,125.489-93.87,180.758-149.139s105.446-116.084,149.139-180.758c44.111-65.293,81.998-135.094,112.607-207.464,63.688-150.573,95.98-310.523,95.98-475.405s-32.293-324.832-95.98-475.405c-30.609-72.37-68.496-142.171-112.607-207.464-43.692-64.674-93.87-125.489-149.139-180.758s-116.084-105.446-180.758-149.139c-65.293-44.111-135.094-81.998-207.464-112.607C1548.333,34.44,1388.382,2.147,1223.5,2.147Z" fill="#fff"/>
        </g>
        <path d="M1294.034,2213.261h29.965v-8.135h-29.965v8.135ZM1320.24,2262.018c-2.849,3.26-6.607,4.891-11.276,4.891s-8.409-1.631-11.223-4.891c-2.815-3.261-4.222-7.466-4.222-12.614s1.407-9.354,4.222-12.614c2.814-3.261,6.555-4.892,11.223-4.892s8.427,1.631,11.276,4.892c2.849,3.26,4.273,7.465,4.273,12.614s-1.424,9.353-4.273,12.614M1294.91,2273.035c4.084,2.231,8.769,3.346,14.055,3.346s9.971-1.115,14.056-3.346c4.085-2.231,7.242-5.388,9.473-9.473,2.231-4.085,3.347-8.804,3.347-14.158,0-5.286-1.116-9.971-3.347-14.056-2.231-4.085-5.388-7.26-9.473-9.525-4.085-2.265-8.77-3.398-14.056-3.398s-9.971,1.132-14.055,3.398c-4.085,2.265-7.242,5.44-9.474,9.525-2.231,4.085-3.346,8.769-3.346,14.056,0,5.354,1.115,10.074,3.346,14.158,2.231,4.085,5.389,7.242,9.474,9.473M1239.357,2223.043v9.782h28.214l-29.45,35.01v7.928h45.719v-9.782h-30.788l29.45-35.01v-7.929h-43.145ZM1224.427,2275.764h11.121v-52.721h-11.121v52.721ZM1234.827,2203.839c-1.304-1.27-2.917-1.905-4.839-1.905s-3.535.636-4.839,1.905c-1.304,1.27-1.957,2.866-1.957,4.788s.652,3.518,1.957,4.788c1.304,1.27,2.918,1.905,4.839,1.905s3.536-.636,4.839-1.905c1.304-1.27,1.957-2.866,1.957-4.788s-.652-3.518-1.957-4.788M1209.291,2243.638h-28.317c.412-3.707,1.939-6.676,4.582-8.908,2.643-2.231,5.784-3.346,9.422-3.346,3.913,0,7.156,1.081,9.73,3.244,2.574,2.163,4.102,5.166,4.582,9.01M1172.17,2235.245c-2.162,4.085-3.244,8.839-3.244,14.262,0,5.354,1.116,10.056,3.347,14.107,2.231,4.05,5.388,7.191,9.473,9.422,4.085,2.231,8.873,3.346,14.364,3.346,6.315,0,11.584-1.716,15.806-5.148,4.221-3.432,6.813-7.826,7.774-13.18h-11.122c-.755,2.952-2.299,5.234-4.633,6.847-2.334,1.613-5.217,2.42-8.649,2.42-4.325,0-7.792-1.339-10.4-4.016-2.609-2.678-4.051-6.316-4.325-10.915v-.617h39.746c.206-1.442.309-2.849.309-4.222-.069-5.08-1.218-9.508-3.449-13.283-2.231-3.776-5.286-6.693-9.165-8.753-3.879-2.059-8.358-3.089-13.438-3.089-5.012,0-9.456,1.115-13.335,3.346-3.879,2.231-6.899,5.389-9.062,9.473M1122.797,2252.287l-11.636-.206c.069,4.737,1.321,8.941,3.759,12.614,2.437,3.672,5.818,6.539,10.142,8.598,4.325,2.059,9.336,3.089,15.034,3.089,5.148,0,9.748-.944,13.798-2.832,4.051-1.888,7.208-4.513,9.474-7.877,2.265-3.364,3.398-7.174,3.398-11.43,0-4.393-1.064-7.929-3.192-10.606-2.129-2.678-4.874-4.703-8.238-6.075-3.364-1.373-7.38-2.471-12.048-3.295-4.599-.824-8.135-1.579-10.606-2.265-2.471-.687-4.445-1.717-5.92-3.09-1.476-1.372-2.214-3.226-2.214-5.56,0-3.295,1.253-5.852,3.759-7.671,2.505-1.819,5.852-2.729,10.04-2.729,4.325,0,7.894,1.133,10.709,3.398,2.815,2.265,4.428,5.251,4.839,8.958h11.636c-.206-4.325-1.476-8.169-3.81-11.533-2.334-3.364-5.526-6.007-9.576-7.928-4.05-1.922-8.649-2.883-13.798-2.883-5.012,0-9.456.892-13.335,2.677-3.879,1.785-6.9,4.291-9.062,7.517-2.163,3.226-3.244,6.899-3.244,11.018,0,4.462,1.047,8.066,3.14,10.811,2.094,2.746,4.806,4.788,8.135,6.127,3.329,1.338,7.328,2.419,11.996,3.244,4.599.824,8.169,1.613,10.709,2.368,2.539.755,4.547,1.837,6.024,3.244,1.476,1.407,2.213,3.312,2.213,5.714,0,3.364-1.356,5.99-4.067,7.878-2.712,1.887-6.264,2.832-10.657,2.832-5.012,0-9.079-1.287-12.202-3.861-3.124-2.575-4.857-5.99-5.2-10.246" fill="#fff"/>
        <path d="M1232.854,227.217h9.114v-61.637l-.24-.16-8.874,8.874v52.923ZM1235.093,163.861c-1.652,3.811-3.478,7.369-5.476,10.672-1.999,3.305-4.065,6.21-6.196,8.714.48.854,1.04,1.946,1.679,3.278.64,1.332,1.226,2.665,1.759,3.997.532,1.332.906,2.372,1.119,3.118,2.718-3.198,5.329-6.915,7.834-11.152,2.504-4.237,4.809-8.727,6.915-13.471,2.105-4.743,3.903-9.433,5.396-14.07l-8.874-2.638c-1.119,3.891-2.506,7.742-4.157,11.552M1276.664,158.624c-.587,1.493-1.519,3.238-2.798,5.237-1.279,1.998-2.532,3.665-3.757,4.996.746.694,1.651,1.599,2.718,2.718,1.066,1.119,1.919,2.132,2.558,3.038,1.811-1.811,3.678-3.997,5.596-6.556,1.919-2.558,3.598-5.036,5.037-7.435l-5.596-4.077-1.679.479h-2.079v1.599ZM1274.585,184.446c1.066,5.81,2.465,11.259,4.197,16.348,1.731,5.09,3.917,9.607,6.555,13.551,2.638,3.945,5.823,7.195,9.553,9.754.426-.8.999-1.666,1.719-2.598.72-.933,1.465-1.839,2.239-2.718.772-.879,1.505-1.585,2.198-2.118-3.412-2.025-6.356-4.743-8.834-8.154-2.478-3.41-4.531-7.288-6.156-11.632-1.626-4.343-2.891-8.914-3.797-13.711l-7.675,1.279ZM1290.135,192.321c-1.359,1.253-2.718,2.438-4.077,3.557-1.359,1.119-2.626,2.079-3.797,2.878l5.356,5.196c1.865-1.119,3.917-2.518,6.156-4.197,2.239-1.679,4.317-3.398,6.236-5.157l-6.475-5.676c-.907,1.013-2.038,2.146-3.397,3.398M1266.471,206.471c-2.158,1.573-4.517,3.078-7.075,4.517-2.558,1.439-5.144,2.731-7.755,3.877-2.612,1.146-5.144,2.092-7.595,2.838.906.853,1.811,1.932,2.718,3.238.906,1.305,1.651,2.491,2.238,3.557,3.304-1.387,6.756-3.078,10.353-5.076,3.598-1.999,7.036-4.157,10.313-6.476,3.278-2.318,6.008-4.623,8.194-6.915l-5.996-4.157c-1.439,1.492-3.238,3.025-5.396,4.596M1261.675,198.157c-2.586,1.519-5.317,2.892-8.194,4.118-2.878,1.227-5.596,2.238-8.154,3.038.799.747,1.599,1.706,2.399,2.878.799,1.173,1.439,2.212,1.919,3.118,2.611-1.066,5.396-2.371,8.354-3.917,2.958-1.546,5.769-3.21,8.434-4.997,2.665-1.785,4.929-3.504,6.795-5.157l-5.196-3.517c-1.653,1.439-3.771,2.918-6.356,4.436M1267.071,199.556c1.705,2.612,2.85,5.17,3.438,7.675.586,2.506.72,4.704.4,6.595-.32,1.893-.88,3.238-1.679,4.037-.534.639-1.133,1.067-1.799,1.279-.667.213-1.399.319-2.198.319s-1.719-.026-2.758-.08c-1.04-.053-2.146-.16-3.318-.32.746,1.172,1.292,2.531,1.639,4.077.346,1.545.546,2.878.6,3.997.959.052,1.931.106,2.918.16.985.052,1.905.08,2.758.08,1.759-.107,3.29-.387,4.596-.839,1.305-.453,2.599-1.267,3.877-2.438,1.332-1.119,2.345-2.718,3.038-4.797.692-2.079,1.025-4.436.999-7.075-.028-2.638-.507-5.369-1.439-8.194-.933-2.824-2.386-5.582-4.357-8.274-1.972-2.691-4.531-5.129-7.674-7.315l-6.396,3.917c3.198,2.186,5.648,4.584,7.355,7.195M1262.754,186.525c-2.718,1.546-5.623,2.958-8.714,4.237-3.092,1.279-6.156,2.346-9.194,3.198.533.479,1.119,1.119,1.759,1.919.639.799,1.279,1.586,1.919,2.358.639.773,1.145,1.453,1.519,2.038,3.091-1.171,6.275-2.57,9.553-4.197,3.278-1.625,6.395-3.438,9.353-5.436,2.958-1.999,5.529-4.063,7.715-6.196l-7.115-2.878c-1.813,1.759-4.077,3.412-6.795,4.957M1268.11,183.887h8.554v-12.711h-8.554v12.711ZM1249.003,187.324h48.207v-19.027h-48.207v19.027ZM1288.016,180.849h-30.379v-6.076h30.379v6.076ZM1256.198,163.981h23.344v-6.955h-17.747l-5.596,6.955ZM1255.439,158.424c-1.519,2.158-3.305,4.277-5.356,6.356-2.053,2.079-4.331,4.025-6.836,5.836,1.119.533,2.345,1.333,3.677,2.398,1.332,1.067,2.399,2.053,3.198,2.958,4.05-3.25,7.541-6.755,10.473-10.513,2.93-3.758,5.489-7.607,7.674-11.552l-9.034-1.679c-1.013,1.972-2.278,4.037-3.797,6.196M1177.452,223.299h9.753v-24.783h-9.753v24.783ZM1146.114,226.178h72.83v-7.834h-72.83v7.834ZM1155.788,214.266h53.563v-7.435h-53.563v7.435ZM1152.43,202.913h60.758v-7.595h-60.758v7.595ZM1186.726,189.643h30.059v-31.658h-30.059v31.658ZM1207.432,181.568h-11.912v-15.509h11.912v15.509ZM1146.754,192.041c3.89-.266,8.274-.56,13.151-.88,4.877-.32,9.793-.666,14.75-1.039l.08-6.955c-5.33.267-10.54.533-15.629.799-5.09.267-9.474.48-13.151.639l.799,7.435ZM1151.551,187.804l8.554-1.039v-28.141h-8.554v29.18ZM1171.776,193.8h8.554v-35.096h-8.554v35.096ZM1156.507,180.449h18.787v-6.076h-18.787v6.076ZM1156.507,171.016h18.787v-5.916h-18.787v5.916ZM1146.993,162.062h37.654v-7.115h-37.654v7.115Z" fill="#fff"/>
        <g>
          <path d="M2032.125,782.81c37.471,7.401,71.479,41.294,92.09,70.971,1.18,1.7,15.052,14.325,8.349,16.903-24.747-3.106-49.302.814-73.405,8.269l-.676,2.976c21.663.037,42.595-1.856,64.13,1.383,85.643,12.882,176.544,94.757,150.869,189.102-3.26,11.979-18.332,31.66-14.216,43.304.152.43,6.16,4.221,7.108,5.724,19.81,31.409,40.452,64.972,43.222,103.198,7.95,109.709-105.561,180.744-192.28,102.739-7.272-6.542-17.294-22.065-23.981-26.388-13.506-8.731-28.744.978-33.87,14.791l7.199,33.666c17.147,36.299,55.624,67.025,53.905,110.044-2.39,59.794-97.953,75.163-91.724,140.352,2.362,24.721,34.971,51.382-12.348,61.029-14.108,16.453,25.616,43.75,4.44,59.077-13.804,9.991-56.226,3.971-74.472,4.497-152.814,4.411-293.527,97.138-449.143,42.57-53.196-18.653-76.905-40.343-139.288-34.51l-48.334,7.307c-125.652,19.174-259.464,26.037-386.375,3.6-35.694-6.31-173.698-30.53-142.207-93.007,7.084-14.054,24.89-17.59,34.83-27.382-.801-9.502,1.43-56.551,11.541-59.542l9.512,3.467c4.383,10.626,18.87,47.798,33.922,41.918,3.63-1.418,6.919-35.579,8.117-41.174,1.843-8.603,4.245-21.395,7.253-30.506,14.269-43.217,32.327-12.011,41.172,12.596,3.524,9.803,9.838,48.616,23.979,48.725l4.304-.15,51.923-64.106,12.866-.579c10.739,16.927,18.108,36.083,20.399,56.082l2.685,1.569c1.861-5.051.126-11.005.846-15.796.238-1.583,1.729-1.305,1.827-1.949,1.868-12.312,6.54-62.651,28.798-53.745,2.369,4.029,8.421,7.493,10.761,11.072,7.272,11.119,11.203,31.696,16.34,44.392,2.507,6.195,7.981,10.877,7.325,18.505l4.948-.018c7.602-10.799,13.019-26.223,20.069-36.867,4.406-6.652,19.39-27.643,27.181-25.812,9.045,2.126,31.115,48.278,30.515,59.166,2.69,3.735,24.517-2.127,29.132-3.374,62.43-16.867,122.714-43.278,187.096-55.894,116.515-22.831,248.089-3.884,349.308,59.377l4.535-.179c5.827-5.624,6.563-12.496,4.053-20.237-3.854-11.887-129.631-98.864-149.285-113.024-31.79-22.904-50.458-39.71-86.4-57.566-6.28-3.12-14.387-13.325-22.407-9.615-8.049,10.851-12.354,31.591-28.567,31.556-9.537-13.591-5.068-31.29-11.334-46.44-12.495-4.01-11.79,15.902-15.415,24.066-4.601,10.362-11.576,18.857-22.667,11.567-20.058-13.184-32.89-44.845-49.58-59.084-10.675-9.107-31.528-18.31-43.991-27.287-3.132-2.256-13.131-14.235-16.681-14.237l-2.96,1.102-14.557,30.852-15.707.533c-16.115-16.723-16.84-45.877-35.746-59.765-10.908,11.75-6.159,42.477-30.017,37.718-.799-.439-6.894-15.245-7.287-16.72-2.677-10.045-3.181-49.158-22.012-43.272-7.848,2.453-2.406,52.448-9.777,60.459-11.419,6.521-24.65-13.431-29.38-21.773-11.329-19.978-19.201-48.369-26.727-70.198l-53.638-32.435c-9.788,5.942-20.277,14.286-30.212,19.663-7.052,3.816-37.284,21.613-40.6,7.487-2.257-9.614,7.303-39.083,10.803-49.912.301-.931,7.681-14.591,4.864-15.074-9.547,9.111-18.091,19.451-27.776,28.426-12.197,11.303-29.357,28.758-46.199,28.875l-2.917-3.111c-2.352-24.175,11.382-45.881,12.577-69.725-10.347-6.57-16.046,5.059-29.169,2.859-13.888-2.328-10.326-33.571-6.859-43.338-.441-2.703-19.905-13.551-23.027-18.977-5.736-9.971-4.221-19.929,2.841-28.477,15.742-19.056,131.796-75.124,156.48-78.351,108.944-2.426,213.044,48.491,317.897,73.771,86.214,20.786,183.974,21.415,266.317,51.98,8.572,3.182,20.488,13.607,30.316,11.048l35.898-53.643c41.764-42.906,38.729-71.656,106.481-63.33,91.153,11.202,193.984,80.165,254.52,147.943,20.025,22.421,37.235,46.553,48.113,74.692l3.516,1.424c-4.438-10.9-4.663-23.293-8.178-34.351-37.612-118.328-186.995-202.452-303.599-217.533-18.731-2.423-42.599,2.222-58.424-11.773-21.59-19.095-8.103-68.833,7.963-88.698,34.908-43.163,101.761-36.013,149.353-24.736,20.836-54.02,74.349-71.513,128.923-60.733ZM1137.82,1013.127c-14.941-2.595-51.585-.288-65.183,6.59-.549.278-5.981,8.714-7.044,10.102-.608.794-5.998,3.711-6.615,5.314-3.822,9.918,5.35,19.894,14.191,22.558,19.68,5.928,86.456,11.469,103.291-.25,2.506-1.744,4.642-4.312,6.574-6.645.432-2.093-4.89-14.357-6.444-16.659-6.07-8.995-28.56-19.236-38.769-21.009ZM1288.039,1088.723c-37.45-8.924-59.853,29.182-17.866,40.966,6.743,1.893,28.083,4.994,34.811,4.556,5.085-.331,9.572-2.185,14.334-3.658l2.266-4.027c4.548-16.777-19.96-34.6-33.546-37.837ZM1542.71,1117.481c-29.52-4.389-118.931.93-142.452,18.053-26.922,19.598-7.129,53.486,15.698,66.165,40.774,22.647,82.732,26.981,119.874,63.665,13.823,13.653,39.891,63.025,57.426,66.462,41.637,8.16,38.981-75.575,36.041-99.725-6.881-56.521-22.586-105.104-86.587-114.62ZM1741.528,1189.471c-59.901-8.578-81.681,30.267-78.921,84.735,1.541,30.406,14.957,114.231,33.686,136.82,61.054,73.636,201.774-66.47,184.942-138.447-8.095-41.724-102.757-77.816-139.708-83.108ZM1967.366,1416.191c-63.25-3.835-114.637,23.316-84.189,94.307,27.768,64.741,152.019,9.983,131.382-65.474-6.346-23.202-25.28-27.505-47.193-28.834ZM1889.048,1596.167c-18.46-2.759-39.719-4.732-57.062,2.96l-2.784,3.751c-8.885,26.597,51.098,54.912,71.63,57.504,3.699.467,22.881,1.226,24.397-2.149l1.002-19.698c10.98-7.741,34.614,7.355,31.005-14.8-3.943-11.173-56.513-25.823-68.186-27.567Z" fill="#fff"/>
          <path d="M677.177,1351.414c76.555,9.43,120.854,94.724,56.893,149.378l-4.755,18.236c-11.814,12.167-20.399,2.363-32.4,3.103-27.182,1.676-62.694,17.378-91.021,19.635l-37.278,17.646-.93,3.115c15.519-1.417,20.66,1.591,32.042,11.123,3.172,9.502,1.498,14.994-2.941,22.862-14.295,25.336-57.593,34.679-83.742,40.647l-23.633.054.434,3.611c5.439,4.189,15.29,7.075,12.994,15.488l-2.423,2.422c-6.392-.289-13.266.623-19.598.134-4.882-.377-28.07-5.362-33.827-7.379-2.859-1.002-12.039-9.566-15.152-7.077l1.561,3.636c1.867,2.025,25.251,17.038,27.956,17.865,7.098,2.169,32.277-.377,23.43,12.146-36.525,21.623-71.926,10.295-108.94-1.041l-99.18,57.406c-3.388.629-7.095-1.205-9.995-2.705-9.386-4.855-52.74-51.577-42.477-61.03,12.361-2.539,21.923-13.742,32.043-20.827,15.25-10.675,31.955-19.124,45.557-32.315,1.675-4.633-7.623-10.539-9.445-13.4-5.39-8.466-16.053-26.863-14.312-36.444,8.657-25.803,55.129-17.125,73.794-8.358,5.319,2.498,16.678,15.665,21.287,9.245,4.378-6.099-3.853-14.981-5.062-20.291-4.979-21.863-9.599-49.191,5.912-67.665,17.214-14.628,62.941,13.658,72.217,31.087l5.228-.164c7.804-5.394,15.561-11.151,23.38-16.481,13.929-9.495,41.773-26.26,52.983-38.136,4.303-4.558,49.213-67.658,50.452-71.886,2.383-8.139-3.007-18.202,9.077-23.124,9.138-3.722,14.354.194,22.886-.267,7.081-.382,21.204-9.54,29-10.613,8.797-1.211,29.147-.726,37.987.363Z" fill="#fff"/>
          <path d="M596.031,795.079c8.152,1.419,11.364,12.384,16.271,17.894,60.004,67.366,146.689,80.408,94.032,193.374-.983,2.108-1.464,6.647-1.948,9.116l-3.054.091c-1.832-3.325-2.761-4.395-2.343-8.642.246-2.492,5.071-14.631,5.41-17.254,1.661-12.848,3.195-31.058,1.743-43.775-3.824-33.497-60.159-61.573-90.769-64.434.736,5.579.256,12.208.832,17.598,5.281,49.397,20.114,104.412,24.336,155.627,3.162,38.357-38.643,68.325-72.352,75.167-72.824,8.934-79.157-62.846-24.021-95.319,17.897-10.541,41.909-15.31,61.313-12.71l-14.348-96.938c-2.551-34.92-11.036-70.387-14.484-105.046-.244-2.45-3.395-24.748.486-24.748,5.727.693,13.469-.944,18.894,0Z" fill="#fff"/>
          <path d="M993.856,635.257c.419.112,4.773,3.093,6.568,2.886l2.614,3.846c10.788,57.242,74.067,85.285,32.218,145.613-7.228,10.419-19.593,23.01-32.105,26.359,5.648-7.237,13.074-14.569,17.921-22.353,14.796-23.764,15.334-44.997-3.643-67.044-7.168-8.328-17.53-12.836-24.198-21.667l-4.562-.108c-5.161,3.119-6.904,8.45-8.811,13.848-22.758,64.419-14.523,152.071-106.742,145.047-42.144-3.21-51.473-45.859-12.764-65.045,23.969-11.88,49.281-7.33,74.468-3.771,10.951-35.158,19.778-71.023,30.469-106.242,3.68-12.121,8.452-24.232,12.609-36.192,3.43-9.868-1.368-19.807,15.959-15.177Z" fill="#fff"/>
        </g>
      </g>
      <g>
        <polygon points="1223.82 1223.501 1223.82 1223.501 1223.82 1223.501 1223.82 1223.501 1223.82 1223.501" fill="#1d1d1b"/>
        <path d="M1223.82,1309.935c-47.659,0-86.434-38.774-86.434-86.434s38.774-86.434,86.434-86.434,86.434,38.774,86.434,86.434-38.774,86.434-86.434,86.434ZM1223.82,1162.063c-33.877,0-61.438,27.561-61.438,61.438s27.561,61.438,61.438,61.438,61.438-27.561,61.438-61.438-27.561-61.438-61.438-61.438Z" fill="#e52421"/>
        <circle cx="1223.82" cy="1223.501" r="73.935" fill="#fff"/>
      </g>
    </g>
  </g>
</svg>