<?xml version="1.0" encoding="UTF-8"?>
<svg id="b" data-name="Livello 2" xmlns="http://www.w3.org/2000/svg" width="863.248mm" height="863.248mm" viewBox="0 0 2447.001 2447.003">
  <g id="c" data-name="Livello 1">
    <g>
      <g id="d" data-name="Mat 02">
        <g>
          <circle cx="1223.501" cy="1223.501" r="1222.427" fill="#e52421"/>
          <path d="M1223.5,2447.003c-165.171,0-325.402-32.35-476.242-96.149-72.498-30.664-142.422-68.618-207.83-112.807-64.786-43.769-125.708-94.034-181.074-149.399-55.365-55.366-105.631-116.288-149.4-181.074-44.188-65.408-82.142-135.332-112.806-207.83C32.349,1548.903,0,1388.672,0,1223.501s32.349-325.402,96.149-476.241c30.664-72.498,68.617-142.422,112.806-207.83,43.769-64.786,94.035-125.708,149.4-181.074,55.366-55.365,116.288-105.631,181.074-149.399,65.408-44.188,135.333-82.143,207.83-112.807C898.099,32.35,1058.33,0,1223.5,0s325.402,32.35,476.242,96.149c72.498,30.664,142.421,68.618,207.83,112.807,64.786,43.769,125.708,94.034,181.074,149.399,55.366,55.366,105.631,116.288,149.399,181.074,44.189,65.408,82.143,135.332,112.807,207.83,63.8,150.839,96.149,311.07,96.149,476.241s-32.349,325.402-96.149,476.242c-30.664,72.498-68.618,142.422-112.807,207.83-43.769,64.786-94.034,125.708-149.399,181.074-55.366,55.365-116.288,105.631-181.074,149.399-65.408,44.188-135.332,82.143-207.83,112.807-150.84,63.8-311.071,96.149-476.242,96.149ZM1223.5,2.147c-164.882,0-324.832,32.293-475.405,95.98-72.37,30.609-142.171,68.496-207.464,112.607-64.673,43.692-125.489,93.87-180.758,149.139-55.269,55.27-105.446,116.085-149.139,180.758-44.111,65.293-81.998,135.094-112.608,207.464C34.439,898.67,2.147,1058.619,2.147,1223.501s32.292,324.832,95.979,475.405c30.61,72.37,68.497,142.171,112.608,207.465,43.692,64.673,93.87,125.488,149.139,180.758,55.269,55.269,116.085,105.446,180.758,149.139,65.293,44.111,135.094,81.998,207.464,112.607,150.574,63.688,310.523,95.98,475.405,95.98s324.832-32.293,475.406-95.98c72.37-30.609,142.171-68.496,207.464-112.607,64.673-43.692,125.489-93.87,180.757-149.139s105.447-116.085,149.139-180.758c44.111-65.294,81.998-135.095,112.608-207.465,63.687-150.573,95.979-310.523,95.979-475.405s-32.292-324.831-95.979-475.405c-30.61-72.37-68.497-142.171-112.608-207.464-43.692-64.673-93.87-125.488-149.139-180.758s-116.084-105.446-180.757-149.139c-65.293-44.111-135.094-81.998-207.464-112.607C1548.332,34.44,1388.383,2.147,1223.5,2.147Z" fill="#fff"/>
        </g>
        <path d="M1294.034,2213.261h29.965v-8.135h-29.965v8.135ZM1320.24,2262.018c-2.849,3.26-6.607,4.891-11.276,4.891s-8.409-1.631-11.223-4.891c-2.815-3.261-4.222-7.466-4.222-12.614s1.407-9.354,4.222-12.614c2.814-3.261,6.555-4.892,11.223-4.892s8.427,1.631,11.276,4.892c2.849,3.26,4.273,7.465,4.273,12.614s-1.424,9.353-4.273,12.614M1294.909,2273.035c4.084,2.231,8.769,3.346,14.055,3.346s9.971-1.115,14.056-3.346c4.085-2.231,7.242-5.388,9.473-9.473,2.231-4.085,3.347-8.804,3.347-14.158,0-5.286-1.116-9.971-3.347-14.056-2.231-4.085-5.388-7.26-9.473-9.525-4.085-2.265-8.77-3.398-14.056-3.398s-9.971,1.132-14.055,3.398c-4.085,2.265-7.242,5.44-9.474,9.525-2.231,4.085-3.346,8.769-3.346,14.056,0,5.354,1.115,10.074,3.346,14.158,2.231,4.085,5.389,7.242,9.474,9.473M1239.357,2223.043v9.782h28.214l-29.45,35.01v7.928h45.719v-9.782h-30.788l29.45-35.01v-7.929h-43.145ZM1224.427,2275.764h11.121v-52.721h-11.121v52.721ZM1234.827,2203.839c-1.304-1.27-2.917-1.905-4.839-1.905s-3.535.636-4.839,1.905c-1.304,1.27-1.957,2.866-1.957,4.788s.652,3.518,1.957,4.788c1.304,1.27,2.918,1.905,4.839,1.905s3.536-.636,4.839-1.905c1.304-1.27,1.957-2.866,1.957-4.788s-.652-3.518-1.957-4.788M1209.291,2243.638h-28.317c.412-3.707,1.939-6.676,4.582-8.908,2.643-2.231,5.784-3.346,9.422-3.346,3.913,0,7.156,1.081,9.73,3.244,2.574,2.163,4.102,5.166,4.582,9.01M1172.17,2235.245c-2.162,4.085-3.244,8.839-3.244,14.262,0,5.354,1.116,10.056,3.347,14.107,2.231,4.05,5.388,7.191,9.473,9.422,4.085,2.231,8.873,3.346,14.364,3.346,6.315,0,11.584-1.716,15.806-5.148,4.221-3.432,6.813-7.826,7.774-13.18h-11.122c-.755,2.952-2.299,5.234-4.633,6.847-2.334,1.613-5.217,2.42-8.649,2.42-4.325,0-7.792-1.339-10.4-4.016-2.609-2.678-4.051-6.316-4.325-10.915v-.617h39.746c.206-1.442.309-2.849.309-4.222-.069-5.08-1.218-9.508-3.449-13.283-2.231-3.776-5.286-6.693-9.165-8.753-3.879-2.059-8.358-3.089-13.438-3.089-5.012,0-9.456,1.115-13.335,3.346-3.879,2.231-6.899,5.389-9.062,9.473M1122.797,2252.287l-11.636-.206c.069,4.737,1.321,8.941,3.759,12.614,2.437,3.672,5.818,6.539,10.142,8.598,4.325,2.059,9.336,3.089,15.034,3.089,5.148,0,9.748-.944,13.798-2.832,4.051-1.888,7.208-4.513,9.474-7.877s3.398-7.174,3.398-11.43c0-4.393-1.064-7.929-3.192-10.606-2.129-2.678-4.874-4.703-8.238-6.075-3.364-1.373-7.38-2.471-12.048-3.295-4.599-.824-8.135-1.579-10.606-2.265-2.471-.687-4.445-1.717-5.92-3.09-1.476-1.372-2.214-3.226-2.214-5.56,0-3.295,1.253-5.852,3.759-7.671,2.505-1.819,5.852-2.729,10.04-2.729,4.325,0,7.894,1.133,10.709,3.398,2.815,2.265,4.428,5.251,4.839,8.958h11.636c-.206-4.325-1.476-8.169-3.81-11.533-2.334-3.364-5.526-6.007-9.576-7.928-4.05-1.922-8.649-2.883-13.798-2.883-5.012,0-9.456.892-13.335,2.677-3.879,1.785-6.9,4.291-9.062,7.517-2.163,3.226-3.244,6.899-3.244,11.018,0,4.462,1.047,8.066,3.14,10.811,2.094,2.746,4.806,4.788,8.135,6.127,3.329,1.338,7.328,2.419,11.996,3.244,4.599.824,8.169,1.613,10.709,2.368,2.539.755,4.547,1.837,6.024,3.244,1.476,1.407,2.213,3.312,2.213,5.714,0,3.364-1.356,5.99-4.067,7.878-2.712,1.887-6.264,2.832-10.657,2.832-5.012,0-9.079-1.287-12.202-3.861-3.124-2.575-4.857-5.99-5.2-10.246" fill="#fff"/>
        <path d="M1232.854,227.217h9.114v-61.637l-.24-.16-8.874,8.874v52.923ZM1235.093,163.861c-1.652,3.811-3.478,7.369-5.476,10.672-1.999,3.305-4.065,6.21-6.196,8.714.48.854,1.04,1.946,1.679,3.278.64,1.332,1.226,2.665,1.759,3.997.532,1.332.906,2.372,1.119,3.118,2.718-3.198,5.329-6.915,7.834-11.152,2.504-4.237,4.809-8.727,6.915-13.471,2.105-4.743,3.903-9.433,5.396-14.07l-8.874-2.638c-1.119,3.891-2.506,7.742-4.157,11.552M1276.664,158.624c-.587,1.493-1.519,3.238-2.798,5.237-1.279,1.998-2.532,3.665-3.757,4.996.746.694,1.651,1.599,2.718,2.718,1.066,1.119,1.919,2.132,2.558,3.038,1.811-1.811,3.678-3.997,5.596-6.556,1.919-2.558,3.598-5.036,5.037-7.435l-5.596-4.077-1.679.479h-2.079v1.599ZM1274.585,184.447c1.066,5.81,2.465,11.259,4.197,16.348,1.731,5.09,3.917,9.607,6.555,13.551,2.638,3.945,5.823,7.195,9.553,9.754.426-.8.999-1.666,1.719-2.598.72-.933,1.465-1.839,2.239-2.718.772-.879,1.505-1.585,2.198-2.118-3.412-2.025-6.356-4.743-8.834-8.154-2.478-3.41-4.531-7.288-6.156-11.632-1.626-4.343-2.891-8.914-3.797-13.711l-7.675,1.279ZM1290.135,192.321c-1.359,1.253-2.718,2.438-4.077,3.557-1.359,1.119-2.626,2.079-3.797,2.878l5.356,5.196c1.865-1.119,3.917-2.518,6.156-4.197,2.239-1.679,4.317-3.398,6.236-5.157l-6.475-5.676c-.907,1.013-2.038,2.146-3.397,3.398M1266.471,206.471c-2.158,1.573-4.517,3.078-7.075,4.517-2.558,1.439-5.144,2.731-7.755,3.877-2.612,1.146-5.144,2.092-7.595,2.838.906.853,1.811,1.932,2.718,3.238.906,1.305,1.651,2.491,2.238,3.557,3.304-1.387,6.756-3.078,10.353-5.076,3.598-1.999,7.036-4.157,10.313-6.476,3.278-2.318,6.008-4.623,8.194-6.915l-5.996-4.157c-1.439,1.492-3.238,3.025-5.396,4.596M1261.674,198.157c-2.586,1.519-5.317,2.892-8.194,4.118-2.878,1.227-5.596,2.238-8.154,3.038.799.747,1.599,1.706,2.399,2.878.799,1.173,1.439,2.212,1.919,3.118,2.611-1.066,5.396-2.371,8.354-3.917,2.958-1.546,5.769-3.21,8.434-4.997,2.665-1.785,4.929-3.504,6.795-5.157l-5.196-3.517c-1.653,1.439-3.771,2.918-6.356,4.436M1267.071,199.556c1.705,2.612,2.85,5.17,3.438,7.675.586,2.506.72,4.704.4,6.595-.32,1.893-.88,3.238-1.679,4.037-.534.639-1.133,1.067-1.799,1.279-.667.213-1.399.319-2.198.319s-1.719-.026-2.758-.08c-1.04-.053-2.146-.16-3.318-.32.746,1.172,1.292,2.531,1.639,4.077.346,1.545.546,2.878.6,3.997.959.052,1.931.106,2.918.16.985.052,1.905.08,2.758.08,1.759-.107,3.29-.387,4.596-.839,1.305-.453,2.599-1.267,3.877-2.438,1.332-1.119,2.345-2.718,3.038-4.797.692-2.079,1.025-4.436.999-7.075-.028-2.638-.507-5.369-1.439-8.194-.933-2.824-2.386-5.582-4.357-8.274-1.972-2.691-4.531-5.129-7.674-7.315l-6.396,3.917c3.198,2.186,5.648,4.584,7.355,7.195M1262.754,186.525c-2.718,1.546-5.623,2.958-8.714,4.237-3.092,1.279-6.156,2.346-9.194,3.198.533.479,1.119,1.119,1.759,1.919.639.799,1.279,1.586,1.919,2.358.639.773,1.145,1.453,1.519,2.038,3.091-1.171,6.275-2.57,9.553-4.197,3.278-1.625,6.395-3.438,9.353-5.436,2.958-1.999,5.529-4.063,7.715-6.196l-7.115-2.878c-1.813,1.759-4.077,3.412-6.795,4.957M1268.11,183.887h8.554v-12.711h-8.554v12.711ZM1249.003,187.325h48.207v-19.027h-48.207v19.027ZM1288.016,180.849h-30.379v-6.076h30.379v6.076ZM1256.198,163.981h23.344v-6.955h-17.747l-5.596,6.955ZM1255.439,158.424c-1.519,2.158-3.305,4.277-5.356,6.356-2.053,2.079-4.331,4.025-6.836,5.836,1.119.533,2.345,1.333,3.677,2.398,1.332,1.067,2.399,2.053,3.198,2.958,4.05-3.25,7.541-6.755,10.473-10.513,2.93-3.758,5.489-7.607,7.674-11.552l-9.034-1.679c-1.013,1.972-2.278,4.037-3.797,6.196M1177.452,223.299h9.753v-24.783h-9.753v24.783ZM1146.114,226.178h72.83v-7.834h-72.83v7.834ZM1155.787,214.266h53.563v-7.435h-53.563v7.435ZM1152.43,202.914h60.758v-7.595h-60.758v7.595ZM1186.726,189.643h30.059v-31.658h-30.059v31.658ZM1207.432,181.568h-11.912v-15.509h11.912v15.509ZM1146.753,192.041c3.89-.266,8.274-.56,13.151-.88,4.877-.32,9.793-.666,14.75-1.039l.08-6.955c-5.33.267-10.54.533-15.629.799-5.09.267-9.474.48-13.151.639l.799,7.435ZM1151.551,187.804l8.554-1.039v-28.141h-8.554v29.18ZM1171.776,193.8h8.554v-35.096h-8.554v35.096ZM1156.507,180.449h18.787v-6.076h-18.787v6.076ZM1156.507,171.016h18.787v-5.916h-18.787v5.916ZM1146.993,162.062h37.654v-7.115h-37.654v7.115Z" fill="#fff"/>
        <g id="e" data-name="g5802">
          <g id="f" data-name="path5804">
            <path d="M1223.669,1528.91c-74.826,0-137.586-19.315-137.586-82.658,0-59.056,50.06-148.223,137.586-244.851,87.526,96.628,137.375,185.795,137.375,244.851,0,63.343-62.549,82.658-137.375,82.658M1223.669,1713.064c225.324,0,318.354-75.408,318.354-189.128,0-134.358-134.094-297.875-231.41-399.265,182.725-164.733,419.586-286.391,512.933-193.15,107.794,107.899,2.381,427.365-252.101,780.644l336.134,95.517c283.693-507.482,343.754-1006.709,146.847-1141.068-153.568-104.513-539.815,106.365-830.757,373.653-291.154-267.288-677.296-478.166-830.969-373.653-196.907,134.358-137.269,633.585,146.741,1141.068l336.134-95.517c-254.482-353.28-359.788-672.745-251.571-780.644,93.03-93.241,329.89,28.417,512.562,193.15-97.051,101.391-231.727,264.907-231.727,399.265,0,113.72,93.294,189.128,318.83,189.128" fill="#fff"/>
          </g>
        </g>
      </g>
      <g>
        <polygon points="1223.82 1223.501 1223.82 1223.501 1223.82 1223.501 1223.82 1223.501 1223.82 1223.501" fill="#1d1d1b"/>
        <path d="M1223.82,1309.935c-47.66,0-86.434-38.774-86.434-86.434s38.774-86.433,86.434-86.433,86.433,38.773,86.433,86.433-38.774,86.434-86.433,86.434ZM1223.82,1162.064c-33.877,0-61.438,27.561-61.438,61.437s27.561,61.438,61.438,61.438,61.437-27.561,61.437-61.438-27.561-61.437-61.437-61.437Z" fill="#e52421"/>
        <circle cx="1223.82" cy="1223.501" r="73.935" fill="#fff"/>
      </g>
    </g>
  </g>
</svg>