<?xml version="1.0" encoding="UTF-8"?>
<svg id="b" data-name="Livello 2" xmlns="http://www.w3.org/2000/svg" width="863.248mm" height="863.248mm" viewBox="0 0 2447.001 2447.001">
  <g id="c" data-name="Livello 1">
    <g>
      <g id="d" data-name="Mat 02">
        <g>
          <circle cx="1223.501" cy="1223.501" r="1222.427" fill="#e52421"/>
          <path d="M1223.5,2447.001c-165.171,0-325.402-32.35-476.242-96.149-72.497-30.664-142.422-68.617-207.829-112.807-64.786-43.769-125.709-94.034-181.074-149.399-55.366-55.366-105.631-116.288-149.4-181.074-44.188-65.408-82.142-135.332-112.806-207.83C32.349,1548.903,0,1388.672,0,1223.5s32.349-325.402,96.149-476.242c30.664-72.498,68.617-142.422,112.806-207.83,43.769-64.786,94.034-125.708,149.4-181.074s116.288-105.631,181.074-149.4c65.407-44.188,135.332-82.142,207.829-112.806C898.098,32.349,1058.33,0,1223.5,0s325.402,32.349,476.242,96.149c72.497,30.664,142.422,68.617,207.829,112.806,64.786,43.769,125.709,94.035,181.074,149.4,55.366,55.366,105.631,116.288,149.399,181.074,44.189,65.408,82.143,135.333,112.807,207.83,63.8,150.84,96.149,311.071,96.149,476.242s-32.35,325.402-96.149,476.242c-30.664,72.498-68.617,142.421-112.807,207.83-43.769,64.786-94.033,125.708-149.399,181.074-55.365,55.366-116.288,105.631-181.074,149.399-65.407,44.189-135.332,82.143-207.829,112.807-150.84,63.8-311.071,96.149-476.242,96.149ZM1223.5,2.147c-164.882,0-324.832,32.292-475.405,95.979-72.37,30.61-142.171,68.497-207.464,112.608-64.674,43.692-125.489,93.87-180.758,149.139-55.269,55.269-105.446,116.085-149.139,180.758-44.111,65.293-81.998,135.094-112.607,207.464C34.439,898.669,2.147,1058.618,2.147,1223.5s32.292,324.832,95.979,475.406c30.61,72.37,68.497,142.17,112.607,207.463,43.693,64.673,93.87,125.489,149.139,180.758,55.269,55.269,116.084,105.446,180.758,149.139,65.293,44.111,135.094,81.998,207.464,112.607,150.573,63.688,310.523,95.98,475.405,95.98s324.832-32.293,475.405-95.98c72.37-30.609,142.171-68.496,207.464-112.607,64.674-43.692,125.489-93.87,180.758-149.139s105.446-116.084,149.139-180.758c44.111-65.293,81.998-135.094,112.607-207.463,63.688-150.574,95.98-310.523,95.98-475.406s-32.293-324.832-95.98-475.405c-30.609-72.37-68.496-142.171-112.607-207.464-43.692-64.673-93.87-125.489-149.139-180.758s-116.084-105.446-180.758-149.139c-65.293-44.111-135.094-81.998-207.464-112.608C1548.333,34.439,1388.382,2.147,1223.5,2.147Z" fill="#fff"/>
        </g>
        <g>
          <path d="M2177.99,1249.209c-8.974,7.257-16.042,16.552-24.108,24.651-1.141,1.141-4.986,1.086-5.795,1.917-12.608,13.084-21.172,29.371-31.52,43.618-27.376,37.658-54.686,76.578-85.408,111.555-1.961,2.227-12.807,18.402-13.871,18.956l-2.582.122-56.271-52.127c-.643-2.127,2.249-4.409,3.59-5.728,9.894-9.683,32.063-23.454,38.189-36.262,10.791-22.557.676-96.809-10.337-120.385-5.074-10.868-14.502-7.168-21.527-15.455-2.526-2.98-7.39-16.84-6.592-20.374,3.058-13.527,18.125-23.111,31.731-22.003,22.701,1.85,27.642,33.547,9.949,45.247-.754,3.512.421,6.802,1.219,10.126,1.95,8.176,21.139,51.241,25.98,58.763,1.285,1.983,3.39,3.346,4.199,5.739l3.335.41,19.122-76.091c1.529-7.423-10.503-12.121-12.364-17.682-7.578-22.789,12.974-43.674,36.14-34.71,1.141.443,11.423,11.566,11.711,12.364,4.199,11.633-2.714,28.894-14.768,32.694-3.235,28.119-4.531,57.29,6.182,84.356l3.656,3.025c7.888,2.16,12.619-6.969,16.209-9.528,21.571-15.4,39.685-31.542,56.968-51.052-.698-11.511-2.692-23.499,5.894-32.727,10.714-11.511,32.185-11.788,39.718,3.523,7.711,15.677-10.425,42.012-28.651,37.059Z" fill="#fff"/>
          <path d="M976.213,1203.408c55.24-99.434,118.069-308.296-46.299-339.938-21.604-4.166-53.922-.266-71.039-14.99-12.785-11.013-18.69-36.561-29.127-51.296-16.286-22.989-51.152-45.036-78.938-49.822-74.385-12.807-154.143,37.192-160.137,115.599-1.086,14.059,2.016,28.473,1.706,41.524-.576,24.241-23.188,29.747-39.331,41.336-23.742,17.04-51.961,38.046-73.487,57.401-10.88,9.772-26.767,31.077-37.68,38.311-5.983,3.966-11.378,3.445-17.35,6.326.122-.831-.266-1.673-1.141-1.817-10.337-1.64-19.798-7.733-30.002-9.872-129.436-27.133-223.653,123.432-117.283,214.114,6.98,5.961,16.685,10.126,23.133,15.322,37.381,30.102,18.69,62.375,23.831,103.467,3.346,17.051,10.082,32.229,16.94,47.485,39.165,50.664,108.763,59.24,168.845,58.475,158.198-2.016,319.265-77.963,418.921-199.766.532-.654.033-2.371.432-2.858.676-.842,2.903-.72,3.169-1.052.421-.532-.975-2.582-.399-3.335,16.364-20.939,32.495-41.69,45.236-64.613ZM744.916,777.341c76.191,14.236,101.307,113.76,48.249,168.047-42.333,43.308-119.62,37.912-154.265-12.796-52.238-76.479,17.649-171.77,106.015-155.251ZM773.278,1220.436l-4.764.266c-2.98-20.718,1.972-48.426,24.706-54.542l6.227,3.013c15.034,20.33-13.14,39.065-26.169,51.263ZM707.092,1266.669c-8.597,6.492-14.503,6.825-24.385,8.908-.421.088-2.061,3.025-5.218,3.235-4.387.277-17.261-2.703-18.602-8.054l.011-9.528c7.844-9.052,23.908-11.567,35.331-8.597,4.122,1.075,17.815,7.888,12.863,14.037ZM341.649,1252.311c-125.681-25.703-91.302-208.873,37.735-189.186,124.506,18.978,102.282,217.825-37.735,189.186ZM736.396,1374.247c-52.648,24.44-166.961,47.895-221.924,40.937-132.871-16.807-99.789-167.072,19.355-156.325,1.13-.233,1.23,1.629,1.806,1.695,64.768,7.678,100.52,59.782,96.565,123.443l2.991,2.98,39.619-10.137c93.164-28.096,178.849-99.047,224.905-183.424,19.643-35.985,45.878-107.112,33.448-146.875-5.861-18.746-23.443-26.213-19.987-49.69,1.917-12.918,15.788-13.804,26.291-13.55,34.002,15.068,23.388,67.66,18.546,95.922-22.324,130.655-101.429,239.23-221.614,295.024Z" fill="#fff"/>
          <path d="M2329.33,1534.073c-6.348.244-15.754,5.34-19.422,10.292-4.941,6.67-5.805,14.547-6.636,22.446-12.918,4.132-26.058,5.706-39.297,7.911-2.083.354-15.212,6.326-17.139,1.052l1.008-4.997,21.072-14.635c1.008-6.26,5.296-4.221,7.944-6.415,4.587-3.811,16.009-12.73,19.322-16.641,1.651-1.95-.288-4.498,1.185-5.396,8.298-1.041,16.275,2.083,24.307-1.285,1.341-.565,14.525-15.533,14.813-16.929,2.415-11.733-4.354-29.437-17.128-31.919-20.707-4.01-33.215,14.026-31.952,32.75.067,1.075,3.18,2.748,2.559,5.816-.964,1.44-2.559,3.324-3.767,4.531-3.003,2.991-29.005,17.283-34.234,19.743-2.016.953-16.873,7.367-17.638,6.802l-.831-5.229c6.37-2.194,5.096-6.747,7.478-10.636,7.367-12.054,13.162-26.379,19.588-36.35,6.847-10.614,9.162-4.099,16.076-8.021,18.657-10.558,13.184-54.897-18.712-48.626-19.355,3.811-23.443,29.581-13.716,44.615.332,2.028-.111,3.922-.709,5.839-4.587,14.691-41.857,53.069-54.764,60.89-47.108,28.529-70.153,5.528-103.401-23.166-28.03-24.197-55.86-48.892-83.093-73.133-60.093-53.456-119.554-130.168-205.405-134.688-4.31,1.983-9.318-.044-11.688-.022-1.263,0-.62,1.695-4.144,1.817-52.083,1.806-109.162,16.197-161.821,28.229-38.223,8.741-79.791,18.934-118.911,29.182-17.782,4.653-15.433,6.935-37.569,5.728-55.694-3.047-114.303-6.825-170.241-11.766-37.481-3.313-140.25-4.598-148.415-55.163-5.783-35.841,31.764-111.156,49.911-141.922,46.51-78.872,110.325-164.524,184.688-216.662,28.495-19.976,59.971-36.805,93.873-48.415,5.717-1.961,13.915-4.786,19.499-6.382,3.401-.964,2.083,2.304,4.376,1.606.421-.122,4.986-4.354,7.279-4.908,36.428-8.797,76.822-12.276,113.593-11.622,11.6.199,23.499-1.252,34.832,1.54,4.487,19.3,23.975,34.478,42.577,21.327,25.028-17.704,5.263-57.367-22.922-45.723-3.523,1.451-6.902,7.489-11.123,7.755-34.445-10.226-69.942-9.218-105.683-14.813-.897-.144-11.722-3.313-12.054-3.855-.521-2.061,1.263-3.811,2.77-4.742,17.56-10.791,62.198-17.56,82.417-18.092,11.267-.288,22.535.122,33.736,1.219,7.8,28.34,39.652,29.958,52.205,3.113.565-8.641-1.596-24.64-9.761-29.16-7.401-4.11-21.56-4.332-28.983-.299-3.7,2.005-8.52,11.057-11.423,11.932-29.359-6.647-58.863-4.376-88.965-6.647-1.407-.111-1.219-1.617-1.806-1.684l-15.123-1.407c-1.307-2.792,9.794-7.545,12.253-8.531,16.275-6.526,39.552-12.431,56.27-14.968,1.983-.299,3.767-3.246,9.284-1.451,17.981,28.174,56.259,11.6,49.069-21.316-1.839-8.376-14.857-17.217-23.488-17.228-12.819-.022-23.233,9.927-28.152,20.917-37.569,5.606-76.069,9.351-111.311,23.754l-2.094-.698,8.187-13.804c.942-11.821-2.725-27.011-15.289-31.442-22.512-7.933-40.184,9.495-38.012,31.941l-55.761,30.889c-28.706,16.896-48.659,43.242-72.313,64.502-22.147,19.887-54.01,30.633-78.872,45.18-78.44,45.856-156.746,109.25-223.088,173.088-23.343,22.479-30.467,61.877-44.903,91.735-58.154,120.274-161.887,214.911-286.67,261.931-1.418.543-4.376-.299-6.725.576-1.507.554-.454,2.515-1.972,3.069-12.963,4.786-28.517,9.185-41.979,11.633-46.022,55.661-93.352,110.004-161.776,137.768-16.652,6.758-62.607,22.546-78.229,19.876-1.019-.177-3.279-2.98-5.684-2.449-1.595-4.033-1.928-8.586-.465-12.719,2.615-7.434,19.565-27.276,24.584-35.043,11.112-17.161,42.765-62.453,45.214-80.511l-.155-3.767c-49.125-1.352-103.146-9.461-139.508-45.679-1.141-1.13-3.025-5.916-4.62-7.589-19.233-20.208-54.01-24.651-79.88-33.293l-48.626-5.074c-10.725-15.633-35.663-24.629-49.69-7.7-22.701,27.376,25.46,58.918,43.829,29.315l4.686-.665,29.991,23.166.288,4.022c-4.432,3.745-6.792-.21-8.553.033-9.34,1.263-21.726,3.745-30.922,5.03-13.417,1.861-26.8,3.833-40.305,5.074l-19.976,4.886c-11.112-9.816-23.355-13.849-37.359-5.54-28.817,17.095,3.966,62.297,33.835,39.641,4.221-3.202,9.184-11.09,7.899-16.607l45.092,4.199,49.346,11.832.155,3.789-58.365,37.492c-6.293-10.769-29.492-5.196-35.974,3.59-14.325,19.377,5.573,40.516,25.892,38.777,13.483-1.152,24.706-12.608,22.945-26.49,1.03-2.393,43.009-18.148,48.194-19.499,21.194-5.528,88.943-18.181,104.21-3.822,19.621,18.48-16.331,50.399-23.355,67.926l-31.597,39.53-6.891,28.185c8.597,44.682,61.3,46.499,98.415,48.039,44.216,1.839,89.762-1.651,132.815-6.703.842-.1,0,1.817,1.363,1.651.089-.011-.277-1.518.598-1.629,7.689-.964,15.3-2.316,22.214-3.412,69.665-10.99,124.85-31.132,187.258-63.062,10.093-5.174,21.504-8.919,29.659-16.707,6.681-1.728,13.361,3.612,19.089,5.119,217.16,57.367,501.626,76.922,727.893,51.396,132.849-14.99,289.584-56.16,403.665-129.846,2.448-1.584,7.434-3.579,10.403-4.066,1.662-4.21,2.183-4.764-.1-8.675-1.208-2.061-32.761-27.421-36.904-30.213-7.334-4.952-46.566-26.457-52.947-26.667-74.728,32.794-155.373,55.218-236.837,63.228-1.54.155-1.041,1.629-2.448,1.751-4.388.377-21.482,1.739-24.297-.344l-1.662-6.149c.543-2.127,18.945-13.516,22.025-15.134,61.034-32.074,149.501-54.631,217.46-57.356,47.119-1.894,105.295,50.886,140.959,79.193,36.029,28.595,62.862,57.733,96.332,86.483,45.679,39.22,86.594,35.309,141.313,19.499,5.861-1.695,14.17-9.76,20.828-6.603,11.567-8.708,25.914-13.45,38.976-19.998,4.598-2.304,10.691-4.631,13.816-6.271,12.929-6.78,30.091-16.197,42.3-23.787,1.108-.687,1.008-3.778,2.559-4.731,8.941-5.506,18.989,3.59,28.894,2.515,27.953-3.047,32.639-51.052-.942-49.767ZM1487.788,790.614c1.884.532,7.634,4.864,10.137,5.617l.155,3.191c-6.116-3.169-32.672,17.228-34.788,15.632l-3.412-6.47c9.318-5.362,16.176-21.338,27.908-17.97ZM1234.211,1649.528c-84.5-4.819-179.846-23.621-259.859-55.728-1.097-.443-.344-2.57-1.95-3.224-1.64-.665-5.473,0-7.921-1.042-136.804-58.608-71.737-234.111,68.856-217.315,51.817,6.182,109.749,26.734,161.821,34.677,35.32,5.384,71.305,8.309,106.448,11.5,74.761,6.792,198.658-4.232,216.318,96.288,25.825,146.941-192.432,140.039-283.712,134.843Z" fill="#fff"/>
          <path d="M1381.739,1537.275l-16.53-12.929-28.828-.31c-3.446-4.077,10.625-7.844,12.165-9.672l-6.692-18.225c-.21-2.282,5.606-1.274,6.448-1.008,2.803.897,7.866,5.861,12.375,6.116,6.825.399,13.517-6.404,20.928-4.542,4.144,2.515-4.498,12.442-4.797,13.793-1.463,6.669,3.634,19.743,4.93,26.778Z" fill="#fff"/>
          <path d="M1398.369,1564.707c-1.872-2.116,8.841-15.178,10.093-18.613,23.044-63.228-78.418-81.73-107.844-35.121-3.146,5.673-3.656,17.527-5.34,23.188-.066.222-2.338,3.667-3.268,3.113-.122-3.036-2.016-2.615-2.493-6.204-5.85-43.385,45.335-70.252,82.827-65.787,53.556,6.393,76.756,70.031,26.025,99.423Z" fill="#fff"/>
          <path d="M544.994,1396.848c-22.324.632-42.355-27.243-42.422-47.795.51-2.305,6.06-7.091,8.276-6.936.399.034,6.747,3.224,7.224,3.568,13.306,9.683,15.034,38.189,26.922,51.163Z" fill="#fff"/>
          <path d="M796.732,891.056c-4.243,25.46-38.71,58.763-66.02,58.763h-18.702c6.991-5.573,14.912-7.911,21.516-14.613,47.596-48.316-15.123-122.767-69.1-88.411-4.941,3.147-10.902,14.835-16.397,15.356-1.772-3.9,8.154-24.961,10.869-28.795,45.934-64.923,152.049-27.698,137.834,57.7Z" fill="#fff"/>
          <path d="M303.527,1204.593c-41.258-49.257.388-122.545,62.563-118.213,5.285.365,14.281,1.872,19.521,3.135,3.8.92,9.861,4.698,13.971,5.728l-1.064,2.26c-2.028,1.341-24.274,3.722-29.038,5.274-14.901,4.864-47.917,27.487-56.913,40.04-.499.698-3.29,7.312-2.471,8.697l17.605,13.516c15.256-21.737,36.893-39.718,60.248-52.348,1.296,2.271-19.322,27.964-21.837,32.628-2.637,4.897-13.661,27.964-9.528,31.974l22.413,6.814c4.022-1.041,8.653-28.462,10.481-33.702,2.847-8.176,18.613-39.929,27.886-39.353,4.709.288,15.488,19.444,17.029,23.931,27.598,80.423-80.102,130.212-130.866,69.621Z" fill="#fff"/>
        </g>
        <path d="M1294.034,2213.26h29.965v-8.135h-29.965v8.135ZM1320.24,2262.017c-2.849,3.26-6.607,4.891-11.276,4.891s-8.409-1.631-11.223-4.891c-2.815-3.261-4.222-7.466-4.222-12.614s1.407-9.354,4.222-12.614c2.814-3.261,6.555-4.892,11.223-4.892s8.427,1.631,11.276,4.892c2.849,3.26,4.273,7.465,4.273,12.614s-1.424,9.353-4.273,12.614M1294.91,2273.035c4.084,2.231,8.769,3.346,14.055,3.346s9.971-1.115,14.056-3.346c4.085-2.231,7.242-5.388,9.473-9.473,2.231-4.085,3.347-8.804,3.347-14.158,0-5.286-1.116-9.971-3.347-14.056-2.231-4.085-5.388-7.26-9.473-9.525-4.085-2.265-8.77-3.398-14.056-3.398s-9.971,1.132-14.055,3.398c-4.085,2.265-7.242,5.44-9.474,9.525-2.231,4.085-3.346,8.769-3.346,14.056,0,5.354,1.115,10.074,3.346,14.158,2.231,4.085,5.389,7.242,9.474,9.473M1239.357,2223.042v9.782h28.214l-29.45,35.01v7.928h45.719v-9.782h-30.788l29.45-35.01v-7.929h-43.145ZM1224.427,2275.764h11.121v-52.721h-11.121v52.721ZM1234.827,2203.838c-1.304-1.27-2.917-1.905-4.839-1.905s-3.535.636-4.839,1.905c-1.304,1.27-1.957,2.866-1.957,4.788s.652,3.518,1.957,4.788c1.304,1.27,2.918,1.905,4.839,1.905s3.536-.636,4.839-1.905c1.304-1.27,1.957-2.866,1.957-4.788s-.652-3.518-1.957-4.788M1209.291,2243.637h-28.317c.412-3.707,1.939-6.676,4.582-8.908,2.643-2.231,5.784-3.346,9.422-3.346,3.913,0,7.156,1.081,9.73,3.244,2.574,2.163,4.102,5.166,4.582,9.01M1172.17,2235.244c-2.162,4.085-3.244,8.839-3.244,14.262,0,5.354,1.116,10.056,3.347,14.107,2.231,4.05,5.388,7.191,9.473,9.422,4.085,2.231,8.873,3.346,14.364,3.346,6.315,0,11.584-1.716,15.806-5.148,4.221-3.432,6.813-7.826,7.774-13.18h-11.122c-.755,2.952-2.299,5.234-4.633,6.847-2.334,1.613-5.217,2.42-8.649,2.42-4.325,0-7.792-1.339-10.4-4.016-2.609-2.678-4.051-6.316-4.325-10.915v-.617h39.746c.206-1.442.309-2.849.309-4.222-.069-5.08-1.218-9.508-3.449-13.283-2.231-3.776-5.286-6.693-9.165-8.753-3.879-2.059-8.358-3.089-13.438-3.089-5.012,0-9.456,1.115-13.335,3.346-3.879,2.231-6.899,5.389-9.062,9.473M1122.797,2252.286l-11.636-.206c.069,4.737,1.321,8.941,3.759,12.614,2.437,3.672,5.818,6.539,10.142,8.598,4.325,2.059,9.336,3.089,15.034,3.089,5.148,0,9.748-.944,13.798-2.832,4.051-1.888,7.208-4.513,9.474-7.877,2.265-3.364,3.398-7.174,3.398-11.43,0-4.393-1.064-7.929-3.192-10.606-2.129-2.678-4.874-4.703-8.238-6.075-3.364-1.373-7.38-2.471-12.048-3.295-4.599-.824-8.135-1.579-10.606-2.265-2.471-.687-4.445-1.717-5.92-3.09-1.476-1.372-2.214-3.226-2.214-5.56,0-3.295,1.253-5.852,3.759-7.671,2.505-1.819,5.852-2.729,10.04-2.729,4.325,0,7.894,1.133,10.709,3.398,2.815,2.265,4.428,5.251,4.839,8.958h11.636c-.206-4.325-1.476-8.169-3.81-11.533-2.334-3.364-5.526-6.007-9.576-7.928-4.05-1.922-8.649-2.883-13.798-2.883-5.012,0-9.456.892-13.335,2.677-3.879,1.785-6.9,4.291-9.062,7.517-2.163,3.226-3.244,6.899-3.244,11.018,0,4.462,1.047,8.066,3.14,10.811,2.094,2.746,4.806,4.788,8.135,6.127,3.329,1.338,7.328,2.419,11.996,3.244,4.599.824,8.169,1.613,10.709,2.368,2.539.755,4.547,1.837,6.024,3.244,1.476,1.407,2.213,3.312,2.213,5.714,0,3.364-1.356,5.99-4.067,7.878-2.712,1.887-6.264,2.832-10.657,2.832-5.012,0-9.079-1.287-12.202-3.861-3.124-2.575-4.857-5.99-5.2-10.246" fill="#fff"/>
        <path d="M1232.854,227.216h9.114v-61.637l-.24-.16-8.874,8.874v52.923ZM1235.093,163.86c-1.652,3.811-3.478,7.369-5.476,10.672-1.999,3.305-4.065,6.21-6.196,8.714.48.854,1.04,1.946,1.679,3.278.64,1.332,1.226,2.665,1.759,3.997.532,1.332.906,2.372,1.119,3.118,2.718-3.198,5.329-6.915,7.834-11.152,2.504-4.237,4.809-8.727,6.915-13.471,2.105-4.743,3.903-9.433,5.396-14.07l-8.874-2.638c-1.119,3.891-2.506,7.742-4.157,11.552M1276.664,158.623c-.587,1.493-1.519,3.238-2.798,5.237-1.279,1.998-2.532,3.665-3.757,4.996.746.694,1.651,1.599,2.718,2.718,1.066,1.119,1.919,2.132,2.558,3.038,1.811-1.811,3.678-3.997,5.596-6.556,1.919-2.558,3.598-5.036,5.037-7.435l-5.596-4.077-1.679.479h-2.079v1.599ZM1274.585,184.446c1.066,5.81,2.465,11.259,4.197,16.348,1.731,5.09,3.917,9.607,6.555,13.551,2.638,3.945,5.823,7.195,9.553,9.754.426-.8.999-1.666,1.719-2.598.72-.933,1.465-1.839,2.239-2.718.772-.879,1.505-1.585,2.198-2.118-3.412-2.025-6.356-4.743-8.834-8.154-2.478-3.41-4.531-7.288-6.156-11.632-1.626-4.343-2.891-8.914-3.797-13.711l-7.675,1.279ZM1290.135,192.32c-1.359,1.253-2.718,2.438-4.077,3.557-1.359,1.119-2.626,2.079-3.797,2.878l5.356,5.196c1.865-1.119,3.917-2.518,6.156-4.197,2.239-1.679,4.317-3.398,6.236-5.157l-6.475-5.676c-.907,1.013-2.038,2.146-3.397,3.398M1266.471,206.47c-2.158,1.573-4.517,3.078-7.075,4.517-2.558,1.439-5.144,2.731-7.755,3.877-2.612,1.146-5.144,2.092-7.595,2.838.906.853,1.811,1.932,2.718,3.238.906,1.305,1.651,2.491,2.238,3.557,3.304-1.387,6.756-3.078,10.353-5.076,3.598-1.999,7.036-4.157,10.313-6.476,3.278-2.318,6.008-4.623,8.194-6.915l-5.996-4.157c-1.439,1.492-3.238,3.025-5.396,4.596M1261.675,198.156c-2.586,1.519-5.317,2.892-8.194,4.118-2.878,1.227-5.596,2.238-8.154,3.038.799.747,1.599,1.706,2.399,2.878.799,1.173,1.439,2.212,1.919,3.118,2.611-1.066,5.396-2.371,8.354-3.917,2.958-1.546,5.769-3.21,8.434-4.997,2.665-1.785,4.929-3.504,6.795-5.157l-5.196-3.517c-1.653,1.439-3.771,2.918-6.356,4.436M1267.071,199.555c1.705,2.612,2.85,5.17,3.438,7.675.586,2.506.72,4.704.4,6.595-.32,1.893-.88,3.238-1.679,4.037-.534.639-1.133,1.067-1.799,1.279-.667.213-1.399.319-2.198.319s-1.719-.026-2.758-.08c-1.04-.053-2.146-.16-3.318-.32.746,1.172,1.292,2.531,1.639,4.077.346,1.545.546,2.878.6,3.997.959.052,1.931.106,2.918.16.985.052,1.905.08,2.758.08,1.759-.107,3.29-.387,4.596-.839,1.305-.453,2.599-1.267,3.877-2.438,1.332-1.119,2.345-2.718,3.038-4.797.692-2.079,1.025-4.436.999-7.075-.028-2.638-.507-5.369-1.439-8.194-.933-2.824-2.386-5.582-4.357-8.274-1.972-2.691-4.531-5.129-7.674-7.315l-6.396,3.917c3.198,2.186,5.648,4.584,7.355,7.195M1262.754,186.524c-2.718,1.546-5.623,2.958-8.714,4.237-3.092,1.279-6.156,2.346-9.194,3.198.533.479,1.119,1.119,1.759,1.919.639.799,1.279,1.586,1.919,2.358.639.773,1.145,1.453,1.519,2.038,3.091-1.171,6.275-2.57,9.553-4.197,3.278-1.625,6.395-3.438,9.353-5.436,2.958-1.999,5.529-4.063,7.715-6.196l-7.115-2.878c-1.813,1.759-4.077,3.412-6.795,4.957M1268.11,183.886h8.554v-12.711h-8.554v12.711ZM1249.003,187.324h48.207v-19.027h-48.207v19.027ZM1288.016,180.848h-30.379v-6.076h30.379v6.076ZM1256.198,163.98h23.344v-6.955h-17.747l-5.596,6.955ZM1255.439,158.424c-1.519,2.158-3.305,4.277-5.356,6.356-2.053,2.079-4.331,4.025-6.836,5.836,1.119.533,2.345,1.333,3.677,2.398,1.332,1.067,2.399,2.053,3.198,2.958,4.05-3.25,7.541-6.755,10.473-10.513,2.93-3.758,5.489-7.607,7.674-11.552l-9.034-1.679c-1.013,1.972-2.278,4.037-3.797,6.196M1177.452,223.298h9.753v-24.783h-9.753v24.783ZM1146.114,226.177h72.83v-7.834h-72.83v7.834ZM1155.788,214.265h53.563v-7.435h-53.563v7.435ZM1152.43,202.913h60.758v-7.595h-60.758v7.595ZM1186.726,189.642h30.059v-31.658h-30.059v31.658ZM1207.432,181.567h-11.912v-15.509h11.912v15.509ZM1146.754,192.041c3.89-.266,8.274-.56,13.151-.88,4.877-.32,9.793-.666,14.75-1.039l.08-6.955c-5.33.267-10.54.533-15.629.799-5.09.267-9.474.48-13.151.639l.799,7.435ZM1151.551,187.803l8.554-1.039v-28.141h-8.554v29.18ZM1171.776,193.799h8.554v-35.096h-8.554v35.096ZM1156.507,180.449h18.787v-6.076h-18.787v6.076ZM1156.507,171.015h18.787v-5.916h-18.787v5.916ZM1146.993,162.061h37.654v-7.115h-37.654v7.115Z" fill="#fff"/>
      </g>
      <g>
        <circle cx="1223.82" cy="1223.501" r="0" fill="#1d1d1b"/>
        <path d="M1223.82,1309.934c-47.659,0-86.434-38.774-86.434-86.434s38.774-86.433,86.434-86.433,86.434,38.774,86.434,86.433-38.774,86.434-86.434,86.434ZM1223.82,1162.063c-33.877,0-61.438,27.561-61.438,61.437s27.561,61.438,61.438,61.438,61.438-27.561,61.438-61.438-27.561-61.437-61.438-61.437Z" fill="#e52421"/>
        <circle cx="1223.82" cy="1223.501" r="73.935" fill="#fff"/>
      </g>
    </g>
  </g>
</svg>