<?xml version="1.0" encoding="UTF-8"?>
<svg id="b" data-name="Livello 2" xmlns="http://www.w3.org/2000/svg" width="863.248mm" height="863.248mm" viewBox="0 0 2447.001 2447.003">
  <g id="c" data-name="Livello 1">
    <g>
      <g id="d" data-name="Mat 02">
        <g>
          <circle cx="1223.501" cy="1223.501" r="1222.427" fill="#e52421"/>
          <path d="M1223.5,2447.003c-165.171,0-325.402-32.35-476.242-96.149-72.497-30.664-142.422-68.618-207.829-112.807-64.786-43.769-125.709-94.034-181.074-149.399-55.366-55.366-105.631-116.288-149.4-181.074-44.188-65.408-82.142-135.332-112.806-207.83C32.349,1548.903,0,1388.672,0,1223.501s32.349-325.402,96.149-476.241c30.664-72.498,68.617-142.422,112.806-207.83,43.769-64.786,94.034-125.708,149.4-181.074,55.365-55.365,116.288-105.631,181.074-149.399,65.407-44.188,135.332-82.143,207.829-112.807C898.098,32.35,1058.33,0,1223.5,0s325.402,32.35,476.242,96.149c72.497,30.664,142.422,68.618,207.829,112.807,64.786,43.769,125.709,94.034,181.074,149.399s105.631,116.288,149.399,181.074c44.189,65.408,82.143,135.332,112.807,207.83,63.8,150.839,96.149,311.07,96.149,476.241s-32.35,325.402-96.149,476.242c-30.664,72.498-68.617,142.422-112.807,207.83-43.769,64.786-94.033,125.708-149.399,181.074s-116.288,105.631-181.074,149.399c-65.407,44.188-135.332,82.143-207.829,112.807-150.84,63.8-311.071,96.149-476.242,96.149ZM1223.5,2.147c-164.882,0-324.832,32.293-475.405,95.98-72.37,30.609-142.171,68.496-207.464,112.607-64.674,43.692-125.489,93.87-180.758,149.139-55.269,55.27-105.446,116.085-149.139,180.758-44.111,65.293-81.998,135.094-112.607,207.464C34.439,898.67,2.147,1058.619,2.147,1223.501s32.292,324.832,95.979,475.405c30.61,72.37,68.497,142.171,112.607,207.465,43.693,64.673,93.87,125.488,149.139,180.758,55.269,55.269,116.084,105.446,180.758,149.139,65.293,44.111,135.094,81.998,207.464,112.607,150.573,63.688,310.523,95.98,475.405,95.98s324.832-32.293,475.405-95.98c72.37-30.609,142.171-68.496,207.464-112.607,64.674-43.692,125.489-93.87,180.758-149.139,55.269-55.27,105.446-116.085,149.139-180.758,44.111-65.294,81.998-135.095,112.607-207.465,63.688-150.573,95.98-310.523,95.98-475.405s-32.293-324.831-95.98-475.405c-30.609-72.37-68.496-142.171-112.607-207.464-43.692-64.673-93.87-125.488-149.139-180.758-55.269-55.269-116.084-105.446-180.758-149.139-65.293-44.111-135.094-81.998-207.464-112.607C1548.333,34.44,1388.382,2.147,1223.5,2.147Z" fill="#fff"/>
        </g>
        <path d="M1310.684,2213.451h35.763v-9.709h-35.763v9.709ZM1341.961,2271.643c-3.4,3.891-7.886,5.837-13.457,5.837s-10.037-1.946-13.395-5.837c-3.36-3.892-5.039-8.91-5.039-15.055s1.679-11.164,5.039-15.055c3.359-3.892,7.824-5.838,13.395-5.838s10.057,1.946,13.457,5.838c3.4,3.891,5.1,8.909,5.1,15.055s-1.7,11.163-5.1,15.055M1311.729,2284.793c4.874,2.663,10.466,3.994,16.775,3.994s11.901-1.331,16.776-3.994c4.875-2.662,8.644-6.431,11.306-11.306,2.663-4.875,3.995-10.508,3.995-16.898,0-6.309-1.332-11.901-3.995-16.776-2.662-4.875-6.431-8.664-11.306-11.368-4.875-2.704-10.467-4.055-16.776-4.055s-11.901,1.351-16.775,4.055c-4.875,2.704-8.644,6.493-11.307,11.368-2.663,4.875-3.994,10.466-3.994,16.776,0,6.39,1.331,12.023,3.994,16.898,2.663,4.875,6.432,8.644,11.307,11.306M1245.427,2225.127v11.675h33.674l-35.149,41.785v9.463h54.566v-11.675h-36.746l35.149-41.784v-9.464h-51.494ZM1227.608,2288.05h13.273v-62.923h-13.273v62.923ZM1240.02,2202.207c-1.556-1.515-3.481-2.274-5.776-2.274s-4.219.759-5.776,2.274c-1.557,1.515-2.335,3.421-2.335,5.715s.778,4.199,2.335,5.715c1.557,1.515,3.482,2.274,5.776,2.274s4.22-.759,5.776-2.274c1.557-1.515,2.335-3.421,2.335-5.715s-.778-4.199-2.335-5.715M1209.543,2249.706h-33.796c.492-4.425,2.315-7.968,5.469-10.631,3.154-2.662,6.903-3.994,11.246-3.994,4.67,0,8.541,1.29,11.613,3.871,3.072,2.581,4.896,6.165,5.469,10.754M1165.239,2239.69c-2.58,4.875-3.871,10.549-3.871,17.022,0,6.39,1.332,12.002,3.995,16.837,2.662,4.834,6.431,8.582,11.306,11.245,4.875,2.663,10.59,3.994,17.144,3.994,7.537,0,13.826-2.048,18.865-6.144,5.038-4.097,8.131-9.34,9.279-15.731h-13.274c-.901,3.523-2.744,6.247-5.53,8.172-2.786,1.925-6.226,2.888-10.323,2.888-5.162,0-9.3-1.598-12.412-4.793-3.114-3.196-4.834-7.538-5.162-13.028v-.737h47.437c.246-1.721.368-3.4.368-5.039-.082-6.062-1.454-11.347-4.116-15.853-2.663-4.507-6.309-7.989-10.938-10.446-4.629-2.458-9.975-3.687-16.038-3.687-5.981,0-11.286,1.331-15.915,3.994-4.629,2.662-8.234,6.432-10.815,11.306M1106.312,2260.029l-13.887-.246c.082,5.653,1.577,10.672,4.486,15.055,2.908,4.383,6.944,7.804,12.105,10.262,5.162,2.458,11.143,3.687,17.943,3.687,6.144,0,11.634-1.126,16.467-3.379,4.834-2.253,8.603-5.387,11.307-9.401,2.704-4.015,4.055-8.562,4.055-13.641,0-5.244-1.269-9.464-3.809-12.658-2.541-3.196-5.817-5.613-9.832-7.251-4.015-1.639-8.808-2.95-14.379-3.933-5.489-.984-9.709-1.885-12.658-2.704-2.95-.82-5.305-2.049-7.066-3.688-1.761-1.638-2.642-3.851-2.642-6.636,0-3.933,1.496-6.984,4.486-9.155,2.99-2.171,6.984-3.257,11.983-3.257,5.162,0,9.422,1.352,12.781,4.056,3.36,2.704,5.285,6.267,5.776,10.692h13.887c-.246-5.162-1.761-9.75-4.547-13.765-2.786-4.015-6.595-7.169-11.429-9.463-4.834-2.294-10.323-3.441-16.467-3.441-5.981,0-11.286,1.065-15.915,3.195-4.629,2.131-8.235,5.121-10.815,8.972-2.581,3.851-3.871,8.234-3.871,13.15,0,5.325,1.25,9.627,3.748,12.903,2.499,3.278,5.735,5.715,9.709,7.313,3.973,1.597,8.745,2.888,14.317,3.871,5.489.983,9.75,1.925,12.782,2.826,3.031.901,5.427,2.192,7.19,3.871,1.761,1.679,2.642,3.953,2.642,6.82,0,4.015-1.618,7.149-4.854,9.402-3.236,2.252-7.476,3.379-12.72,3.379-5.981,0-10.836-1.536-14.563-4.608-3.728-3.073-5.797-7.149-6.207-12.229" fill="#fff"/>
        <path d="M1237.731,211.547h9.114s0-61.637,0-61.637l-.24-.16-8.874,8.874v52.923ZM1239.969,148.191c-1.652,3.811-3.478,7.369-5.476,10.672-1.999,3.305-4.065,6.21-6.196,8.714.48.854,1.04,1.946,1.679,3.278.64,1.332,1.226,2.665,1.759,3.997.532,1.332.906,2.372,1.119,3.118,2.718-3.198,5.329-6.915,7.834-11.152,2.504-4.237,4.809-8.727,6.915-13.471,2.105-4.743,3.903-9.433,5.396-14.07l-8.874-2.638c-1.119,3.891-2.506,7.742-4.157,11.552M1281.541,142.955c-.587,1.493-1.519,3.238-2.798,5.237-1.279,1.998-2.532,3.665-3.757,4.996.746.694,1.651,1.599,2.718,2.718,1.066,1.119,1.919,2.132,2.558,3.038,1.811-1.811,3.678-3.997,5.596-6.556,1.919-2.558,3.598-5.036,5.037-7.435l-5.596-4.077-1.679.479h-2.079s0,1.599,0,1.599ZM1279.462,168.777c1.066,5.81,2.465,11.259,4.197,16.348,1.731,5.09,3.917,9.607,6.555,13.551,2.638,3.945,5.823,7.195,9.553,9.754.426-.8.999-1.666,1.719-2.598.72-.933,1.465-1.839,2.239-2.718.772-.879,1.505-1.585,2.198-2.118-3.412-2.025-6.356-4.743-8.834-8.154-2.478-3.41-4.531-7.288-6.156-11.632-1.626-4.343-2.891-8.914-3.797-13.711l-7.675,1.279ZM1295.012,176.652c-1.359,1.253-2.718,2.438-4.077,3.557-1.359,1.119-2.626,2.079-3.797,2.878l5.356,5.196c1.865-1.119,3.917-2.518,6.156-4.197,2.239-1.679,4.317-3.398,6.236-5.157l-6.475-5.676c-.907,1.013-2.038,2.146-3.397,3.398M1271.348,190.802c-2.158,1.573-4.517,3.078-7.075,4.517-2.558,1.439-5.144,2.731-7.755,3.877-2.612,1.146-5.144,2.092-7.595,2.838.906.853,1.811,1.932,2.718,3.238.906,1.305,1.651,2.491,2.238,3.557,3.304-1.387,6.756-3.078,10.353-5.076,3.598-1.999,7.036-4.157,10.313-6.476,3.278-2.318,6.008-4.623,8.194-6.915l-5.996-4.157c-1.439,1.492-3.238,3.025-5.396,4.596M1266.551,182.487c-2.586,1.519-5.317,2.892-8.194,4.118-2.878,1.227-5.596,2.238-8.154,3.038.799.747,1.599,1.706,2.399,2.878.799,1.173,1.439,2.212,1.919,3.118,2.611-1.066,5.396-2.371,8.354-3.917,2.958-1.546,5.769-3.21,8.434-4.997,2.665-1.785,4.929-3.504,6.795-5.157l-5.196-3.517c-1.653,1.439-3.771,2.918-6.356,4.436M1271.948,183.886c1.705,2.612,2.85,5.17,3.438,7.675.586,2.506.72,4.704.4,6.595-.32,1.893-.88,3.238-1.679,4.037-.534.639-1.133,1.067-1.799,1.279-.667.213-1.399.319-2.198.319s-1.719-.026-2.758-.08c-1.04-.053-2.146-.16-3.318-.32.746,1.172,1.292,2.531,1.639,4.077.346,1.545.546,2.878.6,3.997.959.052,1.931.106,2.918.16.985.052,1.905.08,2.758.08,1.759-.107,3.29-.387,4.596-.839,1.305-.453,2.599-1.267,3.877-2.438,1.332-1.119,2.345-2.718,3.038-4.797.692-2.079,1.025-4.436.999-7.075-.028-2.638-.507-5.369-1.439-8.194-.933-2.824-2.386-5.582-4.357-8.274-1.972-2.691-4.531-5.129-7.674-7.315l-6.396,3.917c3.198,2.186,5.648,4.584,7.355,7.195M1267.63,170.856c-2.718,1.546-5.623,2.958-8.714,4.237-3.092,1.279-6.156,2.346-9.194,3.198.533.479,1.119,1.119,1.759,1.919.639.799,1.279,1.586,1.919,2.358.639.773,1.145,1.453,1.519,2.038,3.091-1.171,6.275-2.57,9.553-4.197,3.278-1.625,6.395-3.438,9.353-5.436,2.958-1.999,5.529-4.063,7.715-6.196l-7.115-2.878c-1.813,1.759-4.077,3.412-6.795,4.957M1272.987,168.218h8.554s0-12.711,0-12.711h-8.554s0,12.711,0,12.711ZM1253.88,171.655h48.207s0-19.027,0-19.027h-48.207s0,19.027,0,19.027ZM1292.893,165.18h-30.379v-6.076h30.379v6.076ZM1261.075,148.311h23.344s0-6.955,0-6.955h-17.747s-5.596,6.955-5.596,6.955ZM1260.316,142.755c-1.519,2.158-3.305,4.277-5.356,6.356-2.053,2.079-4.331,4.025-6.836,5.836,1.119.533,2.345,1.333,3.677,2.398,1.332,1.067,2.399,2.053,3.198,2.958,4.05-3.25,7.541-6.755,10.473-10.513,2.93-3.758,5.489-7.607,7.674-11.552l-9.034-1.679c-1.013,1.972-2.278,4.037-3.797,6.196M1182.329,207.63h9.753s0-24.783,0-24.783h-9.753s0,24.783,0,24.783ZM1150.991,210.508h72.83s0-7.834,0-7.834h-72.83s0,7.834,0,7.834ZM1160.664,198.596h53.563s0-7.435,0-7.435h-53.563s0,7.435,0,7.435ZM1157.307,187.244h60.758s0-7.595,0-7.595h-60.758s0,7.595,0,7.595ZM1191.603,173.973h30.059s0-31.658,0-31.658h-30.059s0,31.658,0,31.658ZM1212.309,165.899h-11.912v-15.509h11.912v15.509ZM1151.63,176.372c3.89-.266,8.274-.56,13.151-.88,4.877-.32,9.793-.666,14.75-1.039l.08-6.955c-5.33.267-10.54.533-15.629.799-5.09.267-9.474.48-13.151.639l.799,7.435ZM1156.427,172.135l8.554-1.039v-28.141s-8.554,0-8.554,0v29.18ZM1176.653,178.131h8.554s0-35.096,0-35.096h-8.554s0,35.096,0,35.096ZM1161.384,164.78h18.787s0-6.076,0-6.076h-18.787s0,6.076,0,6.076ZM1161.384,155.346h18.787s0-5.916,0-5.916h-18.787s0,5.916,0,5.916ZM1151.87,146.393h37.654s0-7.115,0-7.115h-37.654s0,7.115,0,7.115Z" fill="#fff"/>
        <g>
          <path d="M1258.512,918.769c4.474,2.517,12.369,12.936,17.402,15.818,70.627,40.437,141.072,81.563,213.112,119.477l10.005-8.75c63.988-113.391,119.41-231.994,184.569-344.544,7.455-12.878,19.23-34.647,26.949-45.607,11.767-16.707,30.798-28.635,51.138-17.677,65.631,38.669,139.599,69.152,205.024,107.292,22.869,13.332,42.733,24.669,30.461,54.957-29.628,73.124-95.96,150.135-125.632,225.274l-105.96,182.324.261,6.938c40.286,6.295,25.104,64.3,29.527,94.291,6.042,16.257,23.356,9.262,33.7,20.214,11.13,11.785,16.982,45.44,17.085,61.346.103,15.964-8.82,32.192-7.535,44.616,1.062,10.27,7.638,17.428,9.524,27.037,2.75,14.008-3.362,51.32,3.724,61.01,3.569,4.881,10.367,2.8,9.894,8.829,1.326,6.564-7.514,7.881-9.582,11.797-.678,1.284.753,25.098.998,29.035l-2.206,3.838c-10.991-.915-13.883,7.793-25.262,10.464-15.599,3.661-34.878,2.62-50.885,3.618-7.916,10.447-21.194,35.275-30.988,42.433-10.225,7.473-50.282,3.678-65.133,3.568-5.788-.043-11.006,3.521-16.65,3.051-8.98-.749-21.717-11.194-29.713-14.899-3.761-1.742-9.272.205-11.72-1.01-2.389-1.186-4.222-22.925-14.583-25.328-18.03,5.843-88.049-.867-97.775,9.894-2.525,2.794-7.155,18.094-11.393,24.455-14.398,21.61-25.672,35.899-53.203,38.606-21.426,2.106-38.043-.903-61.936,2.802-.655.102-4.224-8.34-11.016-4.734-.766-18.21,7.739-36.353,3.338-54.565-1.022-4.232-2.357-8.44-6.611-3.914-6.661,39.379-35.346,72.025-73.205,84.778l-117.667-5.547c-20.516-15.385-37.151-27.177-49.603-50.578-5.069-9.526-11.032-35.896-20.211-37.495l-128.761,4.305c-15.195,29.36-25.93,70.104-63.41,77.809-19.535,4.016-31.751-.684-47.047-.355-13.726.296-32.706,5.33-48.328,3.536-8.303-.954-29.702-18.679-35.428-25.588-13.246-15.981-18.701-49.503-38.162-53.607-29.367.899-60.831,3.856-90.146,4.134-19.843.188-35.035-2.902-38.714-25.198-1.976-11.977-2.354-85.127.113-95.615,1.333-5.666,6.75-8.047,8.577-12.706,7.506-19.133-1.21-87.723-.94-112.938.491-45.885,15.33-76.521,25.972-119.253,6.894-27.682,14.891-100.279,36.675-116.22,9.947-7.279,23.05-7.359,29.754-18.039l.032-86.918c15.413-16.875,38.533-24.924,60.61-28.208,8.207-10.023-36.551-24.725-40.239-28.314-11.536-11.227-5.545-77.543-5.957-96.67-.36-16.717-7.027-36.941-3.653-55.462l47.308-17.924c-1.642-22.749-61.119-42.422-40.717-69.342,4.285-5.654,40.129-18.175,47.699-17.755,13.379.742,39.931,22.22,57.173,26.717,10.116,2.638,57.419,11.76,65.88,12.335,13.493.916,26.414-10.725,40.386-5.005,21.941,9.573,59.603,40.445,80.311,46.381,12.015,3.444,24.855-4.02,36.929-.592,3.259.925,48.505,29.159,50.222,31.578,5.59,7.876,2.922,13.938,5.711,20.719,2.781,6.761,110.348,63.42,126.514,72.611,4.742,2.696,10.365.771,13.393,2.474ZM775.065,763.885c1.033,1.402,7.935,2.227,10.991,5.38,4.691,4.84,26.006,32.917,31.04,33.225,11.576-6.226,52.801-13.277,58.077-22.481,2.765-4.824,4.194-14.879-1.671-18.287-7.121-4.138-40.543-3.49-52.72-7.623-10.052-3.412-43.114-34.538-48.215-12.096-.865,3.807.448,19.099,2.499,21.882ZM1787.66,673.106c-3.295-1.544-8.082-.245-11.191-1.681-13.889-6.416-26.875-21.339-42.659-9.328-1.066.811-13.947,19.518-15.326,21.967-102.238,181.54-201.78,369.46-302.64,549.309-7.239,12.908-13.409,23.661,1.128,33.771l211.429,115.755,15.425-1.865c23.491-38.755,47.005-77.842,69.522-117.784,83.81-148.665,164.049-292.969,246.289-442.75,19.41-35.351,38.135-31.142-7.446-57.886-46.388-27.216-115.674-66.607-164.531-89.509ZM952.1,780.764c-11.49-7.138-27.754-7.27-35.14,4.921l1.006,115.796-130.963,38.681c-6.501-17.267,2.769-103.138-8.386-109.53-5.559-3.185-13.761,1.395-18.274,5.436-8.24,7.379-1.274,35.162-1.238,46.517.078,24.989-3.015,50.522,2.489,75.169,52.2,23.29,102.776,49.97,154.322,74.694,3.56,1.707,4.758,6.349,8.289,7.81,10.286,4.255,22.735-.528,32.83-3.525,2.934-.871,10.663,1.103,7.224-5.257-4.269-7.895-41.282-18.455-51.304-23.307l-37.535-24.678,166.321,28.696c13.629-3.121,63.114-8.413,40.039-29.085l-123.528-69.42c-5.499-7.271-4.826-62.423-5.406-76.625-.188-4.612-3.276-8.616,3.769-8.08l125.468,143.477c16.097-1.344,34.8-16.641,27.273-35.627,8.803-3.529,15.466,13.027,19.13,13.518,6.331.848,15.441-2.702,22.363-2.456,4.732-5.669-16.594-25.655-18.729-30.635-1.765-4.116-.238-5.514,4.037-5.002l84.499,48.163,4.503,12.099.491,94.642,23.912-5.897-.545-36.906c7.001-2.307,5.023.373,7.288,3.207,11.572,14.478,16.938,38.228,38.046,15.226-11.79-10.15-16.347-25.398-25.149-38.268-1.447-2.116-24.51-24.074-10.707-21.494l105.615,60.241c7.571,7.088,5.276,17.433,9.371,26.606,9.741,21.817,52.8,52.229,62.428,77.296,40.615-20.52-26.274-54.047-30.325-80.558,2.547-4.102,73.191,57.073,69.544,14.655-19.239-13.07-41.523-21.571-61.386-33.243-97.411-57.241-202.422-110.746-298.008-169.508-21.818-13.413-16.239-12.965-28.672-30.485-4.134-5.825-28.1-20.328-34.554-21.652-5.673-1.164-14.931,5.313-22.809,2.611-20.876-7.158-58.171-36.153-77.599-48.221ZM890.139,801.915c-2.898-2.486-58.991,22.537-73.378,20.249-2.71-.431-2.415-5.24-2.907-5.521l-5.837.24.264,89.956,83.455-25.136-1.596-79.788ZM1106.437,1055.062l44.487-4.745c12.368-1.319,36.834,14.36,49.824,16.403,2.656-2.928.117-71.281-2.176-78.916-7.188-23.927-112.507-23.222-90.234,26.696l42.291-10.721,2.296,21.511c-23.483,3.257-48.266-.703-46.487,29.772ZM824.282,1032.89c-26.826-11.286-58.088-13.38-82.977,3.771l.497,32.448c8.464.23,26.199-10.829,32.363-3.625,2.542,2.971,5.559,15.436-.642,16.696l-29.266,8.558,2.454,20.901c3.687,4.817,67.076-12.177,78.707-15.643l-1.135-63.106ZM979.113,1068.642c36.34-3.383,72.621-8.11,108.916-11.617,1.641-10.286,2.343-22.549-.37-32.658-1.237-4.607,1.424-4.899-5.135-4.119-35.037,4.166-74.084,23.417-110.069,27.585l-1.05,20.076c4.738,6.669,6.652.832,7.709.734ZM950.289,1074.789c-8.545-7.721-24.023-15.998-34.881-21.051-3.066-1.427-2.653-4.95-6.145.572l-1.585,28.142,42.611-7.663ZM1169.524,1471.985l5.237,49.1c.791,7.416-12.059,4.464-17.05.039-11.363-10.074.821-36.446-32.354-39.578-36.1-3.408-75.237,4.484-110.756,5.529-111.617,3.283-224.941,5.982-336.772,13.95-7.133.508-31.177,1.727-33.762,6.624l-.746,63.85c2.438,12.185,21.027,13.822,31,13.782,149.956-.6,303.854-8.974,451.96-11.069,22.646-.32,45.311-2.662,67.963-.717l6.584-6.132,12.795-127.081c11.389-36.986,34.387-59.049,75.009-60.263,15.729-.47,94.699,19.75,99.146,14.387-6.471-69.701-4.615-140.502-14.658-209.436-4.746-8.631-47.033-25.446-58.785-31.545-7.382-3.832-13.656-6.336-20.058-9.662-43.571-22.638-85.792-48.844-132.014-65.873-95.932,4.059-192.243,16.068-287.068,33.736-45.122,8.407-119.127,19.884-160.074,35.515-4.306,1.644-16.209,14.502-18.359,18.72-9.762,19.143-40.68,142.201-43.894,166.601-5.463,41.469,5.342,87.894,1.494,129.938,4.25,28.516,40.691,13.72,61.062,12.888,118.389-4.837,240.056-14.493,358.038-16.295,12.956-.198,92.101,3.95,96.065,12.992ZM1324.146,1059.774l4.746,44.497c.586,5.49-6.907,25.835-6.064,28.258l21.237,11.932c12.095-13.473,14.723-80.746,1.533-88.809l-21.452,4.123ZM1300.049,1068.807c-12.349,3.83-58.533,4.997-49.504,24.733,1.588,3.471,44.821,26.455,49.833,24.374,10.864-4.511,4.232-40.4-.329-49.107ZM1403.497,1183.832c3.721,3.18,13.65,7.79,18.148,3.85l6.624-22.153-53.525-27.122c-19.776,26.437,7.406,23.141,20.137,33.512,4.672,3.806,5.451,9.209,8.616,11.913ZM1758.478,1233.803c-8.275-5.62-26.626,33.783-27.77,40.879-2.136,13.245,8.511,28.199,4.233,42.444-8.651,7.41-19.269,10.546-25.136-.586l-5.864.57c-2.242,7.516-11.672,16.988-13.18,23.439-1.654,7.079,4.341,25.138,5.441,35.036,1.758,15.82-8.34,17.743,11.856,26.7,7.167,3.179,47.892,15.606,54.541,16.084,3.005.216,32.466-2.078,35.353-2.612,25.004-4.626,11.273-40.324,7.946-56.534l-35.017.652-3.285-3.68-9.118-122.393ZM1443.927,1321.347c-10.247-5.249-23.82-7.788-33.11-16.255l-3.813,8.083,6.034,82.697c2.278,5.117,41.592,14.691,46.847,9.045,2.522-22.234,10.218-43.266,21.61-62.454-13.318-4.147-26.352-15.372-37.567-21.117ZM1534.772,1351.193c-15.932-6.008-19.058-16.394-26.278,4.663-6.404,18.676-17.786,88.822,17.075,79.713-3.982-26.345-4.306-54.179,9.756-77.822l-.553-6.554ZM1577.573,1380.703c-7.292,3.326-15.701,37.473-15.677,46.297.03,10.819,6.479,52.711,19.618,52.487,16.556-2.779,21.318-36.368,20.899-50.601-.375-12.738-7.157-56.25-24.84-48.184ZM1817.637,1497.541l-5.146-42.206-133.319-39.842c.098-11.113-9.559-31.325-21.627-20.61-5.268,4.677,1.621,35.857,2.39,44.462,28.744,6.994,58.554,19.4,87.969,19.549,25.344,30.961,38.883,63.499,33.334,104.566,17.308.422,37.662,5.709,38.587-17.885M1287.759,1483.197c-29.075,12.033-22.266,109.386-3.372,131.348,30.112,35.002,41.727-52.985,41.332-69.647-.428-18.044-12.093-72.406-37.96-61.701ZM1447.774,1500.232c-15.634,6.629-16.904,56.473-14.697,70.968.57,3.742,8.46,30.14,9.467,31.506,6.269,8.508,20.521,4.596,25.211-4.911,10.139-20.555,15.679-112.684-19.981-97.563ZM1648.361,1568.354c-2.067-13.219-.198-27.939,3.283-40.823,3.307-12.237,20.883-35.116,2.198-37.386-15.175-1.844-10.411,11.72-17.646,22.114-1.8,2.586-25.473,24.576-27.493,25.466-27.393,12.076-55.376-1.054-79.255,6.142-14.283,4.304-13.335,20.026-10.575,32.033l129.487-7.545ZM1732.001,1509.85c-35.068-7.795-24.777,75.297-5.775,75.215,13.509-.058,16.159-31.149,15.482-41.116-.818-12.041-8.897-22.048-9.707-34.099Z" fill="#fff"/>
          <path d="M1712.419,2110.856c6.065,13.896,6.179,31.148-2.919,43.917-5.608,7.871-18.495,10.662-14.74,23.128,38.329-13.087,78.773,15.052,64.181,56.167-3.236,9.119-24.871,22.295-33.684,26.017-39.692,16.764-86.04,24.514-124.059,42.817-17.045,8.206-44.236,16.69-63.012,15.145-8.323-.685-15.996-7.238-23.13-6.447-6.465.717-14.976,9.094-25.076,10.875-9.93,1.751-20.601-.46-28.853-6.211-15.928-11.101-34.829-66.4-31.983-85.532.844-5.672,6.457-8.888,5.818-17.195-1.996-25.944-26.471-65.771-34.234-93.436-6.162-21.957-15.702-49.277,3.04-66.353,12.226-11.14,95.205-41.142,113.223-43.173,4.88-.55,10.324,2.015,15.343,1.779,12.482-33.658,45.474-31.342,74.941-23.106,11.481,3.209,25.951,22.217,33.57,10.479,4.619-7.116,1.167-15.022,13.617-26.813,7.477-7.081,52.278-35.386,53.916-39.178,3.63-8.408-3.567-22.625,8.943-39.074,19.792-26.025,37.945-6.269,55.396-11.129,4.154-1.157,67.431-46.868,70.106-50.251,4.135-5.229,5.359-16.344,13.915-22.365l-3.945-46.663c10.74-1.12,12.676-13.433,17.713-16.635,14.424-9.169,32.543,8.293,49.598-17.349,16.524-24.842-12.575-45.879,12.855-68.145,14.852-13.004,25.874-5.195,38.733-10.88,5.563-2.46,11.134-21.638,26.304-26.391,12.558-3.934,22.468.887,34.606-1.47,2.41-11.821-4.612-22.137-2.729-34.476,2.197-14.394,24.51-26.803,23.68-34.333-.971-8.809-34.959-11.84-42.814-33.986-6.966-19.64-8.265-39.18,10.675-50.664,34.259-20.772,41.603,2.692,74.117,3.93,8.148-3.754,10.005-55.765,37.557-65.186,26.062-8.912,50.257-.527,59.192,26.137,9.115,27.201-16.857,48.954-9.819,67.464,3.241,8.524,43.867,18.825,54.505,18.494,9.916-4.345,12.927-68.747,48.201-76.317,27.036-5.802,52.404,7.657,55.342,36.11,2.685,26.004-37.972,117.938-49.217,148.384-8.783,23.779-21.886,81.079-37.514,97.297-28.351,29.42-83.729-2.534-72.304-42.238l-127.551-46.558c-11.217.054-1.112,13.755-1.773,21.195,27.906-4.886,60.817,17.011,51.498,47.331,31.089-12.458,59.084-.67,65.73,33.23,32.166-5.488,63.169,20.678,51.514,54.452-8.353,24.203-52.291,29.034-70.925,43.871,12.357,35.182,3.749,63.315-23.201,87.662-8.773,7.926-33.099,16.873-34.281,18.614-2.411,3.551-1.492,19.733-3.391,26.693-8.865,32.504-51.764,41.97-71.862,14.444-6.434-8.812-1.364-14.926-7.04-22.389-33.168,5.027-54.214-15.889-54.979-48.303-16.523,3.315-30.546,2.547-46.684-1.18,10.522,9.522,28.366,42.325,37.855,48.603,16.718,11.06,47.767,3.382,49.001,39.499,1.277,37.361-55.44,50.401-66.834,72.465-5.434,10.523,3.596,19.295,2.389,32.656-3.425,37.92-52.96,50.407-75.532,20.73-27.777,20.633-61.196,67.128-100.447,44.044-26.205-15.411-12.396-38.135-17.254-51.435-1.531-4.191-8.46-6.41-11.271-10.506-12.269-17.874-23.903-36.507-35.859-54.579-10.773-2.276-8.413,6.009-13.726,12.102-6.816,7.815-17.594,13.935-16.126,24.886,10.811-4.948,43.411,6.126,51.039,13.194l-2.57,4.912c.255.788,2.943.581,3.225,1.226ZM2102.207,1594.146c-13.711-10.03-60.12-13.89-38.88,15.949l152.619,50.534c8.723,8.431-.412,14.983-1.551,24.013-3.02,23.948,12.029,29.65,22.738,9.943,13.856-25.499,33.341-90.217,44.31-121.275,7.189-20.357,24.471-60.493,28-78.509,3.096-15.803-13.349-30.449-23.507-16.035l-30.089,83.731-112.072-38.247c-8.582-11.682,30.034-69.328,19.946-85.33-4.398-6.976-18.895-9.043-23.794-1.597-7.218,10.972-19.267,65.123-26.361,70.728-8.794,6.949-24.218-5.102-31.043-6.92-5.296-1.411-35.148-9.017-37.326-8.909-13.395.666-11.114,11.378-8.06,21.75l205.598,70.106c3.608,1.942,3.671,4.55,3.507,8.217-.158,3.536-14.763,45.625-16.775,47.108-16.201,1.439-31.344-10.372-46.618-15.906-14.434-5.229-53.914-21.66-65.69-23.239M2002.884,1691.974c13.117-3.76,33.897-40.431,11.25-43.092-15.994-1.88-22.044,31.217-35.389,39.186-4.14,1.188-20.159-16.449-28.91-5.325-9.807,12.466,14.795,20.141,14.337,26.84-7.546,12.684-22.64,19.299-11.817,35.557,14.042,6.223,20.732-7.906,28.027-16.622l6.508,37.574c22.339,21.18,26.574-9.437,20.904-28.145,32.98,28.842,54.835,7.347,16.417-20.344,9.387-1.742,51.904-8.515,53.837-16.978,7.133-31.227-59.229-.306-72.998-2.722l-2.168-5.93ZM2028.309,1828.858c6.647-14.88,21.809-26.763,30.635-38.534,1.14-1.521-.029-5.571,1.132-7.167,1.987-2.734,5.629-3.768,7.615-6.53,10.151-14.117,19.713-29.152,29.482-43.566-.225-1.823-15.587-8.411-18.479-8.363-10.045.167-9.781,15.41-12.309,18.514-1.847,2.268-7.97,2.509-11.059,6.443-30.398,38.72-54.704,83.025-86.274,121.077-3.557,4.707-3.249,15.808,1.925,18.79,17.397,10.029,42.5-49.042,54.834-57.286M2086.913,1831.026c-3.081-2.789-5.177-6.687-3.802-11,1.764-5.53,24.616-29.565,30.304-37.435,6.555-9.07,29.494-38.096,26.326-46.372-10.071-26.311-29.167,10.719-35.153,18.399-3.353,4.301-5.965,7.591-9.801,12.829-32.309,44.125-71.171,91.376-100.107,138.022-10.91,17.588-14.86,27.924,11.163,24.587l57.042-83.131,4.477-.445c10.293,10.268,36.687,16.48,26.795,35.514-3.707,7.133-18.35,12.513-11.151,24.846l12.589,4.327c14.79-15,42.616-35.437,20.925-56.189-11.431-10.936-6.672-10.056-10.559-14.331-4.052-4.458-15.067-6.017-19.048-9.621ZM1917.442,1822.072l6.874,64.444c4.939,1.651,22.057,3.15,21.313-3.825l-5.073-47.566c10.501-2.424,22.293,16.644,32.068,7.669,13.798-12.668-18.537-26.514-15.943-31.074,16.213-5.301,41.307-7.239,20.017-26.597l-40.727,7.009c4.19-10.206,22.33-23.902,7.984-34.198-14.666-10.524-29.545,23.859-32.313,24.171-23.661-22.185-44.354-.828-16.041,14.835l1.145,3.979c-2.449,13.532-33.898,36.774-21.357,50.686,16.33,18.116,32.038-37.468,42.056-29.533ZM2180.006,1774.687l-2.708-5.098-63.419,28.783,1.22,15.039c6.569,5.532,58.319-17.355,66.962-23.071,4.218-2.79,10.697-5.139,10.149-11.488-1.166-10.492-9.644-2.817-12.203-4.165ZM1856.541,1866.275l-17.669,3.16-68.145,51.676c-7.77,2.097-16.001-19.528-30.022-10.435-13.055,11.269.343,18.926,2.245,25.33,3.013,10.145-61.617,48.928-70.545,59.804-3.908,4.761-10.086,14.067-1.448,18.751,16.483,8.938,54.453-36.097,70.049-42.033,4.454-1.695,8.212.639,12.548.466l-4.05-8.852,10.034-3.551c4.918.249,11.524,8.566,9.29,13.536-11.236,11.353-61.913,38.299-62.404,52.195-.416,4.826,1.741,8.469,3.843,12.525,4.239,8.179,38.413,50.77,45.754,57.93,2.27,2.214,3.827,4.41,7.271,5.06,18.38,3.47,69.455-56.408,79.505-48.323l2.23,19.802-77.263,56.958c-.565,7.133-.698,16.37,6.279,20.472l86.282-64.517c14.503,8.096,18.612,30.06,38.326,26.401,8.717-20.715-17.509-26.552-16.42-44.19l83.086-61.117c.277-8.044-5.823-17.441-14.947-14.499l-81.178,60.838-9.503-20.212,61.817-44.193c2.674-5.324-6.072-21.117-9.541-26.634-4.383-6.97-28.638-38.79-33.824-44.011-1.858-1.871-13.971-9.25-15.688-9.476-13.074-1.718-50.614,38.632-66.646,43.337l-7.724-3.079-4.026-10.645c24.771-1.269,14.844-8.346,23.047-16.281,7.439-7.195,51.69-35.005,53.54-38.354,2.933-5.31-1.321-12.932-4.102-17.84ZM2045.477,1972.628c7.931,4.17,15.007-4.884,16.775-12.597,1.313-5.726,5.304-62.42,4.415-65.585-.992-3.528-8.313-7.477-11.747-7.979-11.422-1.67-11.015,13.745-12.076,21.446-1.313,9.533-.692,19.729-1.592,29.35M1608.954,2020.163c-2.71-2.173-31.677-8.569-36.711-8.614-22.003-.198-13.088,17.73-9.77,31.537,3.685-5.889,27.318.317,22.419,6.839-5.561,7.405-40.128.216-32.958,30.137,8.983,14.735,40.081-8.877,47.955-3.464l22.128,59.39c-17.07,3.639-38.789,10.592-30.828,32.271,5.34,14.543,36.157-6.079,40.229-3.972,5.055,8.28,25.77,56.161,21.754,61.403-10.038,2.267-35.715,7.883-37.723,18.832l1.572,19.263c29.507-2.269,56.021-18.345,83.377-26.877,5.377-1.677,10.752,1.006,16.161-.633,16.709-5.065,18.046-21.808,6.693-33.599l-43.296,10.971-21.874-59.754c13.441-3.137,38.136-7.933,30.303-26.031-9.156-21.153-32.855,1.73-41.648-6.866-2.398-2.344-22.805-51.102-22.921-54.964,13.513-2.991,42.226-12.029,33.548-31.024-12.689-14.968-27.656,2.379-42.749,2.497-.668-4.971-1.792-14.24-5.66-17.342ZM1529.582,2058.595l-2.751-14.838c-1.356-1.712-3.054-3.476-5.119-4.24-11.942-4.42-76.045,28.627-93.646,31.034l-8.79,14.068,52.659,128.139c9.361,4.525,69.007-27.684,85.565-26.559,11.523.783,13.282,19.991,14.059,29.672-13.592.802-9.598-22.208-26.202-11.338-9.28,7.998,9.813,26.346,13.618,34.042l20.687-4.929c10.968,37.877-29.41,25.392-44.134,38.661-20.979,18.907,35.123,14.837,51.13,4.832,19.937-12.462,13.528-43.411,9.282-61.913-1.462-6.37-10.802-37.962-13.601-41.891-13.804-19.378-42.264-1.961-46.906-4.518l-8.125-19.477,20.997-9.95-2.177-13.577-25.18,4.752-6.726-4.709-3.548-15.188c42.221-7.458,30.484-38.493-8.394-24.324l-5.24-17.575,32.541-10.176ZM1547.008,2249.292c.193-11.776-17.305-47.401-31.643-35.323-6.976,5.877,16.091,52.774,31.643,35.323ZM1506.242,2268.982c10.851,5.246,16.439-6.349,12.722-17.325-1.739-5.135-20.386-34.39-28.589-30.009-15.244,4.457,13.42,46.151,15.868,47.334ZM1486.351,2290.134c.275-7.933,4.46-13.751,2.569-22.075-1.859-8.179-14.242-41.451-25.345-37.205-16.427,6.282,6.928,34.434,10.619,44.947,2.538,7.23-4.777,17.715,12.157,14.332Z" fill="#fff"/>
          <path d="M503.049,1646.402c1.639,2.21,17.024,8.157,23.558,17.672,11.364,16.55,3.921,32.225,8.53,38.565,4.324,5.947,11.899,6.674,16.113,10.817,22.466,22.09,7.902,66.7-20.381,75.771-10.685,3.427-30.537.589-34.597,2.782-5.214,2.816-10.234,16.074-15.336,21.424-13.379,14.029-94.976,60.009-115.646,69.277-39.115,17.538-72.558-3.013-69.129-47.401,1.17-15.141,17.512-17.137,9.985-36.986-10.614-27.991-23.824-16.07-43.581-22.48-25.373-8.232-30.627-39.706-26.367-62.678-43.802-9.911-54.556-66.816-13.567-88.666,16.857-8.986,33.81-3.442,51.566-7.404,14.763-3.294,28.211-10.319,43.193-12.821,3.428-22.657,14.047-45.321,37.547-52.422,7.858-2.374,16.168-1.204,23.056-3.312,3.531-1.08,15.167-27.306,40.905-29.224,22.291-1.661,42.186,15.555,46.091,36.972,1.549,8.495-.792,27.893.342,30.68,1.42,3.489,25.731,14.609,30.957,24.35,5.883,10.965,2.946,29.938,6.762,35.085ZM437.628,1600.385c7.895-15.725.022-65.832-29.024-47.26-8.162,5.219-7.288,39.663-2.481,48.328,6.455,11.635,26.627,8.647,31.504-1.068ZM357.843,1579.276c-15.441,6.208-18.411,69.284,14.847,59.968,17.669-4.949,19.521-73.785-14.847-59.968ZM454.654,1615.749c-22.334,3.434-32.523,45.337-10.136,49.463,30.419,5.607,42.807-54.486,10.136-49.463ZM311.089,1634.146c-11.473,1.511-28.105,8.831-41.144,11.124-10.611,1.866-24.241-1.325-35.111,3.114-13.194,5.388-13.047,27.486.433,32.731,16.006,6.227,93.246-5.363,99.363-22.312,5.737-15.897-7.985-26.706-23.54-24.657ZM433.359,1694.462c-21.121-66.221-80.855-23.134-120.976-.297-12.963,7.379-49.705,23.251-48.145,38.257,2.549,24.517,23.722,18.984,38.776,8.15,7.501-.237,47.713,75.855,43.981,81.115-17.369,4.762-31.232,20.476-16.273,36.459,7.299,4.615,18.387.907,25.926-2.06,19.868-7.82,73.561-38.91,92.383-51.574,36.985-24.886,18.648-43.015,6.033-77.834,15.227-4.379,76.692-35.403,42.84-51.327-22.203-10.444-41.957,22.649-64.545,19.111ZM529.288,1731.942c-9.32-8.012-38.639-7.346-43.366,7.005-9.246,28.071,41.724,28.305,47.056,17.667,3.207-6.398,1.968-19.807-3.69-24.672Z" fill="#fff"/>
          <path d="M901.769,2045.225c33.891-6.065,46.086-38.984,84.878-23.528,31.683,12.624,28.763,41.528,40.713,67.684,10.171,22.262,26.446,30.09,24.241,58.647-1.148,14.867-14.629,27.238-25.809,35.799-3.191,2.443-9.371,2.75-13.327,5.484-16.106,11.13-7.046,20.107-8.498,35.214-.997,10.375-11.62,20.387-11.591,30.112.035,12.003,9.762,20.445,8.64,34.605-2.453,30.945-25.53,46.233-55.624,40.68-22.397-4.133-98.579-36.039-121.741-47.192-7.378-3.553-13.028-11.766-19.334-14.262-17.475-6.916-29.705,2.8-46.616-18.676-19.469-24.725,2.686-42.209.783-56.943-.901-6.981-19.985-12.68-24.191-32.309-9.68-45.174,39.163-51.469,46.623-71.386,2.564-6.847-7.629-29.703-5.592-43.639.398-2.724,13.757-25.855,15.787-27.92,6.008-6.11,18.8-2.138,27.049-7.57,8.381-5.519,15.285-23.186,30.103-28.995,24.277-9.516,54.92,8.28,56.297,34.222.467,8.806-6.803,19.742-2.79,29.972ZM866.163,2057.909c-4.637-6.449,26.191-47.993,1.24-52.011-23.91-3.85-18.987,35.298-29.695,39.714l-25.098-6.3c-24.68,18.159-.746,27.167,14.812,37.136-9.946,13.52-21.459,25.725-33.423,37.436-13.79,13.497-41.36,23.168-30.767,45.655,18.628,9.457,26.048-10.809,40.293-16.902,3.482,2.952-30.263,76.026-26.458,86.945,1.597,4.582,8.662,10.07,13.51,9.561,5.032-1.549,8.528-5.248,11.267-9.571,14.466-22.829,23.353-70.442,34.826-96.686,14.021,6.992-.417,25.924,22.641,22.593,27.81-4.017-4.954-50.305-2.698-68.165l18.753,1.108c-6.524,14.976,8.151,17.986,11.377,25.796,2.49,6.028.676,13.245,4.201,19.117,3.484,5.804,23.534,10.704,30.64,12.451l-10.016,34.57c-12.709-3.485-40.676-18.738-46.633-.754-8.669,26.169,31.911,21.265,34.629,33.121l-10.998,28.089c-8.525,5.196-88.009-42.99-58.453,13.979l123.788,47.42c17.51,3.356,24.55-10.442,17.623-25.483l-53.083-23.631,13.381-30.659c56.926,23.848,63.848-14.008,10.052-31.372l9.596-28.72c8.758-6.974,30.401,9.715,38.848,6.511,4.791-1.817,6.81-9.638,10.104-11.44,5.561-3.042,19.673,6.317,24.636-11.439,3.227-11.547-8.699-20.348-13.48-30.091-7.079-14.426-21.258-61.108-30.582-66.313-22.165-12.373-46.626,15.029-67.544,23.342-9.41,3.74-19.903,5.389-29.559,8.387.471-12.987-4.886-20.806-17.73-23.393Z" fill="#fff"/>
          <path d="M710.39,1931.477c3.255,2.505,11.457,1.776,16.916,5.085,25.202,15.273,42.832,40.888,24.537,69.618-7.038,11.052-81.063,52.558-95.298,55.642-6.171,1.337-13.945-4.756-18.151,2.194-2.771,5.71,15.651,32.774,17.726,40.814,12.678,49.129-50.681,88.261-83.874,37.75-20.096-30.58-23.839-64.29-30.654-99.255-33.189,4.632-117.949-2.128-128.378-40.979-8.461-31.52,13.894-62.546,47.309-61.874,15.591.313,29.454,14.766,46.069,10.088,3.672-10.163-.059-20.747,1.527-31.042,1.621-10.526,22.544-65.218,28.267-75.335,13.639-24.113,38.135-36.532,63.958-21.315,16.243,9.572,14.872,24.521,27.05,36.003,11.361,4.306,16.924-4.881,25.798-7.297,33.235-9.048,61.643,15.683,58.067,49.694-.946,8.999-10.748,22.608-.868,30.21ZM572.371,1844.901c-6.238,2.522-9.665,6.626-12.913,12.3-4.026,7.033-23.01,60.966-23.61,68.028-1.792,21.09,23.252,27.711,34.199,10.635,2.711-4.228,23.064-62.962,23.491-68,1.389-16.374-5.79-22.021-21.167-22.963ZM633.447,1963.218c9.399-13.019,45.849-47.116,49.927-59.227,6.449-19.153-13.54-36.523-31.684-19.971-49.171,44.858-56.641,96.643-143.011,97.58-20.245.22-40.686-13.99-54.137-12.924-19.918,1.578-20.343,22.043-4.005,32.863,34.07,22.562,86.863,12.537,124.274,4.106-7.536,44.837-.156,97.867,32.673,131.613,9.155,3.514,22.995-5.405,23.282-15.155.278-9.426-18.495-39.757-21.565-56.557-6.632-36.297,3.031-72.943,24.245-102.328ZM730.256,1988.152c10.389-15.236-13.207-30.614-27.258-23.515-11.278,14.036-59.733,30.154-64.262,43.528-5.265,15.548,8.118,25.456,23.19,21.689,7.119-1.779,64.856-36.608,68.33-41.703Z" fill="#fff"/>
          <path d="M1220.897,370.641c-3.509,4.36-6.288,8.738-11.046,12.2l-.68,4.464,76.002,75.708-14.239,11.403-63.401-57.019c-4.121,3.384-3.654,6.317-3.642,11.026.03,11.76,5.982,74.64,2.031,78.749l-18.008,2.219-6.808-92.325c-2.455-2.136-13.271,8.603-15.788,11.063-9.561,9.343-35.479,45.046-42.919,49.555-7.576,4.592-14.505-1.137-15.884-8.242-2.039-10.5,66.823-71.301,67.729-81.542,1.399-15.825-68.817-57.939-73.054-80.234l176.066-7.997-.679,7.954c-19.491,19.993-38.212,41.312-55.68,63.019ZM1149.516,324.222c-4.883,5.789,25.702,29.953,32.785,30.552,27.752,2.348,34.24-11,51.12-28.655-1.278-11.721-71.615,1.083-83.904-1.897Z" fill="#fff"/>
          <path d="M453.563,529.881c85.699,74.114-16.304,196.711-100.499,122.943-90.935-79.674,11.91-199.556,100.499-122.943ZM367.142,630.016c21.236,18.145,55.432,29.984,78.405,7.808,51.459-49.671-39.939-133.512-85.815-97.335-30.897,24.365-19.283,66.718,7.41,89.526Z" fill="#fff"/>
          <path d="M608.7,278.523c36.719,17.364,72.981,40.252,106.716,64.136,11.321,8.015,57.806,33.625,36.873,46.434-21.134,12.932-35.109-18.331-49.095-17.225-3.528.279-37.443,22.68-43.208,26.845-3.29,2.377-17.034,12.171-17.758,13.685-5.968,12.477,20.925,53.175-9.721,53.999-10.045.27-12.031-23.692-20.439-30.529,2.513-2.806,5.919-1.19,5.919-6.638.002-39.812-23.868-97.472-21.116-137.564M648.827,326.149c-8.066-5.63-16.866-10.514-25.253-15.716-9.884-2.328,2.099,26.619,3.635,33.816,2.89,13.54-.268,30.451,12.081,40.513l41.714-30.806c.241-2.512-27.317-24.413-32.179-27.808Z" fill="#fff"/>
          <path d="M843.462,164.891l1.041,21.043-39.533,76.858c2.592,9.262,79.554,27.877,93.574,37.079,13.541,8.887,7.988,24.399-7.452,23.466-19.679-1.189-66.972-28.654-90.607-33.968-5.077-1.141-9.464-2.317-14.722-.835-2.209,2.466,23.622,51.643,25.111,61.273,2.744,17.745-19.67,18.705-25.953,4.012-11.405-41.489-39.645-83.894-51.243-124.093-1.921-6.66-2.94-13.365-2.454-20.309,24.115-25.112,35.187,34.257,42.141,51.067,1.783,4.309-1.193,5.546,6.65,3.805l43.883-97.819c4.632-6.35,13.013-3.676,19.564-1.58Z" fill="#fff"/>
          <path d="M993.428,118.105c12.552,17.264,101.431,134.544,99.627,144.901-1.003,5.757-14.731,12.123-19.836,9.796l-28.061-36.461-76.202,17.809-8.594,46.331c-23.5,6.052-24.979-2.747-22.794-22.562,4.032-36.568,17.779-110.564,28.603-145.205,4.551-14.565,12.797-15.75,27.257-14.609ZM990.776,145.607c-8.19-.059-4.824.672-5.674,5.155-4.631,24.424-5.388,49.695-13.352,73.483l5.039,6.431,55.624-15.062-41.637-70.008Z" fill="#fff"/>
          <path d="M519.464,552.456c-13.452-26.525,12.75-24.152,29.013-36.25,15.54-11.561,27.19-41.376,4.259-48.386-26.963-8.243-65.744,32.184-99.593,5.255-45.657-36.323,12.926-101.704,44.769-90.204,26.606,9.608-15.034,25.838-19.856,28.798-13.652,8.379-25.431,27.472-10.203,39.733,20.236,16.293,81.529-33.385,111.754,3.948,33.727,41.658-15.283,97.036-60.142,97.106Z" fill="#fff"/>
          <path d="M1424.727,247.234c9.662,9.247,27.076,16.047,40.343,17.753,13.291,1.71,32.764-7.644,29.016,16.275-4.213,11.218-34.889,9.185-45.478,7.597-90.182-13.525-96.303-148.669-2.014-171.446,16.743-4.045,77.128-.597,77.455,22.351l-7.324,11.408c-23.211-4.872-33.81-16.268-59.696-12.003-46.626,7.682-66.478,75.355-32.302,108.064Z" fill="#fff"/>
          <path d="M1957.198,449.097l86.106-21.854c12.609-1.918,20.029,12.629,13.533,22.429-9.545,14.4-93.403,19.231-112.698,29.576-16.54,8.868-34.187,55.644-58.88,39.611-9.671-12.454,36.592-48.792,42.133-64.352,7.579-21.283,6.618-92.34,18.878-105.363,5.657-6.008,15.34-7.053,20.396-.391,8.675,11.43-14.979,95.3-9.469,100.344Z" fill="#fff"/>
          <path d="M1876.617,284.809c3.734,3.646,6.128,8.831,4.185,14.098-14.246,24.198-43.372-19.854-55.689-11.237l-71.409,113.513c-8.738,8.45-15.121,10.835-23.366.827l4.353-18.977,67.036-105.814c3.488-14.749-28.222-18.68-35.295-31.124-2.17-3.818,2.903-13.732,2.933-18.752l16.542,1.45,90.71,56.015Z" fill="#fff"/>
          <path d="M1669.719,172.956c1.249.617,3.992,7.767,4.158,9.928.744,9.649-36.206,92.306-43.377,107.624-4.993,10.666-18.489,49.971-32.919,46.372-1.958-.488-8.291-5.971-8.876-8.199-3.755-14.289,55.307-127.995,61.474-151.28,3.797-3.568,15.764-6.31,19.54-4.445Z" fill="#fff"/>
          <path d="M2320.43,1360.581c13.86-4.008,38.904,5.763,44.936,19.371,14.051,31.701-13.118,51.968-43.968,47.546-30.816-4.417-25.471-59.832-.968-66.918Z" fill="#fff"/>
          <path d="M2341.934,1155.202c-5.877,7.428-31.602,17.618-40.712,16.031-9.489-1.652-12.751-10.095-17.492-15.996-1.525-1.898-5.623-1.403-6.434-3.752-11.232-32.518,22.253-59.957,52.24-43.285,14.613,8.125,23.458,33.023,12.398,47.001Z" fill="#fff"/>
          <path d="M2292.877,814.896c46.175,24.528-14.958,91.493-47.005,49.355-21.683-28.511,10.704-68.637,47.005-49.355Z" fill="#fff"/>
          <path d="M2211.99,1317.526c-1.029-.45-16.855-13.284-17.311-14.311-23.437-52.805,61.878-72.969,65.945-18.967,1.841,24.445-28.946,41.9-48.634,33.278Z" fill="#fff"/>
          <path d="M1949.294,528.187c39.531-7.969,56.787,54.999,12.232,66.032-52.542,13.011-53.562-57.7-12.232-66.032Z" fill="#fff"/>
          <path d="M2035.739,1258.556c11.694-5.643,33.911-2.237,42.372,8.316,31.852,39.731-31.106,77.391-55.876,41.414-9.739-14.145-.965-42.747,13.504-49.73Z" fill="#fff"/>
          <path d="M2026.901,675.098c54.501-22.773,72.547,65.442,10.46,64.817-35.341-.356-34.822-54.638-10.46-64.817Z" fill="#fff"/>
          <path d="M2107.006,825.296c27.519-30.92,76.621,8.345,53.07,41.447-27.039,38.005-88.372-1.783-53.07-41.447Z" fill="#fff"/>
          <path d="M1661.166,1755.36c-20.553,18.719-65.164-3.302-58.34-37.298,2.606-12.982,31.584-28.512,44.518-24.64,4.828,1.445,21.941,20.675,23.314,26.448,2.008,8.443-3.572,30.099-9.492,35.49Z" fill="#fff"/>
          <path d="M1863.16,1263.641c59.904-25.031,70.349,76.729,1.27,62.996-26.377-5.244-22.871-53.97-1.27-62.996Z" fill="#fff"/>
          <path d="M2036.348,965.768c44.997-13.623,63.419,58.919,15.28,65.893-42.693,6.186-54.696-53.96-15.28-65.893Z" fill="#fff"/>
          <path d="M1938.765,1573.308c2.022,2.142,7.483,2.169,7.703,8.205l-8.746,29.802c-21.425,12.068-34.784,11.38-57.43,3.197-17.999-45.7,20.227-81.715,58.473-41.205Z" fill="#fff"/>
          <path d="M2160.875,1117.39c24.028,23.336.95,62.32-30.885,57.43-3.923-.603-27.652-16.904-28.589-18.549-.72-1.263.861-20.953,1.716-24.221,6.25-23.888,41.618-30.334,57.758-14.66Z" fill="#fff"/>
          <path d="M2218.533,959.237c33.905-3.243,52.719,40.376,20.004,60.576-51.133,31.573-74.365-55.376-20.004-60.576Z" fill="#fff"/>
          <path d="M1945.78,1460.379c-36.612-32.317,19.768-81.086,49.271-45.426,26.338,31.835-19.559,71.652-49.271,45.426Z" fill="#fff"/>
          <path d="M1662.165,397.426c57.794-24.15,69.55,75.422,4.337,62.67-28.694-5.611-27.222-53.107-4.337-62.67Z" fill="#fff"/>
          <path d="M1773.147,1711.009c.126-.588,7.652-8.368,8.266-8.722,58.343-33.686,81.986,45.254,34.293,56.069-26.872,6.094-47.921-22.364-42.559-47.348Z" fill="#fff"/>
          <path d="M1510.127,467.932c-.604-.231-9.341-7.28-10.121-8.059-.743-.742,1.348-3.556.645-4.726-.522-.869-4.726.596-5.942-4.607-12.726-54.433,58.214-63.939,64.571-22.709,4.149,26.913-23.597,49.887-49.152,40.101Z" fill="#fff"/>
          <path d="M1322.258,616.424c-.604-.231-9.341-7.28-10.121-8.059-.743-.742,1.348-3.556.645-4.726-.522-.869-4.726.596-5.942-4.607-12.726-54.433,58.214-63.939,64.571-22.709,4.149,26.913-23.597,49.887-49.152,40.101Z" fill="#fff"/>
          <path d="M1753.251,586.495c-.423-.722-4.817-.152-5.059-2.034-.167-1.295-.576-19.052-.344-20.026,3.622-15.235,25.823-31.11,41.924-27.864,40.327,8.13,31.654,80.575-20.264,63.442-11.752-3.878-11.468-5.34-16.256-13.517Z" fill="#fff"/>
          <path d="M1984.333,1120.756c32.891,26.605-5.318,70.256-38.151,55.954-42.468-18.498-1.425-87.966,38.151-55.954Z" fill="#fff"/>
          <path d="M1460.02,616.88c3.703-15.803-13.245-10.608-16.009-19.535-6.956-37.136,47.914-66.12,66.071-26.765,14.998,32.507-21.233,51.544-50.062,46.301Z" fill="#fff"/>
          <path d="M1349.158,479.797l2.455-6.355-22.316-10.569c3.532-10.036-3.266-16.57-1.463-26.7,6.609-37.136,70.065-35.722,63.323,14.51-.123.917-5.415,16.762-5.913,17.542-10.35,16.221-21.442,3.65-36.086,11.572Z" fill="#fff"/>
          <path d="M1513.772,754.82c-2.234-2.463-9.92-4.978-11.754-8.271-17.312-31.087,21.33-67.975,50.585-44.551,30.208,24.187-.979,66.337-34.899,60.471-5.694-1.056-2.814-6.416-3.932-7.649Z" fill="#fff"/>
          <path d="M852.807,430.988c37.27-12.678,64.146,38.071,28.951,60.011-44.936,28.013-67.056-47.05-28.951-60.011Z" fill="#fff"/>
          <path d="M753.208,1853.804c27.155-9.374,51.306,9.622,43.74,38.059-5.49,20.638-17.518,27.642-38.809,23.824-35.556-6.376-31.555-52.692-4.931-61.883Z" fill="#fff"/>
          <path d="M691.007,489.304c-33.772-29.749,11.925-76.012,42.883-47.933,30.274,27.459-4.903,81.389-42.883,47.933Z" fill="#fff"/>
          <path d="M1015.777,489.865c-1.176-.523-14.48-17.449-15.857-20.273-10.629-21.809,5.162-44.033,28.348-45.816,38.825-2.985,41.366,53.385,18.449,62.837-4.373,1.804-27.661,4.71-30.94,3.252Z" fill="#fff"/>
          <path d="M764.629,626.814c-.336-.6-4.353-.365-4.987-2.433-7.274-23.726,5.854-50.371,32.914-47.346,5.609.627,21.612,11.193,24.004,15.516,19.612,35.43-26.694,79.299-51.931,34.263Z" fill="#fff"/>
          <path d="M607.266,641.676c-39.117-32.318,13.477-87.034,44.973-47.03,24.826,31.533-19.513,68.064-44.973,47.03Z" fill="#fff"/>
          <path d="M1636.354,599.514c-15.173,17.186-52.819,13.82-55.106-9.341-5.824-58.98,67.019-57.027,64.224-7.162-.546,9.733-3.723,10.392-9.118,16.503Z" fill="#fff"/>
          <path d="M1431.257,745.972c-15.173,17.186-52.819,13.82-55.106-9.341-5.824-58.98,67.019-57.027,64.224-7.162-.546,9.733-3.723,10.392-9.118,16.503Z" fill="#fff"/>
          <path d="M1293.23,729.372c-15.173,17.186-52.819,13.82-55.106-9.341-5.824-58.98,67.019-57.027,64.224-7.162-.546,9.733-3.723,10.392-9.118,16.503Z" fill="#fff"/>
          <path d="M1162.084,729.372c-15.173,17.186-52.819,13.82-55.106-9.341-5.824-58.98,67.019-57.027,64.224-7.162-.546,9.733-3.723,10.392-9.118,16.503Z" fill="#fff"/>
          <path d="M1162.084,865.313c-15.173,17.186-52.819,13.82-55.106-9.341-5.824-58.98,67.019-57.027,64.224-7.162-.546,9.733-3.723,10.392-9.118,16.503Z" fill="#fff"/>
          <path d="M1003.2,1766.418c-15.173,17.186-52.819,13.82-55.106-9.341-5.824-58.98,67.019-57.027,64.224-7.162-.546,9.733-3.723,10.392-9.118,16.503Z" fill="#fff"/>
          <path d="M1162.084,1766.418c-15.173,17.186-52.819,13.82-55.106-9.341-5.824-58.98,67.019-57.027,64.224-7.162-.546,9.733-3.723,10.392-9.118,16.503Z" fill="#fff"/>
          <path d="M1247.548,1902.452c-15.173,17.186-52.819,13.82-55.106-9.341-5.824-58.98,67.019-57.027,64.224-7.162-.546,9.733-3.723,10.392-9.118,16.503Z" fill="#fff"/>
          <path d="M1323.129,1766.418c-15.173,17.186-52.819,13.82-55.106-9.341-5.824-58.98,67.019-57.027,64.224-7.162-.546,9.733-3.723,10.392-9.118,16.503Z" fill="#fff"/>
          <path d="M1410.897,1896.674c-15.173,17.186-52.819,13.82-55.106-9.341-5.824-58.98,67.019-57.027,64.224-7.162-.546,9.733-3.723,10.392-9.118,16.503Z" fill="#fff"/>
          <path d="M1577.457,1896.674c-15.173,17.186-52.819,13.82-55.106-9.341-5.824-58.98,67.019-57.027,64.224-7.162-.546,9.733-3.723,10.392-9.118,16.503Z" fill="#fff"/>
          <path d="M1734.885,1887.739c-15.173,17.186-52.819,13.82-55.106-9.341-5.824-58.98,67.019-57.027,64.224-7.162-.546,9.733-3.723,10.392-9.118,16.503Z" fill="#fff"/>
          <path d="M1332.137,2018.218c-15.173,17.186-52.819,13.82-55.106-9.341-5.824-58.98,67.019-57.027,64.224-7.162-.546,9.733-3.723,10.392-9.118,16.503Z" fill="#fff"/>
          <path d="M1162.084,2008.653c-15.173,17.186-52.819,13.82-55.106-9.341-5.824-58.98,67.019-57.027,64.224-7.162-.546,9.733-3.723,10.392-9.118,16.503Z" fill="#fff"/>
          <path d="M1246.312,2115.666c-15.173,17.186-52.819,13.82-55.106-9.341-5.824-58.98,67.019-57.027,64.224-7.162-.546,9.733-3.723,10.392-9.118,16.503Z" fill="#fff"/>
          <path d="M1484.24,1766.418c-15.173,17.186-52.819,13.82-55.106-9.341-5.824-58.98,67.019-57.027,64.224-7.162-.546,9.733-3.723,10.392-9.118,16.503Z" fill="#fff"/>
          <path d="M1019.659,727.094c-15.173,17.186-52.819,13.82-55.106-9.341-5.824-58.98,67.019-57.027,64.224-7.162-.546,9.733-3.723,10.392-9.118,16.503Z" fill="#fff"/>
          <path d="M1276.212,896.416c-.903-7.403-5.261-1.966-6.223-2.557-42.817-26.348,3.624-89.869,38.149-55.714,25.792,25.516-1.091,57.617-31.926,58.271Z" fill="#fff"/>
          <path d="M373.203,733.677c50.725-18.968,66.103,61.216,15.303,62.946-35.44,1.207-43.869-52.264-15.303-62.946Z" fill="#fff"/>
          <path d="M479.061,1436.087c54.07-18.243,60.64,65.548,9.424,63.415-33.084-1.378-38.249-53.69-9.424-63.415Z" fill="#fff"/>
          <path d="M687.703,1763.064c-23.94,36.926-87.594-7.142-49.921-41.74,32.816-30.138,68.363,13.294,49.921,41.74Z" fill="#fff"/>
          <path d="M462.437,873.002c33.644-11.426,61.084,30.359,33.109,54.795-41.211,35.997-76.587-40.029-33.109-54.795Z" fill="#fff"/>
          <path d="M1422.771,839.283c11.696-25.105,53.614-20.878,59.063,9.735,10.375,58.287-85.047,46.038-59.063-9.735Z" fill="#fff"/>
          <path d="M223.617,1019.514c37.359-12.758,61.621,38.758,29.46,57.456-47.666,27.713-66.47-44.817-29.46-57.456Z" fill="#fff"/>
          <path d="M164.319,940.253c-28.178-9.375-18.722-71.187,23.296-61.704,39.011,8.805,29.888,79.399-23.296,61.704Z" fill="#fff"/>
          <path d="M562.744,1579.204c39.265-10.08,56.401,48.106,17.389,61.871-43.723,15.428-57.517-51.57-17.389-61.871Z" fill="#fff"/>
          <path d="M537.937,1068.075c-33.92-31.514,23.292-83.171,49.843-42.649,22.664,34.59-26.617,64.227-49.843,42.649Z" fill="#fff"/>
          <path d="M298.998,1214.791c-32.215-30.46,22.167-85.284,49.966-42.849,22.989,35.091-27.603,63.994-49.966,42.849Z" fill="#fff"/>
          <path d="M318.203,1440.838c42.603-14.552,58.567,42.795,28.81,56.916-50.537,23.983-64.81-44.62-28.81-56.916Z" fill="#fff"/>
          <path d="M154.274,1445.933c57.701-19.867,62.723,72.177.923,59.909-24.234-4.811-26.05-51.257-.923-59.909Z" fill="#fff"/>
          <path d="M307.248,874.296c28.869-4.542,49.764,35.642,25.87,56.967-43.567,38.882-78.236-48.729-25.87-56.967Z" fill="#fff"/>
          <path d="M891.399,623.08c-1.161-1.376-4.314.218-5.583-5.245-6.696-28.834,15.926-53.495,44.556-41.205,45.457,19.514-.137,92.459-38.973,46.45Z" fill="#fff"/>
          <path d="M661.404,876.836c30.596,32.868-26.49,78.971-49.965,42.852-23.359-35.94,24.313-70.409,49.965-42.852Z" fill="#fff"/>
          <path d="M540.194,728.174c48.601-13.441,58.968,68.24,6.659,63.077-34.108-3.366-38.643-54.232-6.659-63.077Z" fill="#fff"/>
          <path d="M263.277,1304.223c19.951,12.573,17.316,49.248-5.312,57.117-14.906,5.183-27.673,3.5-38.317-8.268-22.342-24.701,11.813-68.899,43.629-48.849Z" fill="#fff"/>
          <path d="M809.371,1711.252c45.943-15.904,61.412,48.001,22.215,60.004-43.508,13.324-55.069-48.631-22.215-60.004Z" fill="#fff"/>
          <path d="M882.013,1909.839c-17.481-10.957-18.492-41.243-1.591-54.276,27.315-21.063,64.278,10.153,47.218,40.932-7.828,14.122-32.39,21.64-45.626,13.344Z" fill="#fff"/>
          <path d="M1043.195,1909.839c-17.481-10.957-18.492-41.243-1.591-54.276,27.315-21.063,64.278,10.153,47.218,40.932-7.828,14.122-32.39,21.64-45.626,13.344Z" fill="#fff"/>
          <path d="M138.311,1219.3c-16.068-12.99-11.971-49.632,7.023-55.425,26.988-8.231,46.521,5.571,45.598,34.016-.78,24.041-35.153,35.531-52.62,21.409Z" fill="#fff"/>
          <path d="M393.214,1299.52c42.37-15.898,64.824,36.379,28.548,56.696-39.728,22.249-64.574-43.177-28.548-56.696Z" fill="#fff"/>
          <path d="M588.084,1160.977c30.701-33.581,80.277,20.333,43.025,47.338-33.471,24.263-68.232-19.765-43.025-47.338Z" fill="#fff"/>
          <path d="M588.396,1297.439c38.671,25.794-13.801,86.97-44.896,46.541-22.451-29.192,17.337-64.922,44.896-46.541Z" fill="#fff"/>
          <path d="M667.168,727.048c22.534-7.784,43.595,2.627,45.555,27.091,1.894,23.648-19.207,36.806-41.572,32.485-25.1-4.849-29.778-50.665-3.982-59.576Z" fill="#fff"/>
          <path d="M480.025,1153.569c38.506-7.396,53.167,61.253,6.134,64.063-40.951,2.446-44.859-56.625-6.134-64.063Z" fill="#fff"/>
          <path d="M383.494,1078.764c-1.187-.535-14.419-18.631-15.164-21.172-17.168-58.52,84.291-51.091,58.649,2.763-6.515,13.683-31.368,23.875-43.485,18.409Z" fill="#fff"/>
          <path d="M898.921,1131.662c60.766-9.671,126.286-16.082,187.368-18.596,23.048-.949,59.133-14.463,58.42,21.784-7.549,20.51-20.903,127.557-33.901,135.476-4.819,2.936-33.058,7.841-41.075,8.941-110.469,15.165-223.774,18.803-334.856,30.529-16.779,1.771-44.299,14.5-42.212-15.15,1.19-16.906,18.347-83.389,24.546-100.933,6.201-17.549,15.223-26.743,33.159-32.121,40.28-12.078,106.418-23.225,148.551-29.931Z" fill="#fff"/>
          <path d="M1162.156,1305.582c-2.481-1.233-7.396-7.59-11.422-9.229l20.808-162.08c6.273-34.542,59.626-1.298,78.146,9.075,26.942,15.091,26.985,14.442,29.377,46.911-4.071,15.427,6.332,78.895-3.105,87.212-11.541,10.172-29.065-1.834-42.897-2.314-31.895-1.109-33.91,8.751-45.549,34.854-4.338,2.034-20.84-2.182-25.359-4.428Z" fill="#fff"/>
          <path d="M1112.006,1312.207c2.226,9.147,3.652,23.248-8.069,25.523l-419.714,35.506-1.809-18.316,429.592-42.714Z" fill="#fff"/>
          <path d="M1113.915,1361.976c1.591,11.393,6.848,63.413-1.413,69.556-8.313,6.182-20.426.991-29.384,1.595-24.904,1.68-50.302,6.034-75.197,1.03-5.182-5.097-6.236-52.167-3.255-58.822,6.548-14.621,19.632-7.357,30.963-8.413,12.228-1.14,72.912-11.533,78.286-4.946Z" fill="#fff"/>
          <path d="M687.659,1398.417c4.819-6.009,77.94-13.924,83.742-10.036,8.867,5.944,9.92,48.328,4.577,57.578-4.363,7.553-12.524,2.349-20.101,3.24-11.761,1.384-59.518,8.351-66.403,2.707-7.049-6.346-5.368-49.059-1.815-53.49Z" fill="#fff"/>
          <path d="M1346.593,1191.736c10.133,10.311,3.673,23.506,4.627,34.334,1.789,20.29,7.336,49.436,5.252,68.828-2.574,23.951-36.067,7.946-41.332-.75-11.636-19.219-2.575-73.412-10.289-97.111.143-7.886,3.946-15.146,11.889-17.29,5.742-.849,25.911,7.977,29.852,11.988Z" fill="#fff"/>
          <path d="M919.103,1509.543c1.141,15.045,6.044,31.065-1.204,45.369l-111.158,6.964c3.441-9.435-3.794-43.344,3.234-46.427l109.129-5.906Z" fill="#fff"/>
          <polygon points="979.848 1409.954 981.817 1432.61 975.116 1438.412 802.121 1447.757 803.592 1425.539 979.848 1409.954" fill="#fff"/>
          <path d="M978.662,1369.735c.5,5.765,4.112,19.364-2.602,21.642-31.811-1.421-63.286,9.566-94.75,11.95-7.118.539-14.421-2.54-21.927-2.213-20.038.871-39.914,5.217-60.115,3.268-.972-7.621-4.086-17.244,5.701-19.216l173.692-15.43Z" fill="#fff"/>
          <path d="M1275.186,1334.328c-7.952,9.692-39.551-9.469-49.684-9.738-13.052-41.06,65.965-10.106,49.684,9.738Z" fill="#fff"/>
          <path d="M1709.566,1163.441c-6.632,8.82-25.095,25.531-36.799,22.159-24.09-6.941-5.328-38.93-12.247-56.178,9.581,7.01,19.441,12.058,29.998,3.223l-.522-12.058-26.579-10.349c-5.811,14.375-21.234,40.007-38.132,22.868-17.775-18.029,18.23-30.164,1.574-43.677-19.001-15.415-30.479,10.634-47.87,10.806-11.169.111-21.211-7.915-24.652-18.24l2.306-6.841c23.349-5.053,43.644-22.696,52.681-44.787,3.809-9.31-7.204-26.391-1.236-32.222,26.173-20.481,30.903,7.943,45.238,16.817,4.788,2.964,66.83,31.808,73.377,34.155,10.01,3.589,18.795-.696,26.22,9.205,20.141,26.857-1.999,31.074-14.135,48.787-10.501,15.326-17.986,41.388-29.222,56.333ZM1639.154,1044.636l20.36,7.001,6.872-10.96c-2.531-7.944-33.753-16.031-27.232,3.958ZM1629.345,1056.005l-6.208,13.592,24.39,11.544c5.304-4.694,5.137-10.088,1.538-15.729l-19.72-9.407ZM1691.869,1069.752c6.861-.916,28.791,19.136,31.031,4.859,1.55-9.878-27.496-26.089-32.326-16.235l1.295,11.376ZM1675.957,1096.396c.996,1.368,32.507,15.358,31.104,4.784l-28.154-17.097c-3.623,2.933-5.713,8.519-2.95,12.313Z" fill="#fff"/>
          <path d="M1834.814,796.192c-10.582,12.389-26.335,26.172-21.906,45.119,4.622,19.771,54.633,66.486,53.984,74.804-5.677,10.859-41.443,31.426-51.475,23.062-1.16-.968-15.377-24.116-15.978-25.652-3.586-9.162-3.413-31.795-8.291-44.686-2.048-5.414-2.783-11.24-7.957-14.949-6.397-3.091-15.719,6.68-25.537,7.831-19.873,2.329-61.536-10.411-66.547-32.64l1.03-28.916c9.324-2.984,18.454,11.788,26.822,15.343,30.733,13.057,58.633-2.133,73.832-29.38,10.391-18.629,9.905-25.856-2.833-42.923,11.545-2.719,52.781,2.728,58.727,12.304,12.353,19.894-2.847,27.777-13.87,40.683Z" fill="#fff"/>
          <path d="M1770.848,930.148c31.118,30.992,28.537,96.198-20.907,86.674-1.294-.249-21.558-12.98-22.272-14.088-3.17-4.922,3.22-5.249,5.525-6.598,27.213-15.919,36.103-24.568,17.049-56.238-10.209.508-9.971,11.155-15.299,15.41-1.888,1.508-29.493,17.863-31.75,18.742-4.901,1.908-33.632,3.35-38.327,2.271-12.607-2.899-18.433-34.291-14.464-44.454,1.236-3.165,20.424-22.768,24.49-24.987,31.847-17.378,72.355-.237,95.956,23.268ZM1728.511,923.571c-13.184-9.467-55.03,4.338-45.848,20.508,6.847,12.058,47.813-3.666,45.848-20.508Z" fill="#fff"/>
          <path d="M1558.816,1203.303c4.546,3.285,16.004,20.977,16.523,26.839l-.437,4.056c-15.787,8.696-21.14,22.839-10.136,38.149,29.743,12.94,26.779-22.06,45.461-32.035,3.749,4.064.256,28.883,1.586,35.13,1.353,6.357,8.372,10.084,7.604,21.155-2.276,32.815-50.776,18.588-69.221,5.973-17.718-12.118-28.435-28.501-28.524-50.908-.015-3.858,13.059-47.431,14.677-50.008,4.065-6.474,17.271-2.107,22.469,1.649Z" fill="#fff"/>
          <path d="M1864.108,794.642c41.214-1.394,39.931,65.472-1.502,61.752-7.628-.685-29.322-18.493-29.454-26.179-.166-9.615,31.431-18.722,30.956-35.574Z" fill="#fff"/>
          <path d="M1610.536,1163.524c19.146,15.523,17.928,53.524-12.034,55.022-2.083-.351-20.772-17.377-21.655-18.976-2.808-5.085-.654-18.075-1.316-25.444-.626-6.97-9.831-18.982,2.046-20.335,2.265-.258,31.042,8.18,32.958,9.733Z" fill="#fff"/>
          <path d="M1477.377,1238.198c-9.477-6.54-6.945-29.873.018-39.259,12.815-17.274,30.85-10.078,43.385-26.62,8.926,4.507,3.581,18.533,1.321,26.255-4.786,16.352-22.114,55.226-44.723,39.623Z" fill="#fff"/>
          <path d="M1765.816,790.984c-13.08,19.515-34.987,23.66-36.801-5.648-1.236-19.955,18.737-33.481,30.909-47.641,22.061,12.379,18.27,34.821,5.892,53.288Z" fill="#fff"/>
          <path d="M1641.285,1224.622c11.626-4.698,26.553,22.696,26.944,32.836.293,7.602-18.517,38.613-25.313,38.163-4.03-2.015-7.643-4.026-8.312-9.064-1.011-7.607,1.644-59.9,6.681-61.935Z" fill="#fff"/>
          <path d="M1015.069,984.099l-158.552-24.125-6.188-7.934,76.242-20.048c25.918,14.123,55.756,27.234,80.47,42.98,3.928,2.503,8.778,2.588,8.027,9.128Z" fill="#fff"/>
          <path d="M1083.649,928.69c-.074,1.593-3.517,4.822-2.287,7.996-4.861,4.571-79.212-90.805-88.116-99.193l85.493,45.165c-.006,14.506,5.561,32.071,4.91,46.032Z" fill="#fff"/>
          <path d="M1749.194,1383.309c-28.952,16.625-35.713-19.092-35.147-40.783,33.128-18.172,33.854,15.338,35.147,40.783Z" fill="#fff"/>
          <path d="M1827.61,2027.119l-7.627,3.897,2.754,8.968c-18.413,3.607-53.782,57.143-61.679,19.029,2.434-5.357,58.463-51.3,66.553-31.893Z" fill="#fff"/>
          <path d="M1886.151,1972.062c4.239,3.613,5.298,12.709,1.797,16.932-15.891,7.812-45.224,49.591-56.051,17.819l46.968-36.939c2.276.345,5.593.744,7.287,2.188Z" fill="#fff"/>
          <path d="M1769.728,2025.341c-.94.743-1.108,3.847-2.946,5.195-12.251,8.982-37.575,19.782-27.949-6.331,2.007-5.446,42.298-33.687,47.797-31.632,21.202,7.921-8.728,26.306-16.902,32.769Z" fill="#fff"/>
          <path d="M1861.363,1940.18l3.958,9.609c-.396,5.087-46.397,40.158-51.441,37.227l-6.336-12.115c.024-4.139,44.435-39.564,53.82-34.722Z" fill="#fff"/>
          <path d="M1465.238,2149.631l-4.119-21.383c15.999-10.941,33.671-15.658,35.587,8.891l-31.469,12.492Z" fill="#fff"/>
          <path d="M1506.23,2157.798l8.611,20.638c-6.501,2.198-25.829,11.762-31.861,6.735l-6.482-18.001,29.732-9.372Z" fill="#fff"/>
          <path d="M1481.459,2098.226l-28.134,8.981c-23.629-21.79,27.268-41.111,28.134-8.981Z" fill="#fff"/>
          <path d="M393.826,1794.962l-16.589,7.803c-3.786,1.18-5.083-1.485-7.147-3.763-4.407-4.863-36.285-62.887-37.372-68.419-1.487-7.566,11.102-14.927,17.162-16.537,3.019.02,6.043,3.984,7.887,6.359,5.69,7.332,38.539,70.19,36.059,74.557Z" fill="#fff"/>
          <path d="M385.329,1694.094c9.257-4.262,15.68.415,21.805,6.841,6.778,7.111,31.278,54.084,29.695,62.706-1.323,7.205-13.107,17.027-19.973,8.638-6.537-7.985-36.28-62.539-35.935-70.209.169-3.747.701-6.269,4.408-7.976Z" fill="#fff"/>
          <path d="M989.227,2138.333c-21.695-8.908-44.641-15.269-66.586-23.423-3.869-1.437-13.019-4.248-14.313-8.256l53.371-22.999c10.145,3.861,19.691,44.519,27.528,54.678Z" fill="#fff"/>
          <path d="M1050.092,612.943c-.336-.6-4.353-.365-4.987-2.433-7.274-23.726,5.854-50.371,32.914-47.346,5.609.627,21.612,11.193,24.004,15.516,19.612,35.43-26.694,79.299-51.931,34.263Z" fill="#fff"/>
          <path d="M1176.862,609.21c-1.161-1.376-4.314.218-5.583-5.245-6.696-28.834,15.926-53.495,44.556-41.205,45.457,19.514-.137,92.459-38.973,46.45Z" fill="#fff"/>
        </g>
      </g>
      <g>
        <polygon points="1223.82 1223.501 1223.82 1223.501 1223.82 1223.501 1223.82 1223.501 1223.82 1223.501" fill="#1d1d1b"/>
        <path d="M1223.82,1309.935c-47.659,0-86.434-38.774-86.434-86.434s38.774-86.433,86.434-86.433,86.434,38.773,86.434,86.433-38.774,86.434-86.434,86.434ZM1223.82,1162.064c-33.877,0-61.438,27.561-61.438,61.437s27.561,61.438,61.438,61.438,61.438-27.561,61.438-61.438-27.561-61.437-61.438-61.437Z" fill="#e52421"/>
        <circle cx="1223.82" cy="1223.501" r="73.935" fill="#fff"/>
      </g>
    </g>
  </g>
</svg>