<?xml version="1.0" encoding="UTF-8"?>
<svg id="b" data-name="Livello 2" xmlns="http://www.w3.org/2000/svg" width="25.518mm" height="46.993mm" viewBox="0 0 72.334 133.21">
  <g id="c" data-name="Livello 1">
    <g>
      <path d="M56.046,23.813c-.448.557-1.136,1.21-1.515,1.805-2.31,3.63-1.582,7.896-.807,11.86l-2.988,8.285c.573.827,1.761.083,2.413-.27,1.423-.772,2.342-2.095,4.17-1.115.571.306,3.707,4.355,4.079,5.058.093.175.209.383.216.587.025.695-1.109,3.355-1.312,4.373-.788,3.961.493,7.907,4.171,9.85,1.323.699,2.598.807,3.99,1.157,1.066.268.828.864,1.323,1.611.663,1.002,2.509,2.489,2.547,3.577.043,1.214-1.382,2.743-1.966,3.854-1.016,1.933-2.089,5.411-2.461,7.575-.738,4.286-1.078,6.901-.192,11.308.421,2.095,2.053,4.097,2.149,6.137.089,1.892-2.632,4.242-3.989,5.33-.274.219-1.952,2.046-1.611.499.137-.621.999-1.926,1.246-2.717.697-2.23.356-6.195-2.38-6.879-1.644-.411-5.03.966-6.711,1.494-.382.12-1.613.59-1.841.63-.495.087-.69-.133-.415-.569s5.29-2.621,6.327-3.349c3.398-2.387,2.373-4.399,2.472-7.976.042-1.497.137-3.087.21-4.578.173-3.525,1.161-6.892.188-10.432-.586-2.132-4.771-3.588-6.669-4.603-3.252-1.739-4.67-2.228-5.457-6.123-.485-2.4-.737-9.299-1.769-10.893-.523-.808-1.6-.293-1.842.446-.823,2.512.582,6.872.926,9.528.049.38-.069.9-.029,1.225.637,5.194,1.427,10.563,3.288,15.487.126.333.496.743.552,1.048.091.498-.189,1.732-.208,2.309-.051,1.531-.072,3.099-.099,4.636-.081,4.486.155,9.064-.28,13.51-1.27,1.856-2.626,3.661-3.639,5.677-1.681,3.345-2.817,8.994-7.955,6.326-2.227-1.156-1.723-4.5-1.289-6.563.527-2.503,2.696-3.58,4.394-5.205,2.16-2.067,4.459-4.364,6.353-6.643.529-1.721,1.086-3.387.974-5.227l-2.009,2.649c-2.311,3.272-7.297,4.731-9.049,8.244-.098.196-.153.775-.403.782-.236.007-.646-1.331-.795-1.606-.655-1.211-2.966-2.591-4.024-3.906-.849-1.056-2.056-3.493-1.834-4.846.019-.118.421-.563-.104-.419-.27.074-.514.616-.561.886-.501,2.908,3.073,7.17,4.223,9.917,1.503,3.591,1.512,6.912-.79,10.14-2.893,4.056-8.902,3.901-13.333,5.196-2.212.646-7.607,2.554-9.022,4.257-.217.261-.987,1.545-1,1.82-.071,1.506,1.668,1.954,2.846,1.828,4.308-.459,10.389-5.387,14.817-4.715,2.913.442,4.103,4.346,3.627,6.844-.5,2.622-6.816,5.399-8.942,7.425-.306.292-1.152,1.881-1.67,1.002-.37-.627,1.159-1.387,1.259-2.083-.041-.152-.897.574-1.027.05-.172-.693,1.15-.957,1.439-1.412-.398-.167-1.815.508-2.063.17-.376-.512,1.311-.939,1.6-1.098l-.086-.196c-.297-.027-1.388-.052-1.553-.302-.382-.576,1.486-.436,1.69-.814-.248-.126-1.791-.479-1.368-.957.232-.263.708-.004.934.001,2.203.054,6.438.27,7.597-2.124.656-1.355-.144-4.208-1.746-4.549-1.706-.363-6.415,1.981-7.998,2.923-4.329,2.577-8.115,7.911-13.206,8.579-6.668.876-9.893-4.89-6.989-10.643,2.473-4.899,10.295-9.644,15.366-11.346,6.005-2.016,12.545-1.643,13.985-9.382.257-1.379.066-2.171.114-3.437.223-5.868.454-11.856.107-17.704-.412-6.95-1.062-13.877-1.343-20.789-.035-.857.157-2.459.003-3.193-.15-.712-2.416-1.937-2.956-1-.101.175-.344,2.438-.368,2.809-.516,7.745-.079,16.142.034,23.923.071,4.928.516,10.733-.265,15.541-1.057,6.5-6.115,8.282-12.112,7.182-4.162-.763-4.28-5.253-6.329-7.907-.527-.683-3.128-3.071-2.496-4,.609-.894,2.4,1.199,2.668.945.013-.566-.108-1.439-.053-1.978.055-.535.349-1.008.465-1.521,1.162.014.27,1.592.823,2.264.053-.545.084-2.129.436-2.473.933-.913.734,1.752,1.006,2.061.087-.414.76-2.476,1.29-2.295.383.131.128,2.327.256,2.759.533-.583,2.653-1.753,3.364-1.383.77.401-.669,1.239-.878,1.451-1.65,1.679-2.297,2.561-1.919,5.051.548,3.614,5.085,5.019,7.987,3.218,2.321-1.441,1.895-6.299,1.841-8.677-.209-9.2-1.102-18.168-3.793-26.976-1.35-4.42-3.126-5.75.141-10.023,2.882-3.77,4.67-4.247,8.972-2.028,5.324,2.746,7.015,6.264,13.793,2.971,4.892-2.376,8.749-8.409,10.403-13.427.935-2.838.618-2.721.239-5.486-.241-1.753-.005-4.424.205-6.217.095-.814.601-1.466.819-2.243-1.382.521-2.104,1.769-2.597,3.09-.831,2.231.051,3.148.391,5.167.221,1.313-1.466,4.04-1.995,5.376-.799,2.018-1.216,4.114-1.87,6.159-1.344,4.198-7.37,8.621-11.76,6.3-2.469-1.306-2.392-4.714-2.967-7.018-.592-2.374-1.718-4.627-2.051-7.162-.34-2.593.175-3.99.507-6.383.411-2.963-.247-5.664-.69-8.565l.157-.104c.109-.009.175.041.252.107.422.361,1.273,2.108,1.729,2.697,2.191,2.837,4.527,1.558,7.171.122.289-.157,1.8-1.178,1.912-1.179.295,0,1.52,1.396,1.906,1.699,5.565,4.377,6.918-1.326,11.71-3.007.494-.173.953-.226,1.45-.351.209-.053.831-.435.969-.269.153.186-.878,1.332-1.053,1.549ZM37.044,29.525c-1.671-1.478-4.215.11-4.03,2.303.233,2.752,3.316,3.139,4.67.927.66-1.078.255-2.438-.641-3.23ZM45.177,30.864c-1.887-2.295-5.987-.406-4.467,2.897,1.555,3.378,6.844-.005,4.467-2.897ZM38.796,41.362c-.485-.967-.677-1.047-.744-2.215-.093-1.609.366-3.348-.639-4.763-1.433.736-2.448,1.945-3.177,3.363-.943,1.836-2.189,6.295.012,7.673,1.042.652,4.602-.617,5.093-1.693.465-1.02-.131-1.54-.545-2.365ZM38.588,50.36c1.308-.763,2.02-2.069,1.62-3.591-.129-.493-.254-.773-.797-.851-.711-.101-3.624.699-4.207,1.136-2.087,1.566.412,5.04,3.383,3.306ZM44.211,70.857c4.574-4.292,2.94-12.341,1.957-17.879-.065-.367-.175-1.515-.628-1.496-.23.009-2.566,1.94-2.997,2.255-.455.333-1.626.605-1.068,1.339.569.75,1.145.132,1.7.148,1.017.03-.281.775-.314.882-.036.116.106.172.082.276-.128.562-1.249.782-1.069,1.486.267,1.044,3.554,1.181,3.644,1.714.014.079-.005.141-.05.206-.116.172-2.492.202-3.141.719-.747.594,1.041.815,1.403.79.659-.047.527-.092,1.246-.045.275.018.978-.21,1.054.234.053.306-1.43.861-1.734,1.043-.583.349-1.598.988-1.919,1.593-.453.855.1.495.631.484.051-.001.11.137.213.142.308.018,1.436-.713,1.706-.945.394-.339,1.268-1.798,1.734-1.67.553.152-.229,1.644-.406,1.943-.778,1.316-2.355,2.654-3.957,2.684-1.769.034-1.37-3.361-1.468-4.505-.081-.942-.265-1.89-.338-2.84-.097-1.269.085-2.684-.293-3.94-.352-1.169-1.383-.793-1.451.395-.09,1.58.656,4.684.847,6.437.203,1.864.331,8.391,1.732,9.437.985.735,2.186-.233,2.883-.887ZM34.883,56.701c-.431-.896-1.303-.984-2.075-1.451-.411-.248-1.57-1.144-1.889-1.251-.282-.095-.563.004-.693.275-.159.331-.151,2.255-.155,2.783-.026,3.269.388,7.563.946,10.794.078.45.176,1.106.406,1.499.449.767,4.342,3.576,5.241,3.972,2.419,1.064,2.019-.517,2.164-2.211.367-4.292.161-10.816-.786-15.019-.046-.202-.283-.813-.529-.811-.388.365-.591.103-.783.659-.481,1.401.656,7.311.756,9.195.066,1.236.34,4.224-1.8,3.554-.278-.087-3.93-2.044-4.102-2.201-.124-.113-.484-.615-.096-.657.823-.088,3.731,1.248,3.667-.394-.048-1.228-2.966-1.976-3.787-2.518-.164-.108-.651-.446-.37-.666.164-.128,3.622.676,4.142.138.493-.51-1.22-1.35-1.514-1.473-.508-.212-2.554-.601-2.617-1.146-.086-.741,1.492-.105,1.873-.065.563.058,2.369.155,1.485-.816-.546-.6-2.761-1.049-3.624-1.574-.797-.485-.726-.856.27-.682.965.169,2.637.828,3.515.864.714.029.565-.361.356-.797ZM67.493,67.633c-.125-.09-1.071,1.002-1.183,1.158-.116.159-.172.511-.283.695-.032.053-.241.033-.329.197-.027.05-.41,1.006-.413,1.062-.068,1.203,1.927,2.387,2.976,1.541,1.276-1.028-.412-3.506-.768-4.654ZM48.122,74.408c.27-.427.646-4.6.589-5.256-.03-.354-.238-1.468-.648-1.473-.593-.007-1.396,2.041-1.81,2.573-.698.895-1.758,1.514-2.426,2.444.013.195,2.832,2.251,3.147,2.312.356.068.972-.32,1.148-.599ZM31.996,71.476c-.216-.142-.476-.563-.741-.013-.174.361.233,3.212.448,3.638.509,1.008,2.209-.147,2.791-.658.54-.475.407-.656-.044-1.123-.544-.564-1.773-1.396-2.455-1.844ZM34.521,76.039c-.858,1.399,1.696,4.602,3.143,4.794,2.233.297,4.018-1.068,4.878-3.024.196-.447.832-2.278.146-2.485-.512-.154-2.982.252-3.732.288-.795.038-4.041-.214-4.434.427ZM50.386,76.25c-.853-.405-1.285,1.712-1.568,2.272-1.025,2.025-2.434,3.182-3.509,4.885-1.003,1.587,1.458.587,2.072.179,2.076-1.378,3.652-4.048,3.335-6.613-.018-.144-.198-.661-.33-.723ZM48.943,86.346c.677-.88,1.989-2.602,1.876-3.711-.156-1.531-1.078.574-1.359.935-3.525,4.527-9.789,8.849-15.3,4.684l-1.255-1.139c.533,1.359,1.035,2.778,2.066,3.853.768.801,2.842,2.235,3.936,2.343,3.057.303,8.262-4.66,10.036-6.966ZM39.575,85.984c.272-.422.777-1.284.384-1.754-.528-.63-3.465-.675-4.346-.801-1.015-.145-3.075-1.213-2.737.828.224,1.352,1.386,2.895,2.657,3.421,1.654.684,3.167-.34,4.041-1.694Z"/>
      <path d="M62.019,107.4c-2.382,2.956-5.683,5.431-8.601,7.843-2.762,2.283-6.09,4.6-8.519,7.128-.283.295-.537.787-.851,1.104-.677.682-1.606,1.104-2.213,1.853-.185.228-1.729,2.552-1.769,2.709-.439,1.732,1.617,2.288,2.938,2.063,3.063-.522,6.912-4.378,8.28-7.055.105-.205.711-3.1,1.259-2.04.147.285-.002,2.15-.085,2.542-.044.209-.463.779-.145.731.21-.032.721-.74,1.002-.495.445.389-1.196,2.114-1.159,2.239.114.383,2.309-.864,2.522-.617.43.5-1.397,1.483-1.388,1.596.037.47,2.561-.958,2.254.09-.078.265-1.958.999-1.894,1.118.677.254,3.221.42,3.561,1.046.545,1.003-1.93.49-2.405.498-3.204.049-4.128.34-6.912,1.646-3.043,1.427-7.271,3.346-9.727-.237-1.677-2.446.489-4.938,1.783-6.897.31-.469.474-1.08.758-1.506.423-.634,1.275-1.135,1.744-1.705.587-.713.935-1.695,1.45-2.461,1.395-2.075,3.119-3.896,4.397-6.103,1.574-2.717,2.854-5.819,3.861-8.749.827-2.404,1.475-4.747,4.404-5.17,5.457-.787,9.044,4.376,5.457,8.829Z"/>
      <path d="M27.966,1.446c.012.009-.052.131-.025.154,1.109.941,1.732,2.445,2.06,3.857.877,3.784.624,14.81,2.963,17.212,3.018,3.099,7.042-.737,8.847-3.186.439-.596.43-1.31,1.133-.205,1.263,1.984,2.126,4.883,5.16,4.388,1.152-.188,2.121-.822,2.341-2.034.7-3.862-.267-12.861,1.971-15.683,2.475-3.121,6.413-2.527,9.959-2.138.46.05,1.577-.072,1.926.236.271.239.281.861-.123.951-.852.191-3.965-.395-5.098-.413-5.491-.087-6.876,2.845-7.127,7.796-.068,1.335-.22,3.183-.209,4.474.027,3.042.479,8.199-3.885,8.217-3.039.012-4.143-2.317-5.558-4.533-.249.475-.603.912-.955,1.31-2.164,2.451-5.618,4.618-8.671,2.19-1.677-1.334-2.21-3.128-2.443-5.175-.432-3.794-.618-7.668-1.033-11.47-.323-2.965-1.402-5.548-4.655-5.849-2.08-.193-4.228-.008-6.28.002-.684.003-2.329.157-2.842-.17-.54-.344-.76-1.106-.042-1.378,3.156.289,10.028-.471,12.586,1.446Z"/>
      <path d="M44.465,30.752c2.009,1.51-.197,5.171-2.68,3.633-2.203-1.365-.135-5.748,2.68-3.633ZM44.004,31.369c-1.501-1.032-3.204.501-2.214,2.032,1.156,1.788,4.054-.767,2.214-2.032Z"/>
      <path d="M37.113,33.187c-.65.756-1.662.711-2.522.362-2.066-.839-1.138-5.374,1.988-3.841,1.312.643,1.395,2.479.534,3.479ZM36.491,30.439c-1.743-1.364-3.262,1.53-1.653,2.451,1.573.9,3.011-1.389,1.653-2.451Z"/>
      <path d="M43.596,33.236c-.683.667-1.919-.264-1.294-1.32.593-1.002,2.177.457,1.294,1.32ZM43.149,32.737c.164-.162-.227-.554-.36-.412s.15.619.36.412Z"/>
      <path d="M34.777,31.005c.524-.761,1.96-.1,1.393,1.161-.478,1.065-2.114-.114-1.393-1.161ZM35.274,31.81c.419.056.478-.306.18-.513l-.18.513Z"/>
    </g>
  </g>
</svg>