<?xml version="1.0" encoding="UTF-8"?>
<svg id="b" data-name="Livello 2" xmlns="http://www.w3.org/2000/svg" width="40.4mm" height="41.006mm" viewBox="0 0 114.519 116.237">
  <g id="c" data-name="Livello 1">
    <g>
      <path d="M111.773,91.253l-5.64-3.622c.722-1.082.084-2.144-.65-3.002-1.218-1.424-2.955-2.266-4.66-2.956,3.273-6.562,6.944-12.924,10.268-19.46.85-1.671,2.532-4.537,2.983-6.226.574-2.151.554-8.299.156-10.529-.126-.705-.444-1.813-1.34-1.163-.459.333-1.616,2.096-2.034,2.671-6.554,9.033-12.459,18.563-18.8,27.746-.18.087-.412.776-.589.707-.05-.019-.726-.61-.808-.694-.365-.377-1.82-2.438-1.847-2.864.149-.701.597-1.292.848-1.946.312-.81.634-2.493.544-3.343-.03-.282-.281-.589-.179-.891.445-.334.875-.646,1.294-1.016,4.617-4.069,3.49-11.16,6.486-16.034.376-.612.933-.985,1.218-1.634-2.518-.138-5.131-.305-7.646.012-.94.119-1.837.428-2.766.587-.202-.193,1.032-1.963,1.25-2.202.605-.666,1.235-.9,1.923-1.377.087-.06.186.017.13-.222-.731-.209-1.38-.651-2.122-.832-1.757-.428-3.369-.081-4.985.631-1.101-4.298-2.871-8.539-5.09-12.378-.674-1.167-1.438-2.274-2.12-3.434,1.885-.716,5.24-2.489,5.4-4.77.053-.753-.635-2.586-.92-3.363-2.719-7.398-8.232-12.966-15.425-16.107-7.823-3.416-20.962-5.616-28.455-.585-1.877,1.26-1.969,2.089-1.62,4.327.394,2.528,1.691,5.049,2.674,7.384-12.759,1.907-22.274,12.844-24.6,25.202-1.246,6.622-.404,11.6,3.493,17.067,1.924,2.699,4.439,5.018,6.23,7.784.51.787,2.526,4.134,2.568,4.842.009.157.024.433-.053.558l-.258.057c-7.417-2.413-14.732-6.166-22.669-6.471-1.162-.045-4.421-.181-3.911,1.709.256.95,2.473,2.344,3.326,2.88,3.792,2.384,8.031,4.463,11.912,6.608,3.463,1.914,6.892,3.885,10.397,5.721.099.079-.054.145-.116.186-2.557,1.705-3.827,3.732-3.312,6.943.718,4.478,4.718,7.53,9.137,7.187.974-.075,1.879-.525,2.835-.589,2.163,5.092,5.522,9.997,10.177,13.096.294,1.814.337,3.741.78,5.525.458,1.84.805,1.897,2.636,2.169,1.488.221,3.025.285,4.468-.188l1.42-3.47c2.072.389,4.14.862,6.23,1.151,3.02.418,5.847.53,8.893.216,1.668-.172,3.328-.522,4.956-.9.15,1.505-.877,3.705,1.197,4.158,1.575.344,3.861-.018,5.06-1.156,2.808-2.665,4.389-6.764,6.761-9.755,1.33-1.677,3.393-4.449,4.85-5.861.868-.841,2.246-1.629,3.21-2.496,1.074-.965,2.086-2.046,2.816-3.296,3.327,1.063,6.596,2.309,9.926,3.364,1.375.436,3.351,1.19,4.721,1.386,1.037.148,1.775-.044,1.908-1.206.214-1.874-1-4.665-2.47-5.838ZM110.407,91.618c.318.21.77.463,1.032.719.123.12.264.111.199.4-.033.045-.248-.173-.299-.2-7.673-4.124-15.357-8.785-22.895-13.194-1.415-.828-3.409-1.807-4.673-2.735-.084-.062-.193-.087-.161-.228.042-.189,1.773-1.498,2-1.812h.297c2.797,2.494,5.913,4.598,8.981,6.741,5.09,3.556,10.389,6.916,15.519,10.308ZM36.222,84.208c-.269-.123-.641-.346-.673-.678,3.683,1.257,7.52,2.113,11.413,2.402.002.39-.592.412-.853.406-2.084-.051-8.007-1.267-9.888-2.13ZM44.492,87.516c-.296.231-1.622,1.002-1.966,1.143-.098.04-.183.094-.296.058-1.323-.792-2.649-1.632-3.779-2.684,2.042.502,4.098,1.066,6.207,1.201.041.183-.056.196-.167.282ZM35.697,82.431c-.911-.317-2.106-.592-2.651-1.402,1.259.389,2.47.931,3.726,1.329,4.004,1.268,8.289,2.045,12.493,2.174-.077.552-1.014.414-1.45.399-3.756-.128-8.563-1.261-12.117-2.499ZM33.955,78.066c-1.367-.878-4.879-3.706-5.268-5.243-.075-.295-.009-.561-.07-.831-.066-.294-.79-1.633-.677-1.775.567.28.936.835,1.399,1.252,6.581,5.925,14.481,8.678,23.383,8.46l4.251-.303c-.723.613-1.569,1.149-2.371,1.682-.576.382-3.033,2.069-3.483,2.123-2.564.307-7.272-.485-9.868-1.05-2.491-.542-7.35-1.876-9.478-3.136-.596-.353-2.283-3.244-2.534-3.972-.033-.097-.187-.285-.049-.351,1.307,1.558,2.934,2.87,4.664,3.945.621.386,1.946,1.227,2.591,1.412.192.055.393.083.589.034.034-.096.112-.225.094-.321-.049-.264-2.713-1.629-3.175-1.925ZM50.265,85.782c.049-.577.49-1.208,1.075-1.328,1.059-.218,2.235.387,2.331,1.529.195,2.324-3.612,2.235-3.406-.2ZM48.336,91.56c2.219-1.486,4.742-2.749,7.028-4.186,3.725-2.341,7.382-4.883,10.911-7.509,2.231-1.66,4.445-3.672,6.686-5.227.839-.582,1.776-1.017,2.628-1.577,3.981-2.615,7.531-5.548,10.671-9.148.276,0,1.568,2.581,1.532,3.021-.174,2.16-5.055,6.197-6.746,7.578-.386.756.113.704.648.348,1.687-1.121,5.061-4.49,6.098-6.215.213-.354.353-.854.543-1.158.078-.125.092-.211.276-.173.646,1.38-.525,2.671-1.398,3.655-3.459,3.903-8.916,7.881-13.187,10.938-4.787,3.427-10.142,7.044-15.348,9.779-1.389.73-4.474,2.409-5.96,2.25-.678-.073-3.365-1.312-4.122-1.684-.15-.074-.577-.248-.633-.369-.071-.154.262-.252.372-.325ZM85.963,61.715c.189-.301,1.323-1.383,1.646-1.657.106-.09.925-.737,1.002-.649.184.211-.654,1.487-.819,1.732-.216.32-1.287,1.721-1.528,1.875-.123.078-.198.126-.354.096-.08-.485-.234-.94.054-1.397ZM103.676,84.435c.564.449,1.973,1.681,1.604,2.496-.098.216-.403.396-.618.226l-7.038-4.827c2.198.043,4.331.734,6.053,2.105ZM113.141,54.554c-.263,2.255-2.364,5.824-3.451,7.96-3.267,6.415-6.858,12.668-10.066,19.114l-.205-.062c-.869-1.646-2.733-2.556-4.286-3.453l.006-.215,18.102-27.597c-.02,1.415.065,2.845-.1,4.253ZM110.056,50.069c.99-1.413,1.971-2.856,3.084-4.172l.047,3.098-18.738,28.617c-.087.033-.168.016-.254-.006-.175-.045-1.968-1.116-1.969-1.233,5.995-8.73,11.752-17.632,17.83-26.305ZM89.662,75.224c1.595,1.762,3.992,2.701,5.989,3.922,1.104.675,2.452,1.42,3.074,2.581-.281.078-.613-.087-.85-.078-.287.011-.666.174-.917.174-.465,0-6.773-4.597-7.635-5.258-.998-.765-1.931-1.611-2.919-2.387l-.097-.206,1.249-1.458.352-.089c.397.974,1.049,2.018,1.756,2.799ZM88.111,65.415l.807.044.194.856c-.595-.022-1.059-.232-1.001-.9ZM88.644,49.382c2.193-.917,4.822-1.264,7.176-.982-.57,1.588-1.106,3.199-1.514,4.841-.685,2.759-.977,6.765-2.336,9.174-.259.459-1.547,1.932-1.983,2.122-.442.193-1.911.291-2.307.058-.139-.082-.785-1.055-.755-1.208.037-.187,1.542-1.946,1.807-2.407,1.122-1.949.539-3.204-1.468-1.568-.211.172-1.297,1.409-1.454,1.298-.048-.184-.092-.352-.106-.545-.12-1.676-.138-4.547.006-6.208.046-.524.465-2.733.675-3.128.203-.381,1.806-1.256,2.258-1.445ZM89.012,44.297c-.972,1.065-1.47,2.073-1.928,3.426-.119.35-.129.818-.287,1.115-.21.396-.968.906-1.139,1.462-.137.007-.212-.713-.236-.863-.173-1.093-.481-2.738-.516-3.792-.065-1.964,2.825-1.638,4.106-1.347ZM39.093,12.078c-.281-.214-1.166-3.112-1.276-3.628-.154-.723-.571-3.316-.271-3.843.032-.056.586-.572.682-.642,1.903-1.392,5.372-2.208,7.696-2.493,11.053-1.356,24.187,2.683,31.213,11.56,1.621,2.048,2.937,4.357,3.812,6.848.235.668.82,2.324.857,2.951.038.65-.342,1.175-.801,1.599-.384.355-1.841,1.266-2.323,1.382-.141.034-.256.099-.411.055-.2-.057-1.054-1.373-1.274-1.636-3.679-4.414-7.759-8.04-13.011-10.514-2.039-.96-4.168-1.71-6.313-2.396-.485-3.817-5.091-6.458-8.071-3.321-.611.643-.732,1.307-1.159,2-2.931.162-5.876.76-8.563,1.939-.16.07-.316.495-.785.138ZM63.036,19.169c.413.219.289.303-.087.423-2.023.646-6.95.756-9.128.582-2.799-.225-8.234-1.406-10.365-3.251-.218-.189-.946-.839-.691-1.144,6.954-1.644,14.1.113,20.27,3.39ZM51.268,7.815c4.395-2.009,7.804,4.792,3.862,7.448l-5.044-.813c-1.385-2.078-1.353-5.476,1.182-6.635ZM26.455,65.947c-1.576-2.714-3.228-4.661-5.223-7.039,5.435-1.329,5.819-7.91,3.456-12.112-1.84-3.274-5.284-5.124-9.063-4.702,1.908-13.532,11.757-25.171,25.886-26.328.408-.003.463.658.702,1,1.424,2.041,6.561,3.441,8.952,3.862,3.299.582,6.435.503,9.751.135.967-.107,3.253-.696,4.062-.432.841.275,3.639,2.364,4.502,3.006,1.25.929,2.471,1.942,3.66,2.947.502.424,1.379,1.495,2.005,1.508.299.006.549-.136.832-.091,4.915,6.766,8.026,14.785,8.829,23.153.28,2.92-.009,5.877.097,8.811.042,1.159.257,2.347.303,3.499.031.778-.012.835-.496,1.403-1.168,1.368-3.069,3.073-4.461,4.248-13.576,11.463-35.966,15.066-50.009,2.456-2.079-1.867-2.448-3.019-3.786-5.323ZM12.421,66.415c.641.201,1.883.727,2.403.801.105.015.251-.038.3.1.033.004.067-.004.1,0,.085.009.169.002.2.1.663.127,1.319.377,1.954.599,3.303,1.153,6.569,2.418,9.888,3.527.261.145.601.942.663,1.24.046.218-.103.149-.22.119-5.144-2.174-10.328-4.255-15.489-6.385-.245-.101-.647-.184-.8-.399.376-.073.705.207,1.001.299ZM6.547,68.834c-1.435-.834-3.379-1.831-4.591-2.917-.221-.199-.592-.513-.648-.802.31-.429,5.392-.121,6.185.171l20.735,8.548c-.337,1.646.708,3.274,1.496,4.659.233.409,1.226,1.752,1.295,2.009.04.15.175,1.377.124,1.427-.111.008-.219.003-.328-.022-.725-.167-2.803-1.235-3.581-1.625-6.81-3.421-14.076-7.603-20.687-11.447ZM31.18,93.926c-7.526.642-11.514-9.94-3.799-12.898l3.911,1.802c.62,3.525,1.793,6.901,2.851,10.303-.965.305-1.942.706-2.963.793ZM51.97,113.107c-.425,1.127-.326,1.178-1.655,1.248-1.213.064-2.542-.198-3.73-.422-.504-.357-1.037-5.405-1.024-6.282,2.317,1.138,4.594,2.427,7.104,3.106.094.108-.58,2.045-.695,2.35ZM81.785,111.085c-.683.976-2.424,3.461-3.463,3.844-.999.368-2.507.487-3.504.104-.282-.583-.034-1.169-.019-1.724.012-.442-.121-1.832.14-2.062.14-.124,1.997-.672,2.384-.82.789-.301,1.562-.645,2.346-.958l4.638-2.519c-.744,1.428-1.598,2.815-2.521,4.134ZM85.88,103.568c-.428,1.53-.464,1.737-1.742,2.662-8.744,6.329-20.69,6.984-30.847,4.15-11.968-3.339-17.278-11.942-20.318-23.327-.172-.642-1.239-4.863-1.029-5.125.234-.065.169.061.228.128,5.073,5.691,10.221,9.315,17.224,12.4,1.266.557,2.911,1.455,4.278,1.239,2.129-.337,6.391-2.882,8.372-4.041,5.623-3.291,10.961-7.07,16.203-10.926.158,1.404-.106,3.658.573,4.93.437.819,1.514,1.028,2.179,1.574-1.497.418-2.706,1.559-3.456,2.902-1.408,2.52-1.071,5.147.335,7.576,1.776,3.067,4.902,4.626,8.426,3.636.117.165-.337,1.897-.428,2.223ZM89.613,100.144c-.719.826-1.392,1.801-2.105,2.65-.269.321-.666.647-.899.953-.043.057-.01.297-.199.3-.07-.179.073-.303.099-.4.217-.819.442-1.635.517-2.485.804-.307,1.629-.606,2.386-1.018.101-.055.184-.234.35-.201l.05.051c-.036.077-.16.105-.2.151ZM94.12,96.092c-3.335,3-9.613,7.043-13.819,3.503-4.236-3.565-4.1-10.494,1.757-12.045l14.66,5.092c.436.511-2.158,3.054-2.598,3.45ZM113.092,97.242c-.082.1-.164.119-.287.097-5.993-1.7-11.876-3.796-17.748-5.845-1.538-.537-3.165-1.258-4.726-1.682l-.076-.178c-1.18-.222-2.415-.844-3.628-1.124l-.076-.177c-.621.088-1.578-.562-2.226-.624l-.076-.177-.224.077-.076-.177c-.979-.048-2.381-.712-3.226-1.188-.671-.378-1.161-.43-1.414-1.27-.141-.47-.261-1.299-.305-1.797-.085-.973-.041-2.08.051-3.049l3.984-3.192,29.297,16.958c.47.432,1.169,2.85.758,3.347Z" fill="#000100"/>
      <path d="M66.632,61.114c10.31.645,11.57-17.798.633-16.49-8.412,1.006-9.65,15.926-.633,16.49Z" fill="#000100"/>
      <path d="M36.702,52.701c1.542,1.248,4.094,1.962,6.039,1.538.738-.161,2.777-1.004,3.314-1.491.17-.154.267-.442.081-.621-.178-.172-1.696-.458-2.041-.511-.972-.15-2.205-.274-3.186-.318-1.195-.054-3.501-.15-4.614,0-.246.033-.401.092-.451.361-.022.258.636.863.858,1.043ZM37.251,52.103c2.447-.043,4.892,0,7.308.4.04.221-.146.269-.295.355-2.05,1.178-5.03.928-6.887-.527-.081-.064-.184.003-.126-.229Z" fill="#000100"/>
      <path d="M74.565,61.898c.143.042.274.02.386-.082l2.133-2.379c.107-.324-.881-1.664-1.056-1.717-.089-.027-.172-.026-.261,0-.218.065-1.932,2.234-2.258,2.561-.051.19.89,1.568,1.057,1.617Z" fill="#000100"/>
      <path d="M75.51,63.784c-.047.182.756,1.779.951,1.817l2.725-2.059c.043-.181-.603-1.611-.734-1.732-.128-.118-.215-.131-.38-.083-.134.038-2.012,1.489-2.221,1.689-.121.115-.266.21-.34.368Z" fill="#000100"/>
      <path d="M76.945,67.72c-.087.194.617,1.666.753,1.751.184.115.369.023.539-.067.179-.095,2.153-1.66,2.217-1.787.24-.478-.561-1.388-.667-1.886l-.484.037c-.378.482-2.162,1.515-2.358,1.953Z" fill="#000100"/>
      <path d="M57.845,45.977c.705.445,2.462,1.418,3.206,1.7.29.11.662.151.903-.104.36-.381.041-.989-.341-1.259-.468-.332-3.061-1.748-3.536-1.873-.725-.191-1.119.361-.828,1.031.099.228.392.377.595.505Z" fill="#000100"/>
      <path d="M25.91,41.714c-.221.022-2.845,1.184-2.948,1.309-.499.605.088,1.396.916,1.267.222-.035,2.359-1,2.553-1.151.643-.502.255-1.501-.52-1.424Z" fill="#000100"/>
      <path d="M81.077,89.959c-.694.117-1.448.687-1.859,1.245-2.786,3.788,2.327,10.785,6.123,7.922,3.398-2.563.155-9.912-4.264-9.167Z" fill="#000100"/>
      <path d="M25.711,83.654c-.453.077-.945.42-1.228.775-2.239,2.814,1.45,9.695,4.928,8.329,3.479-1.366.463-9.811-3.701-9.104Z" fill="#000100"/>
    </g>
  </g>
</svg>