<?xml version="1.0" encoding="UTF-8"?>
<svg id="b" data-name="Livello 2" xmlns="http://www.w3.org/2000/svg" width="36.473mm" height="46.122mm" viewBox="0 0 103.389 130.74">
  <g id="c" data-name="Livello 1">
    <g>
      <path d="M84.809,3.505c4.465,2.266,8.858,6.129,9.474,11.372-.159,2.796,2.123,3.998,3.997,5.52,2.293,2.036,5.334,5.967,5.096,9.243-.28,3.852-.871,4.821-2.091,6.861-1.882,3.147-6.361,4.532-6.309,8.528.39,12.727-.777,25.486-3.147,37.998-.585,4.619-1.848,9.136-2.668,13.7-1.055,4.007-1.898,8.104.063,11.977,1.09,8.813-5.24,1.353-.793,20.279-.183,2.374-3.237,2.191-4.155.353-2.227-3.516-1.774-7.893-2.563-11.789-1.447-2.098-5.017-.778-7.267-1.19-2.366.016-4.712-.545-6.999-.874-1.573-.175-1.385,1.475-1.199,2.537.331,2.466.836,4.958.448,7.429-1.458,3.683-1.623-3.885-1.688-4.752.022-3.578-3.429-8.635,2.974-6.766,2.193.402,13.593,2.181,13.765-.572-.1-2.505-1.554-5.555-4.454-5.461-3.702-.166-7.439-.803-11.019-1.55-3.281-.412-1.752-1.84.419-2.627,9.456-3.766,13.041-16.781,7.244-24.995-2.047-3.264-.403-7.282-1.635-10.83-1.001-4.752-6.556-9.279-11.22-6.379-3.432,1.711-3.211,5.906-5.828,7.022-2.481.35-4.882-.943-7.388-.993-2.108-.395-5.029.368-6.284-1.845-1.884-7.087-10.428-10.318-15.149-3.825-2.712,3.082-1.03,7.244-1.965,10.76-1.344,2.327-3.741,4.09-4.98,6.544-3.238,5.541-3.25,13.112.916,18.185,3.413,5.113,13.479,5.485,8.195,7.717-9.535,5.033-6.189-3.078-12.797-5.192-2.737-1.143-5.188.617-5.419,3.449-.419,2.063,1.81,2.462,3.378,2.927,2.535.918,2.354,4.151,4.196,5.802,6.211,6.96,15.717-5.616,12.353,4.101-.691,3.554-.851,7.223-1.268,10.801-.569,2.063-1.626-.106-1.451-1.435.05-2.368.405-4.726.754-7.091,1.624-7.248-5.624.991-11.126-4.864-2.183-1.603-2.18-5.293-4.898-6.156-6.868-.783-3.71-10.549,2.225-9.24,5.726.484,5.452,3.134,8.47,6.507.858.562,2.687.321,2.851-.739.052-.521-.954-1.056-1.514-1.343-1.622-.84-3.136-1.94-4.396-3.292-2.378-2.597-4.015-5.937-4.272-9.455-1.194-13.111,8.448-15.131,7.416-20.66-1.343-9.918,9.723-17.026,17.146-9.248,2.047,1.803,2.104,5.868,5.474,5.826,1.937.12,3.955.177,5.838.595,2.016.747,3.892.179,4.66-1.927,4.005-7.736,13.17-7.095,16.783.544,1.642,3.55,1.304,7.562,1.728,11.331.829,2.451,2.73,4.567,3.036,7.213,1.87,6.873-.637,14.436-6.064,19.014-.682.717-3.55,2.178-1.46,2.804,5.892.992,13.303,3.053,13.297-5.546.82-3.911,1.728-7.763,2.392-11.702,1.988-9.669,3.282-19.491,4.008-29.334.16-2.33.13-4.627.2-6.959-.267-1.79,1.009-5.512-1.13-6.244-16.448,5.335-33.828,6.45-49.783-1.423-8.004-4.206-16.027-8.524-25.026-10.18-2.075-.941-12.767-.157-11.441-3.216,4.278-6.851,11.575-11.351,18.167-15.811C32.458,8.098,45.004,2.229,58.472.829c8.797-1.263,18.202-1.567,26.298,2.657l.039.019ZM81.847,4.31c-1.505-.63-2.977-1.206-4.624-1.502-2.375-.42-4.778-.598-7.182-.619-1.336.003-2.628-.032-3.93-.052-2.264.007-4.505.503-6.746.815-2.302.378-4.615.486-6.897,1.023-1.925.509-3.933.878-5.858,1.297-.912.239-1.772.601-2.653.924-1.727.635-3.618,1.022-5.32,1.826-1.336.589-2.685,1.203-4.036,1.73-3.145,1.14-5.981,3.155-8.983,4.687-2.879,1.601-5.814,3.07-8.4,5.119-1.19.914-2.378,1.771-3.59,2.632-1.237.876-2.368,1.948-3.531,2.939-1.258,1.087-2.523,2.155-3.647,3.34-.581.651-2.067,1.901-1.366,2.63.377.339,1.14.456,1.724.52.748.081,1.509.186,2.261.263,1.116.115,2.155.299,3.166.472,1.664.26,3.508.479,5.178.948,2.698.674,5.224,1.595,7.798,2.569,2.089.826,4.25,1.501,6.253,2.562,3.459,1.726,6.499,4.032,10.136,5.353,1.321.47,2.555,1.023,3.875,1.45,1.816.545,3.626,1.161,5.45,1.634,1.098.262,2.205.356,3.31.589,1.616.282,3.246.615,4.838.685,2.245.148,4.48.415,6.735.295,2.195-.156,4.449-.18,6.644-.355,1.508-.127,2.931-.545,4.419-.789,2.222-.33,4.364-.86,6.502-1.497,2.515-.745,4.946-1.565,7.316-2.67,5.025-2.179,10.345-5.871,11.132-11.689.18-1.389.208-2.822-.334-4.141-.896-2.241-2.4-4.259-4.342-5.677-.651-.471-1.329-.892-2.06-1.287-.759-.416-1.571-.894-1.903-1.716-.461-1.102-.228-2.445-.44-3.618-.325-2.291-1.53-3.961-3.046-5.531-.528-.582-1.08-1.172-1.67-1.702-1.724-1.562-3.983-2.615-6.143-3.444l-.039-.015ZM85.379,104.495c.898-.704.72-2.269.953-3.376.203-.968.407-1.921.635-2.875,1.025-5.289,2.286-10.567,3.118-15.888.407-2.604,1.069-5.117,1.37-7.724.398-2.248.492-4.504.786-6.774.342-2.164.56-4.334.802-6.507.198-2.662.079-5.289.197-7.957.116-3.019.238-5.97-.101-8.972-.104-.629-.399-1.006-.803-.706-.565.476-.681,1.896-.644,2.74-.026,7.368-.271,14.744-1.249,22.048-.17,1.973-.412,3.949-.795,5.893-.253,2.933-.762,5.896-1.311,8.774-.928,4.561-1.889,9.061-2.88,13.625-.297,1.867-.72,3.729-1.051,5.575-.178.781-.098,2.584.952,2.136l.021-.013ZM82.576,109.954c.452.885.684,1.891,1.269,2.684.84.837,2.55.928,3.39.07,1.294-1.332.917-4.301-.362-5.575-1.177-1.212-3.444-1.546-4.891-.649-.928.661.275,2.621.578,3.436l.015.034ZM83.978,114.796c-1.2.843-.787,4.277-.716,5.659.088,1.427.078,2.918.481,4.315.362,1.099.85,2.104,1.335,3.156.23.483.54,1.041.936,1.365.62.522,1.157.292,1.089-.532-.047-.596-.292-1.236-.488-1.814-.523-1.748-1.066-3.566-1.403-5.351-.233-1.186-.152-2.361-.159-3.553-.044-.981.124-2.177-.423-3.02-.135-.21-.392-.371-.631-.236l-.02.011Z"/>
      <path d="M3.116,46.292c2.409-1.056,3.961,5.274,4.587,6.903.651,2.195,1.127,4.621.451,6.866-.891,2.92-3.679,4.114-6.213,2.24-2.827-2.426-1.991-8.307-1.061-11.557.469-1.43.817-3.653,2.205-4.438l.032-.015ZM3.581,47.512c-.915.382-1.36,2.923-1.648,3.895-.505,2.452-1.122,5.033-.573,7.543.928,4.237,5.213,4.28,5.824-.139.308-2.312-.531-4.543-1.198-6.74-.377-.945-1.276-4.637-2.384-4.564l-.02.005Z"/>
      <path d="M65.811,66.717c1.152,1.504,1.166,3.783.577,5.519-1.232,3.351-4.844,2.656-5.38-.705-.306-1.794-.033-4.161,1.574-5.257.987-.714,2.441-.586,3.202.41l.026.033Z"/>
      <path d="M31.225,63.672c1.585-1.405,3.298-.122,3.993,1.515.65,1.541.397,3.669-.652,5.04-.857,1.119-2.578,1.194-3.513.131-1.534-1.759-1.614-5.03.14-6.658l.032-.028Z"/>
      <path d="M39.538,86.744c-1.471-1.154-3.04-2.303-4.191-3.787-.918-1.369-.106-2.027,1.186-1.053,1.529,1.278,2.862,2.968,4.767,3.683,1.602.653,3.258-.22,4.642-1.015,1.16-.627,2.282-1.349,3.407-2.051.521-.266,1.329-.681,1.824-.322.294.315.031.847-.206,1.151-.698.823-1.656,1.329-2.624,1.869-.942.512-1.918,1.028-2.882,1.522-1.919,1.007-4.036,1.44-5.885.029l-.037-.026Z"/>
      <path d="M44.882,76.223c.547.002,1.466.11,1.619.733-.105.878-1.326.746-2.011.453-.911-.382-.519-1.16.345-1.184l.047-.002Z"/>
      <path d="M39.501,76.085c.67-.27,1.835.193,1.358,1.02-.3.421-1.76.331-1.938-.185-.118-.366.199-.701.536-.819l.044-.016Z"/>
      <path d="M71.016,16.588c-4.936.079-9.948.44-14.864,1.148-1.977.286-3.911.54-5.86.948-1.199.226-2.471.297-3.685.521-.833.162-1.735.513-1.821,1.414-.1.725.263,1.76.107,2.691-.316,1.784-1.785,3.311-3.44,3.912-2.551.85-5.947,1.307-7.963-.86-1.109-1.036-.878-3.573-2.631-3.477-.704.052-1.35.291-2.022.502-1.711.596-3.459,1.04-5.281,1.599-1.824.636-3.53,1.224-5.361,1.769-1.062.225-5.171,2.278-5.433.898.008-.26.333-.59.828-.848,1.246-.572,2.754-.925,4.078-1.429,1.724-.624,3.401-1.186,5.124-1.744,2.2-.681,4.299-1.222,6.493-1.99.98-.315,2.006-.533,2.957-.929,1.78-.789,3.509-2.095,5.481-2.496,1.185-.309,2.401-.243,3.592-.069,1.585.198,3.042-.177,4.609-.494,2.754-.479,5.572-1.012,8.321-1.425,3.059-.389,6.138-.641,9.194-.946,2.832-.249,5.711-.342,8.551-.362,1.765-.055,3.671.21,5.479.244,1.587.013,3.214.132,4.816.358,1.464.262,4.965.182,5.646,1.385.173.643-.997.779-1.557.737-5.076-.642-10.19-1.08-15.316-1.055h-.043ZM39.414,19.339c-1.93.079-4.176.852-5.266,2.513-.956,1.608.059,3.634,1.715,4.3,1.355.57,2.835.423,4.303.053,1.618-.483,3.465-1.493,3.81-3.26.225-2.332-2.459-3.713-4.517-3.606h-.045Z"/>
      <path d="M80.058,26.233c1.597.614,2.898,2.016,2.814,3.792-.038,1.666-.852,3.276-2.165,4.27-1.22.938-2.779,1.105-4.256,1.268-1.46.195-3.042.046-4.36-.607-3.289-1.47-3.099-5.95-.46-7.982,2.184-1.772,5.843-1.625,8.386-.758l.041.016ZM80.679,28.181c-.954-.854-2.277-1.191-3.584-1.182-1.931.066-3.961.253-5.213,1.829-2.194,2.873.042,5.203,3.264,5.199,1.955.095,4.263-.169,5.614-1.718,1.061-1.151,1.198-3.007-.05-4.099l-.031-.029Z"/>
    </g>
  </g>
</svg>