<?xml version="1.0" encoding="UTF-8"?>
<svg id="b" data-name="Livello 2" xmlns="http://www.w3.org/2000/svg" width="42.775mm" height="37.325mm" viewBox="0 0 121.253 105.802">
  <g id="c" data-name="Livello 1">
    <g>
      <path d="M79.909,6.676c.247,1.264.114,2.662-.261,3.892-.503,1.65-1.778,2.916-2.414,4.501-.367.915-.913,2.366-.273,3.228,1.628,1.89,3.042,3.977,4.84,5.716.246.238.677.24.304.658-1.151,1.292-3.158,1.806-3.161,4.127-.002,2.106,2.599,2.511,2.794,3.768.189,1.22-1.302,3.184-1.516,4.535-.281,1.772.218,2.949,1.773,3.835-1.202,2.018-1.061,4.104.213,6.036-1.895,4.197-4.806,8.133-6.55,12.373-1.135,2.759-.668,4.109-.965,6.92-.533,5.04-3.826,12.429-1.004,16.926.669,1.067,4.799,6.523,5.588,7.028.517.33,1.32.4,1.722.825.431.456,1.251,2.554.928,3.078-.186.302-1.905.907-2.319.955-.917.106-1.508-.085-2.352-.35.694.52,1.036,1.223.978,2.109-2.959,1.045-9.534,1.903-11.216-1.515-.54-1.097-.475-2.398-.897-3.47-.314-.798-1.117-1.773-1.543-2.581-.857-1.625-1.379-3.182-2.114-4.8-.055-.12-.081-.284-.247-.297-.142.798-.54,1.457-1.408,1.568-.358.046-.69-.086-.996-.03-1.224.227-1.476,2.439-2.416,3.13.16.441.341.798.595,1.192,1.526,2.368,3.687,4.613,5.314,6.938.495.445,1.362.48,1.882.908.557.458,1.256,2.309,1.157,2.971-.054.358-1.129.83-1.489.946-1.13.366-2.176.366-3.248-.154.555.583,1.129,1.354.898,2.196-.527.169-1.062.315-1.603.434-2.697.594-8.049,1.053-9.584-1.864-.556-1.056-.492-2.269-.935-3.314-2.665.83-6.405,1.878-9.06.693-.383-.171-2.123-1.419-2.279-1.298,1.015,1.495,1.362,3.747-.12,5.035-2.032,1.764-7.982,2.841-10.467,1.973-.796-.278-2.232-1.455-2.701-1.544-.598-.113-1.146.108-1.688.121-6.529.155-13.778-.389-17.342-6.686-1.99-3.516-2.61-10.056-1.558-13.912.788-2.886,2.387-4.701,2.092-7.972-.416-4.619-5.885-6.306-6.998-10.713-1.125-4.456,1.667-6.972,2.373-11.02.462-2.651.235-5.296-.225-7.928,2.269.01,3.356,2.667,4.668,4.125.176.196.911,1.028,1.154.847-.194-.606-.358-1.285-.45-1.914-.747-5.087.152-10.743,3.784-14.584.324-.342,1.528-1.234,1.637-1.427.8-1.429.198-3.654-.24-5.12.214-.163,1.582.933,1.821,1.149,1.871,1.695,3.678,4.894,2.846,7.459-.351,1.081-1.412,2.091-1.721,3.131-.527,1.773.659,3.031,2.145,1.417,1.322-1.435,2.276-4.471,4.856-2.664-1.975,1.587-1.114,4.63-.572,6.758.82,3.216,3.233,8.044-.034,10.526.555-.069,1.077-.315,1.639-.36.332-.027,1.639.134,1.738-.023.857-4.566,5.369-7.416,8.271-10.712.171-.194,1.034-1.235,1.07-1.366.08-.295-.406-1.437-.451-1.927-.137-1.489.528-2.927,1.536-3.987-1.21-1.3-1.738-2.392-.967-4.148.474-1.08,2.397-3.044,2.44-3.99.065-1.448-2.203-2.324-2.005-4.057.243-2.127,2.77-2.878,4.316-3.818-1.364-1.774-2.451-3.627-2.144-5.971-2.599-1.831-2.105-4.743-2.083-7.539,2.99-.894,5.992-.856,8.883.365,1.995.843,3.728,2.31,5.709,3.135,3.407-1.73,7.719-2.373,11.495-1.78,1.539.242,2.84.805,4.255,1.397,2.686-1.204,4.858-3.611,7.733-4.406,2.078-.575,4.141-.332,6.169.319ZM72.282,18.426l-3.871,1.466c.512,1.39.955,2.956-.823,3.603-1.758.64-2.636-.801-3.267-2.168l-3.915,1.545c1.453,3.685,5.183,5.461,8.928,3.703,3.214-1.508,3.915-4.952,2.948-8.15ZM47.892,20.982l-3.994-1.1c-.644,3.594.729,7.022,4.487,7.947,1.638.403,3.214.344,4.692-.527,1.507-.887,2.935-2.642,3.195-4.387l-4.366-.972c-.195,1.685-.778,2.763-2.677,2.373-1.732-.355-1.583-1.968-1.336-3.334ZM63.771,32.235c.423-2.479-3.895-1.257-3.738.432.14,1.507,3.015-.207,3.738-.432ZM57.335,33.2c.864-1.523-3.513-3.113-3.804-1.07-.031.217.012.407.199.544.448.329,3.258,1.138,3.605.526ZM69.252,44.506c1.921-.794,4.028-1.78,4.822-3.85.55-1.434,1.099-5.298-.469-6.145-.871-.471-1.235-.51-1.709.329-.669,1.183-.839,3.749-1.73,4.576-.249.231-.418.367-.742.126-.677-.503-.534-3.24-1.081-4.016l-.237-.115c-6.226,1.981-13.12,2.217-19.522.976-.524.173-.333,3.517-.918,4.184-.546.623-1.123-.281-1.365-.713-.594-1.063-.97-3.503-1.927-4.144-.634-.425-1.851.677-2,1.385-.356,1.695.478,4.721,1.594,6.062,1.129,1.357,2.952,1.721,4.479,2.433.121-.091.135-.099.133-.247-.008-.62-.224-1.164-.179-1.857.103-1.58.948-2.402,2.099-.917.555.716,1.037,1.944,1.417,2.767l.519.022c.63-2.631,4.488-4.728,7.034-4.481,2.218.216,5.117,1.713,5.98,3.862l.464-.107c.133-.625.383-1.321.645-1.911.351-.792.803-2.028,1.849-1.684.828.272.857,2.717.843,3.464Z" fill="#000100"/>
      <path d="M112.8.595l-5.207,13.506,5.936,2.334,5.464-13.286,2.063.669c.058.402-1.492,4.193-1.768,4.902-2.251,5.773-4.754,11.211-8.043,16.469.152,1.32.76,2.57,1.031,3.889,2.476,12.065-8.695,17.036-13.733,26.222-.23.42-.779,1.954-1.114,2.049-.845.085-1.284-1.067-1.633-1.722-3.871-7.256-6.247-18.424-2.183-26.001,2.057-3.835,5.582-6.337,9.737-7.516,1.048-7.776,4.487-14.885,7.386-22.067.377-.236,1.559.573,2.065.552ZM110.12,22.663l2.104-3.667c.063-.109.119-.206.04-.33-.164-.258-4.847-1.837-5.529-2.06l-.795,4.489,4.179,1.568ZM110.494,36.38c.721-3.077.744-7.798-1.067-10.517-.674-1.012-3.389-2.084-4.573-2.109-1.799-.037-5.593,2.03-6.976,3.223-1.173,1.011-3.163,3.596-3.372,5.127-.094.692.355.42.795.607.931.394,1.233,2.006,1.35,2.896.23,1.751.076,3.614.259,5.382.199.222.911-.997.991-1.131.788-1.324,2.659-6.233,4.072-6.602,1.519-.396,2.139,1.525,2.219,2.695.089,1.309-.385,2.678-.124,3.947,1.45-.891,2.705-4.413,4.154-5.002,1.237-.503,1.513.57,2.002,1.328.077.119-.013.216.271.157Z" fill="#000100"/>
      <path d="M104.284,64.922c7.449-.699,13.103,7.073,9.264,13.753-3.629,6.315-12.955,6.143-16.46-.2-3.201-5.793.689-12.942,7.196-13.552Z" fill="#000100"/>
      <path d="M115.318,87.359c6.968-.956,8.157,9.297,1.654,10.024-6.926.774-8.111-9.139-1.654-10.024Z" fill="#000100"/>
    </g>
  </g>
</svg>