<?xml version="1.0" encoding="UTF-8"?>
<svg id="b" data-name="Livello 2" xmlns="http://www.w3.org/2000/svg" width="362.07mm" height="422.184mm" viewBox="0 0 1026.341 1196.742">
  <g id="c" data-name="Livello 1">
    <g id="d" data-name="Front">
      <g>
        <path d="M196.484,371.846c-12.213-118.71-57.641-175.677-71.185-203.306,0,0,22.655-37.234,42.914-51.879,11.78-10.279,36.344-24.835,36.344-24.835,3.023-1.804,6.115-3.474,9.33-5.019l.61-.215,127.7-62.776s1.327-6.542,37.597-19.592c5.334,3.245,34.504,18.572,138.424,15.811,39.158-1.004,100.717-2.564,129.555-16.846,6.32,2.811,26.558,11.434,36.858,19.537l127.968,63.866c3.219,1.54,6.307,3.217,9.336,5.017,0,0,24.558,14.554,36.338,24.832,20.263,14.647,42.918,51.876,42.918,51.876-13.54,27.631-58.972,84.596-71.185,203.306-2.928,28.527.032,53.422.135,60.824.381,48.594,1.47,83.223,2.02,104.046,0,0,.424,55.161,1.194,155.597.515,66.973,4.25,109.811,4.829,170.569.125,14.672.065,30.38-.264,47.722-.091,4.698-.22,9.463-.355,14.419-1.8,66.2-3.819,149.611-4.343,269.138H193.871c-.524-119.527-2.543-202.939-4.347-269.138-.135-4.955-.255-9.721-.325-14.419-.355-17.342-.416-33.05-.323-47.722.514-60.826,4.311-103.596,4.827-170.569.809-100.436,1.229-155.597,1.229-155.597.549-20.824,1.61-55.453,2.023-104.046.07-7.402-.346-31.93-.471-60.602Z" fill="#fff"/>
        <path d="M196.484,371.846l2.788-.287c-6.136-59.66-20.641-103.902-35.324-136.667-7.339-16.382-14.721-29.895-21.099-41.017-6.377-11.115-11.752-19.866-15.034-26.568l-2.516,1.234,2.394,1.457.014-.023c.317-.52,6.022-9.822,14.092-20.739,4.034-5.458,8.659-11.318,13.479-16.674,4.816-5.356,9.839-10.206,14.577-13.628l.105-.076.096-.084c2.83-2.47,6.516-5.267,10.428-8.043,5.871-4.167,12.26-8.3,17.17-11.382,2.456-1.542,4.542-2.821,6.013-3.715.736-.447,1.317-.797,1.714-1.034.198-.119.351-.21.453-.27.102-.061.152-.09.152-.091l.007-.004c2.955-1.763,5.972-3.393,9.108-4.899l-1.213-2.526.933,2.643.767-.271,129.083-63.456.274-1.35-1.584-.321,1.448.759s.079-.154.136-.437l-1.584-.321,1.448.759s.012-.024.047-.076c.13-.197.572-.774,1.647-1.674,1.61-1.353,4.633-3.426,10.022-6.138,5.389-2.715,13.142-6.075,24.219-10.06l-.949-2.637-1.457,2.394c.674.41,1.683.988,3.079,1.671,4.894,2.397,14.552,6.113,32.237,9.233,17.688,3.119,43.416,5.645,80.502,5.646,7.563,0,15.599-.105,24.137-.332h-.003c19.583-.502,44.821-1.142,68.844-3.456,12.014-1.157,23.726-2.732,34.307-4.932,10.582-2.204,20.03-5.017,27.576-8.748l-1.244-2.512-1.139,2.561c1.599.711,4.033,1.771,6.963,3.093,4.391,1.982,9.883,4.551,15.203,7.361,2.66,1.404,5.276,2.868,7.683,4.342,2.406,1.473,4.604,2.958,6.415,4.383l.225.177,128.24,64.002.026.013c3.134,1.499,6.147,3.135,9.114,4.898l.003.002s.021.013.067.04c.705.419,6.894,4.112,14.305,8.927,3.705,2.407,7.716,5.093,11.492,7.785,3.775,2.689,7.32,5.389,10.061,7.782l.096.084.105.076c4.815,3.476,9.923,8.427,14.809,13.884,7.338,8.187,14.201,17.507,19.208,24.761,2.505,3.628,4.547,6.741,5.961,8.942.707,1.101,1.257,1.973,1.628,2.569.186.298.327.526.421.679.047.077.083.134.106.172l.026.042.007.012,2.394-1.457-2.517-1.233c-3.281,6.703-8.656,15.454-15.032,26.569-9.568,16.685-21.389,38.743-31.95,67.804-10.564,29.063-19.871,65.134-24.474,109.88h0c-.976,9.505-1.304,18.593-1.304,26.775,0,8.341.342,15.742.691,21.669.174,2.963.351,5.558.487,7.709.136,2.147.231,3.862.247,4.998v-.018c.381,48.623,1.471,83.286,2.02,104.098l2.802-.074-2.803.022s.007.862.02,2.566c.092,11.931.501,65.148,1.174,153.03.258,33.534,1.322,61.028,2.393,87.706,1.071,26.68,2.147,52.541,2.436,82.868v-.003c.039,4.62.06,9.344.06,14.189,0,10.514-.099,21.602-.323,33.456-.091,4.682-.219,9.44-.355,14.395-1.8,66.208-3.82,149.65-4.344,269.203l2.803.012v-2.803H193.871v2.803l2.802-.012c-.524-119.552-2.544-202.995-4.348-269.203-.135-4.952-.255-9.706-.325-14.384v-.016c-.26-12.667-.362-24.46-.362-35.616,0-4.092.013-8.099.039-12.03v.006c.257-30.36,1.332-56.219,2.411-82.89,1.078-26.669,2.158-54.146,2.417-87.682h0c.809-100.436,1.229-155.597,1.229-155.597l-2.802-.022,2.802.074c.549-20.814,1.61-55.475,2.024-104.096v.002c.005-.579.008-1.253.008-2.019,0-4.625-.091-12.653-.196-22.848-.105-10.193-.225-22.543-.282-35.773v-.14s-.015-.135-.015-.135l-2.788.287-2.803.012c.057,13.249.177,25.611.282,35.807.105,10.194.196,18.23.196,22.79,0,.755-.002,1.414-.008,1.967v.002c-.414,48.566-1.473,83.164-2.023,103.996v.016s0,.036,0,.036c0,.003-.007.862-.02,2.566-.092,11.931-.502,65.148-1.21,153.029h0c-.257,33.439-1.334,60.833-2.412,87.499-1.078,26.664-2.158,52.602-2.415,83.069v.006c-.026,3.944-.039,7.962-.039,12.067,0,11.19.103,23.022.363,35.731v.055s0-.071,0-.071c.07,4.717.191,9.494.326,14.453,1.804,66.192,3.822,149.572,4.346,269.074l.012,2.79h644.932l.012-2.79c.524-119.502,2.542-202.883,4.342-269.075.135-4.955.264-9.728.356-14.44.225-11.891.325-23.014.324-33.564,0-4.861-.021-9.6-.06-14.236v-.003c-.29-30.431-1.37-56.368-2.44-83.04-1.07-26.674-2.131-54.085-2.388-87.524-.769-100.436-1.194-155.597-1.194-155.597v-.025s0-.028,0-.028c-.55-20.835-1.638-55.43-2.019-103.995v-.017c-.02-1.347-.12-3.1-.257-5.273-.412-6.503-1.167-16.736-1.167-29.023,0-8.032.323-16.931,1.275-26.202h0c6.078-59.049,20.393-102.645,34.865-134.948,7.237-16.153,14.516-29.481,20.846-40.52,6.332-11.047,11.713-19.779,15.203-26.891l.675-1.379-.798-1.312c-.028-.045-5.726-9.409-13.997-20.65-4.137-5.621-8.917-11.712-13.973-17.355-5.06-5.643-10.383-10.839-15.7-14.686l-1.642,2.271,1.842-2.112c-3.06-2.669-6.862-5.546-10.868-8.39-6.006-4.263-12.464-8.439-17.431-11.557-4.966-3.118-8.438-5.176-8.453-5.184l.003.002c-3.091-1.836-6.254-3.555-9.558-5.136l-1.209,2.528,1.251-2.508-127.968-63.866-1.251,2.508,1.733-2.203c-2.735-2.15-6.026-4.263-9.545-6.299-5.276-3.05-11.062-5.916-16.133-8.292-5.066-2.373-9.428-4.26-11.773-5.303l-1.204-.535-1.179.584c-6.873,3.409-15.935,6.147-26.229,8.284-15.446,3.213-33.664,5.103-51.667,6.272-18.007,1.17-35.803,1.624-50.486,2.001h-.003c-8.49.226-16.476.33-23.988.33-42.093,0-69.276-3.282-86.447-6.894-8.586-1.806-14.668-3.692-18.864-5.286-2.099-.797-3.726-1.521-4.963-2.127-1.238-.606-2.081-1.092-2.631-1.426l-1.145-.696-1.26.454c-18.267,6.576-27.839,11.531-33.013,15-2.587,1.739-4.082,3.11-5.001,4.193-.458.542-.772,1.015-.989,1.428-.216.412-.335.767-.392,1.051l2.747.557-1.237-2.515-127.553,62.703-.454.16-.143.051-.137.066c-3.294,1.582-6.462,3.294-9.553,5.138l.007-.004c-.02.012-6.187,3.666-13.848,8.621-3.831,2.478-8.036,5.28-12.041,8.123-4.007,2.844-7.809,5.722-10.869,8.39l1.843,2.112-1.642-2.271c-5.316,3.847-10.638,9.042-15.698,14.685-7.582,8.463-14.55,17.94-19.645,25.319-5.092,7.378-8.304,12.655-8.324,12.688l-.798,1.312.676,1.379c3.491,7.112,8.872,15.842,15.205,26.89,9.495,16.558,21.127,38.272,31.544,66.93,10.414,28.657,19.608,64.252,24.165,108.539l2.788-.287-2.803.012,2.803-.012Z"/>
        <path d="M204.754,1165.858h-5.671c-.392,0-.71.318-.71.71s.318.709.71.709h5.671c.392,0,.709-.318.709-.709s-.318-.71-.709-.71ZM213.644,1165.858h-5.671c-.392,0-.71.318-.71.71s.318.709.71.709h5.671c.392,0,.709-.318.709-.709s-.318-.71-.709-.71ZM222.534,1165.858h-5.671c-.392,0-.71.318-.71.71s.318.709.71.709h5.671c.392,0,.709-.318.709-.709s-.318-.71-.709-.71ZM231.424,1165.858h-5.671c-.392,0-.709.318-.709.71s.318.709.709.709h5.671c.392,0,.709-.318.709-.709s-.318-.71-.709-.71ZM240.314,1165.858h-5.671c-.392,0-.71.318-.71.71s.318.709.71.709h5.671c.392,0,.709-.318.709-.709s-.318-.71-.709-.71ZM249.203,1165.858h-5.671c-.392,0-.71.318-.71.71s.318.709.71.709h5.671c.392,0,.709-.318.709-.709s-.318-.71-.709-.71ZM258.093,1165.858h-5.671c-.392,0-.71.318-.71.71s.318.709.71.709h5.671c.392,0,.709-.318.709-.709s-.318-.71-.709-.71ZM266.983,1165.858h-5.671c-.392,0-.71.318-.71.71s.318.709.71.709h5.671c.392,0,.709-.318.709-.709s-.318-.71-.709-.71ZM275.873,1165.858h-5.671c-.392,0-.71.318-.71.71s.318.709.71.709h5.671c.392,0,.709-.318.709-.709s-.318-.71-.709-.71ZM284.763,1165.858h-5.671c-.392,0-.71.318-.71.71s.318.709.71.709h5.671c.392,0,.709-.318.709-.709s-.318-.71-.709-.71ZM293.653,1165.858h-5.671c-.392,0-.71.318-.71.71s.318.709.71.709h5.671c.392,0,.709-.318.709-.709s-.318-.71-.709-.71ZM302.543,1165.858h-5.671c-.392,0-.71.318-.71.71s.318.709.71.709h5.671c.392,0,.709-.318.709-.709s-.318-.71-.709-.71ZM311.433,1165.858h-5.671c-.392,0-.71.318-.71.71s.318.709.71.709h5.671c.392,0,.709-.318.709-.709s-.318-.71-.709-.71ZM320.323,1165.858h-5.671c-.392,0-.709.318-.709.71s.318.709.709.709h5.671c.392,0,.709-.318.709-.709s-.318-.71-.709-.71ZM329.213,1165.858h-5.671c-.392,0-.71.318-.71.71s.318.709.71.709h5.671c.392,0,.709-.318.709-.709s-.318-.71-.709-.71ZM338.103,1165.858h-5.671c-.392,0-.71.318-.71.71s.318.709.71.709h5.671c.392,0,.709-.318.709-.709s-.318-.71-.709-.71ZM346.993,1165.858h-5.671c-.392,0-.71.318-.71.71s.318.709.71.709h5.671c.392,0,.709-.318.709-.709s-.318-.71-.709-.71ZM355.883,1165.858h-5.671c-.392,0-.71.318-.71.71s.318.709.71.709h5.671c.392,0,.709-.318.709-.709s-.318-.71-.709-.71ZM364.773,1165.858h-5.671c-.392,0-.71.318-.71.71s.318.709.71.709h5.671c.392,0,.709-.318.709-.709s-.318-.71-.709-.71ZM373.663,1165.858h-5.671c-.392,0-.71.318-.71.71s.318.709.71.709h5.671c.392,0,.709-.318.709-.709s-.318-.71-.709-.71ZM382.553,1165.858h-5.671c-.392,0-.71.318-.71.71s.318.709.71.709h5.671c.392,0,.709-.318.709-.709s-.318-.71-.709-.71ZM391.443,1165.858h-5.671c-.392,0-.71.318-.71.71s.318.709.71.709h5.671c.392,0,.709-.318.709-.709s-.318-.71-.709-.71ZM400.333,1165.858h-5.671c-.392,0-.71.318-.71.71s.318.709.71.709h5.671c.392,0,.709-.318.709-.709s-.318-.71-.709-.71ZM409.223,1165.858h-5.671c-.392,0-.71.318-.71.71s.318.709.71.709h5.671c.392,0,.709-.318.709-.709s-.318-.71-.709-.71ZM418.112,1165.858h-5.671c-.392,0-.709.318-.709.71s.318.709.709.709h5.671c.392,0,.709-.318.709-.709s-.318-.71-.709-.71ZM427.002,1165.858h-5.672c-.392,0-.71.318-.71.71s.318.709.71.709h5.672c.392,0,.709-.318.709-.709s-.318-.71-.709-.71ZM435.892,1165.858h-5.671c-.392,0-.71.318-.71.71s.318.709.71.709h5.671c.392,0,.709-.318.709-.709s-.318-.71-.709-.71ZM444.782,1165.858h-5.671c-.392,0-.71.318-.71.71s.318.709.71.709h5.671c.392,0,.709-.318.709-.709s-.318-.71-.709-.71ZM453.672,1165.858h-5.671c-.392,0-.71.318-.71.71s.318.709.71.709h5.671c.392,0,.709-.318.709-.709s-.318-.71-.709-.71ZM462.562,1165.858h-5.671c-.392,0-.71.318-.71.71s.318.709.71.709h5.671c.392,0,.709-.318.709-.709s-.318-.71-.709-.71ZM471.452,1165.858h-5.671c-.392,0-.71.318-.71.71s.318.709.71.709h5.671c.392,0,.709-.318.709-.709s-.318-.71-.709-.71ZM480.342,1165.858h-5.671c-.392,0-.71.318-.71.71s.318.709.71.709h5.671c.392,0,.709-.318.709-.709s-.318-.71-.709-.71ZM489.232,1165.858h-5.671c-.392,0-.71.318-.71.71s.318.709.71.709h5.671c.392,0,.709-.318.709-.709s-.318-.71-.709-.71ZM498.122,1165.858h-5.671c-.392,0-.71.318-.71.71s.318.709.71.709h5.671c.392,0,.709-.318.709-.709s-.318-.71-.709-.71ZM507.012,1165.858h-5.671c-.392,0-.71.318-.71.71s.318.709.71.709h5.671c.392,0,.709-.318.709-.709s-.318-.71-.709-.71ZM515.902,1165.858h-5.671c-.392,0-.71.318-.71.71s.318.709.71.709h5.671c.392,0,.709-.318.709-.709s-.318-.71-.709-.71ZM524.792,1165.858h-5.671c-.392,0-.71.318-.71.71s.318.709.71.709h5.671c.392,0,.709-.318.709-.709s-.318-.71-.709-.71ZM533.682,1165.858h-5.672c-.392,0-.71.318-.71.71s.318.709.71.709h5.672c.392,0,.709-.318.709-.709s-.318-.71-.709-.71ZM542.572,1165.858h-5.671c-.392,0-.71.318-.71.71s.318.709.71.709h5.671c.392,0,.709-.318.709-.709s-.318-.71-.709-.71ZM551.461,1165.858h-5.671c-.392,0-.71.318-.71.71s.318.709.71.709h5.671c.392,0,.709-.318.709-.709s-.318-.71-.709-.71ZM560.351,1165.858h-5.671c-.392,0-.71.318-.71.71s.318.709.71.709h5.671c.392,0,.709-.318.709-.709s-.318-.71-.709-.71ZM569.241,1165.858h-5.671c-.392,0-.71.318-.71.71s.318.709.71.709h5.671c.392,0,.709-.318.709-.709s-.318-.71-.709-.71ZM578.131,1165.858h-5.671c-.392,0-.71.318-.71.71s.318.709.71.709h5.671c.392,0,.709-.318.709-.709s-.318-.71-.709-.71ZM587.021,1165.858h-5.671c-.392,0-.71.318-.71.71s.318.709.71.709h5.671c.392,0,.709-.318.709-.709s-.318-.71-.709-.71ZM595.911,1165.858h-5.671c-.392,0-.71.318-.71.71s.318.709.71.709h5.671c.392,0,.709-.318.709-.709s-.318-.71-.709-.71ZM604.801,1165.858h-5.671c-.392,0-.71.318-.71.71s.318.709.71.709h5.671c.392,0,.709-.318.709-.709s-.318-.71-.709-.71ZM613.691,1165.858h-5.671c-.392,0-.71.318-.71.71s.318.709.71.709h5.671c.392,0,.709-.318.709-.709s-.318-.71-.709-.71ZM622.581,1165.858h-5.671c-.392,0-.71.318-.71.71s.318.709.71.709h5.671c.392,0,.709-.318.709-.709s-.318-.71-.709-.71ZM631.471,1165.858h-5.671c-.392,0-.71.318-.71.71s.318.709.71.709h5.671c.392,0,.709-.318.709-.709s-.318-.71-.709-.71ZM640.361,1165.858h-5.672c-.392,0-.71.318-.71.71s.318.709.71.709h5.672c.392,0,.709-.318.709-.709s-.318-.71-.709-.71ZM649.251,1165.858h-5.672c-.392,0-.71.318-.71.71s.318.709.71.709h5.672c.392,0,.709-.318.709-.709s-.318-.71-.709-.71ZM658.141,1165.858h-5.671c-.392,0-.71.318-.71.71s.318.709.71.709h5.671c.392,0,.709-.318.709-.709s-.318-.71-.709-.71ZM667.031,1165.858h-5.671c-.392,0-.71.318-.71.71s.318.709.71.709h5.671c.392,0,.709-.318.709-.709s-.318-.71-.709-.71ZM675.921,1165.858h-5.671c-.392,0-.71.318-.71.71s.318.709.71.709h5.671c.392,0,.709-.318.709-.709s-.318-.71-.709-.71ZM684.811,1165.858h-5.671c-.392,0-.71.318-.71.71s.318.709.71.709h5.671c.392,0,.709-.318.709-.709s-.318-.71-.709-.71ZM693.701,1165.858h-5.671c-.392,0-.71.318-.71.71s.318.709.71.709h5.671c.392,0,.709-.318.709-.709s-.318-.71-.709-.71ZM702.591,1165.858h-5.672c-.392,0-.71.318-.71.71s.318.709.71.709h5.672c.392,0,.709-.318.709-.709s-.318-.71-.709-.71ZM711.481,1165.858h-5.671c-.392,0-.71.318-.71.71s.318.709.71.709h5.671c.392,0,.709-.318.709-.709s-.318-.71-.709-.71ZM720.371,1165.858h-5.671c-.392,0-.709.318-.709.71s.318.709.709.709h5.671c.392,0,.709-.318.709-.709s-.318-.71-.709-.71ZM729.261,1165.858h-5.672c-.392,0-.71.318-.71.71s.318.709.71.709h5.672c.392,0,.709-.318.709-.709s-.318-.71-.709-.71ZM738.151,1165.858h-5.671c-.392,0-.71.318-.71.71s.318.709.71.709h5.671c.392,0,.709-.318.709-.709s-.318-.71-.709-.71ZM747.041,1165.858h-5.671c-.392,0-.71.318-.71.71s.318.709.71.709h5.671c.392,0,.709-.318.709-.709s-.318-.71-.709-.71ZM755.931,1165.858h-5.671c-.392,0-.71.318-.71.71s.318.709.71.709h5.671c.392,0,.709-.318.709-.709s-.318-.71-.709-.71ZM764.82,1165.858h-5.671c-.392,0-.71.318-.71.71s.318.709.71.709h5.671c.392,0,.709-.318.709-.709s-.318-.71-.709-.71ZM773.711,1165.858h-5.671c-.392,0-.71.318-.71.71s.318.709.71.709h5.671c.392,0,.709-.318.709-.709s-.318-.71-.709-.71ZM782.601,1165.858h-5.672c-.392,0-.71.318-.71.71s.318.709.71.709h5.672c.392,0,.709-.318.709-.709s-.318-.71-.709-.71ZM791.49,1165.858h-5.671c-.392,0-.71.318-.71.71s.318.709.71.709h5.671c.392,0,.709-.318.709-.709s-.318-.71-.709-.71ZM800.38,1165.858h-5.671c-.392,0-.71.318-.71.71s.318.709.71.709h5.671c.392,0,.709-.318.709-.709s-.318-.71-.709-.71ZM809.27,1165.858h-5.672c-.392,0-.71.318-.71.71s.318.709.71.709h5.672c.392,0,.709-.318.709-.709s-.318-.71-.709-.71ZM818.16,1165.858h-5.671c-.392,0-.71.318-.71.71s.318.709.71.709h5.671c.392,0,.709-.318.709-.709s-.318-.71-.709-.71ZM827.05,1165.858h-5.671c-.392,0-.71.318-.71.71s.318.709.71.709h5.671c.392,0,.709-.318.709-.709s-.318-.71-.709-.71ZM835.94,1165.858h-5.671c-.392,0-.71.318-.71.71s.318.709.71.709h5.671c.392,0,.709-.318.709-.709s-.318-.71-.709-.71Z" fill="#1d1d1b"/>
        <path d="M203.537,1157.003h-5.671c-.392,0-.71.318-.71.71s.318.709.71.709h5.671c.392,0,.709-.318.709-.709s-.318-.71-.709-.71ZM212.427,1157.003h-5.671c-.392,0-.71.318-.71.71s.318.709.71.709h5.671c.392,0,.709-.318.709-.709s-.318-.71-.709-.71ZM221.317,1157.003h-5.671c-.392,0-.71.318-.71.71s.318.709.71.709h5.671c.392,0,.709-.318.709-.709s-.318-.71-.709-.71ZM230.207,1157.003h-5.671c-.392,0-.71.318-.71.71s.318.709.71.709h5.671c.392,0,.709-.318.709-.709s-.318-.71-.709-.71ZM239.097,1157.003h-5.671c-.392,0-.71.318-.71.71s.318.709.71.709h5.671c.392,0,.709-.318.709-.709s-.318-.71-.709-.71ZM247.987,1157.003h-5.671c-.392,0-.71.318-.71.71s.318.709.71.709h5.671c.392,0,.709-.318.709-.709s-.318-.71-.709-.71ZM256.877,1157.003h-5.671c-.392,0-.71.318-.71.71s.318.709.71.709h5.671c.392,0,.709-.318.709-.709s-.318-.71-.709-.71ZM265.767,1157.003h-5.671c-.392,0-.71.318-.71.71s.318.709.71.709h5.671c.392,0,.709-.318.709-.709s-.318-.71-.709-.71ZM274.657,1157.003h-5.671c-.392,0-.71.318-.71.71s.318.709.71.709h5.671c.392,0,.709-.318.709-.709s-.318-.71-.709-.71ZM283.547,1157.003h-5.671c-.392,0-.709.318-.709.71s.318.709.709.709h5.671c.392,0,.709-.318.709-.709s-.318-.71-.709-.71ZM292.437,1157.003h-5.671c-.392,0-.71.318-.71.71s.318.709.71.709h5.671c.392,0,.709-.318.709-.709s-.318-.71-.709-.71ZM301.327,1157.003h-5.671c-.392,0-.71.318-.71.71s.318.709.71.709h5.671c.392,0,.709-.318.709-.709s-.318-.71-.709-.71ZM310.217,1157.003h-5.671c-.392,0-.71.318-.71.71s.318.709.71.709h5.671c.392,0,.709-.318.709-.709s-.318-.71-.709-.71ZM319.107,1157.003h-5.671c-.392,0-.71.318-.71.71s.318.709.71.709h5.671c.392,0,.709-.318.709-.709s-.318-.71-.709-.71ZM327.997,1157.003h-5.671c-.392,0-.71.318-.71.71s.318.709.71.709h5.671c.392,0,.709-.318.709-.709s-.318-.71-.709-.71ZM336.886,1157.003h-5.671c-.392,0-.71.318-.71.71s.318.709.71.709h5.671c.392,0,.709-.318.709-.709s-.318-.71-.709-.71ZM345.776,1157.003h-5.671c-.392,0-.71.318-.71.71s.318.709.71.709h5.671c.392,0,.709-.318.709-.709s-.318-.71-.709-.71ZM354.666,1157.003h-5.671c-.392,0-.71.318-.71.71s.318.709.71.709h5.671c.392,0,.709-.318.709-.709s-.318-.71-.709-.71ZM363.556,1157.003h-5.671c-.392,0-.71.318-.71.71s.318.709.71.709h5.671c.392,0,.709-.318.709-.709s-.318-.71-.709-.71ZM372.446,1157.003h-5.671c-.392,0-.71.318-.71.71s.318.709.71.709h5.671c.392,0,.709-.318.709-.709s-.318-.71-.709-.71ZM381.336,1157.003h-5.671c-.392,0-.71.318-.71.71s.318.709.71.709h5.671c.392,0,.709-.318.709-.709s-.318-.71-.709-.71ZM390.226,1157.003h-5.672c-.392,0-.71.318-.71.71s.318.709.71.709h5.672c.392,0,.709-.318.709-.709s-.318-.71-.709-.71ZM399.116,1157.003h-5.671c-.392,0-.71.318-.71.71s.318.709.71.709h5.671c.392,0,.709-.318.709-.709s-.318-.71-.709-.71ZM408.006,1157.003h-5.671c-.392,0-.71.318-.71.71s.318.709.71.709h5.671c.392,0,.709-.318.709-.709s-.318-.71-.709-.71ZM416.896,1157.003h-5.671c-.392,0-.71.318-.71.71s.318.709.71.709h5.671c.392,0,.709-.318.709-.709s-.318-.71-.709-.71ZM425.786,1157.003h-5.671c-.392,0-.71.318-.71.71s.318.709.71.709h5.671c.392,0,.709-.318.709-.709s-.318-.71-.709-.71ZM434.676,1157.003h-5.671c-.392,0-.71.318-.71.71s.318.709.71.709h5.671c.392,0,.709-.318.709-.709s-.318-.71-.709-.71ZM443.566,1157.003h-5.672c-.392,0-.71.318-.71.71s.318.709.71.709h5.672c.392,0,.709-.318.709-.709s-.318-.71-.709-.71ZM452.456,1157.003h-5.672c-.392,0-.71.318-.71.71s.318.709.71.709h5.672c.392,0,.709-.318.709-.709s-.318-.71-.709-.71ZM461.346,1157.003h-5.671c-.392,0-.71.318-.71.71s.318.709.71.709h5.671c.392,0,.709-.318.709-.709s-.318-.71-.709-.71ZM470.235,1157.003h-5.671c-.392,0-.71.318-.71.71s.318.709.71.709h5.671c.392,0,.709-.318.709-.709s-.318-.71-.709-.71ZM479.125,1157.003h-5.671c-.392,0-.71.318-.71.71s.318.709.71.709h5.671c.392,0,.709-.318.709-.709s-.318-.71-.709-.71ZM488.015,1157.003h-5.671c-.392,0-.71.318-.71.71s.318.709.71.709h5.671c.392,0,.709-.318.709-.709s-.318-.71-.709-.71ZM496.905,1157.003h-5.671c-.392,0-.71.318-.71.71s.318.709.71.709h5.671c.392,0,.709-.318.709-.709s-.318-.71-.709-.71ZM505.795,1157.003h-5.671c-.392,0-.71.318-.71.71s.318.709.71.709h5.671c.392,0,.709-.318.709-.709s-.318-.71-.709-.71ZM514.685,1157.003h-5.671c-.392,0-.71.318-.71.71s.318.709.71.709h5.671c.392,0,.709-.318.709-.709s-.318-.71-.709-.71ZM523.575,1157.003h-5.671c-.392,0-.71.318-.71.71s.318.709.71.709h5.671c.392,0,.709-.318.709-.709s-.318-.71-.709-.71ZM532.465,1157.003h-5.671c-.392,0-.71.318-.71.71s.318.709.71.709h5.671c.392,0,.709-.318.709-.709s-.318-.71-.709-.71ZM541.355,1157.003h-5.671c-.392,0-.71.318-.71.71s.318.709.71.709h5.671c.392,0,.709-.318.709-.709s-.318-.71-.709-.71ZM550.245,1157.003h-5.671c-.392,0-.71.318-.71.71s.318.709.71.709h5.671c.392,0,.709-.318.709-.709s-.318-.71-.709-.71ZM559.135,1157.003h-5.671c-.392,0-.71.318-.71.71s.318.709.71.709h5.671c.392,0,.709-.318.709-.709s-.318-.71-.709-.71ZM568.025,1157.003h-5.671c-.392,0-.709.318-.709.71s.318.709.709.709h5.671c.392,0,.709-.318.709-.709s-.318-.71-.709-.71ZM576.915,1157.003h-5.671c-.392,0-.71.318-.71.71s.318.709.71.709h5.671c.392,0,.709-.318.709-.709s-.318-.71-.709-.71ZM585.805,1157.003h-5.671c-.392,0-.71.318-.71.71s.318.709.71.709h5.671c.392,0,.709-.318.709-.709s-.318-.71-.709-.71ZM594.695,1157.003h-5.671c-.392,0-.71.318-.71.71s.318.709.71.709h5.671c.392,0,.709-.318.709-.709s-.318-.71-.709-.71ZM603.585,1157.003h-5.671c-.392,0-.71.318-.71.71s.318.709.71.709h5.671c.392,0,.709-.318.709-.709s-.318-.71-.709-.71ZM612.475,1157.003h-5.671c-.392,0-.71.318-.71.71s.318.709.71.709h5.671c.392,0,.709-.318.709-.709s-.318-.71-.709-.71ZM621.365,1157.003h-5.671c-.392,0-.71.318-.71.71s.318.709.71.709h5.671c.392,0,.709-.318.709-.709s-.318-.71-.709-.71ZM630.255,1157.003h-5.671c-.392,0-.71.318-.71.71s.318.709.71.709h5.671c.392,0,.709-.318.709-.709s-.318-.71-.709-.71ZM639.145,1157.003h-5.671c-.392,0-.71.318-.71.71s.318.709.71.709h5.671c.392,0,.709-.318.709-.709s-.318-.71-.709-.71ZM648.034,1157.003h-5.671c-.392,0-.71.318-.71.71s.318.709.71.709h5.671c.392,0,.709-.318.709-.709s-.318-.71-.709-.71ZM656.924,1157.003h-5.671c-.392,0-.71.318-.71.71s.318.709.71.709h5.671c.392,0,.709-.318.709-.709s-.318-.71-.709-.71ZM665.814,1157.003h-5.672c-.392,0-.709.318-.709.71s.318.709.709.709h5.672c.392,0,.709-.318.709-.709s-.318-.71-.709-.71ZM674.704,1157.003h-5.672c-.392,0-.71.318-.71.71s.318.709.71.709h5.672c.392,0,.709-.318.709-.709s-.318-.71-.709-.71ZM683.594,1157.003h-5.671c-.392,0-.71.318-.71.71s.318.709.71.709h5.671c.392,0,.709-.318.709-.709s-.318-.71-.709-.71ZM692.484,1157.003h-5.671c-.392,0-.71.318-.71.71s.318.709.71.709h5.671c.392,0,.709-.318.709-.709s-.318-.71-.709-.71ZM701.374,1157.003h-5.671c-.392,0-.71.318-.71.71s.318.709.71.709h5.671c.392,0,.709-.318.709-.709s-.318-.71-.709-.71ZM710.264,1157.003h-5.671c-.392,0-.71.318-.71.71s.318.709.71.709h5.671c.392,0,.709-.318.709-.709s-.318-.71-.709-.71ZM719.154,1157.003h-5.671c-.392,0-.71.318-.71.71s.318.709.71.709h5.671c.392,0,.709-.318.709-.709s-.318-.71-.709-.71ZM728.044,1157.003h-5.671c-.392,0-.71.318-.71.71s.318.709.71.709h5.671c.392,0,.709-.318.709-.709s-.318-.71-.709-.71ZM736.934,1157.003h-5.671c-.392,0-.71.318-.71.71s.318.709.71.709h5.671c.392,0,.709-.318.709-.709s-.318-.71-.709-.71ZM745.824,1157.003h-5.671c-.392,0-.71.318-.71.71s.318.709.71.709h5.671c.392,0,.709-.318.709-.709s-.318-.71-.709-.71ZM754.714,1157.003h-5.671c-.392,0-.71.318-.71.71s.318.709.71.709h5.671c.392,0,.709-.318.709-.709s-.318-.71-.709-.71ZM763.604,1157.003h-5.671c-.392,0-.71.318-.71.71s.318.709.71.709h5.671c.392,0,.709-.318.709-.709s-.318-.71-.709-.71ZM772.494,1157.003h-5.671c-.392,0-.709.318-.709.71s.318.709.709.709h5.671c.392,0,.709-.318.709-.709s-.318-.71-.709-.71ZM781.384,1157.003h-5.672c-.392,0-.71.318-.71.71s.318.709.71.709h5.672c.392,0,.709-.318.709-.709s-.318-.71-.709-.71ZM790.274,1157.003h-5.672c-.392,0-.71.318-.71.71s.318.709.71.709h5.672c.392,0,.709-.318.709-.709s-.318-.71-.709-.71ZM799.164,1157.003h-5.671c-.392,0-.71.318-.71.71s.318.709.71.709h5.671c.392,0,.709-.318.709-.709s-.318-.71-.709-.71ZM808.053,1157.003h-5.671c-.392,0-.71.318-.71.71s.318.709.71.709h5.671c.392,0,.709-.318.709-.709s-.318-.71-.709-.71ZM816.943,1157.003h-5.671c-.392,0-.71.318-.71.71s.318.709.71.709h5.671c.392,0,.709-.318.709-.709s-.318-.71-.709-.71ZM825.833,1157.003h-5.671c-.392,0-.71.318-.71.71s.318.709.71.709h5.671c.392,0,.709-.318.709-.709s-.318-.71-.709-.71ZM834.724,1157.003h-5.672c-.392,0-.71.318-.71.71s.318.709.71.709h5.672c.392,0,.709-.318.709-.709s-.318-.71-.709-.71Z" fill="#1d1d1b"/>
      </g>
      <path d="M641.709,39.566c-15.925,24.351-45.96,53.907-122.275,60.19l-10.412-.112c-73.901-1.242-106.957-33.791-123.118-57.795,14.015,3.929,49.96,13.548,127.556,12.623,0,0,78.599-2.18,128.249-14.907" fill="#fff"/>
      <g>
        <path d="M684.631,22.725c-43.676,29.699-172.629,31.437-172.629,31.437-97.703,2.605-151.373-17.923-169.446-29.8,17.321-13.891,34.486-18.823,34.486-18.823.243-.122.486-.207.693-.247,1.098-.421,1.821-.627,1.821-.627,0,0,22.319,17.084,131.865,15.817l1.614.199c109.591-.103,134.738-17.49,134.738-17.49,0,0,34.682,15.014,36.858,19.535" fill="#fff"/>
        <path d="M683.055,20.407c-5.199,3.538-11.805,6.737-19.366,9.571-13.234,4.965-29.381,8.818-46.114,11.767-25.105,4.427-51.537,6.837-71.67,8.132-10.067.648-18.561,1.019-24.534,1.228-2.986.104-5.342.168-6.95.206-.804.019-1.42.031-1.835.039-.207.004-.364.006-.468.008-.104.002-.154.002-.154.002h-.018s-.02,0-.02,0c-5.707.152-11.262.225-16.667.225-43.366,0-77.07-4.69-101.987-10.741-12.458-3.025-22.721-6.391-30.888-9.674-8.166-3.281-14.244-6.489-18.29-9.15l-1.539,2.342,1.753,2.186c8.434-6.764,16.86-11.366,23.156-14.261,3.148-1.448,5.762-2.47,7.576-3.125.907-.328,1.614-.564,2.087-.717.237-.076.415-.131.531-.167.058-.018.1-.03.126-.038l.027-.008h.004s-.275-.951-.275-.951l.273.951h.002s-.275-.951-.275-.951l.273.951.252-.073.234-.118.036-.016-.174-.49.097.508c.06-.012.076-.019.076-.019l-.173-.489.097.508.243-.047.232-.089c.501-.192.914-.334,1.193-.426.14-.046.246-.079.315-.1l.072-.022.013-.004-.215-.74.212.741h.003s-.215-.741-.215-.741l.212.741-.771-2.695-1.704,2.226c.437.329,6.005,4.416,23.925,8.451,17.925,4.031,48.225,8.009,98.22,8.01,3.709,0,7.527-.022,11.456-.067l-.032-2.802-.342,2.782,1.785.22h.174c54.944-.053,88.815-4.433,109.06-8.848,20.242-4.417,26.874-8.869,27.269-9.139l-1.594-2.305-1.113,2.572s.032.014.096.042c.998.433,9.638,4.202,18.244,8.386,4.3,2.089,8.597,4.287,11.879,6.191,1.638.949,3.025,1.83,3.987,2.541.479.353.852.665,1.075.883.111.108.184.191.212.226l.013.017h0s.628-.438.628-.438l-.687.331c.036.075.058.105.06.107l.628-.438-.687.331,5.051-2.431c-.194-.4-.412-.711-.638-.994-.44-.542-.924-.988-1.476-1.445-1.032-.846-2.313-1.705-3.82-2.627-2.631-1.607-5.938-3.377-9.45-5.154-5.264-2.661-10.974-5.323-15.378-7.325-4.403-2.001-7.497-3.341-7.508-3.346l-1.428-.618-1.279.885.783,1.133-.765-1.145-.018.012.783,1.133-.765-1.145c-.007.008-6.382,4.252-26.229,8.487-19.843,4.238-53.143,8.468-106.936,8.518l.003,2.803.342-2.782-1.801-.222-.188.002c-3.909.045-7.705.067-11.392.067-49.696.001-79.616-3.963-96.989-7.874-8.687-1.954-14.236-3.894-17.555-5.305-1.66-.706-2.762-1.279-3.422-1.655-.33-.188-.55-.327-.673-.408-.062-.041-.099-.067-.115-.078l-.008-.005-.212.293.216-.29-.004-.003-.212.293.216-.29-.96,1.29.969-1.284-.009-.006-.96,1.29.969-1.284-1.266,1.678,1.269-1.676-.003-.002-1.266,1.678,1.269-1.676h0s-1.656,2.186-1.656,2.186l1.667-2.178-.011-.008-1.656,2.187,1.667-2.178-1.12-.857-1.355.388c-.061.018-.857.247-2.052.704l1.002,2.617-.527-2.753c-.531.105-.976.273-1.427.497l1.261,2.503-.774-2.694c-.108.031-4.528,1.307-11.144,4.35-6.617,3.044-15.433,7.854-24.321,14.98l-3.007,2.412,3.221,2.117c4.46,2.929,10.831,6.27,19.277,9.667,12.666,5.091,29.988,10.292,52.358,14.225,22.368,3.933,49.781,6.595,82.608,6.595,5.455,0,11.06-.074,16.816-.227l-.075-2.802.038,2.802c.055-.002,32.359-.436,70.204-4.598,18.926-2.083,39.236-5.095,57.636-9.474,9.201-2.19,17.926-4.722,25.777-7.666,7.851-2.946,14.829-6.297,20.549-10.184l-3.152-4.635h0Z" fill="#010101"/>
        <path d="M644.521,28.382c.983-.201,1.968-.405,2.954-.611.383-.08.629-.456.549-.839-.08-.384-.456-.63-.839-.549-.985.206-1.967.409-2.948.61-.384.079-.632.454-.553.837.079.384.453.631.838.553h0ZM635.798,30.109c1.851-.354,3.708-.718,5.571-1.09.384-.077.633-.45.557-.835-.077-.384-.451-.634-.835-.557-1.86.372-3.713.734-5.56,1.088-.385.074-.637.445-.563.83.074.385.445.637.83.563h0ZM627.048,31.727c1.855-.331,3.716-.671,5.585-1.019.385-.072.639-.443.567-.828-.072-.385-.442-.639-.827-.567-1.865.348-3.722.687-5.573,1.017-.386.069-.643.437-.574.823.069.386.437.643.823.574ZM618.277,33.234c1.859-.307,3.725-.623,5.597-.949.386-.067.645-.434.577-.82-.067-.386-.434-.645-.82-.578-1.869.325-3.731.64-5.586.947-.387.064-.648.429-.584.816.064.387.429.648.816.584ZM609.489,34.63c1.862-.284,3.732-.576,5.609-.878.387-.062.65-.426.588-.813-.062-.387-.426-.65-.813-.588-1.873.301-3.739.593-5.597.876-.388.059-.654.421-.595.808.059.387.421.653.808.594h0ZM600.683,35.914c1.865-.26,3.738-.529,5.62-.806.387-.057.655-.418.598-.805-.057-.388-.418-.655-.805-.598-1.877.277-3.747.545-5.608.805-.388.054-.659.413-.605.801.054.388.413.659.801.605h0ZM591.861,37.086c1.868-.236,3.744-.481,5.629-.735.388-.052.661-.41.608-.798-.052-.388-.409-.661-.798-.608-1.881.253-3.754.498-5.618.733-.389.049-.664.404-.615.793.049.389.404.664.793.615h0ZM583.026,38.146c1.87-.212,3.75-.433,5.638-.663.389-.047.666-.401.618-.79-.047-.389-.401-.666-.79-.619-1.885.229-3.76.45-5.627.662-.389.044-.669.396-.625.785.044.389.396.669.785.625ZM574.177,39.093c1.873-.188,3.755-.385,5.646-.591.389-.042.671-.392.629-.782-.042-.39-.393-.671-.782-.629-1.888.205-3.766.402-5.635.59-.39.039-.674.387-.635.777.039.39.387.674.777.635h0ZM565.317,39.926c1.874-.164,3.759-.337,5.654-.519.39-.037.676-.384.638-.774-.037-.39-.384-.676-.774-.639-1.891.181-3.772.354-5.642.518-.391.034-.679.378-.645.769.034.39.378.679.769.645h0ZM556.447,40.646c1.876-.14,3.762-.289,5.66-.446.39-.032.681-.375.648-.766-.032-.39-.375-.681-.766-.648-1.894.157-3.776.305-5.648.445-.391.029-.684.37-.655.76.029.391.37.684.76.655h0ZM547.569,41.252c1.876-.116,3.765-.24,5.665-.373.391-.027.685-.366.658-.757-.027-.391-.367-.686-.757-.658-1.896.133-3.781.257-5.653.373-.391.024-.689.361-.664.752.024.391.361.688.752.664ZM538.683,41.744c1.877-.092,3.767-.192,5.669-.3.391-.022.69-.358.668-.749-.022-.391-.357-.69-.749-.668-1.899.108-3.785.208-5.658.3-.391.019-.693.352-.674.743.019.391.352.693.743.674h0ZM529.792,42.12c1.877-.067,3.769-.143,5.673-.227.391-.017.695-.349.677-.74-.017-.391-.349-.695-.74-.678-1.9.084-3.788.159-5.661.226-.392.014-.698.343-.684.734.014.392.343.698.734.684h0ZM520.896,42.381c1.877-.043,3.769-.094,5.675-.153.392-.012.699-.34.687-.731-.012-.392-.34-.699-.731-.687-1.902.059-3.79.11-5.664.153-.392.009-.702.334-.693.725.009.392.334.702.725.693h0ZM511.998,42.525c1.877-.018,3.769-.044,5.677-.079.392-.007.703-.33.697-.722-.007-.392-.331-.704-.722-.697-1.904.034-3.792.06-5.665.078-.392.004-.707.324-.703.716.004.392.325.706.716.703ZM503.099,42.552c.796.003,1.595.004,2.397.004,1.088,0,2.181-.003,3.28-.008.392-.002.708-.321.706-.713-.002-.392-.321-.708-.713-.706-1.097.005-2.188.008-3.273.008-.801,0-1.598-.001-2.392-.004-.392-.001-.711.315-.712.707-.001.392.315.711.707.712h0ZM494.199,42.461c1.874.032,3.767.056,5.678.072.392.003.712-.312.715-.703.003-.392-.312-.712-.703-.715-1.907-.016-3.795-.04-5.665-.072-.392-.007-.715.306-.722.697-.007.392.306.715.697.721ZM485.301,42.251c1.872.057,3.764.106,5.677.148.392.009.716-.302.724-.694.008-.392-.302-.716-.694-.725-1.908-.042-3.796-.091-5.664-.148-.392-.012-.719.296-.731.688-.012.392.296.719.688.731h0ZM476.407,41.92c1.869.082,3.76.158,5.674.225.391.014.72-.292.734-.684.014-.392-.292-.72-.684-.734-1.91-.067-3.797-.143-5.662-.225-.392-.017-.723.286-.74.678-.017.391.286.723.678.74h0ZM467.517,41.466c1.865.108,3.755.209,5.67.303.391.019.724-.282.743-.674.019-.391-.282-.724-.674-.744-1.911-.094-3.797-.195-5.658-.303-.391-.023-.727.276-.749.667-.023.391.276.727.667.749ZM458.635,40.888c1.861.134,3.749.262,5.666.383.391.025.728-.272.753-.663.025-.391-.272-.728-.663-.753-1.912-.121-3.797-.248-5.653-.382-.391-.028-.731.266-.759.657-.028.391.266.731.657.759ZM449.761,40.184c1.855.161,3.742.316,5.66.464.39.03.732-.262.762-.653.03-.391-.262-.732-.653-.762-1.914-.148-3.796-.303-5.647-.463-.391-.034-.734.255-.768.645-.034.39.255.734.645.768h0ZM440.898,39.349c1.848.188,3.732.371,5.653.548.39.036.735-.251.771-.641.036-.39-.251-.736-.641-.772-1.916-.176-3.796-.359-5.64-.546-.39-.04-.738.244-.777.634-.04.39.244.738.634.777h0ZM432.048,38.381c1.839.216,3.721.427,5.644.633.39.042.739-.24.781-.63.042-.39-.24-.739-.629-.781-1.919-.206-3.796-.417-5.63-.632-.389-.046-.742.233-.787.622-.046.389.233.742.622.787h0ZM423.214,37.274c1.827.244,3.705.485,5.634.723.389.048.743-.229.791-.618.048-.389-.229-.743-.617-.791-1.924-.237-3.798-.477-5.62-.721-.388-.052-.745.221-.797.609-.052.388.221.745.609.797h0ZM414.398,36.021c1.81.273,3.684.546,5.622.817.388.054.746-.217.801-.605.054-.388-.217-.747-.604-.801-1.932-.27-3.801-.542-5.607-.814-.387-.058-.749.208-.807.596-.059.387.208.749.596.807ZM405.604,34.613c1.785.303,3.655.61,5.608.917.387.061.75-.203.811-.59.061-.387-.203-.75-.59-.811-1.947-.307-3.811-.612-5.591-.914-.386-.065-.753.195-.818.581-.066.386.195.753.581.818h0ZM396.837,33.033c1.741.333,3.605.677,5.59,1.028.386.068.754-.189.822-.575.068-.386-.189-.754-.575-.822-1.978-.35-3.836-.693-5.571-1.025-.385-.073-.757.179-.83.564-.073.385.179.756.564.83h0ZM388.103,31.256c1.636.355,3.494.745,5.567,1.159.384.077.758-.173.834-.557.077-.384-.173-.758-.557-.835-2.065-.412-3.915-.8-5.544-1.154-.383-.083-.761.16-.844.543-.083.383.16.761.543.844h0ZM379.404,29.195c.009.002,1.909.523,5.547,1.357.382.088.762-.151.85-.533.088-.382-.151-.763-.533-.85-1.809-.415-3.183-.751-4.105-.984-.461-.116-.808-.206-1.04-.267-.232-.061-.345-.092-.345-.092-.378-.104-.769.119-.872.497-.104.378.119.768.497.872h0Z" fill="#010101"/>
        <path d="M639.898,35.705c1.342-.273,2.688-.55,4.038-.833.383-.08.629-.456.549-.84s-.456-.629-.839-.549c-1.348.282-2.691.559-4.031.831-.384.078-.632.453-.554.837.078.384.453.632.837.554h0ZM631.167,37.425c1.85-.353,3.707-.714,5.572-1.085.384-.076.634-.45.558-.834-.076-.384-.45-.634-.834-.558-1.861.37-3.715.731-5.561,1.083-.385.073-.638.445-.564.83.073.385.445.637.83.564h0ZM622.417,39.039c1.854-.33,3.715-.669,5.585-1.017.385-.072.639-.442.568-.827-.072-.385-.442-.639-.827-.568-1.866.347-3.724.686-5.574,1.015-.386.069-.643.437-.574.823.069.386.437.643.823.574h0ZM613.647,40.546c1.857-.307,3.723-.624,5.597-.949.386-.067.645-.434.577-.82-.067-.386-.434-.645-.82-.578-1.87.325-3.732.64-5.586.947-.387.064-.648.429-.584.816.064.387.429.648.816.584h0ZM604.859,41.945c1.861-.284,3.73-.578,5.608-.88.387-.062.65-.426.588-.813-.062-.387-.426-.65-.813-.588-1.875.302-3.74.594-5.597.878-.388.059-.653.421-.594.808.059.387.421.653.808.594h0ZM596.054,43.235c1.864-.261,3.737-.531,5.619-.811.387-.057.655-.418.598-.806-.058-.388-.418-.655-.806-.598-1.879.279-3.748.548-5.608.809-.388.055-.659.413-.604.801.055.388.413.658.801.604h0ZM587.234,44.416c1.866-.238,3.743-.485,5.629-.74.388-.053.66-.41.608-.798-.053-.388-.41-.66-.798-.608-1.882.255-3.755.501-5.617.739-.389.05-.664.405-.614.794.05.389.405.664.794.614h0ZM578.399,45.486c1.869-.214,3.748-.438,5.638-.67.389-.048.665-.402.618-.791-.048-.389-.402-.666-.791-.618-1.886.232-3.761.455-5.626.668-.389.045-.669.397-.624.786s.397.669.786.624h0ZM569.552,46.444c1.871-.191,3.753-.39,5.646-.598.389-.043.67-.393.627-.783-.043-.39-.393-.671-.783-.628-1.889.208-3.767.407-5.634.597-.39.04-.674.388-.634.778.04.39.388.674.778.634h0ZM560.694,47.29c1.873-.167,3.757-.342,5.653-.526.39-.038.675-.385.638-.775-.038-.39-.385-.675-.775-.637-1.892.184-3.772.359-5.641.525-.39.035-.679.379-.644.77.035.39.379.678.77.644h0ZM551.825,48.022c1.874-.142,3.76-.294,5.659-.454.39-.033.68-.376.647-.766-.033-.391-.376-.68-.766-.647-1.895.16-3.777.311-5.648.453-.391.03-.683.371-.654.761.03.391.371.683.761.654h0ZM542.947,48.638c1.875-.118,3.763-.245,5.665-.38.391-.028.685-.367.657-.758-.028-.391-.367-.685-.758-.657-1.898.135-3.782.262-5.653.379-.391.025-.688.362-.664.753.025.391.361.688.753.664h0ZM534.062,49.139c1.876-.093,3.765-.195,5.669-.306.391-.023.69-.358.667-.75-.023-.391-.358-.69-.749-.667-1.9.111-3.786.212-5.657.305-.391.02-.693.353-.673.744.019.391.353.693.744.673h0ZM525.171,49.522c1.876-.068,3.767-.145,5.673-.231.391-.018.695-.349.677-.74-.018-.391-.349-.695-.74-.677-1.902.086-3.789.162-5.661.23-.392.014-.698.343-.683.735.014.392.343.697.735.683h0ZM516.275,49.787c1.876-.043,3.767-.095,5.676-.155.392-.012.699-.34.687-.731-.013-.392-.34-.699-.731-.687-1.904.06-3.792.111-5.663.155-.392.009-.702.334-.693.726.009.392.334.702.725.693ZM507.376,49.931c1.874-.018,3.767-.043,5.677-.078.392-.007.703-.331.696-.722-.007-.392-.331-.704-.722-.696-1.906.034-3.794.06-5.665.078-.392.004-.706.324-.703.716.004.392.325.706.716.703h0ZM498.477,49.953c.946.004,1.898.006,2.854.006.936,0,1.877-.002,2.823-.006.392-.002.708-.321.706-.713-.002-.392-.321-.708-.712-.706-.944.004-1.883.006-2.817.006-.954,0-1.904-.002-2.848-.006-.392-.002-.711.315-.713.706-.002.392.315.711.707.712h0ZM489.577,49.851c1.871.035,3.764.061,5.678.079.392.004.712-.311.716-.703.004-.392-.311-.712-.703-.716-1.909-.018-3.798-.045-5.665-.079-.392-.007-.715.304-.723.696-.008.392.304.715.696.723h0ZM480.679,49.623c1.869.061,3.761.115,5.676.16.392.009.717-.301.726-.693.009-.392-.301-.717-.693-.726-1.911-.045-3.799-.099-5.663-.16-.392-.013-.72.294-.732.686-.013.392.294.719.686.732ZM471.785,49.267c1.865.088,3.756.169,5.674.242.391.015.721-.29.736-.682.015-.392-.291-.721-.682-.736-1.912-.073-3.799-.154-5.66-.242-.392-.019-.724.284-.742.675-.018.391.284.724.675.742h0ZM462.897,48.779c1.861.116,3.751.225,5.67.327.391.021.725-.28.746-.671.021-.391-.28-.725-.671-.746-1.914-.101-3.799-.21-5.656-.326-.391-.024-.728.273-.752.664-.024.391.273.728.664.752ZM454.017,48.156c1.855.144,3.744.282,5.664.413.391.027.729-.269.756-.66.026-.391-.269-.729-.66-.756-1.916-.13-3.799-.268-5.65-.412-.391-.03-.732.262-.762.652-.03.391.262.732.653.762h0ZM445.147,47.395c1.848.173,3.734.341,5.657.502.39.033.733-.257.766-.648.033-.39-.257-.733-.648-.766-1.918-.16-3.799-.328-5.643-.5-.39-.037-.736.25-.773.64-.037.39.25.736.64.773h0ZM436.29,46.491c1.839.203,3.722.402,5.649.594.39.039.737-.246.776-.635.039-.39-.246-.738-.635-.776-1.921-.192-3.799-.39-5.634-.592-.39-.043-.74.238-.783.627-.043.389.238.74.627.783ZM427.449,45.436c1.827.234,3.707.465,5.638.69.389.046.741-.233.787-.622.045-.389-.233-.742-.622-.787-1.926-.225-3.801-.455-5.623-.689-.389-.05-.744.225-.794.613-.05.389.225.744.614.794h0ZM418.626,44.223c1.81.266,3.686.531,5.626.792.388.052.745-.22.798-.608.052-.388-.22-.746-.608-.798-1.934-.261-3.804-.525-5.609-.79-.388-.057-.748.211-.805.599-.057.388.211.748.599.805h0ZM409.828,42.841c1.785.299,3.656.601,5.61.902.387.06.75-.206.809-.593.06-.387-.206-.75-.593-.809-1.948-.301-3.813-.601-5.592-.9-.387-.065-.752.196-.817.582-.065.386.196.752.582.817h0ZM401.058,41.27c1.74.333,3.605.676,5.591,1.025.386.068.754-.19.821-.576.068-.386-.19-.754-.576-.822-1.979-.348-3.837-.69-5.57-1.021-.385-.074-.757.179-.83.564-.073.385.179.757.564.83ZM392.326,39.481c1.634.36,3.491.753,5.565,1.169.384.077.758-.172.835-.556.077-.384-.171-.758-.556-.835-2.066-.415-3.914-.806-5.54-1.164-.383-.084-.761.158-.845.54-.084.383.158.761.54.845h0ZM383.635,37.376c.01.003,1.901.54,5.541,1.39.381.089.763-.148.852-.529.089-.382-.148-.763-.529-.852-1.808-.423-3.18-.767-4.098-1.005-.459-.119-.805-.212-1.035-.274-.115-.031-.201-.055-.259-.071-.057-.016-.084-.023-.084-.023-.377-.107-.77.112-.876.489-.107.377.112.769.489.876h0Z" fill="#010101"/>
      </g>
      <g>
        <path d="M685.075,21.506c-.044.167-.049.735-1.341,5.23-7.22,24.961-40.428,104.564-169.589,105.62l-4.339-.238c-132.658.232-161.248-83.255-167.334-105.781-.247-.912-.449-1.7-.615-2.408l24.013-14.983c5.395-2.63,9.085-4.624,10.629-4.252-.199.044-1.778,1.337-2.596,2.129-1.293,1.331-1.899,3.958.062,9.188.9,2.495,2.531,7.647,5.627,14.214,1.996,4.322,4.643,9.263,8.147,14.455,16.157,24.004,47.384,53.72,121.285,54.962l5.676.281c74.671-1.918,108.767-32.296,124.684-56.646,2.713-4.123,4.862-8.075,6.601-11.653,3.925-7.991,5.828-14.315,6.836-17.144,1.531-4.244,1.362-6.78.553-8.276l3.089,1.284,28.613,14.017Z" fill="#fff"/>
        <path d="M685.075,21.506l-2.709-.718c-.053.207-.06.281-.071.335-.015.085-.022.134-.053.285-.088.439-.365,1.642-1.202,4.553v-.004c-1.755,6.072-5.111,15.53-11.134,26.296-9.039,16.153-24.045,35.237-48.715,50.414-24.674,15.172-59.06,26.488-107.07,26.886l.023,2.803.153-2.798-4.417-.243h-.08c-.183,0-.365,0-.548,0-32.754,0-58.967-5.157-79.971-13.18-15.753-6.019-28.581-13.652-39.054-21.971-15.707-12.478-26.124-26.51-33.046-38.986-6.921-12.477-10.332-23.379-12.005-29.572-.242-.894-.437-1.652-.591-2.314l-2.729.637,1.484,2.378,24.013-14.983-1.483-2.378,1.228,2.519c2.499-1.219,4.616-2.29,6.236-3.018.807-.364,1.491-.64,1.992-.804.25-.082.452-.136.588-.164.068-.014.118-.022.148-.025l.028-.003h0l-.009-.27v.27s.009,0,.009,0l-.009-.27v.27s0-1.023,0-1.023l-.238.99c.133.032.213.033.238.033v-1.023l-.238.99.655-2.725-.607-2.736c-.261.06-.4.119-.514.165-.21.091-.309.152-.402.206-.164.099-.271.174-.387.256-.196.141-.394.293-.611.466-.324.258-.68.554-1.031.858-.351.304-.692.61-.994.902l-.029.028-.031.032c-.617.631-1.141,1.444-1.481,2.374-.343.931-.51,1.966-.509,3.083.004,1.901.46,4.053,1.438,6.669l2.624-.984-2.637.951c.213.589.484,1.379.815,2.325.995,2.843,2.533,7.084,4.914,12.133l-.009-.02c2.051,4.44,4.769,9.515,8.368,14.848l-.002-.003c8.24,12.252,20.432,26.071,39.953,36.902,9.757,5.417,21.334,10.09,35.132,13.48,13.799,3.391,29.818,5.503,48.478,5.817l.047-2.802-.139,2.799,5.781.287.106-.003c37.7-.966,65.365-9.135,85.65-20.255,20.286-11.114,33.146-25.164,41.308-37.66l-.005.007c2.791-4.242,4.999-8.304,6.781-11.969l-.005.011c2.012-4.097,3.506-7.766,4.623-10.765.558-1.499,1.022-2.831,1.408-3.959.385-1.127.694-2.054.93-2.714l-.004.01c.905-2.514,1.323-4.607,1.326-6.452,0-.779-.078-1.514-.235-2.202-.157-.688-.396-1.328-.707-1.904l-2.466,1.331-1.076,2.588,3.011,1.252,28.534,13.978,1.233-2.517-2.709-.718,2.709.718,1.233-2.517-28.691-14.055-10.461-4.35,3.751,6.952c.059.109.123.262.176.495.053.232.094.542.094.949.003.962-.239,2.465-.994,4.55l-.004.01c-.268.754-.575,1.678-.953,2.782-1.13,3.304-2.888,8.223-5.758,14.067l-.016.031.01-.021c-1.696,3.491-3.787,7.334-6.422,11.338l-.028.042.023-.035c-7.754,11.855-19.901,25.169-39.31,35.811-19.411,10.636-46.129,18.614-83.099,19.567l.072,2.802.139-2.799-5.722-.284h-.045c-18.291-.308-33.888-2.376-47.234-5.656-20.02-4.923-34.974-12.558-46.428-21.136-11.451-8.581-19.411-18.119-25.345-26.934l-.002-.003c-3.409-5.051-5.984-9.858-7.926-14.062l-.016-.035.007.015c-1.509-3.2-2.661-6.055-3.548-8.422-.444-1.184-.821-2.246-1.146-3.172-.325-.927-.595-1.717-.832-2.375l-.004-.012-.008-.022c-.824-2.187-1.085-3.741-1.081-4.701,0-.568.083-.925.164-1.145.084-.221.159-.317.241-.406l-2.01-1.953,1.95,2.013c.155-.15.379-.355.62-.566.361-.317.766-.653,1.067-.89.148-.117.275-.212.328-.249l.019-.013-.757-1.143.662,1.2c.074-.042.092-.055.095-.056l-.757-1.143.662,1.2-1.134-2.053.949,2.145c.093-.042.146-.07.185-.091l-1.134-2.053.949,2.145-1.079-2.437.577,2.601c.279-.065.404-.123.502-.164l-1.079-2.437.577,2.601,11.845-2.625-11.796-2.836c-.384-.092-.742-.122-1.072-.122-.47,0-.892.06-1.3.143-.713.149-1.394.377-2.122.658-1.088.423-2.273.973-3.605,1.615-1.33.642-2.801,1.377-4.413,2.163l-.131.064-25.839,16.122.456,1.953c.176.754.387,1.571.639,2.503,3.104,11.486,11.926,38.47,36.856,62.608,12.461,12.066,28.949,23.402,50.66,31.695,21.711,8.296,48.632,13.55,81.971,13.55.185,0,.371,0,.557,0l-.005-2.803-.154,2.798,4.426.243h.089c32.576-.266,59.207-5.489,80.932-13.617,16.293-6.094,29.823-13.822,41.02-22.287,16.799-12.698,28.343-27.045,36.196-40.003,7.854-12.959,12.025-24.529,14.111-31.738v-.004c.656-2.277.991-3.582,1.176-4.379.092-.398.148-.674.183-.867.017-.095.03-.17.035-.199l.002-.01-2.032-.36,1.994.528c.032-.124.037-.166.038-.168l-2.032-.36,1.994.528.589-2.223-2.065-1.012-1.233,2.517Z" fill="#010101"/>
        <path d="M689.728,35.207c.717-1.733,1.419-3.495,2.104-5.286.14-.366-.043-.776-.409-.916s-.776.043-.916.409c-.681,1.78-1.378,3.529-2.09,5.25-.15.362.022.777.384.927.362.15.777-.022.927-.384ZM686.135,43.368c.794-1.699,1.573-3.428,2.334-5.187.156-.36-.01-.777-.37-.933-.36-.156-.777.01-.933.369-.756,1.747-1.529,3.464-2.317,5.15-.166.355-.013.777.342.943.355.166.777.013.943-.342h0ZM682.167,51.354c.875-1.659,1.733-3.35,2.575-5.072.172-.352.026-.777-.326-.949-.352-.172-.777-.026-.949.326-.835,1.71-1.687,3.387-2.555,5.033-.183.347-.05.776.296.958.347.183.776.05.959-.296h0ZM677.81,59.135c.959-1.613,1.901-3.259,2.825-4.939.189-.343.064-.775-.279-.964-.343-.189-.775-.064-.964.279-.917,1.666-1.852,3.298-2.802,4.898-.2.337-.089.772.247.972.337.2.772.089.972-.247h0ZM673.05,66.68c1.045-1.561,2.072-3.155,3.083-4.784.206-.333.104-.77-.229-.977-.333-.207-.77-.104-.977.229-1.002,1.615-2.021,3.195-3.056,4.742-.218.326-.131.766.195.984.326.218.766.131.984-.195h0ZM667.883,73.953c1.131-1.5,2.246-3.036,3.343-4.606.224-.321.146-.764-.175-.988-.321-.224-.764-.146-.988.175-1.088,1.557-2.192,3.078-3.313,4.565-.236.313-.174.758.139.994.313.236.758.173.994-.139h0ZM662.306,80.919c1.218-1.433,2.42-2.901,3.605-4.406.242-.308.189-.754-.119-.996-.308-.242-.754-.189-.996.119-1.174,1.491-2.364,2.946-3.571,4.365-.254.298-.218.746.081,1,.299.254.746.217,1-.081h0ZM656.326,87.543c1.303-1.358,2.59-2.753,3.861-4.184.26-.293.233-.741-.06-1.002-.293-.26-.741-.234-1.001.059-1.259,1.418-2.534,2.799-3.824,4.144-.271.283-.262.732.021,1.003.283.271.732.262,1.003-.021h0ZM649.953,93.793c1.385-1.277,2.755-2.591,4.109-3.942.277-.277.278-.726.001-1.003-.277-.277-.726-.278-1.003-.001-1.341,1.338-2.698,2.638-4.069,3.903-.288.266-.306.714-.041,1.002.265.288.714.306,1.002.041h0ZM643.208,99.64c1.462-1.191,2.911-2.417,4.345-3.682.294-.259.322-.708.063-1.001-.259-.294-.708-.322-1.001-.063-1.42,1.252-2.854,2.466-4.302,3.646-.304.247-.35.694-.102.998.247.304.694.35.998.102h0ZM636.116,105.061c1.534-1.1,3.055-2.235,4.563-3.408.309-.241.365-.686.124-.996-.241-.309-.686-.365-.996-.124-1.493,1.161-2.999,2.286-4.518,3.375-.319.228-.392.672-.163.99.228.318.671.391.99.163ZM628.707,110.041c1.599-1.006,3.186-2.048,4.761-3.125.323-.221.406-.663.185-.986-.221-.323-.663-.406-.986-.185-1.56,1.067-3.132,2.099-4.715,3.096-.332.209-.431.647-.223.978.209.332.647.431.978.222ZM621.017,114.572c1.655-.912,3.301-1.857,4.937-2.839.336-.202.445-.637.243-.973-.202-.336-.637-.445-.973-.243-1.62.972-3.251,1.909-4.891,2.813-.343.189-.468.62-.279.964.189.343.62.468.964.279h0ZM613.08,118.655c1.705-.818,3.402-1.668,5.09-2.553.347-.182.481-.611.299-.958-.182-.347-.611-.481-.958-.299-1.673.877-3.355,1.72-5.045,2.53-.353.169-.502.593-.333.946.169.353.593.502.947.333h0ZM604.932,122.296c1.746-.726,3.487-1.483,5.221-2.272.356-.162.514-.583.351-.94-.162-.357-.583-.514-.94-.351-1.719.783-3.445,1.534-5.177,2.253-.362.15-.533.565-.383.927.15.362.565.533.927.383h0ZM596.606,125.509c1.781-.637,3.558-1.303,5.33-2.001.364-.144.544-.556.4-.92-.144-.365-.556-.544-.92-.4-1.758.692-3.52,1.353-5.288,1.985-.369.132-.561.538-.429.907.132.369.538.561.907.429h0ZM588.136,128.312c1.808-.552,3.615-1.132,5.419-1.742.371-.125.57-.528.445-.899-.125-.371-.528-.57-.899-.445-1.79.605-3.584,1.181-5.379,1.729-.375.114-.586.511-.472.886.114.375.511.586.886.472ZM579.548,130.728c1.83-.472,3.661-.971,5.491-1.497.376-.108.594-.501.486-.878-.108-.377-.502-.594-.878-.486-1.817.523-3.635,1.018-5.453,1.487-.38.098-.608.485-.509.864.098.379.485.608.864.51h0ZM570.869,132.78c1.846-.398,3.696-.821,5.547-1.269.381-.092.614-.476.522-.857-.092-.381-.476-.615-.857-.522-1.839.446-3.677.865-5.512,1.261-.383.083-.627.46-.544.843.083.383.46.627.843.544h0ZM562.118,134.497c1.858-.33,3.722-.682,5.59-1.058.384-.077.633-.451.555-.836-.077-.384-.451-.633-.835-.555-1.857.374-3.71.724-5.558,1.052-.386.068-.643.437-.575.822.068.386.437.643.822.575h0ZM553.314,135.907c1.866-.267,3.741-.555,5.622-.865.387-.064.648-.429.585-.815-.064-.387-.429-.648-.815-.585-1.871.308-3.736.594-5.593.861-.388.056-.657.415-.602.803.056.388.415.657.803.602ZM544.472,137.037c1.871-.211,3.753-.441,5.645-.691.388-.051.662-.408.61-.796-.051-.388-.408-.662-.796-.611-1.883.248-3.756.477-5.619.688-.39.044-.669.395-.625.785.044.389.395.669.785.625h0ZM535.603,137.92c1.872-.162,3.76-.34,5.661-.536.39-.04.673-.389.633-.778-.04-.39-.389-.673-.778-.633-1.893.195-3.772.372-5.638.534-.39.034-.68.378-.646.768.034.39.377.68.768.646h0ZM526.718,138.587c1.872-.12,3.762-.253,5.671-.402.39-.031.682-.372.652-.763-.031-.391-.372-.683-.763-.652-1.901.148-3.785.281-5.651.401-.391.025-.688.362-.663.753.025.391.362.688.753.663ZM517.823,139.073c1.869-.086,3.761-.182,5.676-.291.391-.022.69-.358.668-.749-.022-.391-.357-.69-.749-.668-1.909.109-3.796.205-5.66.29-.392.018-.694.35-.676.741.018.391.35.694.741.676h0ZM508.884,139.323c.554.014,1.109.028,1.667.04h.04c1.323-.046,2.66-.096,4.011-.151.391-.016.696-.346.68-.737-.016-.391-.346-.696-.737-.68-1.348.055-2.683.104-4.003.15l.025.709.015-.709c-.555-.012-1.109-.025-1.661-.039-.392-.01-.718.299-.728.691-.01.392.299.718.691.728ZM499.983,138.971c1.871.099,3.763.183,5.677.252.391.014.72-.292.734-.684s-.292-.72-.684-.734c-1.905-.068-3.79-.152-5.653-.25-.391-.021-.725.28-.746.671-.021.391.28.725.671.746ZM491.096,138.373c1.867.153,3.756.29,5.667.411.391.025.728-.272.753-.663.025-.391-.272-.728-.663-.753-1.903-.12-3.783-.257-5.641-.409-.391-.032-.733.259-.765.649-.032.391.259.733.649.765h0ZM482.231,137.511c1.861.21,3.744.404,5.652.581.39.036.736-.251.772-.641.036-.39-.251-.736-.641-.772-1.898-.176-3.773-.369-5.624-.578-.39-.044-.741.236-.785.625-.044.389.236.741.625.785ZM473.397,136.371c1.853.27,3.729.524,5.631.761.389.049.743-.227.792-.616.049-.389-.227-.743-.616-.792-1.892-.236-3.759-.488-5.602-.757-.388-.057-.748.212-.804.6-.057.388.212.748.6.804h0ZM464.605,134.933c1.842.334,3.709.652,5.603.952.387.061.75-.203.812-.59.061-.387-.203-.75-.589-.812-1.883-.299-3.74-.614-5.572-.947-.386-.07-.755.186-.825.571-.07.386.186.755.572.825h0ZM455.869,133.181c1.828.402,3.682.787,5.565,1.155.384.075.757-.176.832-.56.075-.385-.176-.757-.56-.832-1.872-.365-3.716-.748-5.532-1.148-.383-.084-.761.158-.845.541-.084.383.158.761.54.845h0ZM447.205,131.097c1.81.474,3.649.931,5.517,1.369.381.09.763-.147.853-.528.089-.381-.147-.763-.528-.853-1.857-.436-3.684-.89-5.482-1.36-.379-.099-.767.128-.866.507-.099.379.128.767.507.866h0ZM438.631,128.661c1.789.549,3.607,1.081,5.457,1.595.377.105.769-.116.874-.494.105-.378-.116-.769-.494-.874-1.838-.51-3.645-1.039-5.421-1.584-.375-.115-.772.095-.887.47-.115.375.095.772.47.887h0ZM430.17,125.856c1.762.629,3.556,1.24,5.383,1.833.373.121.773-.083.894-.456.121-.373-.083-.773-.456-.894-1.814-.589-3.595-1.196-5.345-1.82-.369-.132-.775.061-.907.43-.132.369.061.775.43.907h0ZM421.844,122.665c1.73.711,3.495,1.405,5.294,2.081.367.138.776-.048.914-.415.138-.367-.048-.776-.414-.914-1.785-.671-3.536-1.36-5.253-2.065-.362-.149-.777.024-.926.386-.149.362.024.777.387.926h0ZM413.682,119.072c1.692.797,3.421,1.577,5.186,2.339.36.155.777-.01.933-.37.156-.36-.01-.777-.37-.933-1.751-.756-3.466-1.53-5.145-2.32-.355-.167-.777-.015-.944.34-.167.355-.015.777.34.944h0ZM405.714,115.064c1.648.885,3.334,1.753,5.059,2.605.351.174.777.029.95-.322.174-.351.029-.777-.322-.95-1.711-.845-3.383-1.706-5.016-2.583-.345-.185-.775-.056-.961.29-.185.345-.056.775.29.961h0ZM397.972,110.631c1.596.974,3.233,1.934,4.911,2.877.341.192.774.071.966-.271.192-.342.071-.774-.271-.966-1.663-.935-3.285-1.886-4.867-2.852-.335-.204-.771-.098-.975.236-.204.335-.098.771.236.975ZM390.49,105.767c1.538,1.064,3.117,2.116,4.74,3.153.33.211.769.114.98-.216.211-.33.114-.769-.216-.98-1.608-1.027-3.173-2.069-4.697-3.123-.322-.223-.764-.143-.987.18-.223.322-.143.764.18.987ZM383.305,100.471c1.471,1.154,2.986,2.298,4.547,3.428.317.23.761.159.991-.159.23-.317.159-.761-.159-.991-1.545-1.12-3.046-2.252-4.503-3.395-.308-.242-.754-.188-.996.12-.242.308-.188.754.12.996ZM376.454,94.748c1.397,1.242,2.839,2.476,4.33,3.7.303.249.75.205.999-.098.249-.303.205-.75-.098-.999-1.476-1.212-2.905-2.434-4.288-3.664-.293-.26-.741-.234-1.002.059-.26.293-.234.741.059,1.002ZM369.972,88.606c1.314,1.327,2.677,2.65,4.091,3.965.287.267.736.251,1.003-.036.267-.287.251-.736-.036-1.003-1.399-1.303-2.749-2.612-4.05-3.925-.276-.278-.725-.281-1.004-.005-.278.276-.281.725-.005,1.003h0ZM363.893,82.062c1.225,1.407,2.501,2.815,3.83,4.22.269.285.718.297,1.003.028s.297-.718.028-1.003c-1.315-1.391-2.578-2.784-3.79-4.177-.257-.296-.706-.327-1.001-.07-.296.257-.327.705-.069,1.001h0ZM358.25,75.135c1.128,1.481,2.31,2.97,3.548,4.462.25.302.697.343.999.093.301-.25.343-.698.093-.999-1.225-1.477-2.395-2.95-3.511-4.415-.238-.312-.683-.372-.994-.134-.312.237-.372.682-.134.994h0ZM353.073,67.851c1.024,1.547,2.106,3.112,3.248,4.687.23.317.673.388.991.158.317-.23.388-.673.158-.991-1.13-1.559-2.2-3.107-3.213-4.638-.216-.327-.657-.416-.983-.2-.327.216-.417.656-.2.983h0ZM348.39,60.235c.914,1.604,1.889,3.238,2.929,4.896.208.332.646.432.978.224.332-.208.432-.646.224-.978-1.03-1.64-1.994-3.257-2.898-4.843-.194-.34-.627-.459-.968-.265-.341.194-.459.627-.265.968ZM344.232,52.316c.794,1.647,1.656,3.346,2.591,5.086.185.345.616.475.961.289.345-.185.475-.616.289-.961-.926-1.722-1.778-3.402-2.563-5.031-.17-.353-.594-.501-.947-.331-.353.17-.501.594-.331.947h0ZM340.633,44.119c.662,1.668,1.402,3.426,2.229,5.261.161.357.581.516.938.355.357-.161.516-.581.355-.939-.818-1.814-1.55-3.552-2.204-5.201-.145-.364-.557-.542-.921-.398-.364.144-.542.557-.398.921h0ZM337.652,35.663c.5,1.626,1.102,3.444,1.826,5.425.134.368.542.558.91.423.368-.134.557-.542.423-.91-.715-1.956-1.31-3.751-1.803-5.355-.115-.374-.512-.585-.887-.47-.375.115-.585.512-.47.886h0ZM335.457,26.89c.003.023.327,2.089,1.29,5.647.102.378.492.602.87.499.378-.102.602-.492.5-.87-.474-1.751-.79-3.131-.986-4.069-.098-.47-.167-.829-.21-1.069-.022-.12-.038-.211-.048-.271-.01-.06-.014-.086-.014-.086-.06-.387-.423-.652-.81-.592-.387.06-.652.423-.591.81h0Z" fill="#010101"/>
      </g>
      <g>
        <path d="M832.949,535.768c-.557-20.965-1.584-55.115-1.99-102.614-.066-7.402-1.774-31.484-1.643-60.152,9.019-118.032,72.305-203.281,72.305-203.281,20.198,41.664,23.723,46.995,40.871,93.058,10.674,28.685,21.708,50.757,31.416,78.101,12.442,35.041,29.239,83.02,48.811,141.003l.363,1.813c-30.153,8.495-99.422,36.511-189.709,52.064l-.425.009Z" fill="#fff"/>
        <path d="M832.949,535.768l2.802-.074c-.558-20.972-1.583-55.091-1.989-102.564h0c-.017-1.868-.13-4.622-.287-8.179-.474-10.652-1.363-28.42-1.364-48.793,0-1.042.002-2.089.008-3.142l-2.802-.015,2.795.214c4.473-58.568,22.43-109.08,39.277-144.924,8.422-17.922,16.563-32.175,22.589-41.934,3.013-4.879,5.497-8.635,7.223-11.164.863-1.264,1.536-2.222,1.991-2.86.227-.319.4-.558.515-.716.057-.079.1-.137.128-.175l.03-.041.008-.01-2.25-1.671-2.522,1.223c10.108,20.85,16.033,32.589,21.547,44.809,2.758,6.113,5.42,12.357,8.465,19.955,3.045,7.597,6.473,16.546,10.755,28.05,5.365,14.418,10.813,27.154,16.116,39.669,5.304,12.517,10.464,24.812,15.285,38.392,12.438,35.03,29.23,82.995,48.797,140.962l2.655-.896-2.748.551.363,1.813,2.748-.551-.76-2.698c-7.651,2.157-17.648,5.507-29.796,9.572-18.215,6.096-41.246,13.795-68.166,21.425-26.919,7.63-57.725,15.191-91.463,21.003l.476,2.762-.058-2.802-.425.009.058,2.802,2.802-.074-2.802.074.058,2.802.425-.009.21-.004.208-.036c45.302-7.804,85.311-18.73,117.756-28.763,16.222-5.016,30.554-9.809,42.7-13.873,12.142-4.064,22.111-7.401,29.537-9.492l2.498-.704-.908-4.532-.058-.171c-19.578-57.999-36.38-105.993-48.826-141.044-4.887-13.764-10.098-26.177-15.406-38.703-5.309-12.528-10.716-25.171-16.024-39.437-8.582-23.053-13.779-35.977-19.364-48.354-5.586-12.377-11.522-24.136-21.612-44.949l-2.017-4.16-2.755,3.712c-.082.112-16.002,21.568-33.056,57.857-17.051,36.288-35.246,87.417-39.792,146.881l-.008.098v.1c-.006,1.065-.008,2.123-.008,3.172,0,13.688.398,26.193.804,36.164.203,4.985.408,9.336.565,12.878.158,3.538.268,6.281.282,7.979h0c.406,47.526,1.433,81.706,1.99,102.664l.074,2.785,2.786-.058-.058-2.802Z" fill="#010101"/>
        <path d="M838.065,512.604c-1.661.298-3.331.591-5.01.88-.386.067-.645.433-.579.82.067.386.433.645.82.579,1.682-.29,3.355-.584,5.02-.882.385-.069.642-.438.573-.824-.069-.386-.438-.642-.823-.573h0ZM846.798,510.986c-1.845.353-3.701.701-5.569,1.044-.386.071-.641.441-.57.826.071.385.441.64.826.57,1.872-.344,3.732-.692,5.579-1.046.385-.074.637-.445.564-.83-.074-.385-.445-.637-.83-.564h0ZM855.512,509.266c-1.84.374-3.692.744-5.557,1.109-.384.075-.635.448-.56.832.075.385.448.635.832.56,1.868-.366,3.724-.736,5.567-1.111.384-.078.632-.453.554-.837-.078-.384-.453-.632-.837-.554h0ZM864.206,507.446c-1.835.395-3.683.786-5.544,1.173-.384.08-.63.455-.551.839.08.384.455.63.839.55,1.865-.387,3.716-.779,5.554-1.175.383-.083.627-.46.544-.843-.082-.383-.46-.627-.843-.544h0ZM872.878,505.526c-1.83.416-3.673.828-5.53,1.236-.383.084-.625.463-.541.845.084.383.463.625.845.541,1.86-.409,3.707-.822,5.54-1.238.382-.087.621-.467.535-.849-.087-.382-.467-.621-.849-.535h0ZM881.528,503.509c-1.824.436-3.663.869-5.516,1.298-.382.088-.62.47-.531.851.088.382.47.619.851.531,1.856-.43,3.698-.864,5.526-1.301.381-.091.616-.474.525-.855-.091-.381-.474-.616-.855-.525h0ZM890.156,501.395c-1.818.456-3.652.909-5.501,1.359-.381.093-.614.476-.522.857.093.381.476.614.857.521,1.852-.451,3.689-.905,5.511-1.362.38-.095.611-.481.515-.861-.095-.38-.481-.611-.861-.516h0ZM898.76,499.188c-1.813.475-3.641.949-5.486,1.419-.38.097-.609.483-.512.863.097.38.483.609.863.512,1.848-.471,3.68-.945,5.496-1.421.379-.099.606-.487.506-.866-.099-.379-.487-.606-.866-.506h0ZM907.34,496.888c-1.807.494-3.63.987-5.471,1.477-.379.101-.604.49-.503.868.101.379.489.604.868.503,1.844-.491,3.671-.985,5.48-1.48.378-.103.6-.494.497-.871-.104-.378-.494-.601-.871-.497h0ZM915.896,494.5c-1.8.512-3.619,1.024-5.456,1.534-.378.105-.599.496-.494.873.105.378.496.599.874.494,1.84-.511,3.661-1.023,5.465-1.537.377-.107.595-.5.488-.877-.107-.377-.5-.595-.876-.488h0ZM924.428,492.025c-1.794.53-3.607,1.06-5.44,1.589-.377.109-.594.502-.485.878.109.377.502.594.878.485,1.836-.53,3.653-1.061,5.449-1.591.376-.111.59-.506.479-.882-.111-.376-.506-.59-.881-.479h0ZM932.936,489.467c-1.787.547-3.595,1.094-5.425,1.641-.375.112-.589.507-.477.883.112.375.508.589.883.476,1.833-.548,3.644-1.096,5.433-1.644.374-.115.585-.511.471-.886-.115-.375-.511-.586-.886-.471h0ZM941.42,486.83c-1.781.562-3.584,1.126-5.41,1.691-.375.116-.584.513-.468.887.116.374.513.584.887.468,1.829-.566,3.635-1.131,5.418-1.693.374-.118.581-.517.463-.89-.118-.374-.517-.581-.89-.463h0ZM949.882,484.119c-1.774.576-3.572,1.156-5.396,1.738-.373.119-.579.518-.46.892.119.373.518.579.892.46,1.826-.583,3.627-1.163,5.403-1.74.372-.121.577-.521.455-.894-.121-.373-.521-.577-.894-.456h0ZM958.322,481.341c-1.766.589-3.561,1.182-5.382,1.78-.372.122-.575.523-.453.895.122.372.523.575.895.453,1.824-.598,3.62-1.193,5.388-1.782.372-.124.572-.526.449-.897-.124-.372-.526-.573-.897-.449h0ZM966.744,478.503c-1.759.599-3.55,1.205-5.371,1.817-.371.125-.571.527-.447.899.125.371.527.571.899.446,1.823-.613,3.615-1.219,5.376-1.818.371-.126.569-.529.443-.9-.126-.371-.529-.569-.9-.443h0ZM975.15,475.617c-1.752.606-3.539,1.222-5.361,1.846-.371.127-.568.53-.441.901.127.371.53.568.901.441,1.824-.625,3.612-1.241,5.366-1.848.37-.128.567-.532.438-.902-.128-.37-.532-.567-.902-.438h0ZM983.547,472.698c-1.745.609-3.53,1.231-5.356,1.865-.37.128-.566.533-.438.903.128.37.533.566.903.438,1.827-.634,3.613-1.257,5.358-1.866.37-.129.565-.534.436-.904-.129-.37-.533-.565-.903-.436h0ZM991.943,469.768c-1.738.605-3.524,1.229-5.357,1.869-.37.129-.565.534-.436.904.129.37.534.565.904.436h0c1.833-.64,3.618-1.264,5.356-1.869.37-.129.565-.533.437-.903-.129-.37-.533-.565-.903-.437h0ZM1000.352,466.862c-1.731.591-3.52,1.208-5.367,1.848-.37.128-.566.533-.438.903.128.37.532.566.903.438,1.845-.64,3.633-1.256,5.361-1.846.371-.127.569-.53.442-.901-.127-.371-.53-.569-.9-.442h0ZM1008.797,464.044c-1.723.557-3.521,1.153-5.394,1.784-.372.125-.571.528-.446.899.125.371.527.571.899.446,1.869-.629,3.662-1.223,5.378-1.779.373-.121.577-.52.457-.893-.12-.373-.521-.577-.893-.457h0ZM1017.327,461.437c-1.712.483-3.531,1.027-5.455,1.628-.374.117-.583.515-.466.889.117.374.515.582.889.466,1.914-.598,3.72-1.139,5.417-1.617.377-.106.597-.498.49-.875-.106-.377-.498-.597-.875-.491h0Z" fill="#010101"/>
        <path d="M840.999,505.758c-1.846.331-3.706.659-5.581.982-.386.067-.645.434-.579.82.067.386.434.645.82.578,1.878-.324,3.741-.652,5.59-.984.386-.069.642-.438.573-.824-.069-.386-.438-.642-.823-.573h0ZM849.733,504.143c-1.841.351-3.698.698-5.57,1.041-.386.071-.641.44-.57.826.071.385.44.641.826.57,1.875-.344,3.735-.692,5.58-1.043.385-.073.638-.445.564-.83-.073-.385-.445-.638-.83-.564h0ZM858.449,502.435c-1.837.37-3.69.737-5.558,1.1-.385.075-.636.447-.561.832.075.385.447.636.832.561,1.872-.364,3.728-.731,5.568-1.102.384-.078.632-.452.555-.836-.078-.384-.452-.633-.836-.555h0ZM867.146,500.634c-1.832.39-3.681.777-5.546,1.16-.384.079-.631.454-.552.838.079.384.454.631.838.552,1.868-.384,3.72-.772,5.556-1.162.383-.082.628-.458.546-.842-.081-.383-.458-.628-.841-.546h0ZM875.823,498.739c-1.827.409-3.672.816-5.533,1.22-.383.083-.626.461-.543.844.083.383.461.626.844.543,1.865-.404,3.712-.812,5.543-1.222.382-.086.623-.465.537-.847-.086-.382-.465-.623-.847-.537h0ZM884.48,496.75c-1.822.429-3.662.856-5.52,1.28-.382.087-.621.468-.534.85.087.382.468.621.85.534,1.861-.425,3.704-.852,5.53-1.282.381-.09.618-.472.528-.853-.09-.381-.472-.618-.853-.528h0ZM893.114,494.667c-1.816.449-3.651.895-5.506,1.34-.381.091-.616.474-.524.855.091.381.474.616.855.525,1.858-.445,3.696-.893,5.515-1.342.38-.094.612-.478.518-.859-.094-.38-.479-.613-.859-.519h0ZM901.725,492.49c-1.81.468-3.64.934-5.491,1.399-.38.095-.611.481-.515.861.095.38.481.611.861.515,1.853-.465,3.687-.933,5.5-1.402.379-.098.607-.485.509-.865-.098-.379-.485-.607-.864-.509h0ZM910.312,490.221c-1.804.487-3.629.973-5.476,1.458-.379.1-.606.487-.506.866.099.379.487.606.866.506,1.85-.486,3.678-.973,5.485-1.461.378-.102.602-.492.5-.87-.102-.378-.492-.602-.87-.5h0ZM918.875,487.861c-1.798.506-3.617,1.011-5.46,1.516-.378.104-.6.494-.497.872.104.378.494.6.872.497,1.846-.506,3.669-1.012,5.469-1.519.377-.106.597-.498.491-.875-.106-.377-.498-.597-.875-.491h0ZM927.413,485.411c-1.791.524-3.605,1.048-5.444,1.573-.377.108-.595.5-.488.877.108.377.5.595.877.487,1.842-.526,3.659-1.051,5.453-1.576.376-.11.592-.504.482-.88-.11-.376-.504-.592-.88-.482h0ZM935.926,482.874c-1.784.541-3.593,1.084-5.428,1.628-.376.111-.59.506-.479.882.111.376.506.59.882.479,1.838-.545,3.65-1.089,5.437-1.631.375-.114.586-.51.473-.885-.114-.375-.51-.587-.885-.473h0ZM944.414,480.254c-1.777.558-3.581,1.118-5.412,1.681-.375.115-.585.512-.47.887.115.375.512.585.887.47,1.834-.564,3.641-1.125,5.42-1.683.374-.117.582-.516.464-.89-.117-.374-.515-.582-.889-.464h0ZM952.878,477.557c-1.769.572-3.568,1.149-5.397,1.729-.374.119-.58.517-.462.891.118.374.517.58.891.462,1.832-.581,3.633-1.159,5.405-1.732.373-.121.577-.521.457-.893-.12-.373-.521-.577-.893-.457h0ZM961.32,474.789c-1.762.585-3.556,1.176-5.383,1.773-.373.122-.576.522-.454.895.122.372.522.576.895.454,1.829-.598,3.626-1.19,5.39-1.775.372-.123.573-.525.45-.897-.124-.372-.525-.573-.897-.45h0ZM969.744,471.963c-1.755.595-3.545,1.198-5.372,1.81-.372.124-.572.526-.448.898.124.372.526.572.898.448,1.829-.612,3.621-1.216,5.377-1.811.371-.126.57-.528.444-.9-.126-.371-.528-.57-.9-.444h0ZM978.155,469.092c-1.748.6-3.536,1.212-5.365,1.835-.371.126-.569.529-.443.9.126.371.529.569.9.443h0c1.83-.624,3.619-1.236,5.367-1.836.37-.127.568-.531.441-.901-.127-.371-.531-.568-.901-.441h0ZM986.562,466.202c-1.741.598-3.529,1.214-5.363,1.845-.371.127-.568.531-.44.902.127.371.531.568.902.44,1.835-.631,3.622-1.246,5.363-1.844.37-.127.568-.531.44-.901-.127-.371-.531-.568-.901-.441h0ZM994.979,463.33c-1.736.586-3.527,1.196-5.372,1.828-.371.127-.568.53-.441.901.127.371.53.568.901.441,1.844-.631,3.632-1.241,5.366-1.826.371-.125.571-.528.445-.899-.125-.371-.528-.571-.899-.446h0ZM1003.431,460.539c-1.733.555-3.532,1.145-5.398,1.766-.372.124-.573.526-.449.897.124.372.526.573.897.449,1.862-.62,3.655-1.208,5.382-1.761.373-.12.579-.519.459-.892-.12-.373-.519-.579-.892-.459h0ZM1011.961,457.949c-1.733.488-3.55,1.03-5.454,1.619-.375.116-.584.513-.468.888.116.374.513.584.888.468,1.894-.587,3.7-1.125,5.419-1.609.377-.106.597-.498.491-.875-.106-.377-.498-.597-.875-.491h0Z" fill="#010101"/>
      </g>
      <g>
        <path d="M194.828,535.428c.558-20.965,1.717-55.482,2.129-102.982.064-7.401.186-31.402.059-60.081-10.183-117.675-72.3-203.278-72.3-203.278-20.198,41.663-23.724,46.997-40.871,93.064-10.674,28.683-21.712,50.754-31.421,78.098-12.437,35.032-29.24,83.016-48.811,141.007l-.359,1.808c30.149,8.492,100.857,36.801,191.146,52.354l.429.009Z" fill="#fff"/>
        <path d="M194.828,535.428l2.802.074c.557-20.948,1.718-55.501,2.13-103.032h0c.043-5.074.114-17.904.114-34.69,0-7.757-.015-16.358-.055-25.427v-.119s-.01-.11-.01-.11c-5.132-59.269-23.32-110.384-40.22-146.708-16.903-36.325-32.526-57.865-32.604-57.975l-2.749-3.788-2.041,4.212c-10.09,20.813-16.027,32.572-21.612,44.95-2.791,6.186-5.489,12.516-8.559,20.177-3.07,7.661-6.513,16.652-10.805,28.182-5.308,14.265-10.716,26.908-16.026,39.435-5.309,12.526-10.522,24.939-15.409,38.703-12.441,35.043-29.249,83.041-48.826,141.049l-.058.172-.899,4.528,2.494.702c7.426,2.091,17.486,5.446,29.763,9.537,18.422,6.137,41.857,13.933,69.172,21.655,27.316,7.722,58.516,15.373,92.495,21.226l.208.036,3.423.069.074-2.784-2.802-.074.056-2.802-.429-.009-.056,2.802.476-2.762c-44.985-7.749-85.116-18.68-117.776-28.741-16.33-5.03-30.793-9.843-43.071-13.934-12.282-4.091-22.366-7.459-30.015-9.614l-.76,2.698,2.749.546.359-1.808-2.749-.546,2.655.896c19.566-57.975,36.363-105.944,48.797-140.966,4.821-13.58,9.982-25.875,15.288-38.391,5.304-12.515,10.753-25.25,16.119-39.668,4.282-11.504,7.71-20.454,10.755-28.052,4.568-11.398,8.271-19.749,12.736-29.182,4.465-9.432,9.695-19.949,17.276-35.585l-2.522-1.223-2.268,1.646.007.011c.4.552,15.853,22.039,32.443,57.881,16.593,35.842,34.314,86.033,39.326,143.983l2.792-.242-2.803.012c.039,9.06.055,17.653.055,25.403,0,16.769-.071,29.591-.114,34.641h0c-.412,47.468-1.57,81.95-2.128,102.931l2.802.075.056-2.802-.056,2.802Z" fill="#010101"/>
        <path d="M189.111,511.348c1.663.298,3.335.592,5.016.881.386.067.753-.192.82-.578.067-.386-.193-.753-.578-.82-1.678-.289-3.347-.582-5.007-.88-.386-.069-.754.187-.824.573-.069.386.188.754.573.823h0ZM180.361,509.727c1.848.354,3.708.702,5.58,1.046.385.071.755-.184.826-.57.071-.385-.184-.755-.569-.826-1.869-.343-3.725-.691-5.569-1.044-.385-.074-.757.179-.83.563-.074.385.179.757.564.83h0ZM171.631,508.004c1.843.375,3.699.745,5.567,1.111.384.075.757-.175.833-.56.075-.384-.175-.757-.56-.833-1.865-.365-3.717-.735-5.557-1.109-.384-.078-.759.17-.837.554-.078.384.17.759.554.837h0ZM162.922,506.18c1.838.396,3.69.788,5.554,1.175.384.08.759-.167.839-.55.08-.384-.167-.759-.55-.839-1.861-.387-3.709-.778-5.543-1.173-.383-.083-.761.161-.843.544-.083.383.161.761.544.843h0ZM154.234,504.257c1.833.417,3.68.83,5.54,1.238.382.084.761-.158.845-.541.084-.383-.158-.761-.541-.845-1.857-.408-3.7-.82-5.53-1.236-.382-.087-.763.152-.849.534s.152.762.535.849h0ZM145.568,502.236c1.827.437,3.669.871,5.526,1.301.382.088.763-.149.851-.531.088-.382-.149-.763-.531-.851-1.853-.429-3.692-.862-5.516-1.298-.381-.091-.764.144-.855.525-.091.381.144.764.525.855h0ZM136.926,500.118c1.822.457,3.659.911,5.511,1.362.381.093.764-.141.857-.522.093-.381-.141-.764-.522-.857-1.849-.45-3.683-.903-5.501-1.359-.38-.095-.766.135-.861.515-.095.38.136.766.516.861h0ZM128.307,497.907c1.816.476,3.648.95,5.496,1.422.379.097.766-.132.863-.512.097-.38-.133-.766-.512-.863-1.845-.47-3.674-.944-5.487-1.419-.379-.099-.767.127-.867.506-.1.379.127.767.506.866h0ZM119.712,495.604c1.81.495,3.636.988,5.48,1.48.379.101.767-.124.868-.503.101-.379-.124-.767-.503-.868-1.841-.49-3.665-.983-5.471-1.477-.378-.103-.768.119-.872.497-.103.378.119.768.497.872h0ZM111.142,493.211c1.803.513,3.625,1.026,5.465,1.537.377.105.768-.116.873-.494.105-.377-.116-.769-.494-.873-1.837-.51-3.655-1.022-5.456-1.534-.377-.107-.769.111-.876.488-.107.377.111.769.488.876h0ZM102.596,490.732c1.797.531,3.613,1.061,5.449,1.591.376.109.77-.108.878-.485.109-.376-.108-.77-.485-.878-1.833-.529-3.647-1.059-5.44-1.589-.376-.111-.77.104-.882.479-.111.376.104.77.48.881h0ZM94.075,488.17c1.79.547,3.601,1.095,5.433,1.644.375.112.771-.101.883-.476.112-.375-.101-.771-.476-.883-1.83-.547-3.638-1.095-5.425-1.641-.375-.114-.771.096-.886.471-.115.375.097.771.471.886h0ZM85.579,485.53c1.783.563,3.589,1.127,5.418,1.694.374.116.772-.094.888-.468.116-.374-.094-.772-.468-.888-1.826-.565-3.63-1.129-5.41-1.691-.374-.118-.772.089-.89.463-.118.374.089.772.463.89h0ZM77.106,482.815c1.776.577,3.577,1.157,5.403,1.74.373.119.772-.087.891-.46.119-.373-.087-.772-.46-.891-1.823-.582-3.622-1.161-5.395-1.738-.373-.121-.773.083-.894.456-.121.373.083.773.456.894h0ZM68.656,480.034c1.768.589,3.565,1.184,5.389,1.782.372.122.773-.081.895-.453.122-.372-.081-.773-.453-.895-1.822-.598-3.616-1.191-5.382-1.78-.372-.124-.774.077-.898.449-.124.372.077.774.449.898h0ZM60.225,477.193c1.761.6,3.553,1.206,5.376,1.818.371.125.774-.075.898-.446.125-.371-.075-.774-.446-.899-1.821-.612-3.611-1.218-5.371-1.817-.371-.126-.774.072-.9.443-.126.371.072.774.443.9h0ZM51.812,474.305c1.753.606,3.542,1.223,5.366,1.847.371.127.774-.07.901-.441.127-.371-.07-.774-.441-.901h0c-1.822-.624-3.609-1.24-5.362-1.846-.37-.128-.775.068-.903.439-.128.37.068.774.439.902h0ZM43.412,471.384c1.745.609,3.531,1.232,5.358,1.866.37.128.774-.067.903-.438.128-.37-.068-.774-.437-.903h0c-1.826-.634-3.611-1.256-5.356-1.865-.37-.129-.775.066-.904.436-.129.37.066.775.436.904h0ZM35.017,468.455c1.737.605,3.523,1.229,5.356,1.869.37.129.774-.066.903-.436.129-.37-.066-.775-.436-.904-1.833-.64-3.618-1.264-5.356-1.869-.37-.129-.775.067-.903.437-.129.37.067.774.437.903h0ZM26.616,465.552c1.728.59,3.515,1.206,5.361,1.846.37.128.774-.068.903-.438.128-.37-.068-.774-.438-.903-1.847-.64-3.636-1.257-5.367-1.848-.371-.127-.774.071-.901.442-.127.371.071.774.442.901h0ZM18.192,462.74c1.716.555,3.509,1.149,5.378,1.779.371.125.774-.075.898-.446.125-.371-.075-.774-.446-.899-1.873-.631-3.671-1.226-5.394-1.784-.373-.121-.773.084-.894.456-.121.373.084.773.457.894h0ZM9.715,460.149c1.697.478,3.503,1.019,5.417,1.617.374.117.772-.092.889-.466.117-.374-.092-.772-.466-.889-1.924-.601-3.743-1.146-5.455-1.628-.377-.106-.769.113-.875.491-.106.377.113.769.491.875h0Z" fill="#010101"/>
        <path d="M186.176,504.495c1.849.332,3.712.66,5.59.983.386.067.753-.192.82-.579.067-.386-.193-.753-.578-.82-1.875-.323-3.735-.651-5.581-.982-.386-.069-.755.187-.824.573-.069.386.187.754.573.824h0ZM177.428,502.878c1.845.351,3.704.699,5.579,1.042.385.071.755-.184.826-.57s-.185-.755-.57-.826c-1.872-.343-3.728-.69-5.57-1.041-.385-.073-.757.179-.83.564-.073.385.179.756.564.83h0ZM168.696,501.168c1.84.371,3.696.738,5.568,1.102.384.075.757-.176.832-.561.075-.385-.176-.757-.561-.832-1.869-.363-3.722-.73-5.559-1.1-.384-.078-.758.171-.836.555-.077.384.171.758.555.836h0ZM159.984,499.363c1.835.39,3.687.778,5.556,1.162.384.079.759-.168.838-.552.079-.384-.168-.759-.552-.838-1.865-.383-3.714-.77-5.546-1.16-.383-.082-.76.163-.842.546-.081.383.163.76.546.841h0ZM151.292,497.465c1.83.41,3.678.817,5.543,1.222.383.083.761-.16.843-.543.083-.383-.16-.761-.543-.844-1.862-.404-3.706-.81-5.533-1.22-.383-.086-.762.155-.848.537-.086.382.155.762.537.847h0ZM142.62,495.473c1.825.43,3.668.857,5.529,1.282.382.087.762-.152.849-.534.087-.382-.152-.762-.534-.85-1.858-.424-3.698-.851-5.52-1.28-.382-.09-.764.147-.853.528-.09.381.146.763.528.853h0ZM133.971,493.387c1.819.449,3.658.897,5.515,1.342.381.091.764-.144.855-.525.091-.381-.143-.764-.524-.855-1.854-.444-3.689-.891-5.506-1.339-.38-.094-.765.138-.859.519-.094.381.138.765.519.859h0ZM125.345,491.207c1.814.469,3.647.936,5.5,1.401.38.095.765-.135.861-.515.095-.38-.135-.765-.515-.861-1.85-.465-3.68-.931-5.491-1.399-.38-.098-.767.13-.865.509-.098.379.13.766.509.865h0ZM116.743,488.934c1.807.488,3.635.975,5.485,1.46.379.1.767-.127.866-.506.099-.379-.127-.767-.506-.866-1.846-.485-3.672-.971-5.476-1.458-.378-.102-.768.122-.87.5-.102.378.122.768.5.87h0ZM108.166,486.57c1.8.507,3.623,1.013,5.469,1.519.378.104.768-.119.872-.497.104-.378-.119-.768-.497-.872-1.842-.505-3.662-1.011-5.46-1.516-.377-.106-.769.114-.875.491-.106.377.114.769.491.875h0ZM99.613,484.116c1.794.525,3.611,1.05,5.453,1.576.377.107.769-.111.877-.488.107-.377-.111-.769-.488-.877-1.838-.525-3.653-1.049-5.444-1.573-.376-.11-.77.106-.88.482-.11.376.106.77.482.88h0ZM91.087,481.575c1.787.542,3.598,1.086,5.436,1.631.376.111.77-.103.882-.479.111-.376-.103-.77-.479-.882-1.835-.544-3.644-1.087-5.428-1.628-.375-.114-.771.098-.885.473-.114.375.098.771.473.885h0ZM82.586,478.952c1.779.558,3.586,1.12,5.42,1.683.374.115.771-.095.886-.47.115-.375-.095-.771-.47-.887-1.832-.563-3.636-1.123-5.412-1.681-.374-.117-.772.091-.889.465-.117.374.091.772.465.889h0ZM74.111,476.25c1.772.573,3.573,1.151,5.404,1.732.373.118.772-.088.891-.462.119-.373-.088-.772-.461-.891-1.829-.581-3.628-1.157-5.397-1.729-.373-.121-.773.084-.893.457-.121.373.084.773.457.893h0ZM65.658,473.479c1.764.586,3.56,1.178,5.39,1.775.372.122.773-.082.895-.454.122-.372-.082-.773-.454-.895-1.827-.597-3.622-1.188-5.383-1.773-.372-.123-.773.078-.897.45-.123.372.078.773.45.897h0ZM57.225,470.649c1.756.595,3.549,1.199,5.377,1.811.372.124.773-.076.898-.448.124-.371-.076-.774-.448-.898-1.827-.612-3.617-1.215-5.372-1.81-.371-.126-.774.073-.9.444-.126.371.073.774.445.9h0ZM48.809,467.777c1.748.6,3.537,1.213,5.367,1.836.371.126.774-.072.901-.443.126-.371-.072-.774-.442-.9-1.829-.623-3.617-1.236-5.365-1.835-.371-.127-.774.07-.902.441-.127.371.07.774.441.901h0ZM40.402,464.886c1.741.598,3.528,1.214,5.363,1.845.37.127.774-.07.901-.44.127-.371-.07-.774-.44-.902-1.834-.631-3.622-1.246-5.363-1.845-.371-.127-.774.07-.902.44-.128.371.07.774.44.902h0ZM31.992,462.015c1.734.585,3.522,1.195,5.366,1.826.371.127.774-.071.901-.441.127-.371-.071-.774-.441-.901-1.846-.632-3.636-1.242-5.372-1.828-.371-.125-.774.074-.9.445-.125.371.074.774.445.899h0ZM23.561,459.231c1.727.553,3.52,1.142,5.382,1.762.372.124.773-.077.897-.449.124-.372-.077-.773-.449-.897-1.866-.622-3.665-1.212-5.398-1.767-.373-.12-.773.086-.893.459-.12.373.086.773.459.892h0ZM15.08,456.655c1.718.484,3.524,1.022,5.419,1.609.374.116.772-.093.888-.468.116-.374-.094-.772-.468-.888-1.904-.59-3.721-1.131-5.454-1.62-.377-.106-.769.113-.875.491-.106.377.113.769.491.875h0Z" fill="#010101"/>
      </g>
    </g>
  </g>
</svg>