<?xml version="1.0" encoding="UTF-8"?>
<svg id="b" data-name="Livello 2" xmlns="http://www.w3.org/2000/svg" width="362.07mm" height="422.184mm" viewBox="0 0 1026.341 1196.742">
  <g id="c" data-name="Livello 1">
    <g id="d" data-name="Back">
      <g>
        <path d="M196.484,371.846c-12.213-118.71-57.641-175.677-71.185-203.306,0,0,22.655-37.234,42.914-51.879,11.78-10.279,36.344-24.835,36.344-24.835,3.023-1.804,6.115-3.474,9.33-5.019l.61-.215,127.7-62.776s1.327-6.542,37.597-19.592c5.334,3.245,34.504,18.572,138.424,15.811,39.158-1.004,100.717-2.564,129.555-16.846,6.32,2.811,26.558,11.434,36.858,19.537l127.968,63.866c3.219,1.54,6.307,3.217,9.336,5.017,0,0,24.558,14.554,36.338,24.832,20.263,14.647,42.918,51.876,42.918,51.876-13.54,27.631-58.972,84.596-71.185,203.306-2.928,28.527.032,53.422.135,60.824.381,48.594,1.47,83.223,2.02,104.046,0,0,.424,55.161,1.194,155.597.515,66.973,4.25,109.811,4.829,170.569.125,14.672.065,30.38-.264,47.722-.091,4.698-.22,9.463-.355,14.419-1.8,66.2-3.819,149.611-4.343,269.138H193.871c-.524-119.527-2.543-202.939-4.347-269.138-.135-4.955-.255-9.721-.325-14.419-.355-17.342-.416-33.05-.323-47.722.514-60.826,4.311-103.596,4.827-170.569.809-100.436,1.229-155.597,1.229-155.597.549-20.824,1.61-55.453,2.023-104.046.07-7.402-.346-31.93-.471-60.602Z" fill="#fff"/>
        <path d="M196.484,371.846l2.788-.287c-6.136-59.66-20.641-103.902-35.324-136.667-7.339-16.382-14.721-29.895-21.099-41.017-6.377-11.115-11.752-19.866-15.034-26.568l-2.516,1.234,2.394,1.457.014-.023c.317-.52,6.022-9.822,14.092-20.739,4.034-5.458,8.659-11.318,13.479-16.674,4.816-5.356,9.839-10.206,14.577-13.628l.105-.076.096-.084c2.83-2.47,6.516-5.267,10.428-8.043,5.871-4.167,12.26-8.3,17.17-11.382,2.456-1.542,4.542-2.821,6.013-3.715.736-.447,1.317-.797,1.714-1.034.198-.119.351-.21.453-.27.102-.061.152-.09.152-.09l.008-.005c2.955-1.763,5.972-3.393,9.108-4.899l-1.213-2.526.933,2.643.767-.271,129.083-63.456.274-1.35-1.584-.321,1.448.759s.079-.154.136-.437l-1.584-.321,1.448.759s.012-.024.047-.076c.13-.197.572-.774,1.647-1.674,1.61-1.353,4.633-3.426,10.022-6.138,5.389-2.715,13.142-6.075,24.219-10.06l-.949-2.637-1.457,2.394c.674.41,1.683.988,3.079,1.671,4.894,2.397,14.552,6.113,32.237,9.233,17.688,3.119,43.416,5.645,80.502,5.646,7.563,0,15.599-.105,24.137-.332h-.003c19.583-.502,44.821-1.142,68.844-3.456,12.014-1.157,23.726-2.732,34.307-4.932,10.582-2.204,20.03-5.017,27.576-8.748l-1.244-2.512-1.139,2.561c1.599.711,4.033,1.771,6.963,3.093,4.391,1.982,9.883,4.551,15.204,7.361,2.66,1.404,5.276,2.868,7.682,4.342,2.406,1.473,4.604,2.958,6.415,4.383l.225.177,128.24,64.002.026.013c3.134,1.499,6.147,3.135,9.114,4.898l.003.002s.021.013.067.04c.705.419,6.894,4.112,14.305,8.927,3.705,2.407,7.716,5.093,11.492,7.785,3.775,2.689,7.32,5.389,10.061,7.782l.096.084.105.076c4.815,3.476,9.923,8.427,14.809,13.884,7.338,8.187,14.201,17.507,19.208,24.761,2.505,3.628,4.547,6.741,5.961,8.942.707,1.101,1.256,1.973,1.628,2.569.186.298.327.526.421.679.047.077.083.134.106.172l.026.042.007.012,2.394-1.457-2.517-1.233c-3.28,6.703-8.656,15.454-15.032,26.569-9.568,16.685-21.389,38.743-31.95,67.804-10.564,29.063-19.871,65.134-24.474,109.88h0c-.976,9.505-1.304,18.593-1.304,26.775,0,8.341.342,15.742.691,21.669.174,2.963.351,5.558.487,7.709.136,2.147.231,3.862.247,4.998v-.018c.381,48.623,1.471,83.286,2.02,104.098l2.802-.074-2.803.022s.007.862.02,2.566c.092,11.931.501,65.148,1.174,153.03.258,33.534,1.322,61.028,2.393,87.706,1.071,26.68,2.147,52.541,2.436,82.868v-.003c.039,4.62.06,9.344.06,14.189,0,10.514-.099,21.602-.323,33.456-.091,4.682-.219,9.44-.355,14.395-1.8,66.208-3.82,149.65-4.344,269.203l2.803.012v-2.803H193.871v2.803l2.802-.012c-.524-119.552-2.544-202.995-4.348-269.203-.135-4.952-.255-9.706-.325-14.384v-.016c-.26-12.667-.362-24.46-.362-35.616,0-4.092.014-8.099.039-12.03v.006c.257-30.36,1.332-56.219,2.411-82.89,1.078-26.669,2.158-54.146,2.417-87.682h0c.809-100.436,1.229-155.597,1.229-155.597l-2.802-.022,2.802.074c.549-20.814,1.61-55.475,2.025-104.096v.002c.005-.579.007-1.253.007-2.019,0-4.625-.091-12.653-.196-22.848-.105-10.193-.225-22.543-.282-35.773v-.14s-.015-.135-.015-.135l-2.788.287-2.803.012c.057,13.249.177,25.611.282,35.807.105,10.194.196,18.23.196,22.79,0,.755-.002,1.414-.008,1.967v.002c-.414,48.566-1.473,83.164-2.023,103.996v.016s0,.036,0,.036c0,.003-.007.862-.02,2.566-.092,11.931-.502,65.148-1.21,153.029h0c-.257,33.439-1.334,60.833-2.412,87.499-1.078,26.664-2.158,52.602-2.415,83.069v.006c-.026,3.944-.039,7.962-.039,12.067,0,11.19.103,23.022.363,35.731v.055s0-.071,0-.071c.07,4.717.191,9.494.326,14.453,1.804,66.192,3.822,149.572,4.346,269.074l.012,2.79h644.932l.012-2.79c.524-119.502,2.542-202.883,4.342-269.075.135-4.955.264-9.728.356-14.44.225-11.891.325-23.014.324-33.564,0-4.861-.021-9.6-.06-14.236v-.003c-.29-30.431-1.37-56.368-2.44-83.04-1.07-26.674-2.131-54.085-2.388-87.524-.769-100.436-1.194-155.597-1.194-155.597v-.025s0-.028,0-.028c-.55-20.835-1.639-55.43-2.019-103.995v-.017c-.02-1.347-.12-3.1-.257-5.273-.412-6.503-1.167-16.736-1.167-29.023,0-8.032.323-16.931,1.275-26.202h0c6.078-59.049,20.393-102.645,34.865-134.948,7.237-16.153,14.516-29.481,20.846-40.52,6.332-11.047,11.713-19.779,15.203-26.891l.675-1.379-.798-1.312c-.028-.045-5.726-9.409-13.997-20.65-4.137-5.621-8.917-11.712-13.973-17.355-5.06-5.643-10.383-10.839-15.7-14.686l-1.642,2.271,1.842-2.112c-3.06-2.669-6.862-5.546-10.868-8.39-6.006-4.263-12.464-8.439-17.431-11.557-4.966-3.118-8.438-5.176-8.453-5.184l.003.002c-3.091-1.836-6.254-3.555-9.558-5.136l-1.209,2.528,1.251-2.508-127.968-63.866-1.251,2.508,1.733-2.203c-2.735-2.15-6.026-4.263-9.545-6.299-5.276-3.05-11.062-5.916-16.133-8.292-5.066-2.373-9.428-4.26-11.773-5.303l-1.204-.535-1.179.584c-6.873,3.409-15.935,6.147-26.229,8.284-15.446,3.213-33.664,5.103-51.667,6.272-18.007,1.17-35.803,1.624-50.486,2.001h-.003c-8.49.226-16.476.33-23.988.33-42.093,0-69.276-3.282-86.447-6.894-8.586-1.806-14.668-3.692-18.864-5.286-2.099-.797-3.726-1.521-4.963-2.127-1.238-.606-2.081-1.092-2.631-1.426l-1.145-.696-1.26.454c-18.267,6.576-27.839,11.531-33.013,15-2.587,1.739-4.082,3.11-5.001,4.193-.458.542-.772,1.015-.989,1.428-.216.412-.335.767-.392,1.051l2.747.557-1.237-2.515-127.553,62.703-.454.16-.143.051-.137.066c-3.294,1.582-6.462,3.294-9.553,5.138l.007-.004c-.02.012-6.186,3.666-13.848,8.621-3.831,2.478-8.036,5.28-12.041,8.123-4.007,2.844-7.809,5.722-10.869,8.39l1.843,2.112-1.642-2.271c-5.316,3.847-10.638,9.042-15.698,14.685-7.582,8.463-14.55,17.94-19.645,25.319-5.092,7.378-8.304,12.655-8.324,12.688l-.798,1.312.676,1.379c3.491,7.112,8.872,15.842,15.205,26.89,9.495,16.558,21.127,38.272,31.544,66.93,10.414,28.657,19.608,64.252,24.165,108.539l2.788-.287-2.803.012,2.803-.012Z" fill="#010101"/>
        <path d="M204.754,1165.858h-5.671c-.392,0-.71.318-.71.71s.318.709.71.709h5.671c.392,0,.709-.318.709-.709s-.318-.71-.709-.71ZM213.644,1165.858h-5.671c-.392,0-.71.318-.71.71s.318.709.71.709h5.671c.392,0,.709-.318.709-.709s-.318-.71-.709-.71ZM222.534,1165.858h-5.671c-.392,0-.71.318-.71.71s.318.709.71.709h5.671c.392,0,.709-.318.709-.709s-.318-.71-.709-.71ZM231.424,1165.858h-5.671c-.392,0-.71.318-.71.71s.318.709.71.709h5.671c.392,0,.709-.318.709-.709s-.318-.71-.709-.71ZM240.314,1165.858h-5.671c-.392,0-.71.318-.71.71s.318.709.71.709h5.671c.392,0,.709-.318.709-.709s-.318-.71-.709-.71ZM249.204,1165.858h-5.671c-.392,0-.709.318-.709.71s.318.709.709.709h5.671c.392,0,.709-.318.709-.709s-.318-.71-.709-.71ZM258.093,1165.858h-5.671c-.392,0-.71.318-.71.71s.318.709.71.709h5.671c.392,0,.709-.318.709-.709s-.318-.71-.709-.71ZM266.983,1165.858h-5.671c-.392,0-.71.318-.71.71s.318.709.71.709h5.671c.392,0,.709-.318.709-.709s-.318-.71-.709-.71ZM275.873,1165.858h-5.671c-.392,0-.71.318-.71.71s.318.709.71.709h5.671c.392,0,.709-.318.709-.709s-.318-.71-.709-.71ZM284.763,1165.858h-5.671c-.392,0-.71.318-.71.71s.318.709.71.709h5.671c.392,0,.709-.318.709-.709s-.318-.71-.709-.71ZM293.653,1165.858h-5.671c-.392,0-.71.318-.71.71s.318.709.71.709h5.671c.392,0,.709-.318.709-.709s-.318-.71-.709-.71ZM302.543,1165.858h-5.671c-.392,0-.71.318-.71.71s.318.709.71.709h5.671c.392,0,.709-.318.709-.709s-.318-.71-.709-.71ZM311.433,1165.858h-5.671c-.392,0-.71.318-.71.71s.318.709.71.709h5.671c.392,0,.709-.318.709-.709s-.318-.71-.709-.71ZM320.323,1165.858h-5.671c-.392,0-.71.318-.71.71s.318.709.71.709h5.671c.392,0,.709-.318.709-.709s-.318-.71-.709-.71ZM329.213,1165.858h-5.671c-.392,0-.71.318-.71.71s.318.709.71.709h5.671c.392,0,.709-.318.709-.709s-.318-.71-.709-.71ZM338.103,1165.858h-5.671c-.392,0-.71.318-.71.71s.318.709.71.709h5.671c.392,0,.709-.318.709-.709s-.318-.71-.709-.71ZM346.993,1165.858h-5.671c-.392,0-.709.318-.709.71s.318.709.709.709h5.671c.392,0,.709-.318.709-.709s-.318-.71-.709-.71ZM355.883,1165.858h-5.671c-.392,0-.71.318-.71.71s.318.709.71.709h5.671c.392,0,.709-.318.709-.709s-.318-.71-.709-.71ZM364.773,1165.858h-5.671c-.392,0-.71.318-.71.71s.318.709.71.709h5.671c.392,0,.709-.318.709-.709s-.318-.71-.709-.71ZM373.663,1165.858h-5.671c-.392,0-.71.318-.71.71s.318.709.71.709h5.671c.392,0,.709-.318.709-.709s-.318-.71-.709-.71ZM382.553,1165.858h-5.671c-.392,0-.71.318-.71.71s.318.709.71.709h5.671c.392,0,.709-.318.709-.709s-.318-.71-.709-.71ZM391.443,1165.858h-5.671c-.392,0-.71.318-.71.71s.318.709.71.709h5.671c.392,0,.709-.318.709-.709s-.318-.71-.709-.71ZM400.333,1165.858h-5.671c-.392,0-.71.318-.71.71s.318.709.71.709h5.671c.392,0,.709-.318.709-.709s-.318-.71-.709-.71ZM409.223,1165.858h-5.671c-.392,0-.71.318-.71.71s.318.709.71.709h5.671c.392,0,.709-.318.709-.709s-.318-.71-.709-.71ZM418.112,1165.858h-5.671c-.392,0-.71.318-.71.71s.318.709.71.709h5.671c.392,0,.709-.318.709-.709s-.318-.71-.709-.71ZM427.002,1165.858h-5.671c-.392,0-.71.318-.71.71s.318.709.71.709h5.671c.392,0,.709-.318.709-.709s-.318-.71-.709-.71ZM435.892,1165.858h-5.671c-.392,0-.71.318-.71.71s.318.709.71.709h5.671c.392,0,.709-.318.709-.709s-.318-.71-.709-.71ZM444.782,1165.858h-5.671c-.392,0-.71.318-.71.71s.318.709.71.709h5.671c.392,0,.709-.318.709-.709s-.318-.71-.709-.71ZM453.672,1165.858h-5.671c-.392,0-.71.318-.71.71s.318.709.71.709h5.671c.392,0,.709-.318.709-.709s-.318-.71-.709-.71ZM462.562,1165.858h-5.672c-.392,0-.71.318-.71.71s.318.709.71.709h5.672c.392,0,.709-.318.709-.709s-.318-.71-.709-.71ZM471.452,1165.858h-5.671c-.392,0-.71.318-.71.71s.318.709.71.709h5.671c.392,0,.709-.318.709-.709s-.318-.71-.709-.71ZM480.342,1165.858h-5.671c-.392,0-.71.318-.71.71s.318.709.71.709h5.671c.392,0,.709-.318.709-.709s-.318-.71-.709-.71ZM489.232,1165.858h-5.671c-.392,0-.71.318-.71.71s.318.709.71.709h5.671c.392,0,.709-.318.709-.709s-.318-.71-.709-.71ZM498.122,1165.858h-5.671c-.392,0-.71.318-.71.71s.318.709.71.709h5.671c.392,0,.709-.318.709-.709s-.318-.71-.709-.71ZM507.012,1165.858h-5.672c-.392,0-.71.318-.71.71s.318.709.71.709h5.672c.392,0,.709-.318.709-.709s-.318-.71-.709-.71ZM515.902,1165.858h-5.672c-.392,0-.71.318-.71.71s.318.709.71.709h5.672c.392,0,.709-.318.709-.709s-.318-.71-.709-.71ZM524.792,1165.858h-5.672c-.392,0-.709.318-.709.71s.318.709.709.709h5.672c.392,0,.709-.318.709-.709s-.318-.71-.709-.71ZM533.682,1165.858h-5.671c-.392,0-.71.318-.71.71s.318.709.71.709h5.671c.392,0,.709-.318.709-.709s-.318-.71-.709-.71ZM542.572,1165.858h-5.671c-.392,0-.71.318-.71.71s.318.709.71.709h5.671c.392,0,.709-.318.709-.709s-.318-.71-.709-.71ZM551.461,1165.858h-5.671c-.392,0-.71.318-.71.71s.318.709.71.709h5.671c.392,0,.709-.318.709-.709s-.318-.71-.709-.71ZM560.351,1165.858h-5.671c-.392,0-.71.318-.71.71s.318.709.71.709h5.671c.392,0,.709-.318.709-.709s-.318-.71-.709-.71ZM569.241,1165.858h-5.671c-.392,0-.71.318-.71.71s.318.709.71.709h5.671c.392,0,.709-.318.709-.709s-.318-.71-.709-.71ZM578.131,1165.858h-5.671c-.392,0-.71.318-.71.71s.318.709.71.709h5.671c.392,0,.709-.318.709-.709s-.318-.71-.709-.71ZM587.021,1165.858h-5.671c-.392,0-.71.318-.71.71s.318.709.71.709h5.671c.392,0,.709-.318.709-.709s-.318-.71-.709-.71ZM595.911,1165.858h-5.671c-.392,0-.71.318-.71.71s.318.709.71.709h5.671c.392,0,.709-.318.709-.709s-.318-.71-.709-.71ZM604.801,1165.858h-5.671c-.392,0-.71.318-.71.71s.318.709.71.709h5.671c.392,0,.709-.318.709-.709s-.318-.71-.709-.71ZM613.691,1165.858h-5.671c-.392,0-.71.318-.71.71s.318.709.71.709h5.671c.392,0,.709-.318.709-.709s-.318-.71-.709-.71ZM622.581,1165.858h-5.671c-.392,0-.709.318-.709.71s.318.709.709.709h5.671c.392,0,.709-.318.709-.709s-.318-.71-.709-.71ZM631.471,1165.858h-5.671c-.392,0-.71.318-.71.71s.318.709.71.709h5.671c.392,0,.709-.318.709-.709s-.318-.71-.709-.71ZM640.361,1165.858h-5.672c-.392,0-.71.318-.71.71s.318.709.71.709h5.672c.392,0,.709-.318.709-.709s-.318-.71-.709-.71ZM649.251,1165.858h-5.671c-.392,0-.71.318-.71.71s.318.709.71.709h5.671c.392,0,.709-.318.709-.709s-.318-.71-.709-.71ZM658.141,1165.858h-5.671c-.392,0-.71.318-.71.71s.318.709.71.709h5.671c.392,0,.709-.318.709-.709s-.318-.71-.709-.71ZM667.031,1165.858h-5.671c-.392,0-.71.318-.71.71s.318.709.71.709h5.671c.392,0,.709-.318.709-.709s-.318-.71-.709-.71ZM675.921,1165.858h-5.671c-.392,0-.71.318-.71.71s.318.709.71.709h5.671c.392,0,.709-.318.709-.709s-.318-.71-.709-.71ZM684.811,1165.858h-5.672c-.392,0-.71.318-.71.71s.318.709.71.709h5.672c.392,0,.709-.318.709-.709s-.318-.71-.709-.71ZM693.701,1165.858h-5.672c-.392,0-.71.318-.71.71s.318.709.71.709h5.672c.392,0,.709-.318.709-.709s-.318-.71-.709-.71ZM702.591,1165.858h-5.671c-.392,0-.71.318-.71.71s.318.709.71.709h5.671c.392,0,.709-.318.709-.709s-.318-.71-.709-.71ZM711.481,1165.858h-5.671c-.392,0-.71.318-.71.71s.318.709.71.709h5.671c.392,0,.709-.318.709-.709s-.318-.71-.709-.71ZM720.371,1165.858h-5.671c-.392,0-.71.318-.71.71s.318.709.71.709h5.671c.392,0,.709-.318.709-.709s-.318-.71-.709-.71ZM729.261,1165.858h-5.672c-.392,0-.709.318-.709.71s.318.709.709.709h5.672c.392,0,.709-.318.709-.709s-.318-.71-.709-.71ZM738.151,1165.858h-5.671c-.392,0-.71.318-.71.71s.318.709.71.709h5.671c.392,0,.709-.318.709-.709s-.318-.71-.709-.71ZM747.041,1165.858h-5.671c-.392,0-.709.318-.709.71s.318.709.709.709h5.671c.392,0,.709-.318.709-.709s-.318-.71-.709-.71ZM755.931,1165.858h-5.671c-.392,0-.71.318-.71.71s.318.709.71.709h5.671c.392,0,.709-.318.709-.709s-.318-.71-.709-.71ZM764.82,1165.858h-5.671c-.392,0-.71.318-.71.71s.318.709.71.709h5.671c.392,0,.709-.318.709-.709s-.318-.71-.709-.71ZM773.711,1165.858h-5.671c-.392,0-.71.318-.71.71s.318.709.71.709h5.671c.392,0,.709-.318.709-.709s-.318-.71-.709-.71ZM782.601,1165.858h-5.671c-.392,0-.71.318-.71.71s.318.709.71.709h5.671c.392,0,.709-.318.709-.709s-.318-.71-.709-.71ZM791.49,1165.858h-5.671c-.392,0-.71.318-.71.71s.318.709.71.709h5.671c.392,0,.709-.318.709-.709s-.318-.71-.709-.71ZM800.38,1165.858h-5.671c-.392,0-.71.318-.71.71s.318.709.71.709h5.671c.392,0,.709-.318.709-.709s-.318-.71-.709-.71ZM809.27,1165.858h-5.672c-.392,0-.71.318-.71.71s.318.709.71.709h5.672c.392,0,.709-.318.709-.709s-.318-.71-.709-.71ZM818.16,1165.858h-5.671c-.392,0-.71.318-.71.71s.318.709.71.709h5.671c.392,0,.709-.318.709-.709s-.318-.71-.709-.71ZM827.05,1165.858h-5.671c-.392,0-.71.318-.71.71s.318.709.71.709h5.671c.392,0,.709-.318.709-.709s-.318-.71-.709-.71ZM835.94,1165.858h-5.671c-.392,0-.71.318-.71.71s.318.709.71.709h5.671c.392,0,.709-.318.709-.709s-.318-.71-.709-.71Z" fill="#010101"/>
        <path d="M203.537,1157.003h-5.671c-.392,0-.71.318-.71.71s.318.709.71.709h5.671c.392,0,.709-.318.709-.709s-.318-.71-.709-.71ZM212.427,1157.003h-5.671c-.392,0-.709.318-.709.71s.318.709.709.709h5.671c.392,0,.709-.318.709-.709s-.318-.71-.709-.71ZM221.317,1157.003h-5.671c-.392,0-.71.318-.71.71s.318.709.71.709h5.671c.392,0,.709-.318.709-.709s-.318-.71-.709-.71ZM230.207,1157.003h-5.671c-.392,0-.71.318-.71.71s.318.709.71.709h5.671c.392,0,.709-.318.709-.709s-.318-.71-.709-.71ZM239.097,1157.003h-5.671c-.392,0-.71.318-.71.71s.318.709.71.709h5.671c.392,0,.709-.318.709-.709s-.318-.71-.709-.71ZM247.987,1157.003h-5.671c-.392,0-.71.318-.71.71s.318.709.71.709h5.671c.392,0,.709-.318.709-.709s-.318-.71-.709-.71ZM256.877,1157.003h-5.671c-.392,0-.71.318-.71.71s.318.709.71.709h5.671c.392,0,.709-.318.709-.709s-.318-.71-.709-.71ZM265.767,1157.003h-5.671c-.392,0-.71.318-.71.71s.318.709.71.709h5.671c.392,0,.709-.318.709-.709s-.318-.71-.709-.71ZM274.657,1157.003h-5.671c-.392,0-.71.318-.71.71s.318.709.71.709h5.671c.392,0,.709-.318.709-.709s-.318-.71-.709-.71ZM283.547,1157.003h-5.671c-.392,0-.71.318-.71.71s.318.709.71.709h5.671c.392,0,.709-.318.709-.709s-.318-.71-.709-.71ZM292.437,1157.003h-5.671c-.392,0-.71.318-.71.71s.318.709.71.709h5.671c.392,0,.709-.318.709-.709s-.318-.71-.709-.71ZM301.327,1157.003h-5.671c-.392,0-.71.318-.71.71s.318.709.71.709h5.671c.392,0,.709-.318.709-.709s-.318-.71-.709-.71ZM310.217,1157.003h-5.671c-.392,0-.71.318-.71.71s.318.709.71.709h5.671c.392,0,.709-.318.709-.709s-.318-.71-.709-.71ZM319.107,1157.003h-5.672c-.392,0-.71.318-.71.71s.318.709.71.709h5.672c.392,0,.709-.318.709-.709s-.318-.71-.709-.71ZM327.997,1157.003h-5.671c-.392,0-.71.318-.71.71s.318.709.71.709h5.671c.392,0,.709-.318.709-.709s-.318-.71-.709-.71ZM336.886,1157.003h-5.671c-.392,0-.71.318-.71.71s.318.709.71.709h5.671c.392,0,.709-.318.709-.709s-.318-.71-.709-.71ZM345.776,1157.003h-5.671c-.392,0-.71.318-.71.71s.318.709.71.709h5.671c.392,0,.709-.318.709-.709s-.318-.71-.709-.71ZM354.666,1157.003h-5.671c-.392,0-.71.318-.71.71s.318.709.71.709h5.671c.392,0,.709-.318.709-.709s-.318-.71-.709-.71ZM363.556,1157.003h-5.671c-.392,0-.71.318-.71.71s.318.709.71.709h5.671c.392,0,.709-.318.709-.709s-.318-.71-.709-.71ZM372.446,1157.003h-5.671c-.392,0-.71.318-.71.71s.318.709.71.709h5.671c.392,0,.709-.318.709-.709s-.318-.71-.709-.71ZM381.336,1157.003h-5.672c-.392,0-.71.318-.71.71s.318.709.71.709h5.672c.392,0,.709-.318.709-.709s-.318-.71-.709-.71ZM390.226,1157.003h-5.671c-.392,0-.71.318-.71.71s.318.709.71.709h5.671c.392,0,.709-.318.709-.709s-.318-.71-.709-.71ZM399.116,1157.003h-5.671c-.392,0-.71.318-.71.71s.318.709.71.709h5.671c.392,0,.709-.318.709-.709s-.318-.71-.709-.71ZM408.006,1157.003h-5.671c-.392,0-.71.318-.71.71s.318.709.71.709h5.671c.392,0,.709-.318.709-.709s-.318-.71-.709-.71ZM416.896,1157.003h-5.671c-.392,0-.71.318-.71.71s.318.709.71.709h5.671c.392,0,.709-.318.709-.709s-.318-.71-.709-.71ZM425.786,1157.003h-5.671c-.392,0-.71.318-.71.71s.318.709.71.709h5.671c.392,0,.709-.318.709-.709s-.318-.71-.709-.71ZM434.676,1157.003h-5.671c-.392,0-.71.318-.71.71s.318.709.71.709h5.671c.392,0,.709-.318.709-.709s-.318-.71-.709-.71ZM443.566,1157.003h-5.672c-.392,0-.71.318-.71.71s.318.709.71.709h5.672c.392,0,.709-.318.709-.709s-.318-.71-.709-.71ZM452.456,1157.003h-5.671c-.392,0-.71.318-.71.71s.318.709.71.709h5.671c.392,0,.709-.318.709-.709s-.318-.71-.709-.71ZM461.346,1157.003h-5.671c-.392,0-.71.318-.71.71s.318.709.71.709h5.671c.392,0,.709-.318.709-.709s-.318-.71-.709-.71ZM470.235,1157.003h-5.671c-.392,0-.71.318-.71.71s.318.709.71.709h5.671c.392,0,.709-.318.709-.709s-.318-.71-.709-.71ZM479.125,1157.003h-5.671c-.392,0-.71.318-.71.71s.318.709.71.709h5.671c.392,0,.709-.318.709-.709s-.318-.71-.709-.71ZM488.015,1157.003h-5.671c-.392,0-.71.318-.71.71s.318.709.71.709h5.671c.392,0,.709-.318.709-.709s-.318-.71-.709-.71ZM496.905,1157.003h-5.671c-.392,0-.71.318-.71.71s.318.709.71.709h5.671c.392,0,.709-.318.709-.709s-.318-.71-.709-.71ZM505.795,1157.003h-5.671c-.392,0-.71.318-.71.71s.318.709.71.709h5.671c.392,0,.709-.318.709-.709s-.318-.71-.709-.71ZM514.685,1157.003h-5.671c-.392,0-.71.318-.71.71s.318.709.71.709h5.671c.392,0,.709-.318.709-.709s-.318-.71-.709-.71ZM523.575,1157.003h-5.671c-.392,0-.71.318-.71.71s.318.709.71.709h5.671c.392,0,.709-.318.709-.709s-.318-.71-.709-.71ZM532.465,1157.003h-5.671c-.392,0-.71.318-.71.71s.318.709.71.709h5.671c.392,0,.709-.318.709-.709s-.318-.71-.709-.71ZM541.355,1157.003h-5.671c-.392,0-.71.318-.71.71s.318.709.71.709h5.671c.392,0,.709-.318.709-.709s-.318-.71-.709-.71ZM550.245,1157.003h-5.671c-.392,0-.71.318-.71.71s.318.709.71.709h5.671c.392,0,.709-.318.709-.709s-.318-.71-.709-.71ZM559.135,1157.003h-5.671c-.392,0-.71.318-.71.71s.318.709.71.709h5.671c.392,0,.709-.318.709-.709s-.318-.71-.709-.71ZM568.025,1157.003h-5.671c-.392,0-.71.318-.71.71s.318.709.71.709h5.671c.392,0,.709-.318.709-.709s-.318-.71-.709-.71ZM576.915,1157.003h-5.671c-.392,0-.71.318-.71.71s.318.709.71.709h5.671c.392,0,.709-.318.709-.709s-.318-.71-.709-.71ZM585.805,1157.003h-5.671c-.392,0-.71.318-.71.71s.318.709.71.709h5.671c.392,0,.709-.318.709-.709s-.318-.71-.709-.71ZM594.695,1157.003h-5.672c-.392,0-.71.318-.71.71s.318.709.71.709h5.672c.392,0,.709-.318.709-.709s-.318-.71-.709-.71ZM603.585,1157.003h-5.672c-.392,0-.71.318-.71.71s.318.709.71.709h5.672c.392,0,.709-.318.709-.709s-.318-.71-.709-.71ZM612.475,1157.003h-5.671c-.392,0-.71.318-.71.71s.318.709.71.709h5.671c.392,0,.709-.318.709-.709s-.318-.71-.709-.71ZM621.365,1157.003h-5.671c-.392,0-.71.318-.71.71s.318.709.71.709h5.671c.392,0,.709-.318.709-.709s-.318-.71-.709-.71ZM630.255,1157.003h-5.671c-.392,0-.71.318-.71.71s.318.709.71.709h5.671c.392,0,.709-.318.709-.709s-.318-.71-.709-.71ZM639.145,1157.003h-5.671c-.392,0-.71.318-.71.71s.318.709.71.709h5.671c.392,0,.709-.318.709-.709s-.318-.71-.709-.71ZM648.034,1157.003h-5.671c-.392,0-.71.318-.71.71s.318.709.71.709h5.671c.392,0,.709-.318.709-.709s-.318-.71-.709-.71ZM656.924,1157.003h-5.672c-.392,0-.71.318-.71.71s.318.709.71.709h5.672c.392,0,.709-.318.709-.709s-.318-.71-.709-.71ZM665.814,1157.003h-5.671c-.392,0-.71.318-.71.71s.318.709.71.709h5.671c.392,0,.709-.318.709-.709s-.318-.71-.709-.71ZM674.704,1157.003h-5.671c-.392,0-.71.318-.71.71s.318.709.71.709h5.671c.392,0,.709-.318.709-.709s-.318-.71-.709-.71ZM683.594,1157.003h-5.671c-.392,0-.71.318-.71.71s.318.709.71.709h5.671c.392,0,.709-.318.709-.709s-.318-.71-.709-.71ZM692.484,1157.003h-5.671c-.392,0-.71.318-.71.71s.318.709.71.709h5.671c.392,0,.709-.318.709-.709s-.318-.71-.709-.71ZM701.374,1157.003h-5.671c-.392,0-.71.318-.71.71s.318.709.71.709h5.671c.392,0,.709-.318.709-.709s-.318-.71-.709-.71ZM710.264,1157.003h-5.671c-.392,0-.71.318-.71.71s.318.709.71.709h5.671c.392,0,.709-.318.709-.709s-.318-.71-.709-.71ZM719.154,1157.003h-5.671c-.392,0-.71.318-.71.71s.318.709.71.709h5.671c.392,0,.709-.318.709-.709s-.318-.71-.709-.71ZM728.044,1157.003h-5.671c-.392,0-.71.318-.71.71s.318.709.71.709h5.671c.392,0,.709-.318.709-.709s-.318-.71-.709-.71ZM736.934,1157.003h-5.671c-.392,0-.71.318-.71.71s.318.709.71.709h5.671c.392,0,.709-.318.709-.709s-.318-.71-.709-.71ZM745.824,1157.003h-5.671c-.392,0-.71.318-.71.71s.318.709.71.709h5.671c.392,0,.709-.318.709-.709s-.318-.71-.709-.71ZM754.714,1157.003h-5.671c-.392,0-.71.318-.71.71s.318.709.71.709h5.671c.392,0,.709-.318.709-.709s-.318-.71-.709-.71ZM763.604,1157.003h-5.671c-.392,0-.71.318-.71.71s.318.709.71.709h5.671c.392,0,.709-.318.709-.709s-.318-.71-.709-.71ZM772.494,1157.003h-5.672c-.392,0-.709.318-.709.71s.318.709.709.709h5.672c.392,0,.709-.318.709-.709s-.318-.71-.709-.71ZM781.384,1157.003h-5.671c-.392,0-.71.318-.71.71s.318.709.71.709h5.671c.392,0,.709-.318.709-.709s-.318-.71-.709-.71ZM790.274,1157.003h-5.671c-.392,0-.71.318-.71.71s.318.709.71.709h5.671c.392,0,.709-.318.709-.709s-.318-.71-.709-.71ZM799.164,1157.003h-5.671c-.392,0-.71.318-.71.71s.318.709.71.709h5.671c.392,0,.709-.318.709-.709s-.318-.71-.709-.71ZM808.053,1157.003h-5.671c-.392,0-.71.318-.71.71s.318.709.71.709h5.671c.392,0,.709-.318.709-.709s-.318-.71-.709-.71ZM816.943,1157.003h-5.671c-.392,0-.71.318-.71.71s.318.709.71.709h5.671c.392,0,.709-.318.709-.709s-.318-.71-.709-.71ZM825.833,1157.003h-5.671c-.392,0-.71.318-.71.71s.318.709.71.709h5.671c.392,0,.709-.318.709-.709s-.318-.71-.709-.71ZM834.724,1157.003h-5.672c-.392,0-.71.318-.71.71s.318.709.71.709h5.672c.392,0,.709-.318.709-.709s-.318-.71-.709-.71Z" fill="#010101"/>
      </g>
      <g>
        <path d="M832.949,535.768c-.557-20.965-1.584-55.115-1.99-102.614-.066-7.402-1.774-31.484-1.643-60.152,9.019-118.032,72.305-203.281,72.305-203.281,20.198,41.664,23.723,46.995,40.871,93.058,10.674,28.685,21.708,50.757,31.416,78.101,12.442,35.041,29.239,83.02,48.811,141.003l.363,1.813c-30.153,8.495-99.422,36.511-189.709,52.064l-.425.009Z" fill="#fff"/>
        <path d="M832.949,535.768l2.802-.074c-.558-20.972-1.583-55.091-1.989-102.564h0c-.017-1.868-.13-4.622-.287-8.179-.474-10.652-1.363-28.42-1.364-48.793,0-1.042.002-2.089.008-3.142l-2.802-.015,2.794.214c4.473-58.568,22.43-109.08,39.277-144.924,8.422-17.922,16.563-32.175,22.589-41.934,3.013-4.879,5.497-8.635,7.223-11.164.863-1.264,1.536-2.222,1.991-2.86.227-.319.4-.558.515-.716.057-.079.1-.137.128-.175l.03-.041.008-.01-2.25-1.671-2.522,1.223c10.108,20.85,16.033,32.589,21.547,44.809,2.758,6.113,5.42,12.357,8.465,19.955,3.045,7.597,6.473,16.546,10.755,28.05,5.365,14.418,10.813,27.154,16.116,39.669,5.304,12.517,10.464,24.812,15.285,38.392,12.438,35.03,29.23,82.995,48.797,140.962l2.655-.896-2.748.551.363,1.813,2.748-.551-.76-2.698c-7.651,2.157-17.648,5.507-29.796,9.572-18.215,6.096-41.246,13.795-68.166,21.425-26.919,7.63-57.725,15.191-91.463,21.003l.476,2.762-.058-2.802-.425.009.058,2.802,2.802-.074-2.802.074.058,2.802.425-.009.21-.004.208-.036c45.302-7.804,85.311-18.73,117.756-28.763,16.222-5.016,30.554-9.809,42.7-13.873,12.142-4.064,22.111-7.401,29.537-9.492l2.498-.704-.908-4.532-.058-.171c-19.578-57.999-36.38-105.993-48.826-141.044-4.887-13.764-10.098-26.177-15.406-38.703-5.309-12.528-10.716-25.171-16.024-39.437-8.582-23.053-13.779-35.977-19.364-48.354-5.586-12.377-11.522-24.136-21.612-44.949l-2.017-4.16-2.755,3.712c-.082.112-16.002,21.568-33.056,57.857-17.051,36.288-35.246,87.417-39.792,146.881l-.008.098v.1c-.006,1.065-.008,2.123-.008,3.172,0,13.688.398,26.193.804,36.164.203,4.985.408,9.336.565,12.878.158,3.538.268,6.281.282,7.979h0c.406,47.526,1.433,81.706,1.99,102.664l.074,2.785,2.786-.058-.058-2.802Z" fill="#010101"/>
        <path d="M838.065,512.604c-1.661.298-3.331.591-5.01.88-.386.067-.645.433-.579.82.067.386.433.645.82.579,1.682-.29,3.355-.584,5.02-.882.385-.069.642-.438.573-.824-.069-.386-.438-.642-.823-.573h0ZM846.798,510.986c-1.844.353-3.701.701-5.569,1.044-.386.071-.641.441-.57.826.071.385.441.64.826.57,1.872-.344,3.732-.692,5.579-1.046.385-.074.637-.445.564-.83-.074-.385-.445-.637-.83-.564h0ZM855.512,509.266c-1.84.374-3.692.744-5.557,1.109-.385.075-.636.448-.56.832.075.385.448.635.832.56,1.868-.366,3.724-.736,5.567-1.111.384-.078.632-.453.554-.837-.078-.384-.453-.632-.837-.554h0ZM864.206,507.446c-1.835.395-3.683.786-5.544,1.173-.384.08-.63.455-.551.839.08.384.455.63.839.55,1.865-.387,3.716-.779,5.554-1.175.383-.083.627-.46.544-.843-.082-.383-.46-.627-.843-.544h0ZM872.878,505.526c-1.83.416-3.673.828-5.53,1.236-.383.084-.625.463-.541.845.084.383.463.625.845.541,1.86-.409,3.707-.822,5.54-1.238.382-.087.621-.467.535-.849-.087-.382-.467-.621-.849-.535h0ZM881.528,503.509c-1.824.436-3.663.869-5.516,1.298-.382.088-.62.47-.531.851.088.382.47.619.851.531,1.856-.43,3.698-.864,5.526-1.301.381-.091.616-.474.525-.855-.091-.381-.474-.616-.855-.525h0ZM890.156,501.395c-1.819.456-3.652.909-5.501,1.359-.381.093-.614.476-.522.857.093.381.476.614.857.521,1.852-.451,3.689-.905,5.511-1.362.38-.095.611-.481.515-.861-.095-.38-.481-.611-.861-.516h0ZM898.76,499.188c-1.813.475-3.641.949-5.486,1.419-.38.097-.609.483-.512.863.097.38.483.609.863.512,1.848-.471,3.68-.945,5.496-1.421.379-.099.606-.487.506-.866-.099-.379-.487-.606-.866-.506h0ZM907.34,496.888c-1.807.494-3.63.987-5.471,1.477-.379.101-.604.49-.503.868.101.379.49.604.868.503,1.844-.491,3.671-.985,5.48-1.48.378-.103.6-.494.497-.871-.104-.378-.494-.601-.871-.497h0ZM915.896,494.5c-1.8.512-3.619,1.024-5.456,1.534-.378.105-.599.496-.494.873.105.378.496.599.873.494,1.84-.511,3.661-1.023,5.465-1.537.377-.107.595-.5.488-.877-.107-.377-.5-.595-.877-.488h0ZM924.428,492.025c-1.794.53-3.607,1.06-5.44,1.589-.377.109-.594.502-.485.878.109.377.502.594.878.485,1.836-.53,3.653-1.061,5.449-1.591.376-.111.59-.506.479-.882-.111-.376-.506-.59-.882-.479h0ZM932.936,489.467c-1.787.547-3.595,1.094-5.425,1.641-.376.112-.589.507-.477.883.112.375.508.589.883.476,1.833-.548,3.644-1.096,5.433-1.644.374-.115.585-.511.471-.886-.115-.375-.511-.586-.886-.471h0ZM941.42,486.83c-1.781.562-3.584,1.126-5.41,1.691-.375.116-.584.513-.468.887.116.374.513.584.887.468,1.829-.566,3.635-1.131,5.418-1.693.374-.118.581-.517.463-.89-.118-.374-.517-.581-.89-.463h0ZM949.882,484.119c-1.774.576-3.572,1.156-5.396,1.738-.373.119-.579.518-.46.892.119.373.518.579.892.46,1.826-.583,3.627-1.163,5.403-1.74.372-.121.577-.521.455-.894-.121-.373-.521-.577-.894-.456h0ZM958.322,481.341c-1.766.589-3.561,1.182-5.383,1.78-.372.122-.575.523-.453.895.122.372.523.575.895.453,1.824-.598,3.62-1.193,5.388-1.782.372-.124.572-.526.449-.897-.124-.372-.526-.573-.897-.449h0ZM966.744,478.503c-1.759.599-3.55,1.205-5.371,1.817-.371.125-.571.527-.447.899.125.371.527.571.899.446,1.823-.613,3.615-1.219,5.376-1.818.371-.126.569-.529.443-.9-.126-.371-.529-.569-.9-.443h0ZM975.15,475.617c-1.752.606-3.539,1.222-5.361,1.846-.371.127-.568.53-.441.901.127.371.53.568.901.441,1.824-.625,3.612-1.241,5.366-1.848.37-.128.567-.532.438-.902-.128-.37-.532-.567-.902-.438h0ZM983.547,472.698c-1.745.609-3.53,1.231-5.356,1.865-.37.128-.566.533-.438.903.128.37.533.566.903.438,1.827-.634,3.613-1.257,5.358-1.866.37-.129.565-.534.436-.904-.129-.37-.533-.565-.903-.436h0ZM991.943,469.768c-1.738.605-3.524,1.229-5.357,1.869-.37.129-.565.534-.436.904.129.37.534.565.904.436h0c1.833-.64,3.618-1.264,5.356-1.869.37-.129.565-.533.436-.903-.129-.37-.533-.565-.903-.437h0ZM1000.352,466.862c-1.731.591-3.52,1.208-5.367,1.848-.37.128-.566.533-.438.903.128.37.532.566.903.438,1.845-.64,3.633-1.256,5.361-1.846.371-.127.569-.53.442-.901-.127-.371-.53-.569-.901-.442h0ZM1008.797,464.044c-1.723.557-3.521,1.153-5.394,1.784-.372.125-.571.528-.446.899.125.371.527.571.899.446,1.869-.629,3.662-1.223,5.378-1.779.373-.121.577-.52.457-.893-.12-.373-.52-.577-.893-.457h0ZM1017.327,461.437c-1.712.483-3.531,1.027-5.455,1.628-.374.117-.583.515-.466.889.117.374.515.582.889.466,1.914-.598,3.72-1.139,5.417-1.617.377-.106.597-.498.49-.875-.106-.377-.498-.597-.875-.491h0Z" fill="#010101"/>
        <path d="M840.999,505.758c-1.846.331-3.706.659-5.581.982-.386.067-.645.434-.579.82.067.386.434.645.82.578,1.878-.324,3.741-.652,5.59-.984.386-.069.642-.438.573-.824-.069-.386-.438-.642-.823-.573h0ZM849.733,504.143c-1.841.351-3.698.698-5.57,1.041-.386.071-.641.44-.57.826.071.385.44.641.826.57,1.875-.344,3.735-.692,5.579-1.043.385-.073.638-.445.564-.83-.073-.385-.445-.638-.83-.564h0ZM858.449,502.435c-1.837.37-3.69.737-5.558,1.1-.385.075-.636.447-.561.832.075.385.447.636.832.561,1.872-.364,3.728-.731,5.568-1.102.384-.078.632-.452.555-.836-.078-.384-.452-.633-.836-.555h0ZM867.146,500.634c-1.832.39-3.681.777-5.546,1.16-.384.079-.631.454-.552.838.079.384.454.631.838.552,1.868-.384,3.72-.772,5.556-1.162.383-.082.628-.458.546-.842-.081-.383-.458-.628-.841-.546h0ZM875.823,498.739c-1.827.409-3.672.816-5.533,1.22-.383.083-.626.461-.543.844.083.383.461.626.844.543,1.865-.404,3.712-.812,5.543-1.222.382-.086.623-.465.537-.847-.086-.382-.465-.623-.847-.537h0ZM884.48,496.75c-1.822.429-3.662.856-5.52,1.28-.382.087-.621.468-.534.85.087.382.468.621.85.534,1.861-.425,3.704-.852,5.529-1.282.381-.09.618-.472.528-.853-.09-.381-.472-.618-.853-.528h0ZM893.114,494.667c-1.816.449-3.651.895-5.506,1.34-.381.091-.616.474-.525.855.091.381.474.616.855.525,1.857-.445,3.696-.893,5.515-1.342.38-.094.612-.478.518-.859-.094-.38-.478-.613-.859-.519h0ZM901.725,492.49c-1.81.468-3.64.934-5.491,1.399-.38.095-.611.481-.515.861.095.38.481.611.861.515,1.853-.465,3.687-.933,5.5-1.402.379-.098.607-.485.509-.865-.098-.379-.485-.607-.864-.509h0ZM910.312,490.221c-1.804.487-3.629.973-5.476,1.458-.379.1-.606.487-.506.866.099.379.487.606.866.506,1.85-.486,3.678-.973,5.485-1.461.378-.102.602-.492.5-.87-.102-.378-.492-.602-.87-.5h0ZM918.875,487.861c-1.798.506-3.617,1.011-5.46,1.516-.378.104-.6.494-.497.872.104.378.494.6.872.497,1.846-.506,3.669-1.012,5.469-1.519.377-.106.597-.498.491-.875-.106-.377-.498-.597-.875-.491h0ZM927.413,485.411c-1.791.524-3.605,1.048-5.444,1.573-.377.108-.595.5-.488.877.108.377.5.595.877.487,1.842-.526,3.659-1.051,5.453-1.576.376-.11.592-.504.482-.88-.11-.376-.504-.592-.88-.482h0ZM935.926,482.874c-1.784.541-3.593,1.084-5.428,1.628-.376.111-.59.506-.479.882.111.376.506.59.882.479,1.838-.545,3.65-1.089,5.437-1.631.375-.114.586-.51.473-.885-.114-.375-.51-.587-.885-.473h0ZM944.414,480.254c-1.777.558-3.581,1.118-5.412,1.681-.375.115-.585.512-.47.887.115.375.512.585.887.47,1.834-.564,3.641-1.125,5.42-1.683.374-.117.582-.516.464-.89-.117-.374-.515-.582-.889-.464h0ZM952.878,477.557c-1.769.572-3.568,1.149-5.397,1.729-.374.119-.58.517-.462.891.118.374.517.58.891.462,1.832-.581,3.633-1.159,5.405-1.732.373-.121.577-.521.457-.893-.12-.373-.52-.577-.893-.457h0ZM961.32,474.789c-1.762.585-3.556,1.176-5.383,1.773-.373.122-.576.522-.454.895.122.372.522.576.895.454,1.829-.598,3.626-1.19,5.39-1.775.372-.123.573-.525.45-.897-.124-.372-.525-.573-.897-.45h0ZM969.744,471.963c-1.755.595-3.545,1.198-5.372,1.81-.372.124-.572.526-.448.898.124.372.526.572.898.448,1.829-.612,3.621-1.216,5.377-1.811.371-.126.57-.528.444-.9-.126-.371-.528-.57-.9-.444h0ZM978.155,469.092c-1.748.6-3.536,1.212-5.365,1.835-.371.126-.569.529-.443.9.126.371.529.569.901.443h0c1.83-.624,3.619-1.236,5.367-1.836.37-.127.568-.531.441-.901-.127-.371-.531-.568-.901-.441h0ZM986.562,466.202c-1.741.598-3.529,1.214-5.363,1.845-.371.127-.568.531-.44.902.127.371.531.568.902.44,1.835-.631,3.622-1.246,5.363-1.844.37-.127.568-.531.44-.901-.127-.371-.531-.568-.901-.441h0ZM994.979,463.33c-1.736.586-3.527,1.196-5.372,1.828-.371.127-.568.53-.441.901.127.371.53.568.901.441,1.844-.631,3.632-1.241,5.366-1.826.371-.125.571-.528.445-.899-.125-.371-.528-.571-.899-.446h0ZM1003.431,460.539c-1.733.555-3.532,1.145-5.398,1.766-.372.124-.573.526-.449.897.124.372.526.573.898.449,1.861-.62,3.655-1.208,5.382-1.761.373-.12.579-.519.459-.892-.12-.373-.519-.579-.892-.459h0ZM1011.961,457.949c-1.733.488-3.55,1.03-5.454,1.619-.375.116-.584.513-.468.888.116.374.513.584.888.468,1.894-.587,3.7-1.125,5.419-1.609.377-.106.597-.498.491-.875-.106-.377-.498-.597-.875-.491h0Z" fill="#010101"/>
      </g>
      <g>
        <path d="M194.828,535.428c.558-20.965,1.717-55.482,2.129-102.982.064-7.401.186-31.402.059-60.081-10.183-117.675-72.3-203.278-72.3-203.278-20.198,41.663-23.724,46.997-40.871,93.064-10.674,28.683-21.712,50.754-31.421,78.098-12.437,35.032-29.24,83.016-48.811,141.007l-.359,1.808c30.149,8.492,100.857,36.801,191.146,52.354l.429.009Z" fill="#fff"/>
        <path d="M194.828,535.428l2.802.074c.557-20.948,1.718-55.501,2.13-103.032h0c.043-5.074.114-17.904.114-34.69,0-7.757-.015-16.358-.055-25.427v-.119s-.01-.11-.01-.11c-5.132-59.269-23.321-110.384-40.22-146.708-16.903-36.325-32.526-57.865-32.604-57.975l-2.749-3.788-2.041,4.212c-10.09,20.813-16.027,32.572-21.612,44.95-2.791,6.186-5.489,12.516-8.559,20.177-3.07,7.661-6.513,16.652-10.805,28.182-5.308,14.265-10.716,26.908-16.026,39.435-5.309,12.526-10.522,24.939-15.409,38.703-12.441,35.043-29.249,83.041-48.826,141.049l-.058.172-.899,4.528,2.494.702c7.426,2.091,17.486,5.446,29.763,9.537,18.422,6.137,41.857,13.933,69.172,21.655,27.316,7.722,58.516,15.373,92.495,21.226l.208.036,3.424.069.074-2.784-2.802-.074.056-2.802-.428-.009-.056,2.802.475-2.762c-44.985-7.749-85.116-18.68-117.776-28.741-16.33-5.03-30.793-9.843-43.071-13.934-12.282-4.091-22.366-7.459-30.015-9.614l-.76,2.698,2.749.546.359-1.808-2.749-.546,2.655.896c19.566-57.975,36.363-105.944,48.797-140.966,4.821-13.58,9.982-25.875,15.288-38.391,5.304-12.515,10.753-25.25,16.119-39.668,4.282-11.504,7.71-20.454,10.755-28.052,4.568-11.398,8.271-19.749,12.736-29.182,4.465-9.432,9.695-19.949,17.276-35.585l-2.522-1.223-2.268,1.646.008.011c.4.552,15.853,22.039,32.443,57.881,16.593,35.842,34.314,86.033,39.326,143.983l2.792-.242-2.803.012c.039,9.06.055,17.653.055,25.403,0,16.769-.071,29.591-.114,34.641h0c-.412,47.468-1.57,81.95-2.128,102.931l2.802.075.056-2.802-.056,2.802Z" fill="#010101"/>
        <path d="M189.111,511.348c1.663.298,3.335.592,5.015.881.386.067.753-.192.82-.578.067-.386-.193-.753-.578-.82-1.678-.289-3.347-.582-5.007-.88-.386-.069-.754.187-.824.573-.069.386.188.754.573.823h0ZM180.361,509.727c1.848.354,3.708.702,5.579,1.046.385.071.755-.184.826-.57.071-.385-.184-.755-.569-.826-1.868-.343-3.725-.691-5.569-1.044-.385-.074-.757.179-.83.563-.074.385.179.757.564.83h0ZM171.631,508.004c1.843.375,3.699.745,5.567,1.111.384.075.757-.175.833-.56.075-.384-.175-.757-.56-.833-1.865-.365-3.717-.735-5.557-1.109-.384-.078-.759.17-.837.554-.078.384.17.759.554.837h0ZM162.922,506.18c1.838.396,3.69.788,5.554,1.175.384.08.759-.167.839-.55.08-.384-.167-.759-.55-.839-1.861-.387-3.709-.778-5.543-1.173-.383-.083-.761.161-.843.544-.083.383.161.761.544.843h0ZM154.234,504.257c1.833.417,3.68.83,5.54,1.238.382.084.761-.158.845-.541.084-.383-.158-.761-.541-.845-1.857-.408-3.7-.82-5.53-1.236-.382-.087-.763.152-.849.534-.087.382.152.762.535.849h0ZM145.568,502.236c1.827.437,3.669.871,5.526,1.301.382.088.763-.149.851-.531.089-.382-.149-.763-.531-.851-1.853-.429-3.692-.862-5.516-1.298-.381-.091-.764.144-.855.525-.091.381.144.764.525.855h0ZM136.926,500.118c1.822.457,3.659.911,5.511,1.362.381.093.764-.141.857-.522.093-.381-.141-.764-.522-.857-1.849-.45-3.683-.903-5.501-1.359-.38-.095-.766.135-.861.515-.095.38.136.766.516.861h0ZM128.307,497.907c1.816.476,3.648.95,5.496,1.422.379.097.766-.132.863-.512.097-.38-.133-.766-.512-.863-1.845-.47-3.674-.944-5.487-1.419-.379-.099-.767.127-.866.506-.1.379.127.767.506.866h0ZM119.712,495.604c1.81.495,3.636.988,5.48,1.48.379.101.767-.124.868-.503.101-.379-.124-.767-.503-.868-1.841-.49-3.665-.983-5.471-1.477-.378-.103-.768.119-.872.497-.103.378.119.768.497.872h0ZM111.142,493.211c1.803.513,3.625,1.026,5.465,1.537.377.105.768-.116.873-.494.105-.377-.116-.769-.494-.873-1.837-.51-3.655-1.022-5.456-1.534-.377-.107-.769.111-.876.488-.107.377.111.769.488.876h0ZM102.596,490.732c1.797.531,3.613,1.061,5.449,1.591.376.109.77-.108.878-.485.109-.376-.108-.77-.485-.878-1.833-.529-3.647-1.059-5.44-1.589-.376-.111-.77.104-.882.479-.111.376.104.77.48.881h0ZM94.075,488.17c1.79.547,3.601,1.095,5.433,1.644.375.112.771-.101.883-.476.112-.375-.101-.771-.476-.883-1.83-.547-3.638-1.095-5.425-1.641-.375-.114-.771.096-.886.471-.114.375.097.771.471.886h0ZM85.579,485.53c1.783.563,3.589,1.127,5.418,1.694.374.116.772-.094.888-.468.116-.374-.094-.772-.468-.888-1.826-.565-3.63-1.129-5.41-1.691-.374-.118-.772.089-.89.463-.118.374.089.772.463.89h0ZM77.106,482.815c1.776.577,3.577,1.157,5.403,1.74.373.119.772-.087.891-.46.119-.373-.087-.772-.46-.891-1.823-.582-3.622-1.161-5.395-1.738-.373-.121-.773.083-.894.456-.121.373.083.773.456.894h0ZM68.656,480.034c1.768.589,3.564,1.184,5.389,1.782.372.122.773-.081.895-.453.122-.372-.081-.773-.453-.895-1.822-.598-3.616-1.191-5.382-1.78-.372-.124-.774.077-.898.449-.124.372.077.774.449.898h0ZM60.225,477.193c1.761.6,3.553,1.206,5.376,1.818.371.125.774-.075.898-.446.125-.371-.075-.774-.446-.899-1.821-.612-3.611-1.218-5.371-1.817-.371-.126-.774.072-.9.443-.126.371.072.774.443.9h0ZM51.812,474.305c1.753.606,3.542,1.223,5.366,1.847.371.127.774-.07.901-.441.127-.371-.07-.774-.441-.901h0c-1.822-.624-3.609-1.24-5.362-1.846-.37-.128-.775.068-.903.439-.128.37.068.774.439.902h0ZM43.412,471.384c1.745.609,3.531,1.232,5.358,1.866.37.128.774-.067.903-.438.128-.37-.068-.774-.437-.903h0c-1.826-.634-3.611-1.256-5.356-1.865-.37-.129-.775.066-.904.436-.129.37.066.775.436.904h0ZM35.017,468.455c1.737.605,3.523,1.229,5.356,1.869.37.129.774-.066.903-.436.129-.37-.066-.775-.436-.904-1.833-.64-3.618-1.264-5.356-1.869-.37-.129-.774.067-.903.437-.129.37.067.774.437.903h0ZM26.616,465.552c1.728.59,3.515,1.206,5.361,1.846.37.128.774-.068.903-.438.128-.37-.068-.774-.438-.903-1.847-.64-3.636-1.257-5.367-1.848-.371-.127-.774.071-.901.442-.127.371.071.774.442.901h0ZM18.192,462.74c1.716.555,3.509,1.149,5.378,1.779.371.125.774-.075.898-.446.125-.371-.075-.774-.446-.899-1.873-.631-3.671-1.226-5.394-1.784-.373-.121-.773.084-.894.456-.121.373.084.773.457.894h0ZM9.715,460.149c1.697.478,3.503,1.019,5.417,1.617.374.117.772-.092.889-.466.117-.374-.092-.772-.466-.889-1.924-.601-3.743-1.146-5.455-1.628-.377-.106-.769.113-.875.491-.106.377.113.769.491.875h0Z" fill="#010101"/>
        <path d="M186.176,504.495c1.849.332,3.712.66,5.59.983.386.067.753-.192.82-.579.067-.386-.193-.753-.578-.82-1.875-.323-3.735-.651-5.581-.982-.386-.069-.755.187-.824.573-.069.386.187.754.573.824h0ZM177.428,502.878c1.845.351,3.704.699,5.579,1.042.385.071.755-.184.826-.57.071-.385-.185-.755-.57-.826-1.872-.343-3.728-.69-5.57-1.041-.385-.073-.757.179-.83.564-.073.385.179.756.564.83h0ZM168.696,501.168c1.84.371,3.696.738,5.568,1.102.385.075.757-.176.832-.561.075-.385-.176-.757-.561-.832-1.869-.363-3.722-.73-5.559-1.1-.384-.078-.758.171-.836.555-.077.384.171.758.555.836h0ZM159.984,499.363c1.835.39,3.687.778,5.556,1.162.384.079.759-.168.838-.552.079-.384-.168-.759-.552-.838-1.865-.383-3.714-.77-5.546-1.16-.383-.082-.76.163-.842.546-.081.383.163.76.546.841h0ZM151.292,497.465c1.83.41,3.678.817,5.543,1.222.383.083.761-.16.843-.543.083-.383-.16-.761-.543-.844-1.862-.404-3.706-.81-5.533-1.22-.383-.086-.762.155-.848.537-.086.382.155.762.537.847h0ZM142.62,495.473c1.825.43,3.668.857,5.529,1.282.382.087.762-.152.849-.534.087-.382-.152-.762-.534-.85-1.858-.424-3.698-.851-5.52-1.28-.382-.09-.764.147-.853.528-.09.381.146.763.528.853h0ZM133.971,493.387c1.819.449,3.658.897,5.515,1.342.381.091.764-.144.855-.525.092-.381-.143-.764-.524-.855-1.854-.444-3.689-.891-5.506-1.339-.38-.094-.765.138-.859.519-.094.381.138.765.519.859h0ZM125.345,491.207c1.814.469,3.647.936,5.5,1.401.38.095.765-.135.861-.515.095-.38-.135-.765-.515-.861-1.85-.465-3.68-.931-5.491-1.399-.38-.098-.767.13-.865.509-.098.379.13.766.509.865h0ZM116.743,488.934c1.807.488,3.635.975,5.485,1.46.379.1.767-.127.866-.506.099-.379-.127-.767-.506-.866-1.846-.485-3.672-.971-5.476-1.458-.378-.102-.768.122-.87.5-.102.378.122.768.5.87h0ZM108.166,486.57c1.8.507,3.623,1.013,5.469,1.519.378.104.768-.119.872-.497.104-.378-.119-.768-.497-.872-1.842-.505-3.662-1.011-5.46-1.516-.377-.106-.769.114-.875.491-.106.377.114.769.491.875h0ZM99.613,484.116c1.794.525,3.611,1.05,5.453,1.576.377.107.769-.111.877-.488.107-.377-.111-.769-.488-.877-1.838-.525-3.653-1.049-5.444-1.573-.376-.11-.77.106-.88.482-.11.376.106.77.482.88h0ZM91.087,481.575c1.787.542,3.598,1.086,5.436,1.631.376.111.77-.103.882-.479.111-.376-.103-.77-.479-.882-1.835-.544-3.644-1.087-5.428-1.628-.375-.114-.771.098-.885.473-.114.375.098.771.473.885h0ZM82.586,478.952c1.779.558,3.586,1.12,5.42,1.683.374.115.771-.095.886-.47.115-.375-.095-.771-.47-.887-1.832-.563-3.636-1.123-5.412-1.681-.374-.117-.772.091-.889.465-.117.374.091.772.465.889h0ZM74.111,476.25c1.772.573,3.573,1.151,5.404,1.732.373.118.772-.088.891-.462.119-.373-.088-.772-.461-.891-1.829-.581-3.628-1.157-5.397-1.729-.373-.121-.773.084-.893.457-.121.373.084.773.457.893h0ZM65.658,473.479c1.764.586,3.56,1.178,5.39,1.775.372.122.773-.082.895-.454.122-.372-.082-.773-.454-.895-1.827-.597-3.622-1.188-5.383-1.773-.372-.123-.773.078-.897.45-.123.372.078.773.45.897h0ZM57.225,470.649c1.756.595,3.549,1.199,5.377,1.811.372.124.773-.076.898-.448.124-.371-.076-.774-.448-.898-1.827-.612-3.617-1.215-5.372-1.81-.371-.126-.774.073-.9.444-.126.371.073.774.445.9h0ZM48.809,467.777c1.748.6,3.537,1.213,5.368,1.836.371.126.774-.072.9-.443.126-.371-.072-.774-.442-.9-1.829-.623-3.617-1.236-5.365-1.835-.371-.127-.774.07-.902.441-.127.371.07.774.441.901h0ZM40.402,464.886c1.741.598,3.528,1.214,5.363,1.845.37.127.774-.07.901-.44.127-.371-.07-.774-.44-.902-1.834-.631-3.622-1.246-5.363-1.845-.371-.127-.774.07-.902.44-.128.371.07.774.44.902h0ZM31.992,462.015c1.734.585,3.522,1.195,5.366,1.826.371.127.774-.071.901-.441.127-.371-.07-.774-.441-.901-1.846-.632-3.636-1.242-5.372-1.828-.371-.125-.774.074-.9.445-.125.371.074.774.445.899h0ZM23.561,459.231c1.727.553,3.52,1.142,5.382,1.762.372.124.773-.077.897-.449.124-.372-.077-.773-.449-.897-1.866-.622-3.665-1.212-5.398-1.767-.373-.12-.773.086-.893.459-.12.373.086.773.459.892h0ZM15.08,456.655c1.718.484,3.524,1.022,5.419,1.609.374.116.772-.093.888-.468.116-.374-.093-.772-.468-.888-1.904-.59-3.721-1.131-5.454-1.62-.377-.106-.769.113-.875.491-.106.377.113.769.491.875h0Z" fill="#010101"/>
      </g>
      <g>
        <path d="M684.631,22.725c-43.676,29.699-172.629,31.437-172.629,31.437-97.703,2.605-151.373-17.923-169.446-29.8,17.321-13.891,34.486-18.823,34.486-18.823.243-.122.486-.207.693-.247,1.099-.421,1.821-.627,1.821-.627,0,0,22.319,17.084,131.865,15.817l1.614.199c109.591-.103,134.738-17.49,134.738-17.49,0,0,34.682,15.014,36.858,19.535" fill="#fff"/>
        <path d="M683.055,20.407c-5.199,3.538-11.805,6.737-19.366,9.571-13.234,4.965-29.381,8.818-46.114,11.767-25.104,4.427-51.537,6.837-71.67,8.132-10.067.648-18.561,1.019-24.534,1.228-2.986.104-5.342.168-6.95.206-.804.019-1.42.031-1.835.039-.207.004-.364.006-.468.008-.104.002-.154.002-.154.002h-.018s-.02,0-.02,0c-5.707.152-11.262.225-16.667.225-43.366,0-77.07-4.69-101.987-10.741-12.458-3.025-22.721-6.391-30.888-9.674-8.166-3.281-14.244-6.489-18.29-9.15l-1.539,2.342,1.753,2.186c8.434-6.764,16.86-11.366,23.156-14.261,3.148-1.448,5.762-2.47,7.576-3.125.907-.328,1.614-.564,2.087-.717.237-.076.415-.131.531-.167.058-.018.1-.03.126-.038l.027-.008h.004s-.275-.951-.275-.951l.273.951h.002s-.275-.951-.275-.951l.273.951.252-.073.234-.118.036-.016-.174-.49.097.508c.06-.012.076-.019.076-.019l-.173-.489.097.508.243-.047.232-.089c.501-.192.914-.334,1.194-.426.14-.046.247-.079.315-.1l.072-.022.013-.004-.215-.74.212.741h.003s-.215-.741-.215-.741l.212.741-.771-2.695-1.704,2.226c.437.329,6.005,4.416,23.925,8.451,17.924,4.031,48.225,8.009,98.22,8.01,3.709,0,7.527-.022,11.456-.067l-.032-2.802-.342,2.782,1.785.22h.174c54.944-.053,88.815-4.433,109.06-8.848,20.242-4.417,26.874-8.869,27.269-9.139l-1.594-2.305-1.114,2.572s.032.014.096.042c.998.433,9.638,4.202,18.244,8.386,4.3,2.089,8.597,4.287,11.879,6.191,1.638.949,3.025,1.83,3.987,2.541.479.353.852.665,1.075.883.111.108.184.191.212.226l.013.017h0s.628-.438.628-.438l-.687.331c.036.075.058.105.06.107l.628-.438-.687.331,5.051-2.431c-.194-.4-.412-.711-.638-.994-.44-.542-.924-.988-1.476-1.445-1.032-.846-2.313-1.705-3.82-2.627-2.631-1.607-5.938-3.377-9.45-5.154-5.264-2.661-10.974-5.323-15.378-7.325-4.403-2.001-7.497-3.341-7.508-3.346l-1.428-.618-1.279.885.783,1.133-.765-1.145-.018.012.783,1.133-.765-1.145c-.007.008-6.382,4.252-26.229,8.487-19.843,4.238-53.143,8.468-106.936,8.518l.003,2.803.342-2.782-1.801-.222-.188.002c-3.909.045-7.705.067-11.392.067-49.696.001-79.616-3.963-96.989-7.874-8.687-1.954-14.236-3.894-17.555-5.305-1.66-.706-2.762-1.279-3.422-1.655-.33-.188-.55-.327-.673-.408-.062-.041-.099-.067-.115-.078l-.007-.005-.212.293.216-.29-.004-.003-.212.293.216-.29-.96,1.29.969-1.284-.009-.006-.96,1.29.969-1.284-1.266,1.678,1.269-1.676-.003-.002-1.266,1.678,1.269-1.676h0s-1.656,2.186-1.656,2.186l1.668-2.178-.011-.008-1.656,2.187,1.668-2.178-1.12-.857-1.355.388c-.061.018-.857.247-2.052.704l1.002,2.617-.527-2.753c-.531.105-.976.273-1.427.497l1.261,2.503-.774-2.694c-.108.031-4.528,1.307-11.144,4.35-6.616,3.044-15.433,7.854-24.321,14.98l-3.007,2.412,3.221,2.117c4.46,2.929,10.831,6.27,19.277,9.667,12.666,5.091,29.988,10.292,52.358,14.225,22.368,3.933,49.781,6.595,82.608,6.595,5.455,0,11.06-.074,16.816-.227l-.075-2.802.038,2.802c.055-.002,32.359-.436,70.204-4.598,18.926-2.083,39.236-5.095,57.636-9.474,9.201-2.19,17.926-4.722,25.777-7.666,7.851-2.946,14.829-6.297,20.549-10.184l-3.152-4.635h0Z" fill="#010101"/>
        <path d="M670.791,23.287c1.753-.938,3.394-1.927,4.916-2.973.323-.222.405-.664.183-.987-.222-.323-.664-.405-.987-.183-1.473,1.013-3.07,1.975-4.782,2.891-.346.185-.476.615-.291.96.185.346.615.476.96.291ZM662.635,27.015c1.831-.721,3.583-1.475,5.25-2.265.354-.168.505-.591.337-.945-.168-.354-.591-.505-.945-.337-1.635.775-3.358,1.516-5.162,2.227-.365.144-.544.556-.4.92.144.364.556.544.92.4h0ZM654.193,29.96c1.863-.579,3.667-1.179,5.409-1.805.369-.132.56-.539.428-.908-.133-.369-.539-.56-.907-.428-1.72.618-3.506,1.212-5.351,1.785-.374.116-.583.514-.467.888.116.374.514.583.888.467h0ZM645.604,32.386c1.876-.484,3.708-.983,5.492-1.499.376-.109.593-.502.485-.878-.109-.376-.502-.593-.878-.485-1.769.511-3.588,1.007-5.452,1.488-.379.098-.608.485-.51.864.098.379.485.608.864.51ZM636.935,34.464c1.881-.421,3.728-.851,5.537-1.292.381-.093.614-.477.521-.857-.093-.381-.477-.614-.857-.521-1.8.439-3.637.867-5.511,1.286-.383.086-.623.465-.538.847.086.382.465.623.847.538h0ZM628.221,36.307c1.883-.378,3.738-.762,5.563-1.153.383-.082.627-.459.545-.842-.082-.383-.459-.627-.842-.545-1.819.39-3.668.772-5.545,1.15-.384.077-.633.451-.556.835.077.384.451.633.835.556ZM619.481,37.996c1.882-.351,3.742-.705,5.578-1.063.385-.075.636-.448.56-.832-.075-.385-.448-.636-.832-.56-1.832.357-3.688.71-5.567,1.061-.385.072-.639.442-.567.828.072.385.442.639.828.567ZM610.728,39.592c1.879-.336,3.742-.672,5.585-1.01.385-.071.641-.44.57-.826-.071-.385-.44-.641-.826-.57-1.841.337-3.701.673-5.579,1.009-.386.069-.643.438-.573.823.069.386.437.643.823.574ZM601.971,41.142c1.876-.33,3.739-.659,5.587-.986.386-.068.643-.437.575-.822-.068-.386-.437-.643-.822-.575-1.847.327-3.709.656-5.585.986-.386.068-.644.436-.576.822.068.386.436.644.822.576h0ZM593.149,42.56c.665-.072,1.332-.144,1.999-.217l.047-.007c1.206-.213,2.408-.426,3.606-.636.386-.068.643-.436.576-.822-.068-.386-.436-.644-.822-.576-1.198.211-2.4.423-3.607.637l.124.699-.077-.705c-.667.073-1.333.145-1.998.216-.39.042-.671.392-.629.781.042.389.392.671.781.629ZM584.311,43.483c1.873-.189,3.753-.383,5.641-.582.39-.041.672-.39.631-.78-.041-.39-.39-.672-.78-.631-1.886.199-3.764.393-5.635.581-.39.039-.674.387-.635.777.039.39.387.674.777.635h0ZM575.467,44.343c1.876-.175,3.758-.356,5.646-.542.39-.038.675-.385.637-.775-.038-.39-.385-.675-.775-.637-1.886.185-3.766.366-5.64.541-.39.036-.677.382-.64.772.036.39.382.677.773.64ZM566.614,45.134c1.879-.16,3.763-.325,5.651-.496.39-.035.678-.38.643-.771-.035-.39-.38-.678-.771-.643-1.886.171-3.767.336-5.644.496-.391.033-.68.377-.647.767.033.39.377.68.767.647h0ZM557.753,45.848c1.882-.143,3.767-.292,5.656-.447.391-.032.681-.374.649-.765-.032-.391-.374-.681-.765-.649-1.886.154-3.769.303-5.648.446-.391.03-.684.37-.654.761.03.391.371.683.761.654h0ZM548.883,46.48c1.885-.125,3.772-.256,5.661-.393.391-.028.685-.368.656-.759-.028-.391-.368-.685-.759-.656-1.886.137-3.77.268-5.652.392-.391.026-.687.364-.661.755.026.391.364.687.755.661h0ZM540.004,47.022c1.888-.105,3.776-.217,5.665-.336.391-.024.688-.361.664-.752-.025-.391-.361-.688-.752-.664-1.886.118-3.771.23-5.656.335-.391.022-.691.357-.669.748.022.391.357.691.748.669ZM531.119,47.47c1.891-.085,3.781-.177,5.669-.275.391-.02.692-.354.672-.745-.02-.391-.354-.692-.745-.672-1.885.098-3.772.189-5.659.274-.392.018-.694.349-.677.741.018.391.349.694.741.677h0ZM522.227,47.82c1.894-.064,3.784-.134,5.673-.212.391-.016.696-.346.68-.738-.016-.392-.346-.696-.738-.68-1.885.077-3.772.148-5.662.211-.392.013-.698.341-.685.733.013.392.342.698.733.685h0ZM513.33,48.068c1.896-.042,3.787-.091,5.675-.146.392-.012.7-.338.688-.73-.012-.392-.339-.7-.73-.688-1.884.056-3.772.104-5.665.146-.392.009-.702.333-.694.725.009.392.333.702.725.694h0ZM504.429,48.213c1.898-.02,3.79-.046,5.677-.08.392-.007.704-.33.697-.722-.007-.392-.33-.704-.722-.697-1.883.034-3.772.06-5.666.08-.392.004-.706.325-.702.717.004.392.325.706.717.702h0ZM495.521,48.253c.35,0,.7,0,1.05,0,1.548,0,3.091-.005,4.631-.014.392-.003.707-.322.705-.714-.002-.392-.322-.707-.714-.705-1.536.009-3.077.014-4.622.014-.349,0-.699,0-1.048,0-.392,0-.71.317-.711.708,0,.392.317.71.709.711h0ZM486.622,48.189c1.901.025,3.793.042,5.678.053.392.002.711-.314.713-.705.002-.392-.314-.711-.705-.713-1.881-.011-3.77-.028-5.667-.053-.392-.005-.714.308-.719.7-.005.392.308.714.7.719h0ZM477.724,48.021c1.902.047,3.794.086,5.677.118.392.007.715-.305.722-.697.007-.392-.305-.715-.697-.722-1.88-.032-3.768-.072-5.667-.118-.392-.01-.717.3-.727.692-.01.392.3.717.692.727h0ZM468.828,47.753c1.902.068,3.794.129,5.676.183.392.011.718-.297.729-.689.011-.392-.297-.718-.689-.729-1.879-.054-3.767-.114-5.665-.182-.392-.014-.72.292-.734.684-.014.392.292.72.684.734ZM459.935,47.388c1.902.089,3.793.17,5.673.245.392.016.722-.289.737-.681.015-.392-.289-.721-.681-.737-1.877-.075-3.765-.156-5.664-.244-.391-.018-.723.284-.742.676-.018.391.284.723.676.742h0ZM451.046,46.927c1.902.108,3.792.21,5.671.304.391.02.724-.282.744-.673.02-.391-.282-.725-.673-.744-1.876-.095-3.762-.196-5.662-.304-.391-.022-.726.277-.749.668-.022.391.277.726.668.749h0ZM442.146,46.369c.091.008.182.016.273.024h.015c1.809.122,3.607.236,5.395.345.391.024.727-.274.751-.665.024-.391-.274-.727-.665-.751-1.785-.108-3.58-.222-5.386-.343l-.047.708.062-.707c-.091-.008-.181-.016-.272-.024-.39-.035-.735.254-.769.644-.035.39.254.735.644.769h0ZM433.284,45.474c1.853.211,3.736.41,5.651.597.39.038.737-.247.775-.637.038-.39-.247-.737-.637-.775-1.907-.186-3.783-.385-5.628-.595-.389-.044-.741.235-.785.625-.044.389.236.741.625.785h0ZM424.448,44.351c1.844.259,3.721.507,5.634.743.389.048.743-.229.791-.617.048-.389-.229-.743-.617-.791-1.904-.235-3.774-.482-5.61-.74-.388-.055-.747.216-.801.604s.216.747.604.801ZM415.644,42.989c1.832.31,3.703.609,5.612.897.387.058.749-.208.807-.596.058-.387-.208-.749-.596-.807-1.901-.286-3.763-.584-5.587-.893-.386-.065-.753.195-.818.581-.065.386.195.752.581.818h0ZM406.881,41.376c1.818.363,3.68.716,5.585,1.059.386.069.754-.187.824-.573.069-.386-.187-.755-.573-.824-1.896-.341-3.749-.693-5.558-1.054-.384-.077-.758.173-.835.557-.077.384.173.758.557.835ZM398.17,39.498c1.8.418,3.651.829,5.551,1.23.383.081.76-.164.841-.548.081-.383-.164-.76-.548-.841-1.891-.399-3.732-.808-5.523-1.224-.382-.089-.763.149-.852.53-.089.382.149.763.531.852ZM389.523,37.336c1.778.477,3.614.949,5.508,1.413.381.093.765-.14.858-.52.093-.381-.14-.765-.52-.858-1.885-.462-3.711-.931-5.478-1.405-.378-.102-.768.123-.869.501-.102.378.123.768.501.869h0ZM380.955,34.869c1.747.539,3.566,1.076,5.456,1.61.377.106.769-.113.875-.49.106-.377-.113-.769-.49-.875-1.879-.53-3.687-1.065-5.423-1.6-.375-.115-.772.095-.887.469-.115.374.095.772.469.887h0ZM372.486,32.071c1.706.603,3.502,1.213,5.39,1.825.373.121.773-.084.893-.456.121-.373-.084-.773-.456-.893-1.876-.608-3.66-1.214-5.354-1.813-.37-.131-.775.063-.906.432-.131.369.063.775.432.905ZM364.144,28.903c1.641.669,3.409,1.361,5.306,2.067.367.137.776-.05.912-.418.137-.367-.05-.776-.417-.912-1.883-.701-3.637-1.387-5.264-2.051-.363-.148-.777.026-.925.389-.148.363.026.777.389.925h0ZM355.971,25.298c1.511.723,3.241,1.515,5.191,2.355.36.155.777-.011.932-.371.155-.36-.011-.777-.371-.932-1.933-.833-3.645-1.617-5.14-2.332-.354-.169-.777-.02-.946.334-.169.353-.02.777.334.946h0ZM348.05,21.058c.019.012,1.678,1.088,5.019,2.802.349.179.776.041.955-.307.179-.349.041-.776-.307-.955-1.648-.846-2.876-1.531-3.69-2.004-.407-.236-.71-.419-.911-.543-.1-.062-.175-.108-.223-.139l-.054-.034-.016-.01c-.329-.213-.768-.12-.981.209-.213.329-.12.768.209.981h0Z" fill="#010101"/>
      </g>
    </g>
  </g>
</svg>