<?xml version="1.0" encoding="UTF-8"?>
<svg id="b" data-name="Livello 2" xmlns="http://www.w3.org/2000/svg" width="180mm" height="62.599mm" viewBox="0 0 510.236 177.446">
  <g id="c" data-name="Livello 1">
    <g>
      <path d="M335.25,36.952c-1.998,2.323-3.96,3.614-6.461,5.315.252-7.131,6.987-12.62,5.295-20.164l-2.358-1.987c-1.896-.329-3.187.842-4.876,1.278-1.37.353-3.389.257-4.673.924-1.382.718-3.205,3.666-5.139,4.724-4.077,2.23-9.423,1.456-13.884,2.326l-1.06,7.99,15.458-1.835c-1.236,3.486-4.867,5.4-5.264,9.292-8.354,1.753-16.765,3.322-25.359,3.34,5.458,9.194,9.59,19.885,13.05,30.011,6.333,18.534,12.782,41.349,16.885,60.433.567,2.636.479,7.822,1.173,9.955.172.53,1.994,2.206,2.496,3.257,6.152,12.877-6.583,24.71-19.288,21.932-5.347-1.169-10.535-7.43-14.902-10.517l-1.345,2.189c-1.351,1.115-8.176-.728-10.299-.8-2.675-.091-6.188.751-9.074.555-3.142-.213-4.395-1.35-7.422-1.714l-2.165-4.662c.131-.458,2.02-1.579,2.515-1.738,1.786-.573,14.743-1.298,17.106-1.21,3.337.124,6.886,1.802,10.392,1.041-.153-1.527,1.83-4.623,1.821-5.793-.004-.607-3.569-9.653-4.065-11.433-.851-3.051-.903-6.326-1.862-9.334-.775-2.432-2.276-3.71-3.023-5.894-3.057-8.945-3.885-19.799-6.105-28.972-1.82-7.52-5.347-14.754-7.249-22.434-1.647-6.651-1.487-11.361-2.192-17.896-.1-.93-.992-1.102-1.082-2.853-.061-1.193.425-2.225.289-3.381l-17.029.629c.814,5.444.852,11.069,1.468,16.515.965,8.536,2.453,15.741,2.454,24.601,0,6.201-.554,10.85.168,17.325.213,1.913,1.386,4.601,1.57,6.724.998,11.489-.859,23.741-.038,35.704.805,11.736,5.089,19.863-8.562,26.164-.687.317-1.325.759-2.093.886-8.282-1.282-18.265-5.843-21.013-14.432l-.777.328c-.147,1.083-1.762,2.363-2.781,2.493-4.082.522-10.886-1.118-15.274-1.48-1.003-.083-3.171.663-4.302.497-.86-.126-1.521-1.005-2.199-1.102-1.105-.158-3.29.882-4.653.078l-2.557-3.704c6.72-8.762,21.157-1.988,30.493-4.569,3.445-4.008,1.241-10.117,1.219-15.13-.099-22.032,1.423-44.174,2.151-66.115l4.006-23.194c-2.399-1.297-4.642-.404-6.904-.496-1.958-.079-15.172-.996-15.724.094.603,1.901-.638,3.271-.793,4.689-.311,2.841.329,5.953.094,8.585-.971,10.877-5.742,21.204-7.685,31.603-1.672,8.953-1.859,20.199-4.574,28.926-.56,1.8-2.11,3.145-2.707,5.497-.741,2.922-.684,6.315-1.373,9.367-.531,2.349-3.2,9.271-3.29,10.726-.117,1.887,3.216,7.104,2.723,10.676-.44,3.193-2.933,3.171-4.624,4.715-1.31,1.196-2.311,2.771-3.934,3.892-9.584,6.621-20.138,3.115-26.307-5.971-1.331,1.935-1.914,4.413-4.261,5.296-4.693,1.767-21.897.098-27.035-1.133-1.014-.243-2.773-1.788-3.678-2.432-1.065,1.439-1.372,3.259-2.866,4.498-2.99,2.478-16.574,4.004-20.467,3.343-4.039-.685-10.048-5.6-12.105-9.2-.991,2.218-5.166.149-7.057.02-1.073-.074-3.577.822-4.529.569-.221-.059-3.651-2.167-3.858-2.471-.38-.559-1.116-3.197-.998-3.862l1.614-1.946c2.472.065,5.924-1.345,8.247-1.213,1.296.073,4.744,1.82,5.795.985,1.398-2.804,1.017-4.659,2.597-7.607,1.615-3.014,4.784-4.56,5.953-6.411.861-1.364,1.72-4.835,2.695-6.572,6.841-12.195,14.752-23.793,21.853-35.785,8.236-13.908,18.042-35.659,28.272-47.523.53-.615,1.319-1.29,2.201-1.275l3.556,1.113c.636,4.708-1.754,7.5-4.064,11.087l.395.597,10.13-.756,7.724-11.861c-2.455-.934-7.057-1.859-9.109-3.403-.727-.547-4.42-7.323-4.369-8.012,2.418-4.91,6.583-1.009,10.208-.842,2.164.099,4.305-.688,6.465-.821,1.381-.961-.247-4.664-.4-6.079-.96-1.169-8.119-1.433-9.984-2.257-1.424-.63-2.044-2.089-2.833-2.24-.819-.156-2.091.587-3.675.206-2.31-.555-5.77-4.67-9.959-5.387-1.644-.281-8.961-.222-9.185,1.796-.063.566.138,5.664.272,6.238.464,1.994,2.616,4.536,3.547,6.379.385.763.079,1.682.474,2.445,1.046,2.019,7.276,8.107,1.353,7.64-6.898-4.003-13.228-14.228-13.226-22.315,0-.867.582-8.598.755-9.016,1.275-3.099,8.029-6.252,11.248-6.131,8.154.306,15.676,6.619,18.575,14.043,9.998-.133,19.908-1.781,29.912-2.194,14.535-.601,31.884-1.789,46.17-1.632,12.948.142,26.696,2.603,39.648,3.085,9.079.338,18.504.267,27.615.355,5.469.053,11.718-2.071,16.757.931-1.029-2.869,4.777-7.515,7.019-9.079,5.462-3.809,13.475-4.067,19.873-3.062l1.02.517c3.549,8.167,3.147,18.026-2.769,24.908ZM295.678,29.043c-2.82-.086-5.961.484-8.882-.029-2.769.872-.903,2.925-.892,3.626.014.866-.63,5.216-.127,5.655l11.555-1.042.613-7.754c-.305-.774-1.676-.437-2.267-.456ZM279.381,28.62l-19.416.638-.761.902,2.237,8.763,17.421-.648.519-9.654ZM230.574,26.88l-17.888.92c-1.238.622.627,8.899,1.359,10.267l16.44.984.089-12.171ZM238.534,27.793c-1.373.591-1.14,9.535-.756,11.148l16.37.055-1.207-10.13-14.407-1.074ZM205.315,27.855l-16.464.593-.642,1.277,2.801,7.794,14.805.327-.501-9.992ZM181.88,28.63l-12.117,1.483-.519,1.156,1.454,5.762,12.046.051-.865-8.451ZM279.055,48.307l-10.804.762,7.479,20.306,10.115.84.612-.544c.511-4.599-1.523-7.583-2.88-11.438-.545-1.548-.508-2.884-1.328-4.788-.797-1.85-2.041-3.509-3.194-5.139ZM240.001,49.744l-11.526.908.463,13.014c1.403.277,10.561.713,11.116.015l-.053-13.937ZM179.386,62.839c-.414,2.139-.033,4.942-.372,7.158l10.611-.389,5.72-18.536-11.006-1.065c-2.146,2.366-2.21,5.459-3.006,8.086-.45,1.485-1.686,3.394-1.948,4.745ZM175.721,50.94l-9.76,1.254c-1.785,4.181-3.792,8.347-5.809,12.414-1.038,2.092-3.524,5.331-4.348,7.395-.915,2.292-.984,4.805-2.011,7.066-.888,1.956-3.256,4.093-4.319,5.834-10.908,17.864-20.404,42.649-28.004,62.43-1.298,3.378-3.849,6.353-3.689,10.646,10.144-1.916,20.291.99,30.481-.177.183-1.732.367-4.451.879-6.064.529-1.665,2.413-3.501,2.673-4.472.694-2.585.282-7.586.854-10.74,3.522-19.413,7.879-39.733,13.408-58.704,2.655-9.11,6.076-18.119,9.644-26.883ZM290.376,77.122l-11.556-1.176-.883.626,4.777,17.683c4.147-1.311,7.853-1.894,12.232-1.882l-4.57-15.25ZM240.382,90.01c1.347-5.102.57-10.429-.536-15.585l-10.835.177-.666,1.115.363,14.251,11.674.042ZM123.474,92.042l13.589.073,10.293-20.75-9.498-1.959c-1.704.035-4.925,7.684-6.019,9.475-2.704,4.427-5.865,8.602-8.365,13.161ZM184.002,94.125l3.644-17.904-11.303.242c-1.917.796-1.281,4.505-1.784,6.255l-2.748,9.57c4.42-.352,8.053.473,12.191,1.836ZM286.939,117.087l16.542.019-6.159-18.115c-4.22.06-8.191,2.516-12.708,1.429l-.803.456,3.128,16.211ZM241.699,115.745c.467-6.61-2.599-12.755-.108-19.075l-.58,1.479-12.744.067-1.948,18.564h14.358s1.412-.574,1.412-.574l-.389-.462ZM169.893,98.528l-5.285,18.08,15.729.423,3.001-16.338-13.445-2.166ZM119.93,98.474l-9.95,16.136c.263,1.239,8.179.159,9.901.421,2.066.314,3.551,1.84,5.654,1.749l8.931-18.239-14.536-.067ZM311.11,144.585c1.417-.728-4.828-18.253-5.334-20.413-2.159-1.95-13.929.285-16.542-2.812l-1.038-.077,5.143,23.691c6.094-.671,11.736-3.197,17.771-.389ZM241.412,134.182l.124-11.974c-4.122,2.748-10.933-1.298-14.532.64-2.358,1.269-1.166,5.968-1.281,8.115-.241,4.504-.572,8.974-1.208,13.42l.999-.08c4.504-3.89,11.062-4.302,16.529-2.642.408-2.813-1.473-5.57.409-8.178l-1.039.699ZM162.726,123.379l-4.537,19.842,1.205.25c5.392-2.498,11.276.227,16.784.812l3.849-23.368c-1.001-.935-1.797.93-2.376,1.095-2.871.822-13.558.101-14.925,1.37ZM96.908,138.009l4.395.228c4.052.21,10.612,3.801,12.845,7.346l.747.042c1.42-.591,2.837-8.264,3.472-9.971,1.546-4.159,4.571-9.299,5.445-13.615.074-.368.593-1.777-.175-1.793-5.093,2.29-10.991-.664-16.371-.097l-10.358,17.86ZM242.937,128.975l-.759.137-.452,3.826,1.049-.828c-1.369-.427.249-2.987.161-3.135ZM294.051,159.761c6.352,4.512,17.741,7.107,20.449-2.503l-.944-1.315c-3.192-.763-5.794-3.994-9.473-4.407-3.71-.417-5.237,1.846-8.661,2.334l-1.371,5.89ZM242.105,162.589c.251-.468,2.512-7.298,2.522-7.703.044-1.801-1.208-3.202-2.597-4.145-5.387-3.658-12.515-3.118-15.632,3.045-1.854,3.665-.009,10.932,4.47,11.821,2.485.493,9.903-.535,11.237-3.017ZM109.759,150.373c-4.585-4.848-14.568-5.472-20.102-2.215-3.867,2.276-3.39,11.378.127,14.643,11.712,10.874,26.98-5.021,19.975-12.429ZM158.441,154.749c-.492.258-1.594-.414-2.258.55-1.405,4.772,6.114,7.745,9.806,7.703,1.64-.018,10.215-3.314,10.456-4.629l-1.97-5.403c-3.259-.495-4.974-2.639-8.432-2.394-1.678.119-4.952,1.74-6.45,2.662-.567.349-.967,1.414-1.15,1.51Z"/>
      <path d="M85.167,42.104c2.541-1.242,2.553-2.941,6.67-3.093,11.839-.435,17.532,10.798,19.846,20.685.862.275,10.209-16.078,12.301-7.018,2.131,9.226-4.705,10.843-7.636,18.004l3.873,6.668c-2.893,1.004-5.282-.905-7.744-1.362l-11.045,12.471-.087,1.108,7.557,5.785-.248.839c-5.043,1.887-8.268-.989-12.297-3.038-.713.081-6.095,4.659-7.36,5.4-2.185,1.281-4.143,1.409-6.182,2.713l.176,1.286,10.261,9.181.186.909c-7.365,2.686-10.913-1.649-16.131-5.839l-15.946,14.76.335,1.139c2.536,2.613,14.134,8.728,15.224,10.936.236.479.706,1.857.409,2.31-1.339.5-1.843.778-3.366.594-2.068-.251-11.066-4.441-12.976-5.782-1.169-.821-4.108-3.966-4.901-3.939-4.111,3.195-8.244,6.263-12.473,9.299-1.337.96-3.172,3.151-4.421,3.935-1.007.631-6.222,2.294-6.664,3.174l-.033.745c6.039,4.071,13.517,5.283,20.713,5.048,1.849,1.883,7.782,7.355,5.756,10.114-.153.208-4.025,2.572-4.411,2.672-6.057,1.57-20.108-3.402-25.19-7.097-4.802-3.491-5.142-6.003-8.369-9.694-1.854-2.12-5.573-2.479-2.746-6.742,2.117-3.192,17.178-10.226,21.471-12.85,14.422-8.814,28.407-19.502,39.875-31.734.501-.534,7.782-7.189,7.413-7.569-9.417,4.597-19.861,5.852-27.665-2.416-4.394,3.51-7.493,6.295-13.112,7.771-20.106,5.28-33.868-1.943-44.767-18.873-4.175-14.015.766-25.935,12.228-34.497,2.74-2.047,7.061-3.048,8.72-4.27.299-.22.488-1.207,1.034-1.643,7.657-6.118,13.822-11.937,24.595-9.468,2.758.632,10.755,5.244,12.142,5.315.53.027,2.169-.871,3.189-.95,10.94-.851,16.814,5.68,20.101,15.424.516.35,1.239-.19,1.691-.41ZM35.601,69.85c1.159.236,2.684.013,3.893.202,2.18-3.971-2.464-4.799-2.271-8.25l.383-.682c10.191,1.076,11.57,14.282-.283,14.115-16.454-.232-16.587-27.353,3.755-27.729,10.82-.2,20.43,9.782,21.167,20.357.302,4.339-1.243,8.911-2.129,13.164,8.65,5.778,18.523,1.462,26.939-2.453l6.021,2.209,15.27-17.093c-3.341-7.307-3.215-14.112-10.8-18.546-6.517-3.81-8.428-1.191-14.339,1.456-6.469-5.795-8.672-14.533-18.96-13.762-2.756.207-7.892,2.84-10.199,2.449-2.163-.948-2.528-2.605-4.767-3.862-7.479-4.197-12.366-4.554-19.186,1.237-2.4,2.038-3.153,6.441-6.208,7.72-1.233.516-2.811-.023-4.583.496-4.445,1.301-12.311,11.009-12.842,15.5-.711,6.02,4.471,21.013,9.242,24.694,8.068,6.225,17.661,7.388,27.544,5.766,27.607-4.528,11.88-41.657-10.502-32.897-4.529,4.166-4.316,14.453,2.853,15.909Z"/>
      <path d="M356.13,150.971l-2.039,3.182-1.252.157c-3.251-.757-4.647-2.742-6.22-5.42-5.612-9.551-11.462-23.235-16.179-33.539-8.99-19.64-17.373-39.631-23.235-60.476l1.331-2.802c4.524-2.172,5.208,7.629,7.379,9.828l10.141-1.411c1.031-1.372-10.758-15.226-.877-13.058l19.501,33.243c12.06,15.798,19.793,34.379,31.205,50.485l-1.039,4.052c-.536.197-1.05.086-1.58-.045-4.113-1.012-10.791-14.505-13.242-18.229l-.777-.517c-4.439,2.079-8.546,1.347-13.096,1.83-1.372.146-6.351.448-5.906,2.605,4.136,7.169,6.633,15.393,10.478,22.657,1.411,2.665,2.548,5.81,5.695,6.847l3.32-5.612c3.324-.424,5.953-2.932,9.119-3.695,8.919-2.15,14.413,3.482,20.771,8.572,4.264.197,8.487.497,12.58-.807l1.418.903.6,4.628-3.08,5.01-10.923-.707c-.463,1.649-1.608,3.269-2.208,4.738-.666,1.631-.867,4.359-2.379,6.376-7.543,10.062-30.244-4.624-29.814-12.893l.307-5.902ZM331.103,69.149c-4.14-1.779-7.287-.755-10.344,2.353l5.212,13.891,13.498-1.661-8.366-14.582ZM345.665,92.889l-1.187-.96c-3.89,2.307-9.802,3.588-13.931,1.272l-1.383.646,8.176,19.59c5.272-2.905,11.642-1.772,17.471-2.842l.9-.621-10.048-17.084ZM381.261,149.875c-8.127-10.216-28.382,4.622-12.81,12.615,7.57,3.886,9.45-1.849,13.968-6.37l-.58-5.636c-.164-.238-.398-.382-.578-.609Z"/>
      <path d="M412.109,81.728c-.524,2.997-2.797,6.053-3.183,9.219l-3.721,17.701,36.86,26.533c-3.887,5.43-6.31,14.422-11.294,18.787-6.058,5.306-17.957,7.462-23.021-.322l1.099-4.808c3.814-1.848,8.582-1.918,12.298-3.954.571-.313,7.971-5.92,8.317-6.311.329-.372.8-.834.557-1.39l-9.238-5.977c-.992.198-2,2.453-2.4,2.773-.594.475-11.797,5.092-12.468,5.166-2.45.271-5.673-1.712-4.539-4.386,1.749-2.724,9.988-4.259,12.602-5.801.615-.363,1.686-.978,1.201-1.875l-10.23-7.325c-2.152,1.195-3.911,2.667-6.169,3.758-2.152,1.04-7.255,3.354-9.271,1.921l-1.248-4.012,10.133-5.773.451-1.326-14.032-11.117-1.267-.054c-1.263,1.92-7.964,5.736-9.961,5.976-.972.117-2.296-.207-3.068-.816l-1.065-3.249,7.464-7.422-11.363-11.025c-2.076-.568-7.395,5.062-11.608,2.029-1.145-1.258-1.604-2.109-1.122-3.916.987-2.068,6.755-2.886,5.966-4.985l-9.784-11.055-1.13-.2c-2.011,3.733-8.019,4.066-8.786-.816l3.786-6.37c-2.748-3.206-11.523-9.455-11.608-13.738-.053-2.656.68-4.362,3.553-3.916,4.492.696,25.029,26.134,30.007,31.188,7.687,7.804,16.164,14.787,24.871,21.459,3.597-10.332,8.405-19.992,14.098-29.3l1.784-.223c.482.298,1.068,3.214,1.065,3.85-.013,2.804-3.932,13.631-5.099,16.912-1.545,4.344-3.585,8.484-5.281,12.765l4.977,4.871.551-.362c1.647-5.423,2.527-11.082,4.006-16.54.561-2.07,3.284-13.043,4.836-13.493l1.832.04c-.305,2.176.012,4.788-.359,6.907Z"/>
      <path d="M403.105,14.796c5.744,7.132,9.001,13.689,9.486,23.158l-2.805,3.478-.635-.177c-1.568-4.751-2.472-9.297-4.949-13.688-8.907-15.793-24.723-19.984-40.497-10.704l-.205,1.903c.449.699,14.099,6.615,15.222,6.642,2.007.049,5.331-3.244,7.982-2.183,1.068,1.4-3.027,4.842-2.949,5.289l8.093,6.84,5.591-.732-1.121,4.361c1.457,1.126,6.721,2.895,6.692,4.997-.01.719-.736,1.1-.566,2.052.282,1.581,8.276,5.994,4.765,8.482-4.046,1.408-5.611-2.377-8.574-4.213-9.82-6.084-25.75-1.206-30.941,8.966l14.647-.473c1.486-.459,2.028-4.969,5.14-4.465l1.33.753-1.987,2.045-.216,1.979c2.031-.063,5.574,1.782,7.324,1.68.881-.052,2.369-2.048,3.74-1.842,1.136,1.824,0,2.03-.069,3.768l4.269,2.748-1.206,4.104-1.919.763c-4.17-2.471-8.241-4.425-13.121-4.95-7.71-.83-17.968,3.124-23.849-3.042l.15-1.223c4.055-6.819,9.149-13.599,16.7-16.799,2.841-1.204,5.89-1.815,8.919-2.323l.489-.789c-3.131-2.062-6.211-5.484-9.367-7.378-7.14-4.284-15.505-7.755-22.929-11.176-1.822-.839-5.078-1.087-5.708-3.973-.294-1.348,6.214-6.289,7.5-7.134,14.554-9.567,33.788-11.377,45.575,3.257Z"/>
      <path d="M452.591,28.131l.765,1.358c.404,5.041-8.603,5.851-10.827,9.619,9.791-3.381,20.383-4.731,30.68-2.872,8.56,1.545,22.744,14.335,27.743,21.441,2.325,3.305,9.343,15.85,9.283,19.377-.01.608-.638,1.011-.685,1.463-.151,1.466.972,3.241-1.669,4.28-1.355-.818-3.713-1.891-5.196-2.263-7.708-1.932-16.969-2.352-24.601-4.402-1.739-.467-3.283-.67-4.397-2.285-.325-.996,1.389-3.282,2.586-3.289,8.81.876,17.651,1.317,26.26,3.654l.642-.359c.33-.748-6.97-13.071-7.912-14.28-18.55-23.815-40.318-15.555-63.224-4.606-4.931,2.357-9.81,4.846-14.185,8.174l-.996-.052c-1.211-2.011-1.928-4.33-1.512-6.688,7.131-5.006,11.398-14.332,20.405-16.396l1.444,2.108,4.022-2.069-6.251-7.645.137-4.184,1.69-.357,5.874,5.412c2.942-2.165,4.805-4.805,8.699-5.492l1.225.354Z"/>
      <path d="M439.41,68.257c1.264,1.964-.968,3.232-.523,4.408,13.492,9.05,24.888,33.577,9.914,46.076-1.24-.146-7.055-9.293-8.453-10.993-2.256-2.742-5.165-5.152-7.405-7.929-5.683-7.048-11.084-14.295-16.326-21.697l.923-1.526c2.738-.259,3.793,2.32,5.313,3.699.664.602,1.616.564,2.836,1.882.882.952,2.243,3.28,2.795,4.547l3.24-1.612c.92.916-.335,3.705.032,5,.121.427,4.077,5.607,5.074,5.251l3.479-3.876c1.87,2.745-.324,4.79-.955,7.321l8.862,10.104c1.887-5.273,2.522-10.72.426-16.061-2.703-6.888-12.631-14.874-19.41-17.459-1.619-.617-5.249-.947-6.114-1.67-.665-.556-.322-1.242-.602-1.429-1.904-1.271-4.73-1.413-5.386-4.216l.857-1.471c2.384.004,4.012-1.566,6.455-1.739,2.875-.204,13.43,1.002,14.968,3.391Z"/>
      <path d="M476.075,15.58c1.758,1.759,6.353,4.193,1.956,6.228-6.322-1.84-12.189,1.615-17.351,4.903-2.471,1.574-3.163,4.581-6.508,1.308-.807-.789-4.745-6.596-3.129-7.497,4.047-.89,4.153,2.774,7.204,3.279l11.548-7.706c-7.017-5.602-19.394-12.393-28.472-9.004-9.002,3.361-18.837,23.46-22.296,32.107-1.832,4.581-3.241,11.713-5.681,16.009-.574,1.011-1.404,2.238-2.7,1.503l-1.165-1.343c1.077-14.267,8.307-30.302,16.307-42.139,14.778-21.867,34.503-13.446,50.288,2.35Z"/>
      <path d="M467.508,72.141c-.605-1.293,2.109-7.482,3.095-7.617,3.243,1.485,1.319,6.22,1.099,8.949l-.545.724c-2.903.021-2.875,1.986-3.687,2.573-1.191.861-13.794-1.456-15.831-2.418l-2.957,1.236-3.858-3.119c1.095-2.068,1.638-11.985,3.849-12.614,4.27.57,4.049,6.882,4.073,10.147l14.762,2.14Z"/>
      <path d="M349.053,154.015c.546.096,2.682.947,2.793,1.418-2.535,2.035-.065,7.067-3.086,7.681-1.895.386-13.471.258-15.57-.011-.513-.066-.664-.691-1.203-.789-2.363-.428-4.656.512-5.601-2.611-.74-2.443.675-3.722,2.83-4.462,3.296-1.132,16.416-1.83,19.837-1.227Z"/>
    </g>
  </g>
</svg>