<?xml version="1.0" encoding="UTF-8"?>
<svg id="b" data-name="Livello 2" xmlns="http://www.w3.org/2000/svg" width="160mm" height="68.193mm" viewBox="0 0 453.543 193.303">
  <g id="c" data-name="Livello 1">
    <g>
      <path d="M418.424,101.813c-1.802,1.457-3.221,3.323-4.841,4.95-.229.229-1.001.218-1.163.385-2.532,2.627-4.251,5.897-6.329,8.758-5.497,7.561-10.98,15.376-17.149,22.399-.394.447-2.572,3.695-2.785,3.806l-.518.024-11.299-10.467c-.129-.427.452-.885.721-1.15,1.987-1.944,6.438-4.709,7.668-7.281,2.167-4.529.136-19.438-2.076-24.172-1.019-2.182-2.912-1.439-4.322-3.103-.507-.598-1.484-3.381-1.324-4.091.614-2.716,3.639-4.64,6.371-4.418,4.558.372,5.55,6.736,1.998,9.085-.151.705.085,1.366.245,2.033.392,1.642,4.244,10.289,5.217,11.799.258.398.681.672.843,1.152l.67.082,3.84-15.278c.307-1.49-2.109-2.434-2.483-3.55-1.522-4.576,2.605-8.769,7.256-6.97.229.089,2.294,2.322,2.351,2.483.843,2.336-.545,5.802-2.965,6.565-.65,5.646-.91,11.503,1.241,16.938l.734.607c1.584.434,2.534-1.399,3.255-1.913,4.331-3.092,7.968-6.333,11.439-10.251-.14-2.311-.541-4.718,1.183-6.571,2.151-2.311,6.462-2.367,7.975.707,1.548,3.148-2.093,8.436-5.753,7.441Z"/>
      <path d="M177.119,92.617c11.092-19.965,23.707-61.903-9.296-68.256-4.338-.836-10.827-.053-14.264-3.01-2.567-2.211-3.753-7.341-5.848-10.3-3.27-4.616-10.271-9.043-15.85-10.004-14.936-2.572-30.95,7.468-32.154,23.211-.218,2.823.405,5.717.343,8.338-.116,4.867-4.656,5.973-7.897,8.3-4.767,3.421-10.433,7.639-14.755,11.525-2.185,1.962-5.375,6.24-7.566,7.693-1.201.796-2.285.692-3.484,1.27.024-.167-.053-.336-.229-.365-2.076-.329-3.975-1.553-6.024-1.982-25.99-5.448-44.907,24.784-23.549,42.992,1.401,1.197,3.35,2.033,4.645,3.077,7.506,6.044,3.753,12.524,4.785,20.775.672,3.424,2.024,6.471,3.401,9.535,7.864,10.173,21.839,11.895,33.902,11.741,31.765-.405,64.105-15.654,84.115-40.111.107-.131.007-.476.087-.574.136-.169.583-.145.636-.211.085-.107-.196-.518-.08-.67,3.286-4.204,6.525-8.371,9.083-12.974ZM130.676,7.067c15.298,2.859,20.341,22.842,9.688,33.742-8.5,8.696-24.019,7.612-30.975-2.569-10.489-15.356,3.544-34.49,21.287-31.173ZM136.371,96.036l-.957.053c-.598-4.16.396-9.724,4.961-10.952l1.25.605c3.019,4.082-2.638,7.844-5.254,10.293ZM123.082,105.319c-1.726,1.304-2.912,1.37-4.896,1.789-.085.018-.414.607-1.048.65-.881.056-3.466-.543-3.735-1.617l.002-1.913c1.575-1.818,4.801-2.322,7.094-1.726.828.216,3.577,1.584,2.583,2.819ZM49.705,102.436c-25.235-5.161-18.333-41.94,7.577-37.987,25,3.811,20.537,43.737-7.577,37.987ZM128.966,126.92c-10.571,4.907-33.524,9.617-44.56,8.22-26.679-3.375-20.037-33.546,3.886-31.389.227-.047.247.327.363.34,13.005,1.542,20.183,12.004,19.389,24.786l.601.598,7.955-2.036c18.706-5.641,35.911-19.888,45.159-36.83,3.944-7.225,9.212-21.507,6.716-29.491-1.177-3.764-4.707-5.263-4.013-9.977.385-2.594,3.17-2.772,5.279-2.721,6.827,3.025,4.696,13.585,3.724,19.26-4.483,26.234-20.366,48.035-44.498,59.238Z"/>
      <path d="M448.811,159.011c-1.275.049-3.163,1.072-3.9,2.067-.992,1.339-1.166,2.921-1.333,4.507-2.594.83-5.232,1.146-7.891,1.588-.418.071-3.054,1.27-3.441.211l.202-1.003,4.231-2.939c.202-1.257,1.063-.848,1.595-1.288.921-.765,3.214-2.556,3.88-3.341.331-.392-.058-.903.238-1.083,1.666-.209,3.268.418,4.881-.258.269-.113,2.916-3.119,2.974-3.399.485-2.356-.874-5.911-3.439-6.409-4.158-.805-6.669,2.816-6.416,6.576.013.216.638.552.514,1.168-.194.289-.514.667-.756.91-.603.601-5.824,3.47-6.874,3.964-.405.191-3.388,1.479-3.541,1.366l-.167-1.05c1.279-.44,1.023-1.355,1.502-2.136,1.479-2.42,2.643-5.297,3.933-7.299,1.375-2.131,1.84-.823,3.228-1.611,3.746-2.12,2.647-11.023-3.757-9.764-3.886.765-4.707,5.94-2.754,8.958.067.407-.022.788-.142,1.172-.921,2.95-8.404,10.656-10.996,12.226-9.459,5.728-14.086,1.11-20.762-4.652-5.628-4.858-11.216-9.817-16.684-14.684-12.066-10.734-24.005-26.136-41.243-27.044-.865.398-1.871-.009-2.347-.004-.254,0-.125.34-.832.365-10.458.363-21.919,3.252-32.492,5.668-7.675,1.755-16.021,3.802-23.876,5.859-3.57.934-3.099,1.393-7.543,1.15-11.183-.612-22.951-1.37-34.183-2.363-7.526-.665-28.161-.923-29.8-11.076-1.161-7.196,6.378-22.319,10.022-28.497,9.339-15.837,22.152-33.035,37.083-43.504,5.722-4.011,12.042-7.39,18.849-9.721,1.148-.394,2.794-.961,3.915-1.281.683-.194.418.463.879.323.085-.024,1.001-.874,1.462-.985,7.314-1.766,15.425-2.465,22.808-2.334,2.329.04,4.718-.251,6.994.309.901,3.875,4.814,6.923,8.549,4.282,5.025-3.555,1.057-11.519-4.603-9.181-.707.291-1.386,1.504-2.233,1.557-6.916-2.053-14.044-1.851-21.22-2.974-.18-.029-2.354-.665-2.42-.774-.105-.414.254-.765.556-.952,3.526-2.167,12.489-3.526,16.549-3.633,2.262-.058,4.525.024,6.774.245,1.566,5.69,7.962,6.015,10.482.625.113-1.735-.32-4.947-1.96-5.855-1.486-.825-4.329-.87-5.819-.06-.743.403-1.711,2.22-2.294,2.396-5.895-1.335-11.819-.879-17.863-1.335-.283-.022-.245-.325-.363-.338l-3.037-.283c-.262-.561,1.967-1.515,2.46-1.713,3.268-1.31,7.942-2.496,11.299-3.005.398-.06.756-.652,1.864-.291,3.61,5.657,11.296,2.329,9.853-4.28-.369-1.682-2.983-3.457-4.716-3.459-2.574-.004-4.665,1.993-5.653,4.2-7.543,1.126-15.274,1.878-22.35,4.77l-.42-.14,1.644-2.772c.189-2.374-.547-5.423-3.07-6.313-4.52-1.593-8.068,1.906-7.632,6.413l-11.196,6.202c-5.764,3.392-9.77,8.682-14.52,12.951-4.447,3.993-10.845,6.151-15.837,9.072-15.75,9.207-31.473,21.936-44.794,34.754-4.687,4.514-6.118,12.424-9.016,18.419-11.677,24.15-32.505,43.152-57.561,52.593-.285.109-.879-.06-1.35.116-.303.111-.091.505-.396.616-2.603.961-5.726,1.844-8.429,2.336-9.241,11.176-18.744,22.088-32.483,27.662-3.343,1.357-12.571,4.527-15.708,3.991-.205-.036-.658-.598-1.141-.492-.32-.81-.387-1.724-.093-2.554.525-1.493,3.929-5.477,4.936-7.036,2.231-3.446,8.587-12.54,9.078-16.166l-.031-.756c-9.864-.271-20.711-1.9-28.012-9.172-.229-.227-.607-1.188-.928-1.524-3.862-4.058-10.845-4.95-16.039-6.685l-9.764-1.019c-2.153-3.139-7.161-4.945-9.977-1.546-4.558,5.497,5.112,11.83,8.8,5.886l.941-.133,6.022,4.652.058.807c-.89.752-1.364-.042-1.717.007-1.875.254-4.362.752-6.209,1.01-2.694.374-5.381.77-8.093,1.019l-4.011.981c-2.231-1.971-4.689-2.781-7.501-1.112-5.786,3.432.796,12.509,6.794,7.959.848-.643,1.844-2.227,1.586-3.335l9.054.843,9.908,2.376.031.761-11.719,7.528c-1.264-2.162-5.922-1.043-7.223.721-2.876,3.891,1.119,8.135,5.199,7.786,2.707-.231,4.961-2.532,4.607-5.319.207-.481,8.636-3.644,9.677-3.915,4.256-1.11,17.859-3.65,20.924-.767,3.94,3.711-3.279,10.12-4.689,13.639l-6.344,7.937-1.384,5.659c1.726,8.972,12.309,9.336,19.761,9.646,8.878.369,18.023-.331,26.668-1.346.169-.02,0,.365.274.331.018-.002-.056-.305.12-.327,1.544-.194,3.072-.465,4.46-.685,13.988-2.207,25.069-6.251,37.6-12.662,2.027-1.039,4.318-1.791,5.955-3.355,1.341-.347,2.683.725,3.833,1.028,43.604,11.519,100.722,15.445,146.154,10.32,26.675-3.01,58.146-11.276,81.052-26.072.492-.318,1.493-.719,2.089-.816.334-.845.438-.957-.02-1.742-.242-.414-6.578-5.506-7.41-6.066-1.473-.994-9.35-5.312-10.631-5.355-15.005,6.585-31.197,11.087-47.554,12.696-.309.031-.209.327-.492.351-.881.076-4.313.349-4.879-.069l-.334-1.235c.109-.427,3.804-2.714,4.422-3.039,12.255-6.44,30.018-10.969,43.664-11.517,9.461-.38,21.142,10.217,28.303,15.901,7.234,5.742,12.622,11.592,19.343,17.365,9.172,7.875,17.387,7.09,28.374,3.915,1.177-.34,2.845-1.96,4.182-1.326,2.322-1.749,5.203-2.701,7.826-4.015.923-.463,2.147-.93,2.774-1.259,2.596-1.361,6.042-3.252,8.493-4.776.222-.138.202-.759.514-.95,1.795-1.106,3.813.721,5.802.505,5.613-.612,6.554-10.251-.189-9.993ZM279.838,9.732c.378.107,1.533.977,2.036,1.128l.031.641c-1.228-.636-6.56,3.459-6.985,3.139l-.685-1.299c1.871-1.077,3.248-4.285,5.604-3.608ZM228.922,182.193c-16.967-.968-36.111-4.743-52.177-11.19-.22-.089-.069-.516-.392-.647-.329-.133-1.099,0-1.591-.209-27.469-11.768-14.404-47.007,13.826-43.635,10.404,1.241,22.037,5.368,32.492,6.963,7.092,1.081,14.317,1.668,21.374,2.309,15.011,1.364,39.889-.85,43.435,19.334,5.185,29.504-38.638,28.118-56.967,27.075Z"/>
      <path d="M258.544,159.654l-3.319-2.596-5.788-.062c-.692-.819,2.133-1.575,2.443-1.942l-1.344-3.659c-.042-.458,1.126-.256,1.295-.202.563.18,1.579,1.177,2.485,1.228,1.37.08,2.714-1.286,4.202-.912.832.505-.903,2.498-.963,2.77-.294,1.339.73,3.964.99,5.377Z"/>
      <path d="M261.883,165.162c-.376-.425,1.775-3.048,2.027-3.737,4.627-12.696-15.745-16.411-21.654-7.052-.632,1.139-.734,3.519-1.072,4.656-.013.044-.469.736-.656.625-.024-.61-.405-.525-.501-1.246-1.175-8.711,9.103-14.106,16.631-13.209,10.754,1.284,15.412,14.061,5.225,19.963Z"/>
      <path d="M90.534,131.458c-4.482.127-8.505-5.47-8.518-9.597.102-.463,1.217-1.424,1.662-1.393.08.007,1.355.647,1.45.716,2.672,1.944,3.019,7.668,5.406,10.273Z"/>
      <path d="M141.081,29.9c-.852,5.112-7.773,11.799-13.256,11.799h-3.755c1.404-1.119,2.994-1.588,4.32-2.934,9.557-9.701-3.037-24.65-13.875-17.752-.992.632-2.189,2.979-3.292,3.083-.356-.783,1.637-5.012,2.182-5.782,9.223-13.036,30.53-5.561,27.676,11.586Z"/>
      <path d="M42.05,92.855c-8.284-9.89.078-24.606,12.562-23.736,1.061.073,2.867.376,3.92.63.763.185,1.98.943,2.805,1.15l-.214.454c-.407.269-4.874.747-5.831,1.059-2.992.977-9.621,5.519-11.428,8.04-.1.14-.661,1.468-.496,1.746l3.535,2.714c3.063-4.365,7.408-7.975,12.097-10.511.26.456-3.88,5.615-4.385,6.551-.529.983-2.743,5.615-1.913,6.42l4.5,1.368c.807-.209,1.737-5.715,2.104-6.767.572-1.642,3.737-8.017,5.599-7.902.945.058,3.11,3.904,3.419,4.805,5.541,16.148-16.084,26.145-26.277,13.979Z"/>
    </g>
  </g>
</svg>