<?xml version="1.0" encoding="UTF-8"?>
<svg id="b" data-name="Livello 2" xmlns="http://www.w3.org/2000/svg" width="160mm" height="80.669mm" viewBox="0 0 453.543 228.668">
  <g id="c" data-name="Livello 1">
    <g>
      <path d="M197.9,53.18c1.171,5.893-7.695,7.212-11.639,9.211-7.073,3.593-9.998,11.916-14.253,18.08-2.722-1.007-5.305-2.552-8.368-1.703-3.478.953-6.314,4.866-5.253,8.499-3.203-.551-6.669.924-9.595,1.116-.833.054-1.94-.593-2.936-.715-13.892-1.66-10.289,18.594,2.624,15.551-1.329,2.41-1.35,4.571-1.135,7.225.108,1.302,1.164,2.669.374,3.937-17.087,19.145-30.682,41.006-49.803,58.364-4.221,3.832-8.801,7.265-13.128,10.983-5.512,4.743-11.274,12.325-19.19,12.91-1.401.105-2.801-.651-4.054-.541-1.726.151-3.585,1-5.452,1.229-2.193.268-12.164-.062-14.106-.641-2.165-.656-4.965-2.874-7.546-3.707-4.274-1.368-7.293-.117-11.267-3.113-1.042-.782-1.844-1.975-3.016-2.829-3.541-2.58-5.651-1.752-8.391-6.225-.811-1.316-3.407-6.441-3.784-7.781-.561-2.022.189-3.504.018-5.085-.34-3.099-4.837-8.358-5.831-11.58-.526-1.688-.212-3.369-.555-4.97-.334-1.561-1.239-3.196-1.505-5.019-.848-5.778,3.487-9.744,3.333-15.878-.049-1.877-1.656-2.428-2.059-4.209-.168-.728-.121-3.931.113-4.591.216-.593,1.436-1.646,1.881-2.667,1.684-3.877,1.655-6.039,4.595-9.706.983-1.218,7.692-8.317,8.736-7.724.115,1.917-.386,3.553-.301,5.548.123,2.649.348,3.916,1.584,6.343,4.205,8.236,14.401,9.916,22.789,8.619.494.548,1.439.047,2.081-.1.265-.059.525-.138.79-.197.487.55,1.441.053,2.081-.1,9.51-2.242,16.411-3.721,25.317-8.212,25.152-12.684,51.103-32.93,66.697-56.649,1.787-2.707,6.012-8.317,3.691-11.194-1.337-1.654-2.303-2.693-3.668-4.57-.374-.516-1.551-.634-1.457-1.77,2.335-.401,2.005-2.537,3.05-4.065,1.413-2.074,4.857-3.781,7.236-4.424,6.681-1.801,11.105-.982,17.525-1.081,1.046-.016,2.065-.614,3.04-.577.408.01,6.543,2.858,7.447,3.312,5.036,2.542,7.475,4.347,13.295,5.91.713.193,1.55-.24,2.142.34-1.555,2.712,2.426,3.663,3.934,5.245,1.442,1.515,3.501,7.096,3.915,9.204Z" fill="#000100"/>
      <path d="M204.047,158.796c-1.827,2.147-4.933,4.543-7.332,6.046l.855,1.688c-1,.633-9.224,3.679-9.025,4.346l8.617,4.577-7.445,12.572c-4.197-1.193-9.303-6.29-13.221-7.194-1.677-.387-3.585-.083-5.461-.443-2.028-.389-8.975-2.808-10.371-4.049-2.231-1.985-2.332-3.648-2.879-6.395l-16.911-9.501-.776.201-8.581,10.365c-.564.14-1.932-.552-2.528-.832-.962-.452-7.795-4.166-8.094-4.52-1.111-1.313,3.912-9.584,5.024-11.141,4.303-6.022,12.372-13.23,19.461-15.605,1.853-.621,13.03-3.3,14.036-2.015l-10.303,12.689,14.971,8.182c3.806-2.662,7.042-2.21,11.306-1.494l7.279-6.462,3.259,1.678c2.81-2.059,4.093-3.992,5.241-7.159.528-1.457,1.326-2.729.989-4.454l-1.485,4.157c-2.832-.52-2.18-.94-3.863-1.982,2.32-1.445,1.928-6.664,5.25-5.941-1.976-12.62,16.434-14.357,19.105-2.88.392,1.682-.065,3.652.442,5.357l1.342.114,1.799,7.319c-1.122.373-1.192.565-2.774.693l-.795-3.167c-.921.443-.354,2.599-.493,3.068-.854,2.879-4.632,9.821-6.642,12.183ZM204.942,129.253c-1.28-.714-3.409-.947-4.849-.648-7.006,1.457-4.042,9.233-4.867,14.286-.74,4.535-3.494,8.911-7.525,11.152-.207.487,6.576,7.684,7.083,7.835,2.182.649,8.902-8.165,9.994-10.222,2.682-5.05,6.314-18.971.163-22.403ZM148.536,153.054l-1.783-.525-3.978,5.349,15.48,9.008,1.266.104,2.302-6.703-13.286-7.233ZM183.435,153.84c-.773-.326-6.261,6.094-7.452,6.506-1.207.418-1.971-.753-3.017-1.127-3.741-1.339-7.47.826-8.728,4.485-.343.998-.193,2.049-.539,3.045-.699,2.014-2.451,2.603-1.847,5.318.746,3.356,3.17,2.698,5.462,3.3.912.239,1.893,1.205,3.084,1.597,4.274,1.405,7.726.731,10.467-2.943.954-1.279,1.427-3.772,1.94-4.225,1.345-1.187,9.554-3.915,9.848-4.366l-9.217-11.589ZM185.606,173.129c-.525.288-1.467,2.438-2.067,3.17-.961,1.173-2.032,1.827-3.02,2.897l8.004,4.496,3.991-7.071c-.148-.591-4.891-3.151-5.698-3.444-.467-.169-.697-.33-1.21-.049Z" fill="#000100"/>
      <path d="M232.403,88.568c1.497.166,2.301-.759,3.408,1.615l31.1-12.352c3.152,3.414,5.038,7.999,2.049,12.127l14.515-2.566c-3.584-1.308-7.853.631-11.598.8l-.608-5.69c-.834-1.645-2.313-5.394-4.341-5.703-2.949-.45-9.992,4.633-11.939,3.607-10.647-11.03-20.518-22.868-32.091-32.958-7.604-6.63-22.863-18.261-32.43-20.614-5.094-1.253-9.381-1.456-14.39-1.844-1.369-.106-7.53-.577-8.192-.946-1.95-1.086-2.555-4.769-3.518-6.485-.473-.843-2.155-1.711-2.123-2.576,3.541-3.439,6.973-7.674,11.778-9.458,5.005-1.858,9.861-1.908,14.797-2.881,1.764-.348,3.547-1.31,4.992-1.585,2.651-.504,7.102.518,9.954.26C206.977,1.029,209.82,0,213.319,0c7.131,0,15.586,3.133,22.369,2.639.772-.056,1.377-.713,1.776-.723.522-.014,1.033.937,1.601,1.216,1.964.967,4.647,1.472,6.55,2.556,2.749,1.566,11.511,7.985,13.367,10.281,5.076,6.279.007,7.483-.032,12.919-.027,3.809,8.158,12.465,11.041,15.316,26.402,26.109,65.014,38.363,99.977,48.39,14.771,4.236,30.146,6.161,45.081,9.644,2.952.688,5.05,2.358,7.815,3.255,8.391,2.723,19.384,3.162,28.102,5.94,2.703.861,2.695,1.8,2.504,4.552-.211,3.031-3.696,10.163-5.286,12.997-1.342,2.393-3.661,4.159-4.327,6.835-1.228,4.937-.437,11.283-2.109,16.251-2.044,6.076-4.159,5.156-8.795,7.859-4.541,2.647-6.707,10.871-11.381,14.728-1.334,1.101-2.545,1.273-3.759,2.115-1.108.769-2.513,2.678-3.345,3.077-1.825.875-7.261.112-9.556.99-2.905-3.411-7.979-8.59-12.801-5.672-2.114,1.279-2.095,5.319-.721,7.145-1.946-.003-3.948.294-5.889-.005-2.165-.334-3.319-1.634-5.184-2.027-2.387-.503-3.976.191-6.607-.78-4.81-1.775-9.515-5.907-14.458-7.342-1.606-.466-3.317-.403-4.864-.877-3.397-1.04-11.177-6.823-14.352-9.201-11.956-8.955-22.917-19.602-33.621-29.898-.766-15.964-14.893-25.669-27.795-32.217l2.81-3.021c1.365-2.336,4.411-6.54,2.395-9.005-1.154,5.769-4.133,10.295-9.665,12.724,9.669,4.676,23.858,12.218,27.63,22.998,1.145,3.273,1.776,7.256,2.321,10.673l12.386,12.801-15.79-4.302c-.451.039-1.933,2.231-2.682,2.812-8.992,6.974-20.882.889-30.565-.993l5.842,4.003,1.13-1.348,14.582,7.733c1.97.351,5.651-.898,7.531-.76.445.033.487.213.726.475.544.596,4.373,9.687,4.43,10.569l-2.611,1.559c3.012,5.94,7.572,16.789-2.33,18.454-8.16,1.372-12.505-8.671-14.64-14.889l-14.095-4.044-.243-2.892c-10.835-5.383-22.365-13-25.219-25.655l-4.525.25c2.23,4.357,3.586,9.033,4.722,13.78.501,2.096,1.195,3.286,1.53,4.585.91,3.524-.17,9.109.277,12.835l10.601-2.224,1.139.347,2.919,11.69-13.205,1.729c-4.255,4.529-12.389,7.687-18,3.937-.447-.299-.697-1.073-1.068-1.289-1.366-.795-16.713,2.181-19.547,2.251l-3.359-26.947,12.486-2.278,1.775,17.237,4.046-.604c-.49-2.464-.449-5.081,2.114-6.306,1.055-.504,4.027-.547,3.986-1.328l-3.108-9.096,1.987-.492c-1.091-4.174-2.789-8.12-5.052-11.791-1.074-1.742-2.5-3.259-3.566-5.007l1.981,5.403c-.873.389-1.768,1.216-3.073,1.19l-1.286-3.47c-.295-1.325-.686-2.642-.992-3.964l2.378-.594c-1.889-3.642-5.363-7.661-2.271-11.637,3.5-4.501,9.389-3.582,13.515-.632,1.651,1.181,3.253,2.188,4.792,3.241,1.983,1.358,3.853,2.921,5.906,4.181l-1.181,1.981c.836.42,3.091.269,3.438-.633l-.024-4.221c-.127-.092-.51.497-.856.53-.359.034-5.734-3.133-6.245-3.585-1.02-.901-.079-1.547.531-2.428l7.266,4.039,1.332-2.22-6.991-3.511-.371-.891.532-1.067c.36-.423.685-.367,1.173-.282.473.083,6.307,2.929,6.53,3.217l-.328,2.177,5.625-2.01c1.291-6.205,1.002-12.616-.87-18.697-3.298-.844-6.625.488-9.961.502l-.627-2.325,6.738-1.683-1.257-2.228-6.869,1.905-.791-1.659,5.548-3.077-1.63-2.147c-1.735.138-5.307,5.919-6.61,2.638-.491-1.236,2.163-3.08,3.09-4.252.193-.243.538-.427.637-.79-.441-.305-.898-.583-1.429-.696-2.982-.635-3.703,6.301-6.158,3.211-1.146-1.443,2.24-4.427,2.493-6.084ZM239.142,91.939c.811,1.74,1.976,2.062,3.743,1.897,4.735-.441,11.451-1.669,15.992-3.021,1.646-.49,6.619-2.17,7.736-3.105,1.694-1.419,1.051-5.572-.931-6.552l-26.539,10.781ZM279.762,91.058l-36.559,5.339c.186,1.106,1.024,2.076,2.139,2.323,11.322-.811,28.48,5.621,34.419-7.661ZM262.72,105.414c4.352,6.473,4.285,15.133,1.086,22.045-.69,1.491-2.268,2.788-2.067,4.493.218,1.845,1.697,4.102,2.155,6.009,1.607.604,5.009,1.999,6.411,1.165.701-.417,3.764-4.237,4.377-5.138,4.629-6.804,5.014-14.059,2.311-21.77-.432-1.232-3.483-7.579-4.26-8.055-1.05-.643-8.001,1.907-10.013,1.251ZM240.307,155.633c-1.068-8.134-6.522-24.815-14.158-28.875-4.561-2.425-10.065-.338-8.037,5.532,2.132,6.172,8.298,11.874,11.15,19.582.385,1.041.409,2.648.942,3.481.783,1.223,8.333.004,10.103.281ZM284.602,144.146c6.494-.01,13.189-1.365,14.304-8.756,1.256-8.322-1.53-16.603-8.255-21.795,1.117,4.208,3.358,7.278,3.489,11.86.172,6.03-3.611,12.361-7.348,16.812l-2.19,1.879ZM269.28,160.556l2.763-9.183c-3.127-2.007-6.661-4.118-8.826-7.239-3.28-4.728-3.393-14.571-9.364-16.947-3.005-1.196-7.711.183-8.607,3.619-1.801,6.91,3.547,15.636,8.467,20.179,2.529,2.335,11.095,8.509,14.122,9.583.507.18.953.361,1.444-.012ZM238.232,135.522c.259-.541-1.534-1.555-2.073-1.584l.992,2.278,1.081-.694ZM214.053,160.089l-6.412,1.203,2.235,20.643,1.101.389,13.813-1.797c1.034-.592-.186-4.172-1.276-4.496l-8.078,1.388-1.383-17.33ZM240.989,158.427l-11.579.769,3.66,11.294c-.57,1.093-5.022-3.379-7.272-.488-1.779,2.287,1.478,4.839,2.07,6.68.706,2.198-.379,4.64,2.666,6.173,3.645,1.835,9.636-.559,12.252-3.333,3.482-3.691-1.09-7.447-1.618-10.399-.142-.794.362-3.226.334-4.52-.02-.918-.023-5.867-.514-6.175ZM295.453,157.498l-7.155.413-12.218-6.571-4.617,12.732c.056.801.303.447.682.555,3.933,1.125,7.925,2.087,11.845,3.266,2.597,4.132,3.387,10.81,8.02,13.575,2.754,1.644,6.535,1.67,7.502-1.924.999-3.715-2.687-10.399-4.418-13.777l2.844-2.047-2.484-6.222ZM247.536,177.825l7.712-1.26c.579-.692-.802-4.837-1.251-5.853l-7.945,1.169,1.484,5.944Z" fill="#000100"/>
      <path d="M359.559,189.322c.5.3,2.196.129,3.015.311,2.166.482,6.109,1.212,7.051,3.4,2.925,6.793-6.474,4.26-6.766,4.826.552,2.832,1.626,5.685,2.118,8.515.34,1.95.108,7.503,1.271,8.559.703.638,3.559,1.612,4.866,2.556,2.091,1.509,5.86,4.982,4.042,7.796-3.24,5.017-9.864-2.344-11.755-2.238-.498.028-2.12,1.733-2.95,2.171-7.379,3.896-19.696,1.415-20.126-8.374-.269-6.127,11.102-6.741,15.389-5.414l-2.385-13.038c-9.756-.047-21.741,4.012-17.442,16.043,1.021,2.858,8.272,13.023,2.58,14.129-6.776,1.317-11.58-10.152-12.643-15.371-1.582-7.765-.148-16.801-1.417-24.1-.404-2.326-2.015-4.047-1.505-6.456,6.47-2.837,10.258,5.563,11.012,10.821.166,1.155-.381,6.389,1.009,6.326.413-.019,5.043-4.43,6.375-5.263s3.326-1.898,4.766-2.529c1.127-.494,3.873-.504,4.134-1.91.372-2.003-10.708-7.598-5.36-9.968,3.498-1.55,8.348,1.385,10.694,3.849.926.973,3.73,5.183,4.025,5.36ZM355.367,220.656c1.035-2.074-2.805-3.761-4.498-4.239-3.965-1.12-9.272.007-5.548,4.753,1.908,2.431,8.52,2.543,10.045-.514Z" fill="#000100"/>
      <path d="M179.978,136.602c-.186-.061-1.131.451-1.645.23l-.842-1.698c-10.836,3.137-20.711-1.372-24.503-12.215-.608-1.739-.735-3.809-1.416-5.496-.686-1.698-2.368-3.178-2.911-5.249-.628-2.396-.34-6.732,1.022-8.841,1.004-1.555,2.56-2.166,3.463-3.215,1.68-1.95,2.996-4.574,5.188-6.311-.161-.716-6.06-.145-6.834.573-.954.704-.262,2.805-1.613,4.456-4.768,5.826-13.659-2.274-8.659-7.218,1.8-1.781,3.046-1.659,5.341-1.212.793.155,1.605.844,2.176.866,1.714.066,4.553-1.224,6.598-1.45,2.734-.302,5.421.599,8.099.813-.621-1.178-1.607-1.655-2.047-3.081-1.534-4.961,3.893-8.063,7.955-5.349,1.784,1.192,1.835,2.477,2.949,3.504,1.725,1.589,7.206,1.506,9.629,1.919,1.747.298,5.528,1.728,6.691,1.776.115.005-.345-.625,1.577-1.239,1.153,2.996,4.128,4.09,6.106,6.383,2.442,2.832,2.898,5.317,4.541,8.147.689,1.186,2.171,1.82,2.842,3.121,2.91,5.647-1.214,10.581-5.361,14.009-.901.745-2.326,1.145-3.1,1.845-1.239,1.121-2.96,4.437-4.548,6.029-3.298,3.306-7.878,5.239-10.7,8.905ZM169.391,87.466c.115.147,2.83.687,3.59,1.034,2.112.966,4.677,3.042,5.92,5.01,1.677,4.008.415,7.983.493,12.083,1.109-.045.614-.439.789-1.026.485-1.636.74-3.909.5-5.608,1.199-5.663-3.02-9.073-7.503-11.35-1.868-.949-2.515-.323-4.283-2.125-.881-.898-1.366-2.413-3.554-1.651-3.864,1.345.625,8.335,4.048,3.633ZM148.286,93.999c6.683-3.219,15.392-2.519,19.913,3.867,1.337,1.888,2.339,4.2,2.873,6.442l1.187-.299c.463-4.674-5.269-10.22-9.279-11.758-2.945-1.129-8.192-1.14-11.227-.414-1.435.343-2.768,1.322-4.061,1.468-1.534.173-2.236-1.328-4.08.072-2.382,1.809.094,6.273,3.586,4.177.766-.46,1.144-2.768,1.088-3.556ZM178.388,98.256c.332-3.986-3.282-9.031-7.602-7.773-.756.22-4.44,1.642-4.312,2.131,2.183.417,4.474,4.988,5.769,5.53.621.26,5.875.536,6.145.112ZM196.73,100.842c-2.737-7.182-9.839-9.763-16.934-10.5,1.976,2.969,2.74,5.425,2.668,9.012l14.266,1.488ZM166.612,98.259c-3.237-4.115-4.604-3.581-8.019-.09.136,1.068.17.621.775.649,2.446.112,4.899.338,7.244-.559ZM155.134,103.331c-4.697,2.241-2.978,9.9.329,12.661,9.111,7.606,18.31-1.423,11.352-10.489-2.83-3.688-7.613-4.112-11.681-2.171ZM155.51,121.242c.424,2.015,2.614,6.564,4.265,7.766,1.34.975,7.33.177,9.195-.164,4.612-.845,9.055-2.553,13.555-3.776l1.321,3.413-17.438,4.358,4.068.791c8.465.082,15.068-4.238,20.498-10.306l-.393-.738c-6.851,1.62-16.566.551-16.458-8.529.016-1.35,1.892-5.084,2.776-6.159.304-.369,1.176-.658,1.205-.725.074-.174-.684-.998-.75-1.605-.072-.668,1.044-3.904.555-4.228l-4.258-.203.519,4.021-2.707.733c1.011,2.958,1.769,4.563,1.424,7.76-.877,8.136-9.51,10.744-16.188,7.295-.403-.208-.838-.985-1.482-.893.079.398.209.791.293,1.19ZM184.444,102.234l-1.98-.343-.196,1.721,2.176-1.379ZM185.654,105.817c-6.34,2.673-12.559,13.321-1.461,13.946,5.469.308,10.661-.931,14.236-5.268,8.198-9.948-5.072-11.926-12.775-8.678Z" fill="#000100"/>
      <path d="M403.708,184.245c3.572-1.66,15.759-2.733,16.986,2.326,1.226,5.06-7.8,4.517-11.174,5.109-1.582.278-6.01.882-7.126,1.446-1.313.663-3.654,5.173-1.644,5.303,1.781.115,5.047-1.773,7.35-2.135,10.659-1.676,22.18,8.569,16.052,19.321-6.113,10.726-22.679,10.397-30.949,2.679-.437-.408-.687-.664-.726-1.31,6.205-.076,10.576,1.319,16.833-.845,4.292-1.484,11.283-6.653,6.958-11.571-3.947-4.488-11.673-1.375-15.88,1.163-3.819,2.304-13.541,13.307-16.446,4.985-2.013-5.766,3.099-9.742,5.509-14.238-.206-.91-6.923,1.361-8.972-.755-.988-1.021-1.102-1.955-.393-3.19,1.48-2.579,6.241-2.448,9.049-3.325,3.118-.974,5.91-1.993,5.381-5.895-.221-1.628-2.796-4.779-.327-5.904,3.916-1.784,7.973,3.818,9.52,6.837Z" fill="#000100"/>
      <path d="M235.758,88.022c-.439-.213-.961-.973-1.711-1.35-15.523-7.792-28.978-7.578-45.003-1.053-1.52.619-2.466,1.979-4.592,1.449-.398-1.067.247-2.146.689-3.118.998-2.194,5.538-9.539,7.328-10.761,1.579-1.078,4.351-1.534,6.127-2.386,6.8-3.26,11.999-6.821,11.949-15.061-.005-.805-.939-3.48.365-3.482,11.646,9.347,21.393,20.712,31.582,31.571l.833,1.349c.03.717-6.389,3.414-7.566,2.842Z" fill="#000100"/>
      <path d="M163.367,136.24c.079.019.258.5.546.573,4.337,1.096,8.066,1.235,12.543.886,3.347,3.452,7.424,6.131,11.67,8.311.837,1.035-1.35,3.006-2.104,3.834-.972.243-2.252-1.836-4.63-.799-2.244.978-4.872,5.127-6.801,5.739-1.069.339-3.641-.53-5.145-.36-2.107.237-4.03,1.192-6.048,1.702-1.418-1.445-10.367-4.572-10.386-6.222l8.293-10.529c.606-.949,1.318-1.773.957-2.969.366-.112.706-.259,1.106-.164Z" fill="#000100"/>
      <path d="M395.351,213.323c3.188-2.158,5.777-5.248,9.516-6.588,2.175-.779,8.566-2.757,9.529.33.327,5.181-7.887,7.298-11.979,7.666-.72.065-7.67-.018-7.066-1.408Z" fill="#000100"/>
      <path d="M350.272,201.422c.672,1.011,2.209,5.413,1.568,6.164-4.703.91-9.531.676-12.97,4.672-2.617-2.182-.165-6.24,2.174-7.784.367-.242,2.462-1.362,2.688-1.418l6.54-1.633Z" fill="#000100"/>
      <path d="M158.278,134.021c-2.851.002-5.609.503-8.43.86-.616.078-.987.23-1.517-.268l4.955-6.046c.431-.034,5.199,5.099,4.992,5.454Z" fill="#000100"/>
      <path d="M184.831,140.862c-.62-.304-2.387.046-3.234-1.58-.196-.377.097-.935.064-.996l4.548-4.868c5.119,1.058-.906,4.752-1.378,7.444Z" fill="#000100"/>
      <path d="M206.744,83.61c.304,1.989,1.319,4.204,1.537,6.151.141,1.26-2.088.808-2.584.336l-2.222-6.091c.099-.103-.652-1.211,1.993-1.345,1.189-.06,1.161.907,1.277.95Z" fill="#000100"/>
      <path d="M195.547,85.985l3.763,6.633-2.64,1.033-3.699-6.18c.046-.05-.24-.936.352-1.309.906-.571,1.66-.084,2.224-.176Z" fill="#000100"/>
      <path d="M220.911,84.702c.291-1.684,1.68-1.076,2.903-.765.479.246.798,1.563.763,1.954-.005.051-.488.426-.564.827-.469,2.458-.668,6.819-3.768,3.49.737-1.701.389-3.898.666-5.505Z" fill="#000100"/>
      <path d="M201.096,84.599l2.87,6.436-2.188.578-.689-.101-3.164-6.121c.106-.112-.713-.613.754-1.07,1.843-.574,2.097.261,2.416.279Z" fill="#000100"/>
      <path d="M218.732,84.405c.055,1.127-.843,4.021-.722,5.479l-2.435.337-.41-6.61c.054-.034.026-.804.762-1.014,1.43-.409,2.727.192,2.805,1.807Z" fill="#000100"/>
      <path d="M230.125,87.874l-3.045,5.374-1.887-1.73c.667-1.173.859-3.894,1.267-4.834.985-2.271,4.23-.437,3.665,1.189Z" fill="#000100"/>
      <path d="M209.221,83.412l.055-.874,2.983-.256c.183.13.373,1.16.429,1.527.297,1.957-.082,4.187.689,6.141l-2.455.171-1.701-6.709Z" fill="#000100"/>
      <path d="M238.835,112.645c.484-1.116,7.609.07,8.587.594.849.454.734,2.705-.682,2.839-.32.03-5.91-1.178-6.29-1.354-.955-.441-.998-1.368-1.614-2.08Z" fill="#000100"/>
      <path d="M239.203,116.404c.524-.237,6.494,1.714,7.039,2.153,1.034.832.807,2.88-.923,2.667-.439-.054-6.152-2.045-6.398-2.279-.696-.661-.532-2.172.282-2.54Z" fill="#000100"/>
      <polygon points="247.623 107.547 247.857 110.804 239.958 110.215 239.333 107.884 247.623 107.547" fill="#000100"/>
      <path d="M350.662,219.843l-3.068-.49c.061,1.375,2.317.531,3.068.49Z" fill="#000100"/>
      <path d="M350.662,219.843c-.751.041-3.007.885-3.068-.49l3.068.49Z" fill="#000100"/>
      <path d="M186.276,115.121c-1.863,4.014-7.4-.444-5.039-3.87,2.158-3.132,6.471.786,5.039,3.87ZM184.838,112.236l-1.185.295.395,1.582.785-.195.006-1.681Z" fill="#000100"/>
      <path d="M164.078,109.187c3.551-.896,5.244,5.816,1.185,6.49-3.235.537-4.892-5.555-1.185-6.49ZM165.224,112.921c.891.58,1.378-2.03.199-1.723-.407.106-.51,1.521-.199,1.723Z" fill="#000100"/>
    </g>
  </g>
</svg>