<?xml version="1.0" encoding="UTF-8"?>
<svg id="b" data-name="Livello 2" xmlns="http://www.w3.org/2000/svg" width="160mm" height="88.156mm" viewBox="0 0 453.543 249.89">
  <g id="c" data-name="Livello 1">
    <g>
      <path d="M393.168,32.315c8.142,1.608,15.531,8.972,20.009,15.421.256.369,3.271,3.113,1.814,3.673-5.377-.675-10.712.177-15.949,1.797l-.147.647c4.707.008,9.255-.403,13.934.3,18.609,2.799,38.36,20.589,32.781,41.088-.708,2.603-3.983,6.879-3.089,9.409.033.093,1.339.917,1.544,1.244,4.304,6.825,8.79,14.117,9.391,22.423,1.727,23.838-22.936,39.272-41.779,22.323-1.58-1.421-3.758-4.794-5.211-5.734-2.935-1.897-6.246.212-7.359,3.214l1.564,7.315c3.726,7.887,12.086,14.563,11.712,23.91-.519,12.992-21.283,16.331-19.93,30.496.513,5.371,7.598,11.164-2.683,13.26-3.065,3.575,5.566,9.506.965,12.836-2.999,2.171-12.217.863-16.181.977-33.204.958-63.778,21.106-97.59,9.25-11.558-4.053-16.71-8.766-30.265-7.498l-10.502,1.588c-27.302,4.166-56.377,5.657-83.952.782-7.756-1.371-37.741-6.634-30.899-20.209,1.539-3.054,5.408-3.822,7.568-5.95-.174-2.065.311-12.287,2.508-12.937l2.067.753c.952,2.309,4.1,10.386,7.371,9.108.789-.308,1.503-7.731,1.764-8.946.4-1.869.922-4.649,1.576-6.628,3.1-9.39,7.024-2.61,8.946,2.737.766,2.13,2.138,10.563,5.21,10.587l.935-.033,11.282-13.929,2.796-.126c2.333,3.678,3.935,7.84,4.432,12.186l.583.341c.404-1.098.027-2.391.184-3.432.052-.344.376-.283.397-.423.406-2.675,1.421-13.613,6.257-11.678.515.875,1.83,1.628,2.338,2.406,1.58,2.416,2.434,6.887,3.55,9.646.545,1.346,1.734,2.363,1.592,4.021l1.075-.004c1.652-2.346,2.829-5.698,4.361-8.01.957-1.445,4.213-6.006,5.906-5.608,1.965.462,6.761,10.49,6.63,12.856.584.811,5.327-.462,6.33-.733,13.565-3.665,26.663-9.404,40.652-12.145,25.316-4.961,53.905-.844,75.898,12.902l.985-.039c1.266-1.222,1.426-2.715.881-4.397-.837-2.583-28.166-21.481-32.437-24.558-6.907-4.977-10.964-8.628-18.773-12.508-1.364-.678-3.126-2.895-4.869-2.089-1.749,2.358-2.684,6.864-6.207,6.856-2.072-2.953-1.101-6.799-2.463-10.091-2.715-.871-2.562,3.455-3.349,5.229-1,2.251-2.515,4.097-4.925,2.513-4.358-2.865-7.146-9.744-10.773-12.838-2.319-1.979-6.85-3.978-9.558-5.929-.68-.49-2.853-3.093-3.625-3.093l-.643.239-3.163,6.703-3.413.116c-3.501-3.634-3.659-9.968-7.767-12.986-2.37,2.553-1.338,9.23-6.522,8.195-.174-.095-1.498-3.313-1.583-3.633-.582-2.183-.691-10.681-4.783-9.402-1.705.533-.523,11.396-2.124,13.137-2.481,1.417-5.356-2.918-6.384-4.731-2.462-4.341-4.172-10.51-5.807-15.253l-11.654-7.047c-2.127,1.291-4.406,3.104-6.564,4.272-1.532.829-8.101,4.696-8.822,1.627-.49-2.089,1.587-8.492,2.347-10.845.065-.202,1.669-3.17,1.057-3.275-2.074,1.98-3.931,4.226-6.035,6.176-2.65,2.456-6.379,6.249-10.038,6.274l-.634-.676c-.511-5.253,2.473-9.969,2.733-15.15-2.248-1.427-3.486,1.099-6.338.621-3.018-.506-2.244-7.294-1.49-9.417-.096-.587-4.325-2.944-5.003-4.123-1.246-2.166-.917-4.33.617-6.188,3.42-4.141,28.637-16.323,34-17.024,23.671-.527,46.29,10.536,69.073,16.029,18.733,4.516,39.974,4.653,57.866,11.294,1.863.691,4.452,2.957,6.587,2.401l7.8-11.656c9.074-9.323,8.415-15.569,23.136-13.76,19.806,2.434,42.149,17.418,55.302,32.145,4.351,4.872,8.09,10.115,10.454,16.229l.764.309c-.964-2.368-1.013-5.061-1.777-7.464-8.172-25.71-40.63-43.989-65.966-47.266-4.07-.526-9.256.483-12.694-2.558-4.691-4.149-1.761-14.956,1.73-19.272,7.585-9.379,22.111-7.825,32.452-5.375,4.527-11.738,16.155-15.538,28.013-13.196ZM198.852,82.358c-3.246-.564-11.209-.063-14.163,1.432-.119.06-1.3,1.893-1.531,2.195-.132.172-1.303.806-1.437,1.155-.831,2.155,1.162,4.323,3.083,4.901,4.276,1.288,18.785,2.492,22.443-.054.544-.379,1.009-.937,1.428-1.444.094-.455-1.063-3.119-1.4-3.62-1.319-1.954-6.205-4.18-8.424-4.565ZM231.492,98.784c-8.137-1.939-13.005,6.341-3.882,8.901,1.465.411,6.102,1.085,7.564.99,1.105-.072,2.08-.475,3.115-.795l.492-.875c.988-3.645-4.337-7.518-7.289-8.221ZM286.827,105.032c-6.414-.954-25.841.202-30.952,3.923-5.85,4.258-1.549,11.622,3.411,14.376,8.859,4.921,17.976,5.862,26.046,13.833,3.004,2.967,8.668,13.694,12.478,14.441,9.047,1.773,8.47-16.421,7.831-21.668-1.495-12.281-4.908-22.837-18.814-24.905ZM330.027,120.674c-13.015-1.864-17.748,6.576-17.148,18.411.335,6.607,3.25,24.82,7.319,29.728,13.266,16,43.842-14.443,40.184-30.082-1.759-9.066-22.327-16.908-30.356-18.058ZM379.097,169.936c-13.743-.833-24.908,5.066-18.293,20.491,6.033,14.067,33.031,2.169,28.547-14.226-1.379-5.041-5.493-5.976-10.254-6.265ZM362.08,209.042c-4.011-.6-8.63-1.028-12.399.643l-.605.815c-1.931,5.779,11.103,11.931,15.564,12.495.804.101,4.972.266,5.301-.467l.218-4.28c2.386-1.682,7.521,1.598,6.737-3.216-.857-2.428-12.279-5.611-14.815-5.99Z"/>
      <path d="M98.764,155.862c16.634,2.049,26.259,20.582,12.362,32.457l-1.033,3.962c-2.567,2.644-4.432.513-7.04.674-5.906.364-13.622,3.776-19.777,4.266l-8.1,3.834-.202.677c3.372-.308,4.489.346,6.962,2.417.689,2.065.326,3.258-.639,4.967-3.106,5.505-12.514,7.535-18.196,8.832l-5.135.012.094.785c1.182.91,3.322,1.537,2.823,3.365l-.526.526c-1.389-.063-2.883.135-4.258.029-1.061-.082-6.099-1.165-7.35-1.603-.621-.218-2.616-2.079-3.292-1.538l.339.79c.406.44,5.486,3.702,6.074,3.882,1.542.471,7.013-.082,5.091,2.639-7.936,4.698-15.628,2.237-23.67-.226l-21.55,12.473c-.736.137-1.542-.262-2.172-.588-2.039-1.055-11.459-11.207-9.229-13.261,2.686-.552,4.763-2.986,6.962-4.525,3.313-2.319,6.943-4.155,9.899-7.021.364-1.007-1.656-2.29-2.052-2.912-1.171-1.84-3.488-5.837-3.11-7.919,1.881-5.607,11.979-3.721,16.034-1.816,1.156.543,3.624,3.404,4.625,2.009.951-1.325-.837-3.255-1.1-4.409-1.082-4.75-2.086-10.688,1.285-14.702,3.74-3.178,13.676,2.968,15.691,6.755l1.136-.036c1.696-1.172,3.381-2.423,5.08-3.581,3.027-2.063,9.076-5.706,11.512-8.286.935-.99,10.693-14.701,10.962-15.619.518-1.768-.653-3.955,1.972-5.024,1.985-.809,3.119.042,4.973-.058,1.538-.083,4.607-2.073,6.301-2.306,1.912-.263,6.333-.158,8.254.079Z"/>
      <path d="M81.132,34.981c1.771.308,2.469,2.691,3.535,3.888,13.038,14.637,31.873,17.471,20.431,42.016-.214.458-.318,1.444-.423,1.981l-.663.02c-.398-.723-.6-.955-.509-1.878.053-.541,1.102-3.179,1.176-3.749.361-2.792.694-6.748.379-9.511-.831-7.278-13.071-13.379-19.722-14,.16,1.212.056,2.653.181,3.824,1.147,10.733,4.37,22.687,5.288,33.815.687,8.334-8.396,14.846-15.721,16.332-15.823,1.941-17.199-13.655-5.219-20.711,3.889-2.29,9.106-3.327,13.322-2.762l-3.117-21.063c-.554-7.587-2.398-15.294-3.147-22.824-.053-.532-.738-5.377.106-5.377,1.244.151,2.927-.205,4.105,0Z"/>
      <path d="M167.572.254c.091.024,1.037.672,1.427.627l.568.836c2.344,12.438,16.093,18.531,7,31.639-1.57,2.264-4.257,5-6.976,5.727,1.227-1.572,2.841-3.166,3.894-4.857,3.215-5.164,3.332-9.777-.791-14.567-1.558-1.809-3.809-2.789-5.258-4.708l-.991-.023c-1.121.678-1.5,1.836-1.914,3.009-4.945,13.997-3.155,33.042-23.193,31.516-9.157-.697-11.184-9.964-2.773-14.133,5.208-2.581,10.708-1.593,16.18-.819,2.38-7.639,4.297-15.432,6.62-23.084.799-2.634,1.837-5.265,2.74-7.864.745-2.144-.297-4.304,3.468-3.298Z"/>
    </g>
  </g>
</svg>