<?xml version="1.0" encoding="UTF-8"?>
<svg id="b" data-name="Livello 2" xmlns="http://www.w3.org/2000/svg" width="160mm" height="97.886mm" viewBox="0 0 453.543 277.473">
  <g id="c" data-name="Livello 1">
    <g>
      <path d="M429.044,252.01c-4.161-1.259-7.589-4.308-11.159-6.565-2.809-2.463-3.451.017-3.085,2.719.041.905.416,1.722.531,2.598.093.719.061,1.605.601,2.159,1.932,1.052,2.704,3.22,3.871,4.981.845,1.169,1.996,2.174,2.556,3.494.425.994-.483,1.701-1.453,1.488-1.176-.219-1.87-1.104-2.865-1.704-1.574-.938-3.25-1.594-4.619-2.752-.931-.763-1.68-1.743-2.617-2.512-1.093-.908-2.244-1.319-3.156-2.248-.971-.787-1.778-3.373-3.397-2.783-1.238.628-1.153,2.823-.583,3.918.322.648.795,1.259.798,1.992-.856,3.655,2.427,5.318-3.435,5.924-47.115,3.01-94.329,6.518-141.497,10.12-22.637,1.414-46.8,4.639-69.72,4.635-2.256-.14-.273-3.018.2-4.131.835-1.883,1.526-3.606,2.513-5.362,1.648-6.424,6.086-12.438,9.493-18.435,4.262-7.409,9.211-14.184,14.225-21.132,1.494-2.313,1.919-4.636,4.303-6.349,8.564-10.686,17.173-21.634,25.838-32.473,6.793-6.985,15.481-15.994,14.174-26.38-.617-3.948-3.945-8.478-7.213-11.164-2.351-1.238-4.996-2.454-7.635-2.848-1.425-.256-2.684-1.075-4.12-1.324-1.783-.17-3.089-1.021-4.721-1.94-1.778-.87-3.383-1.582-5.058-2.603-1.807-1.125-4.063-1.45-5.756-2.731-4.025-2.902-6.793-7.038-9.368-10.999-1.146-1.517-2.567-2.796-3.202-4.616-3.726-8.743-7.016-19.121-14.723-25.314-.841-.806-1.462-2.059-2.474-2.703-2.345-1.322-4.872-2.297-7.389-3.27-7.35-3.185-14.857,3.034-22.415,1.479-5.876-1.096-7.234-.513-12.322-4.695-2.436-1.821-4.111-3.834-6.065-6.145-2.383-3.138-4.957-5.539-5.876-8.607-.455-2.205.207-4.501,1.166-6.438,1.605-2.746.615-5.136-2.699-4.887-2.452.021-5.234-.165-7.473.567-2.379,1.123-5.274.336-7.531,1.623-2.6,2.082-5.651,6.44-8.653,8.725-3.6,2.625-7.598,4.39-11.93,5.802-24.739,6.652-50.364,4.998-75.517,5.351-3.625-.144-7.157-.868-10.77-.872-1.058-.138-1.969-.678-2.974-.982-1.187-.371-2.511-.225-3.775-.543-1.785-.429-3.45-1.319-5.039-2.186-1.036-.475-1.889-.648-2.61-1.468-.7-1.108-2.035-2.373-2.53-3.709-.572-1.862-1.19-3.797-1.608-5.671-.992-8.787.935-17.215,1.253-25.788-1.166-5.069,6.473-12.292,10.466-14.658,2.903-1.309,6.584-4.045,9.763-4.427.989-.057,2.446.041,3.603-.035,1.322-.039,2.591-.771,3.89-.947,1.051-.104,2.035.2,3.033-.017,2.872-.887,6.161-.175,9.053-1.391,4.599-.703,9.327-.382,13.952-.81,6.911-.157,13.932-1.324,20.824-.463,2.538-.341,5.112.236,7.676.38,11.056.203,20.54.081,28.955,7.745,2.175,1.75,4.46,2.945,5.611,5.598,1.864,2.429,4.423,4.345,6.935,6.041,3.61,2.363,12.578,6.126,16.241,2.34.913-1.389.528-3.182.565-4.767-.325-4.717.308-9.415,1.959-13.847.457-1.481,1.241-2.859,2.421-3.883,6.035-5.859,12.818-4.521,20.307-6.069,3.964-.869,7.779-2.399,11.575-4.031,1.758-.771,3.535-.039,5.327.043,4.764-.369,6.937.902,10.106,4.278,1.042,1.124,2.355,1.783,3.335,2.901.548.697.657,1.902,1.208,2.403,2.474.937,4.659,2.51,6.439,4.563.794.803,1.959,1.039,2.896,1.581,1.051.676,1.774,1.712,2.939,2.19,3.579,1.62,7.241,3.216,10.89,4.522.92.243,1.902.211,2.779.639.852.425,1.613.856,2.565.979,2.64.315,5.774.093,8.506.483,5.889.618,12.028,1.27,17.977.282,5.44-.829,10.994-2.875,16.539-1.938,1.555.205,2.734.801,4.169,1.326,1.893.18,3.94.916,5.546,1.94,1.86,1.381,3.599,3.037,5.861,3.746,2.264.203,5.902.06,8.361.286,4.673,1.039,9.239,2.816,13.376,5.309,2.176,1.011,3.858,4.79,6.587,3.949,4.989-4.265,4.143-11.827,5.553-17.732.814-5.151,3.02-7.161,6.429-10.243,1.525-1.746,2.916-2.79,4.978-3.692,4.486-2.934,9.329-5.309,13.192-8.945,2.56-1.985,10.069-12.832,13.484-10.576.343.324.311.858.068,1.529-.699,1.914-2.367,6.427-3.214,8.733-.208.891-.881,1.587-1.231,2.078-.278.504-.319.976-.376,1.557-.709,4.103-3.427,7.964-4.778,11.856-.707,2.376-1.584,4.61-1.765,7.12-1.314,5.743-3.367,11.222-4.808,16.966-.448,1.477-.541,3.024-.888,4.517-.107.952-2.074,3.638-.693,4.124,2.033-.476,4.821-1.788,6.922-2.53,3.245-1.486,5.83-3.952,8.238-6.625,10.467-12.98,29.506-10.185,42.887-19.028,3.329-2.42,13.785-8.128,10.577.809-1.732,2.38-6.246,5.953-8.842,8.451-1.364,1.414-2.481,3.516-4.156,4.794-1.165.927-2.664,1.725-3.652,2.684-1.245,1.298-2.335,2.767-3.771,3.937-7.548,7.126-14.983,14.341-21.364,22.516-.404.964-1.927.968-1.634,1.988.192.551.767,1.517,1.175,2.249.208.219.584,1.187.738.417-.11-2.827.116-.952,1.597.265,2.356,1.5-.351,1.547-.809,2.94.042.742,1.181.956,1.805.938,1.025.017,1.326-2.329,2.443-1.623.262.464-.191,1.396.599,1.519,2.871.583,2.092,0,3.389,2.737.311.242.973-.131,1.577.083,1.408.634,2.234,2.237,3.547,3.043,1.423.951,3.318,1.676,4.736,2.798,1.113.858,2.007,1.957,3.086,2.707,1.124.791,2.515,1.147,3.668,1.89.761.477,1.304,1.153,1.963,1.73,1.029.884,2.605,1.159,3.635,2.067.935.794,1.455,1.908,2.395,2.637.799.605,2.086,1.005,2.753,1.938,2.717,4.406,1.416.506,3.001,1.67,3.355,2.337,3.341.77,6.527,4.774.465.346,1.021.231,1.512.634,1.278,1.032,2.628,2.389,3.857,3.374.819.977,2.053.969,2.94,1.928.707.955,1.527,2.11,1.774,3.258.016.517-1.097-.109-1.754-.199-1.967-.202-5.361-.041-7.218-.083-.895-.028-1.649.247-1.079,1.282,2.596,4.186,6.682,7.324,10.172,10.626,3.787,3.739,5.79,8.247-2.085,5.992-.956-.324-1.74-.732-2.412-.482-.9.445-1.41,1.794-.194,2.266,3.135,1.825,5.615,4.902,7.784,7.752.768,1.355,2.253,1.927,3.322,2.932.779.823,1.441,1.807,2.303,2.561,1.497,1.13,2.874,2.31,3.758,4.001,1.505,1.761,3.193,3.424,5.178,4.609,1.763,1.692,3.723,3.165,5.679,4.628,1.316.813,3.781,4.544.582,3.416-4.08-1.114-11.576-3.28-14.269-3.953-.505,0-.185.723-.087,1.05.355,1.123.79,2.54,1.926,3.092,2.298,1.245,3.739,3.821,4.411,6.304.556,1.101,1.213,1.583,1.585,2.732.343,1.3,1.363,3.855-1.726,2.624-.561-.059-.698.565-.987.964-1.223,2.267-3.376-.29-4.972-.787-.686-.289-1.419-.399-2.117-.63-1.136-.367-2.217-1.044-2.651-.171-.46,1.298-.178,2.903.531,4.066,4.804,5.005,1.636,5.666,5.786,11.518.59.886,1.319,1.674,1.591,2.725.312.905.011,1.985.35,2.833.906,1.399,1.73,2.965,2.192,4.55,1.017,2.067,1.646,4.113,1.759,6.376.12,1.571.887,4.417-.552,5.59-2.077.712-3.585-1.495-4.796-2.903-.812-.796-1.835-1.143-2.662-1.976-.755-.734-1.375-1.705-2.137-2.433-3.33-2.654-2.572,4.066-1.722,5.641.562,1.058,1.609,1.814,1.977,2.976.501,1.773,1.444,3.166,2.46,4.772,1.075,1.574,2.545,2.886,2.897,4.84.384,1.098,1.354,1.59,2.025,2.613.319.471.504,1.144.269,1.603-.289.575-1.198.728-1.853.638-1.577-.14-2.939-.984-4.385-1.719-1.323-.677-2.865-.901-4.123-1.705-1.723-1.282-2.988-3.164-5.042-3.962-.715-.3-1.609-.287-1.913.53-.656,1.61.187,3.335.689,4.867.199.972.558,1.913,1.195,2.682.895,1.312,1.155,3.009,2.535,4.026.909.923,1.093,2.299,1.677,3.416.911,1.582,2.368,2.932,2.866,4.789.26,1.615,1.589,2.625,2.345,3.926.466,1.538-1.668,1.699-2.848,1.46l-.044-.007ZM176.569,26.65c-4.251-.907-9.527-.237-11.38,4.12-.375,1.142-1.191,1.938-.998,3.107.568,1.736,2.324,2.924,3.814,3.816,6.791,3.732,18.696,5.552,25.52,1.67.912-.53,2.019-1.517,1.815-2.626-.597-2.431-4.992-4.202-7.365-5.362-3.263-1.45-8.056-3.859-11.36-4.714l-.046-.01ZM66.638,30.917c-6.985-2.779-14.046,2.351-19.883,5.882-1.129.495-1.624-.774-2.284-1.412-1.191-.998-3.299-1.793-4.831-1.694-1.042.078-2.226.388-3.498.838-3.617,1.343-7.395,3.506-9.584,5.894-6.194,7.632-8.23,17.072-7.469,26.609.155,1.728.179,3.458.315,5.182.071.695.27,1.376.672,1.95,2.805,3.044,6.656,5.292,10.715,4.544,3.351-.452,6.495-2.92,5.996-6.377-.095-1.406-1.232-2.566-1.419-3.928-.089-1.128.108-2.395.19-3.545.213-2.036.231-3.677.414-5.631.014-.839.484-1.818.044-2.572-.56-.666-1.645-.828-2.481-.892-1.516.035-2.331,2.142-3.735,2.591-1.391.754-1.436,3.929-.418,5.033.467.676,1.349.341,1.862.686.318.812-.931,1.351-1.416,1.845-.568.482-.984,1.278-1.476,1.559-.595.382-1.169-.196-1.462-.742-1.67-3.122-.769-7.067.305-10.255.182-.765.048-1.31-.101-2.039-.515-2.051.626-3.093,2.282-4.164,3.002-1.809,2.391-3.259,3.777-5.863.676-1.052,1.856-2.01,2.814-2.926.61-.586,2.011-.837,2.376.103.22.711-.869.227-1.11.43-.124.116-.164.337-.201.514-.104.512-.249,1.074-.777,1.704-.413.505-.994,1.078-1.053,1.742.036,1.204,1.834,1.72,2.128,2.836.459,1.849-1.659,2.353-3.124,2.04-.761-.113-1.4.713-1.348,1.357.045.45.518.612.912.771.963.343,2.505.886,3.469,1.213,1.426.532,1.541-.261,1.942-1.374.459-1.043,1.043-1.888,1.142-.284,0,.669.121,1.217-.25,1.918-.272.538-.652,1.102-.607,1.72.023.599.436,1.344.487,2.17.097,1.35-.553,2.607-.57,3.938-.099,2.693-.291,7.19-.206,10.335.608,2.328,3.759,4.56,6.044,5.236,5.506,1.674,8.8-3.141,13.868-3.442,1.035-.063,2.269.028,3.096-.663,1.467-1.446,1.662-3.799,2.839-5.447.938-1.354,2.411-2.439,3.082-3.979,1.404-3.342,1.351-7.258,2.019-10.783.315-2.336-1.881-2.471-3.272-3.541-1.588-1.936,2.063-2.229,3.326-2.479,1.075-.226,2.25-.347,3.212.293.436.296.936.8.819,1.352-.282.696-.74,1.116.142,1.458,2.266.746-.415,1.215-1.042,2.031-.433.436-.643,1.02-.783,1.178-.277.332-.754-.864-1.405.01-.702,1.085-.414,2.714-.597,3.976-.073,1.86-.839,3.344-1.324,5.088-.344,1.19-.432,2.247-.064,3.356.418,1.157,1.259,1.574,1.106-.091-.063-.531.057-1.131.102-1.187.177.252.307.993.423,1.376.538,1.676,1.748,3.168,1.387,5.027-.136,1.492-1.188,2.827-1.238,4.304.42,2.928,4.589.591,6.361.404,2.616-.528,7.421-.897,6.128-4.68-.511-1.255-2.021-2.069-2.36-3.44-.235-9.072,7.158-17.274,12.174-24.434,1.632-2.747,6.366-5.366,4.047-8.975-.66-.964-1.843-1.608-2.737-2.193-2.185-1.708-4.982-2.712-7.666-1.526-1.331.584-2.297,1.763-2.749,3.135-.174.474-.254,1.085-.606,1.322-.223.131-.523.051-.745.195-.331.13-.362,1.247-.217,1.942.135.829.254,1.941.462,2.516.17.51.49.963.472,1.514-.026.82-.612,1.757-1.38,2.059-1.943.605-2.519-2.718-2.12-4.23.601-2.246,1.397-4.414-.427-6.354-2.189-2.063-6.299-2.738-8.604-.568-.355.339-.723.787-1.237.676-1.051-.337-1.895-1.617-3.023-2.115l-.051-.026ZM106.071,34.848c-1.531-.665-3.973-.599-4.526,1.314-.6,2.412,2.732,4.791,4.411,6.801,1.683,1.863,3.101,5.952,5.655,4.67,2.734-1.374,2.299-3.646,1.009-6.135-1.433-2.619-3.783-5.525-6.502-6.632l-.046-.018ZM304.804,47.226c-.914-.544-1.969-1.453-2.931-.642-.479.343-1.094.796-1.154.985-.03.168.185.169.33.198.706.105,1.692-.08,2.23.473.182.184.306.404.512.568.342.324,1.19.428,1.772.514.812.111,1.335-.121.963-.707-.386-.593-1.116-.946-1.673-1.358l-.048-.032ZM265.849,59.702c-1.764-.153-6.526-.367-7.563,1.153-.374.643-.629,1.57-.476,2.295.13.415.583.471.915.645.349.153.481.458,1.038.625.225.066.462.101.698.144.288.055.619.102.842.247.292.186-.129.615.065.962.313.515,1.002.619,1.576.567.917-.075,1.756-.242,2.617.135,2.17.921,4.201,2.126,6.048,3.57.324.258.65.533.816.908.313.699-.067,1.546.195,2.235.411.916,1.66,1.693,1.736,2.696.103.867-.931,1.005-1.615,1.003-3.859.062-7.564-1.14-11.151-2.475-1.404-.46-2.611-1.439-4.045-1.805-.79-.133-1.657-.095-1.749.725-.038.882.777,2.627,1.031,3.684.012.116.082.219-.006.288-.179.081-1.134-.56-1.103-.003.084.606.569,1.163.935,1.65.382.477.815.824,1.391.651.62-.156,1.246.102,1.641.655.148.217.253.475.247.733-.02.289-.053.503.223.715.243.197.582.358.881.506.879.396,1.731.931,2.265.999.923-.154-2.836-2.015-1.165-1.66.256.063.582.2.844.335,1.844.985,3.838,1.953,5.863,2.309,5.327.948,15.545,1.053,20.403-.846.431-.187.901-.471,1.308-.755.812-.579,1.832-1.276,2.028-1.993.195-.639-.14-1.384-.43-1.995-5.057-9.826-14.933-17.874-26.248-18.898l-.055-.005Z"/>
      <path d="M438.448,189.893c.712.4,1.226,1.09,1.961,1.521,1.821,1.024,4.198,1.825,5.963,2.828.887.504,1.413,1.325,2.245,1.95.926.636,1.693,1.54,2.657,2.06,1.305.484,2.247,1.626,2.231,3.045.108,2.802-.022,9.335-.495,12.9-.117.737-.156,1.239-.601,1.41-.577.221-1.546-.186-2.063-.643-.796-.703-1.419-1.743-2.261-2.358-1.436-1.141-1.897-2.197-2.095-3.982-.406-1.935-1.924-1.408-2.341-3.957-.219-1.059-.869-1.942-1.286-2.915-.253-.6-.35-1.231-.624-1.819-.428-.975-1.448-1.59-2.038-2.585-.492-.755-.641-1.752-1.038-2.413-.352-.603-.904-1.039-1.262-1.641-.699-.916-.706-4.115,1.01-3.419l.039.019Z"/>
      <path d="M443.782,172.654c1.622.315,3.084,1.113,4.697,1.346,3.187.16,4.284.803,4.729,4.186.266,2.164.601,4.743-.006,6.789-.683,1.338-1.937-.42-2.698-.952-.524-.422-1.094-.789-1.624-1.181-1.607-1.078-2.499-2.973-3.959-4.186-.468-.373-1.015-.668-1.409-1.123-.565-.631-.729-1.475-1.379-2.139-.471-.517-1.15-.901-1.434-1.56-.246-.542-.14-1.078.325-1.361.698-.389,1.842.042,2.704.17l.054.012Z"/>
      <path d="M59.53,43.178c5.023,3.986.151,7.784-1.314,12.041-.721,2.062-.935,4.529-1.948,6.456-.732,1.493-2.456,2.485-2.701,4.201-.143.842-.042,2.071-.18,2.742-.081.575-.602.855-1.103,1.044-.636.251-1.56.603-2.23.853-.443.161-.933.306-1.377.11-1.688-.875-1.833-3.688-.65-5.092,1.546-2.117.244-3.838-.356-5.606-.018-.089-.028-.175-.025-.258.119-.959,1.352-1.242,1.891-1.935,1.457-1.726-1.421-3.341-1.671-4.907-.056-.513.325-1.001.673-1.401.643-.701,1.278-1.473,1.676-2.347.817-1.72,1.516-3.739,3.054-4.892,1.683-1.207,4.287-2.037,6.219-1.035l.043.027ZM55.952,46.564c-.566-.101-1.141.478-1.639.731-.5.298-.918.562-.922,1.149-.042.655-.072,1.439-.079,2.079.006.239.041.382.15.432.37.089,1.01-.218,1.468-.32.537-.177,1.108-.243,1.404-.721.376-.866.507-2.768-.348-3.337l-.034-.012ZM50.169,66.29c-.273-.098-.672.075-.981.135-.267.084-.566.092-.648.373-.048.252-.002.485.011.829.063.389-.052.833.186,1.085.23.098.658-.027.958-.049.293-.055.597-.028.831-.208.178-.155.239-.64.275-.984.026-.454-.242-.913-.595-1.163l-.037-.017Z"/>
    </g>
  </g>
</svg>